<svg width="245" height="179" viewBox="0 0 245 179" fill="none" xmlns="http://www.w3.org/2000/svg">
<path d="M79.6676 169.158H158.74C158.211 161.521 165.895 156.649 172.89 153.527C181.686 149.602 190.658 145.669 198.006 139.441C205.355 133.21 210.972 124.208 210.772 114.576C210.55 103.976 203.563 94.7591 201.114 84.4448C198.214 72.2285 201.847 59.5581 203.771 47.1487C205.694 34.7394 205.319 20.521 196.44 11.6403C189.131 4.32555 177.856 2.61305 167.54 3.34953C157.224 4.08601 147.086 6.86033 136.745 6.91754C124.741 6.98547 113.059 3.40316 101.23 1.35102C89.4011 -0.701116 76.5459 -1.05148 66.126 4.91188C54.5403 11.5438 48.0108 25.9838 50.6819 39.0617C52.5414 48.1677 58.3342 56.3405 58.8027 65.6251C59.1924 73.3546 55.8097 80.7695 51.819 87.4014C45.2932 98.252 36.8613 108.155 32.6848 120.11C28.5082 132.066 29.9421 147.346 40.2763 154.668C51.3006 162.472 71.3145 158.547 79.6676 169.158Z" fill="#ECF0F7"/>
<path d="M172.343 47.1307L186.756 21.0305L188.815 22.8163L173.853 50.2902L172.343 47.1307Z" fill="white"/>
<path d="M97.1637 156.728C97.1959 156.721 97.2282 156.71 97.2569 156.696C97.5043 156.585 97.6191 156.295 97.5043 156.044C68.4409 91.0436 43.7743 45.6875 28.052 28.33C27.7041 27.9429 27.4495 27.6669 27.3491 27.5236C27.1913 27.3013 26.8828 27.2476 26.6605 27.4017C26.4381 27.5594 26.3843 27.864 26.5386 28.0898C26.6748 28.2834 26.9187 28.5522 27.3168 28.993C42.9746 46.2753 67.5802 91.5417 96.6042 156.452C96.7046 156.667 96.9413 156.779 97.1637 156.728Z" fill="#7BE1C9"/>
<path d="M18.351 26.0398C20.198 27.9787 28.615 30.8854 29.1673 30.3585C29.7196 29.8317 27.22 21.2909 25.373 19.3519C23.5261 17.413 20.4562 17.3413 18.5196 19.1871C16.5794 21.0364 16.5041 24.1044 18.351 26.0398Z" fill="#7BE1C9"/>
<path d="M34.4609 30.5808C34.0162 33.2831 36.8171 41.9458 37.5917 42.0712C38.3628 42.2002 43.8032 34.8959 44.2515 32.1936C44.6962 29.4912 42.8672 26.9394 40.1667 26.4949C37.4626 26.0505 34.9092 27.8784 34.4609 30.5808Z" fill="#7BE1C9"/>
<path d="M27.0333 47.3182C29.766 47.1462 37.5806 42.4618 37.5304 41.6841C37.4802 40.9028 29.1384 37.2506 26.4021 37.4227C23.6693 37.5947 21.5928 39.953 21.765 42.684C21.9407 45.4187 24.3005 47.4902 27.0333 47.3182Z" fill="#7BE1C9"/>
<path d="M63.4775 72.4065C62.2438 76.8328 65.3567 91.7962 66.6191 92.1475C67.885 92.4987 78.2853 81.2986 79.519 76.8723C80.7527 72.446 78.1598 67.8584 73.7307 66.6255C69.3016 65.3926 64.7111 67.9802 63.4775 72.4065Z" fill="#7BE1C9"/>
<path d="M48.0521 98.9965C52.6462 99.2008 66.5323 92.8033 66.5897 91.4916C66.6471 90.1798 53.3849 82.5745 48.7909 82.3702C44.1968 82.1659 40.3057 85.7213 40.1013 90.3124C39.8969 94.9036 43.4581 98.7923 48.0521 98.9965Z" fill="#7BE1C9"/>
<path d="M77.5133 87.7928C74.8487 92.746 74.5295 111.444 75.9425 112.204C77.3555 112.964 92.7946 102.394 95.4592 97.4411C98.1238 92.4879 96.2697 86.3126 91.3134 83.6497C86.3572 80.9831 80.178 82.8397 77.5133 87.7928Z" fill="#7BE1C9"/>
<path d="M55.078 122.877C60.6941 122.547 76.7931 113.01 76.6998 111.408C76.6066 109.806 59.5035 102.215 53.8873 102.545C48.2712 102.874 43.982 107.691 44.3119 113.308C44.6382 118.924 49.4582 123.207 55.078 122.877Z" fill="#7BE1C9"/>
<path d="M87.6949 108.896C85.0302 113.849 84.7111 132.547 86.1241 133.307C87.5371 134.066 102.976 123.497 105.641 118.544C108.305 113.591 106.451 107.415 101.495 104.753C96.5387 102.09 90.3595 103.946 87.6949 108.896Z" fill="#7BE1C9"/>
<path d="M65.2596 143.983C70.8758 143.654 86.9747 134.117 86.8814 132.515C86.7882 130.912 69.6851 123.321 64.069 123.651C58.4528 123.981 54.1636 128.798 54.4935 134.414C54.8199 140.03 59.6399 144.313 65.2596 143.983Z" fill="#7BE1C9"/>
<path d="M107.359 134.536C103.005 138.102 95.5851 155.266 96.6036 156.51C97.6221 157.75 115.923 153.854 120.277 150.288C124.631 146.722 125.265 140.306 121.701 135.959C118.129 131.608 111.709 130.97 107.359 134.536Z" fill="#7BE1C9"/>
<path d="M74.5627 164.961C80.1789 165.337 97.3393 157.886 97.4469 156.284C97.5545 154.682 81.5345 145.016 75.9219 144.639C70.3058 144.263 65.4499 148.51 65.0769 154.119C64.7004 159.732 68.9466 164.585 74.5627 164.961Z" fill="#7BE1C9"/>
<path d="M43.4265 43.6123C42.9746 46.3577 45.8221 55.1565 46.6075 55.2855C47.3929 55.4146 52.9194 47.9956 53.3749 45.2502C53.8268 42.5048 51.9691 39.9136 49.2219 39.462C46.4748 39.0104 43.8819 40.8669 43.4265 43.6123Z" fill="#7BE1C9"/>
<path d="M36.2608 60.7405C39.0402 60.5648 46.9767 55.8088 46.9265 55.0167C46.8763 54.2247 38.3983 50.5116 35.6189 50.6872C32.8395 50.8628 30.7307 53.257 30.9101 56.0346C31.0858 58.8087 33.4814 60.9161 36.2608 60.7405Z" fill="#7BE1C9"/>
<path d="M53.2779 55.5185C52.3168 59.3534 55.3221 72.1449 56.4195 72.4209C57.5133 72.6968 66.2065 62.8335 67.1677 59.0022C68.1288 55.1673 65.8013 51.2822 61.9639 50.3216C58.1302 49.3575 54.239 51.6872 53.2779 55.5185Z" fill="#7BE1C9"/>
<path d="M41.3211 80.0979C45.2661 79.847 56.545 73.0911 56.4733 71.9657C56.4016 70.8403 44.3587 65.5646 40.4102 65.8155C36.4653 66.0664 33.4671 69.4676 33.7182 73.4101C33.9728 77.3525 37.3762 80.3488 41.3211 80.0979Z" fill="#7BE1C9"/>
<path d="M170.521 144.399C170.506 144.392 170.492 144.381 170.477 144.371C170.37 144.285 170.352 144.127 170.438 144.016C193.075 115.673 211.035 96.4555 221.005 89.9038C221.227 89.7569 221.385 89.6529 221.453 89.5956C221.561 89.506 221.719 89.5168 221.808 89.6243C221.898 89.7318 221.887 89.8895 221.78 89.9791C221.686 90.0579 221.536 90.1583 221.281 90.3267C211.354 96.8497 193.433 116.028 170.829 144.331C170.757 144.424 170.625 144.453 170.521 144.399Z" fill="#7BE1C9"/>
<path d="M226.083 90.0185C224.925 90.7389 220.402 91.0973 220.198 90.7676C219.994 90.4378 222.318 86.5456 223.476 85.8252C224.634 85.1048 226.159 85.4596 226.876 86.6172C227.597 87.7749 227.242 89.2981 226.083 90.0185Z" fill="#7BE1C9"/>
<path d="M217.559 90.1977C217.433 91.5883 214.944 95.4985 214.546 95.4627C214.148 95.4268 212.398 91.1331 212.524 89.7425C212.649 88.3519 213.876 87.3305 215.267 87.4559C216.659 87.5814 217.684 88.8107 217.559 90.1977Z" fill="#7BE1C9"/>
<path d="M219.083 99.3979C217.756 98.9643 214.504 95.6562 214.626 95.2799C214.751 94.9 219.331 94.1652 220.658 94.5989C221.985 95.0326 222.705 96.459 222.272 97.7851C221.838 99.1112 220.41 99.8352 219.083 99.3979Z" fill="#7BE1C9"/>
<path d="M197.906 107.122C197.949 109.462 194.502 116.444 193.835 116.454C193.168 116.465 189.471 109.616 189.428 107.276C189.385 104.935 191.25 103.004 193.591 102.96C195.933 102.917 197.866 104.781 197.906 107.122Z" fill="#7BE1C9"/>
<path d="M202.116 122.2C199.824 121.716 193.796 116.788 193.935 116.132C194.075 115.48 201.585 113.422 203.877 113.906C206.168 114.39 207.632 116.641 207.144 118.931C206.66 121.221 204.407 122.683 202.116 122.2Z" fill="#7BE1C9"/>
<path d="M189.019 112.913C189.7 115.695 187.469 124.956 186.673 125.149C185.877 125.343 179.619 118.16 178.938 115.379C178.256 112.598 179.96 109.788 182.743 109.107C185.529 108.43 188.337 110.132 189.019 112.913Z" fill="#7BE1C9"/>
<path d="M195.599 133.077C192.87 132.199 186.153 125.443 186.404 124.662C186.655 123.884 196.058 122.325 198.784 123.203C201.513 124.081 203.008 127.006 202.13 129.73C201.251 132.461 198.328 133.959 195.599 133.077Z" fill="#7BE1C9"/>
<path d="M181.301 122.02C181.983 124.802 179.752 134.063 178.956 134.256C178.159 134.45 171.901 127.267 171.22 124.486C170.539 121.705 172.242 118.895 175.025 118.214C177.808 117.533 180.62 119.239 181.301 122.02Z" fill="#7BE1C9"/>
<path d="M187.882 142.184C185.152 141.306 178.435 134.55 178.686 133.769C178.937 132.991 188.341 131.432 191.066 132.31C193.795 133.188 195.291 136.113 194.412 138.837C193.534 141.568 190.611 143.066 187.882 142.184Z" fill="#7BE1C9"/>
<path d="M168.333 132.153C170.022 134.464 171.489 143.876 170.829 144.36C170.169 144.844 161.641 140.586 159.952 138.271C158.263 135.959 158.768 132.712 161.082 131.024C163.395 129.335 166.64 129.841 168.333 132.153Z" fill="#7BE1C9"/>
<path d="M180.613 151.341C177.798 150.811 170.285 144.948 170.439 144.141C170.59 143.338 179.724 140.614 182.539 141.148C185.355 141.679 187.209 144.392 186.674 147.209C186.147 150.023 183.432 151.872 180.613 151.341Z" fill="#7BE1C9"/>
<path d="M211.473 95.4806C211.348 96.8927 208.816 100.867 208.414 100.832C208.013 100.796 206.234 96.4303 206.359 95.0218C206.485 93.6097 207.733 92.5703 209.146 92.6958C210.559 92.8212 211.602 94.0685 211.473 95.4806Z" fill="#7BE1C9"/>
<path d="M212.818 104.842C211.47 104.401 208.163 101.043 208.289 100.66C208.414 100.276 213.069 99.527 214.418 99.9678C215.766 100.409 216.498 101.86 216.057 103.204C215.615 104.548 214.167 105.283 212.818 104.842Z" fill="#7BE1C9"/>
<path d="M205.092 100.093C205.078 102.107 201.958 108.032 201.384 108.025C200.81 108.021 197.783 102.05 197.798 100.036C197.812 98.0217 199.458 96.4053 201.474 96.4196C203.489 96.4375 205.11 98.0826 205.092 100.093Z" fill="#7BE1C9"/>
<path d="M207.847 113.738C205.932 113.111 201.234 108.34 201.413 107.792C201.592 107.247 208.205 106.183 210.12 106.81C212.036 107.437 213.076 109.498 212.448 111.408C211.824 113.326 209.762 114.365 207.847 113.738Z" fill="#7BE1C9"/>
<path d="M142.573 157.309C142.573 157.309 120.532 119.709 190.805 92.9896C190.805 92.9932 189.443 170.373 142.573 157.309Z" fill="#95E7D4"/>
<path d="M190.895 92.8713L140.658 152.162C137.427 141.034 136.218 113.659 190.895 92.8713Z" fill="#7BE1C9"/>
<path d="M142.778 149.883C142.727 149.883 142.674 149.865 142.631 149.829C142.534 149.747 142.523 149.607 142.605 149.51L190.723 92.7245C190.805 92.6277 190.949 92.617 191.042 92.6994C191.139 92.7818 191.15 92.9216 191.067 93.0184L142.95 149.804C142.907 149.858 142.842 149.883 142.778 149.883Z" fill="#1C2A47"/>
<path d="M165.777 122.741C165.665 122.741 165.569 122.658 165.554 122.544C165.536 122.418 165.626 122.307 165.748 122.289L186.247 119.544C186.369 119.522 186.484 119.612 186.502 119.737C186.52 119.863 186.43 119.974 186.308 119.992L165.809 122.737C165.795 122.741 165.784 122.741 165.777 122.741Z" fill="#1C2A47"/>
<path d="M155.47 134.905C155.456 134.905 155.438 134.905 155.424 134.902C155.302 134.876 155.223 134.758 155.248 134.633L159.297 114.748C159.322 114.627 159.444 114.548 159.566 114.573C159.688 114.598 159.767 114.716 159.742 114.842L155.693 134.726C155.671 134.833 155.574 134.905 155.47 134.905Z" fill="#1C2A47"/>
<path d="M137.025 159.735C137.025 159.735 141.569 128.687 193.1 145.277C193.1 145.274 157.488 188.153 137.025 159.735Z" fill="#7BE1C9"/>
<path d="M193.1 145.274L137.025 159.732C137.025 159.735 152.346 189.798 193.1 145.274Z" fill="#3A6B5F"/>
<path d="M178.479 154.757C178.472 154.757 178.465 154.757 178.454 154.753L165.361 152.087C165.26 152.065 165.196 151.969 165.217 151.872C165.239 151.772 165.336 151.711 165.432 151.729L178.526 154.395C178.626 154.417 178.691 154.513 178.669 154.61C178.655 154.703 178.573 154.764 178.479 154.757Z" fill="#7BE1C9"/>
<path d="M159.895 163.617C159.88 163.617 159.866 163.613 159.855 163.61L142.967 158.363C142.87 158.334 142.817 158.23 142.845 158.133C142.874 158.036 142.978 157.983 143.075 158.011L159.963 163.258C160.06 163.287 160.113 163.391 160.085 163.488C160.06 163.574 159.981 163.624 159.895 163.617Z" fill="#7BE1C9"/>
<path d="M88.215 158.044C88.215 158.044 108.944 122.68 42.8518 97.552C42.8554 97.552 44.1357 170.33 88.215 158.044Z" fill="#7BE1C9"/>
<path d="M42.7688 97.4374L90.0184 153.202C93.056 142.736 94.1928 116.988 42.7688 97.4374Z" fill="#95E7D4"/>
<path d="M88.025 151.073C87.9604 151.073 87.8959 151.044 87.8528 150.994L42.5973 97.5844C42.5184 97.4876 42.5291 97.3443 42.6224 97.2654C42.7192 97.1866 42.8591 97.1973 42.9415 97.2905L88.1971 150.7C88.276 150.797 88.2653 150.94 88.172 151.019C88.129 151.055 88.0752 151.073 88.025 151.073Z" fill="#1C2A47"/>
<path d="M66.3962 125.547C66.3855 125.547 66.3747 125.547 66.3639 125.544L47.084 122.963C46.9584 122.945 46.8724 122.834 46.8903 122.709C46.9082 122.583 47.023 122.494 47.1449 122.515L66.4249 125.096C66.5504 125.113 66.6365 125.225 66.6186 125.35C66.6042 125.465 66.5074 125.547 66.3962 125.547Z" fill="#1C2A47"/>
<path d="M76.0897 136.987C75.9857 136.987 75.8889 136.912 75.8674 136.805L72.0587 118.103C72.0336 117.981 72.1125 117.859 72.2345 117.834C72.3528 117.809 72.4783 117.888 72.5034 118.01L76.3121 136.711C76.3372 136.833 76.2583 136.955 76.1364 136.98C76.1184 136.987 76.1041 136.987 76.0897 136.987Z" fill="#1C2A47"/>
<path d="M93.4339 160.323C93.4339 160.323 89.159 131.12 40.6937 146.725C40.6973 146.725 74.1898 187.053 93.4339 160.323Z" fill="#3A6B5F"/>
<path d="M40.6973 146.725L93.4374 160.323C93.4339 160.323 79.0277 188.601 40.6973 146.725Z" fill="#95E7D4"/>
<path d="M54.4475 155.646C54.4547 155.646 54.4618 155.646 54.469 155.642L66.7844 153.134C66.8776 153.116 66.9386 153.022 66.9207 152.929C66.9027 152.836 66.8095 152.779 66.7163 152.793L54.4009 155.302C54.3076 155.32 54.2467 155.413 54.2646 155.506C54.2825 155.592 54.3614 155.65 54.4475 155.646Z" fill="#3A6B5F"/>
<path d="M71.9239 163.979C71.9382 163.979 71.949 163.975 71.9633 163.972L87.8471 159.036C87.9367 159.008 87.9869 158.911 87.9618 158.821C87.9331 158.732 87.8363 158.678 87.7467 158.707L71.8629 163.642C71.7733 163.671 71.723 163.767 71.7482 163.857C71.7733 163.936 71.8486 163.982 71.9239 163.979Z" fill="#3A6B5F"/>
<path d="M108.416 25.8999C107.968 26.2798 107.541 26.6848 107.14 27.1149C103.833 30.6308 104.048 36.7452 99.4614 39.1179C96.18 40.8167 92.2458 39.3867 88.5627 39.1214C85.8442 38.9243 83.0218 39.4225 80.7302 40.8991C78.4421 42.3758 76.7637 44.9097 76.6848 47.63C76.6059 50.3037 77.9938 52.8125 78.2198 55.4754C78.4242 57.9018 77.6065 60.3999 75.9998 62.2349C74.2856 64.1954 71.829 65.328 69.8027 66.9659C67.7764 68.6038 66.0945 71.2237 66.8835 73.7075C67.7298 76.3704 70.9683 77.589 72.1195 80.1336C73.3567 82.8718 71.7931 85.9649 70.6634 88.7461C69.5337 91.5273 69.1464 95.373 71.7106 96.9356C72.8475 97.6309 74.2712 97.6345 75.5982 97.5127C76.4732 97.4302 77.4057 97.3084 78.1947 97.699C78.6716 97.9356 79.0446 98.3334 79.3781 98.7456C81.3793 101.204 82.6847 104.591 85.6721 105.656C87.2142 106.204 88.9105 105.993 90.5315 105.763C93.9206 105.283 97.4854 104.674 100.118 102.484C104.68 98.6847 104.855 91.556 108.807 87.1261C111.956 83.5958 116.945 82.3916 121.653 81.9328C126.362 81.4741 131.225 81.5493 135.637 79.8398C138.276 78.8183 140.672 77.1661 142.565 75.0658C143.81 73.6824 144.875 72.0122 144.99 70.1557C145.237 66.1451 141.167 63.1381 140.36 59.2028C139.707 56.013 140.908 52.9236 140.955 49.7481C140.998 46.6372 139.556 43.58 138.326 40.7737C135.834 35.1001 131.803 26.7852 126.201 23.6527C120.649 20.5489 113.15 21.8714 108.416 25.8999Z" fill="#1C2A47"/>
<mask id="path-54-inside-1_4_3598" fill="white">
<path fill-rule="evenodd" clip-rule="evenodd" d="M182.54 64.0702L187.042 71.0696L178.34 77.5373L178.341 77.5388C178.341 77.5388 165.94 104.555 154.625 104.77C143.31 104.989 134.825 92.3767 135.044 91.7244C135.262 91.0721 142.442 83.431 142.442 83.431H146.14V83.4345C146.14 83.4345 151.361 90.4234 155.712 90.4234C159.496 90.4234 171.189 76.433 174.164 72.7961C174.2 72.7382 175.749 70.1985 177.226 67.9856C177.319 67.8201 179.564 63.8193 180.895 62.6471C182.255 61.45 184.191 60.2566 184.421 60.744C184.53 60.9756 183.875 61.9934 183.052 63.2717C182.887 63.5288 182.714 63.7963 182.54 64.0702ZM82.6081 103.849C81.7941 101.566 88.8662 93.3158 88.8662 93.3158L78.8891 83.431C78.8891 83.431 69.2276 93.9 68.7399 100.749C68.2759 107.217 87.0236 126.917 90.2777 130.337L90.2778 130.337L90.2778 130.337L90.2778 130.337L90.2787 130.338C90.47 130.539 90.6076 130.683 90.6845 130.765C91.1631 131.277 91.5157 132.214 91.7722 133.22C91.5333 134.623 90.9201 136.56 89.4898 138.998C88.1198 141.335 89.6763 147.98 90.3756 147.972C91.075 147.965 90.7701 143.901 90.7701 143.901C90.7701 143.901 91.2937 148.972 92.176 148.944C93.0582 148.911 92.5884 143.686 92.5884 143.686C92.5884 143.686 93.3881 149.198 94.2883 148.876C95.1885 148.549 94.8908 143.385 94.8908 143.385C94.8908 143.385 96.0671 149.277 96.5548 148.532C96.8643 148.059 96.9326 145.956 96.988 144.253C97.0199 143.272 97.0474 142.424 97.1143 142.098C97.2049 141.656 97.8319 140.189 98.5098 138.602L98.5099 138.601C98.7364 138.071 98.9686 137.528 99.1884 137.005C99.4137 137.314 99.6981 138.179 100.003 139.106C100.461 140.498 100.965 142.031 101.385 142.037C101.948 142.045 101.81 140.061 101.689 138.324C101.648 137.736 101.609 137.177 101.6 136.733C101.564 134.98 98.8209 130.375 98.8209 130.375L98.8208 130.376C98.2104 129.273 97.4975 128.129 96.8707 127.165C95.4904 124.737 92.7127 120.343 89.9693 116.002L89.9692 116.002C86.4682 110.463 83.0229 105.013 82.6081 103.849Z"/>
</mask>
<path fill-rule="evenodd" clip-rule="evenodd" d="M182.54 64.0702L187.042 71.0696L178.34 77.5373L178.341 77.5388C178.341 77.5388 165.94 104.555 154.625 104.77C143.31 104.989 134.825 92.3767 135.044 91.7244C135.262 91.0721 142.442 83.431 142.442 83.431H146.14V83.4345C146.14 83.4345 151.361 90.4234 155.712 90.4234C159.496 90.4234 171.189 76.433 174.164 72.7961C174.2 72.7382 175.749 70.1985 177.226 67.9856C177.319 67.8201 179.564 63.8193 180.895 62.6471C182.255 61.45 184.191 60.2566 184.421 60.744C184.53 60.9756 183.875 61.9934 183.052 63.2717C182.887 63.5288 182.714 63.7963 182.54 64.0702ZM82.6081 103.849C81.7941 101.566 88.8662 93.3158 88.8662 93.3158L78.8891 83.431C78.8891 83.431 69.2276 93.9 68.7399 100.749C68.2759 107.217 87.0236 126.917 90.2777 130.337L90.2778 130.337L90.2778 130.337L90.2778 130.337L90.2787 130.338C90.47 130.539 90.6076 130.683 90.6845 130.765C91.1631 131.277 91.5157 132.214 91.7722 133.22C91.5333 134.623 90.9201 136.56 89.4898 138.998C88.1198 141.335 89.6763 147.98 90.3756 147.972C91.075 147.965 90.7701 143.901 90.7701 143.901C90.7701 143.901 91.2937 148.972 92.176 148.944C93.0582 148.911 92.5884 143.686 92.5884 143.686C92.5884 143.686 93.3881 149.198 94.2883 148.876C95.1885 148.549 94.8908 143.385 94.8908 143.385C94.8908 143.385 96.0671 149.277 96.5548 148.532C96.8643 148.059 96.9326 145.956 96.988 144.253C97.0199 143.272 97.0474 142.424 97.1143 142.098C97.2049 141.656 97.8319 140.189 98.5098 138.602L98.5099 138.601C98.7364 138.071 98.9686 137.528 99.1884 137.005C99.4137 137.314 99.6981 138.179 100.003 139.106C100.461 140.498 100.965 142.031 101.385 142.037C101.948 142.045 101.81 140.061 101.689 138.324C101.648 137.736 101.609 137.177 101.6 136.733C101.564 134.98 98.8209 130.375 98.8209 130.375L98.8208 130.376C98.2104 129.273 97.4975 128.129 96.8707 127.165C95.4904 124.737 92.7127 120.343 89.9693 116.002L89.9692 116.002C86.4682 110.463 83.0229 105.013 82.6081 103.849Z" fill="#B5C4E2"/>
<path d="M182.54 64.0702L181.696 63.5336L181.353 64.0732L181.699 64.6111L182.54 64.0702ZM187.042 71.0696L187.639 71.8722L188.389 71.3147L187.883 70.5286L187.042 71.0696ZM178.34 77.5373L177.744 76.7347L177.005 77.2834L177.491 78.0649L178.34 77.5373ZM178.341 77.5388L179.25 77.956L179.474 77.4676L179.191 77.0112L178.341 77.5388ZM154.625 104.77L154.606 103.771L154.606 103.771L154.625 104.77ZM135.044 91.7244L134.096 91.4065L135.044 91.7244ZM142.442 83.431V82.431H142.01L141.714 82.7462L142.442 83.431ZM146.14 83.431H147.14V82.431H146.14V83.431ZM146.14 83.4345H145.14V83.7669L145.339 84.0331L146.14 83.4345ZM174.164 72.7961L174.938 73.4293L174.982 73.3758L175.018 73.3167L174.164 72.7961ZM177.226 67.9856L178.058 68.5408L178.079 68.5082L178.099 68.474L177.226 67.9856ZM180.895 62.6471L181.556 63.3976V63.3976L180.895 62.6471ZM184.421 60.744L185.325 60.318V60.318L184.421 60.744ZM183.052 63.2717L183.893 63.8129L183.052 63.2717ZM88.8662 93.3158L89.6255 93.9666L90.231 93.2602L89.5701 92.6054L88.8662 93.3158ZM82.6081 103.849L83.5501 103.513L82.6081 103.849ZM78.8891 83.431L79.593 82.7206L78.8569 81.9914L78.1543 82.7528L78.8891 83.431ZM68.7399 100.749L69.7373 100.821L69.7374 100.82L68.7399 100.749ZM90.2777 130.337L91.021 129.668L91.0117 129.657L91.0021 129.647L90.2777 130.337ZM90.2778 130.337L89.5345 131.006L89.5521 131.025L89.5707 131.044L90.2778 130.337ZM90.2778 130.337L89.5707 131.044L89.5915 131.065L89.6134 131.084L90.2778 130.337ZM90.2778 130.337L91.0015 129.647L90.973 129.617L90.9422 129.589L90.2778 130.337ZM90.2787 130.338L91.0031 129.648L91.0024 129.647L90.2787 130.338ZM90.6845 130.765L91.4149 130.082H91.4149L90.6845 130.765ZM91.7722 133.22L92.758 133.388L92.7936 133.178L92.7412 132.973L91.7722 133.22ZM89.4898 138.998L88.6273 138.492L88.6271 138.492L89.4898 138.998ZM90.3756 147.972L90.3859 148.972L90.3756 147.972ZM90.7701 143.901L91.7648 143.798L89.7729 143.976L90.7701 143.901ZM92.176 148.944L92.2084 149.943L92.2125 149.943L92.176 148.944ZM92.5884 143.686L93.578 143.542L91.5924 143.775L92.5884 143.686ZM94.2883 148.876L94.6256 149.817L94.6289 149.816L94.2883 148.876ZM94.8908 143.385L95.8714 143.189L93.8924 143.442L94.8908 143.385ZM96.5548 148.532L97.3917 149.079L96.5548 148.532ZM96.988 144.253L97.9875 144.286V144.286L96.988 144.253ZM97.1143 142.098L96.1347 141.897H96.1347L97.1143 142.098ZM98.5098 138.602L99.4295 138.994L99.4329 138.986L98.5098 138.602ZM98.5099 138.601L97.5902 138.209L97.5868 138.217L98.5099 138.601ZM99.1884 137.005L99.9973 136.417L98.9539 134.981L98.2665 136.617L99.1884 137.005ZM100.003 139.106L100.953 138.793V138.793L100.003 139.106ZM101.385 142.037L101.399 141.037H101.399L101.385 142.037ZM101.689 138.324L102.687 138.255L101.689 138.324ZM101.6 136.733L102.6 136.712V136.712L101.6 136.733ZM98.8209 130.375L99.68 129.863L98.0633 127.149L97.8238 130.299L98.8209 130.375ZM98.8208 130.376L97.946 130.86L99.5646 133.784L99.818 130.451L98.8208 130.376ZM96.8707 127.165L96.0014 127.659L96.0162 127.685L96.0324 127.71L96.8707 127.165ZM89.9693 116.002L89.1178 116.527L89.124 116.536L89.9693 116.002ZM89.9692 116.002L90.8207 115.478L90.8145 115.468L89.9692 116.002ZM181.699 64.6111L186.201 71.6106L187.883 70.5286L183.381 63.5292L181.699 64.6111ZM186.446 70.267L177.744 76.7347L178.937 78.3399L187.639 71.8722L186.446 70.267ZM177.491 78.0649L177.492 78.0664L179.191 77.0112L179.19 77.0097L177.491 78.0649ZM178.341 77.5388C177.432 77.1216 177.432 77.1216 177.432 77.1216C177.432 77.1218 177.432 77.1219 177.432 77.1222C177.432 77.1229 177.431 77.1239 177.431 77.1253C177.429 77.1282 177.427 77.1326 177.424 77.1387C177.419 77.1509 177.41 77.1694 177.399 77.1941C177.376 77.2435 177.341 77.3176 177.295 77.4148C177.203 77.6091 177.066 77.8955 176.888 78.261C176.53 78.9921 176.007 80.0389 175.342 81.2965C174.013 83.8137 172.127 87.1662 169.894 90.5197C167.656 93.8802 165.095 97.2053 162.423 99.6927C159.723 102.205 157.058 103.724 154.606 103.771L154.644 105.77C157.849 105.709 160.977 103.77 163.785 101.157C166.62 98.518 169.281 95.0487 171.559 91.6281C173.84 88.2007 175.762 84.7855 177.111 82.2305C177.786 80.9519 178.32 79.8863 178.685 79.1391C178.867 78.7655 179.008 78.4713 179.103 78.2697C179.151 78.169 179.187 78.0913 179.212 78.0385C179.224 78.0121 179.233 77.9918 179.24 77.978C179.243 77.9711 179.245 77.9658 179.247 77.9621C179.248 77.9603 179.249 77.9588 179.249 77.9578C179.249 77.9573 179.25 77.9568 179.25 77.9566C179.25 77.9562 179.25 77.956 178.341 77.5388ZM154.606 103.771C149.322 103.873 144.613 100.971 141.184 97.8359C139.482 96.2797 138.13 94.6977 137.223 93.4735C136.769 92.8602 136.435 92.3482 136.226 91.984C136.12 91.799 136.058 91.6717 136.028 91.5993C136.012 91.5611 136.015 91.5629 136.023 91.5936C136.026 91.6095 136.035 91.6521 136.039 91.7129C136.041 91.7661 136.043 91.8905 135.992 92.0424L134.096 91.4065C133.994 91.709 134.059 91.9785 134.074 92.0461C134.102 92.1628 134.142 92.2724 134.179 92.3623C134.255 92.5463 134.363 92.7566 134.491 92.9785C134.748 93.428 135.129 94.0067 135.616 94.6641C136.592 95.9813 138.028 97.661 139.835 99.312C143.422 102.592 148.613 105.887 154.644 105.77L154.606 103.771ZM135.992 92.0424C135.952 92.1603 135.906 92.2054 135.981 92.0993C136.028 92.0317 136.102 91.9343 136.205 91.8058C136.409 91.5505 136.697 91.2106 137.046 90.8102C137.742 90.0114 138.653 89.0023 139.563 88.0081C140.471 87.0151 141.374 86.0418 142.049 85.3165C142.386 84.954 142.667 84.6536 142.863 84.4439C142.962 84.3391 143.039 84.2569 143.091 84.201C143.117 84.1731 143.137 84.1517 143.151 84.1373C143.157 84.1302 143.163 84.1247 143.166 84.1211C143.168 84.1193 143.169 84.1179 143.17 84.117C143.17 84.1166 143.171 84.1162 143.171 84.116C143.171 84.1159 143.171 84.1158 143.171 84.1158C143.171 84.1157 143.171 84.1157 142.442 83.431C141.714 82.7462 141.713 82.7462 141.713 82.7463C141.713 82.7464 141.713 82.7465 141.713 82.7466C141.713 82.7468 141.713 82.7472 141.712 82.7477C141.711 82.7486 141.71 82.75 141.708 82.7519C141.705 82.7556 141.699 82.7612 141.693 82.7685C141.679 82.783 141.659 82.8047 141.632 82.8328C141.579 82.8892 141.502 82.9718 141.403 83.0772C141.206 83.288 140.924 83.5896 140.585 83.9536C139.907 84.6814 139.001 85.6593 138.087 86.6581C137.174 87.6557 136.25 88.6792 135.538 89.4966C135.183 89.9042 134.874 90.2684 134.644 90.5558C134.529 90.6986 134.427 90.8323 134.345 90.9483C134.291 91.0258 134.163 91.207 134.096 91.4065L135.992 92.0424ZM142.442 84.431H146.14V82.431H142.442V84.431ZM145.14 83.431V83.4345H147.14V83.431H145.14ZM146.14 83.4345C145.339 84.0331 145.339 84.0333 145.339 84.0335C145.339 84.0336 145.339 84.0338 145.339 84.034C145.34 84.0344 145.34 84.035 145.341 84.0356C145.341 84.0369 145.343 84.0386 145.344 84.0407C145.348 84.0449 145.352 84.0508 145.358 84.0583C145.369 84.0732 145.385 84.0946 145.406 84.1221C145.448 84.1769 145.51 84.2559 145.589 84.3555C145.746 84.5547 145.975 84.8369 146.262 85.1746C146.835 85.8485 147.649 86.7504 148.608 87.6558C149.562 88.558 150.682 89.4846 151.869 90.1908C153.045 90.8902 154.369 91.4234 155.712 91.4234V89.4234C154.879 89.4234 153.919 89.0831 152.892 88.472C151.877 87.8678 150.876 87.0472 149.981 86.2021C149.09 85.3603 148.327 84.515 147.785 83.8785C147.515 83.561 147.302 83.2972 147.157 83.1142C147.084 83.0227 147.029 82.9515 146.993 82.904C146.974 82.8802 146.961 82.8624 146.952 82.8509C146.948 82.8452 146.945 82.8411 146.943 82.8385C146.942 82.8373 146.941 82.8365 146.941 82.836C146.941 82.8358 146.941 82.8357 146.941 82.8357C146.941 82.8357 146.941 82.8358 146.941 82.8358C146.941 82.8359 146.941 82.836 146.14 83.4345ZM155.712 91.4234C156.451 91.4234 157.234 91.0975 157.962 90.6852C158.718 90.2568 159.546 89.6576 160.406 88.955C162.128 87.548 164.07 85.6511 165.965 83.6636C169.76 79.6837 173.446 75.2536 174.938 73.4293L173.39 72.1629C171.907 73.9754 168.259 78.359 164.518 82.2835C162.644 84.2483 160.768 86.0763 159.14 87.4062C158.325 88.072 157.595 88.5942 156.976 88.9451C156.328 89.3122 155.918 89.4234 155.712 89.4234V91.4234ZM175.018 73.3167C175.053 73.2599 176.593 70.7353 178.058 68.5408L176.394 67.4304C174.905 69.6617 173.347 72.2166 173.311 72.2755L175.018 73.3167ZM178.099 68.474C178.141 68.3979 178.716 67.3742 179.441 66.229C180.195 65.0387 181.017 63.8729 181.556 63.3976L180.234 61.8967C179.443 62.5935 178.476 64.0143 177.751 65.1588C176.998 66.3484 176.403 67.4078 176.353 67.4973L178.099 68.474ZM181.556 63.3976C182.193 62.8371 182.961 62.2818 183.575 61.9338C183.892 61.754 184.109 61.6633 184.219 61.6343C184.282 61.6179 184.228 61.6433 184.11 61.6256C183.954 61.602 183.666 61.4895 183.516 61.17L185.325 60.318C185.118 59.8767 184.72 59.6948 184.408 59.6479C184.135 59.6067 183.882 59.6549 183.709 59.7005C183.349 59.7955 182.954 59.9866 182.588 60.1939C181.837 60.6201 180.957 61.2601 180.234 61.8967L181.556 63.3976ZM183.516 61.17C183.398 60.9193 183.439 60.7116 183.442 60.6962C183.449 60.6526 183.456 60.6443 183.44 60.6868C183.407 60.7688 183.337 60.9093 183.217 61.1196C182.981 61.5343 182.628 62.0824 182.211 62.7305L183.893 63.8129C184.298 63.1827 184.685 62.5827 184.954 62.111C185.087 61.8781 185.212 61.6409 185.298 61.4269C185.34 61.3215 185.387 61.1857 185.412 61.0372C185.433 60.9168 185.471 60.6266 185.325 60.318L183.516 61.17ZM182.211 62.7305C182.046 62.9872 181.872 63.2571 181.696 63.5336L183.384 64.6068C183.557 64.3356 183.727 64.0703 183.893 63.8129L182.211 62.7305ZM88.8662 93.3158C88.107 92.665 88.1069 92.6651 88.1068 92.6652C88.1067 92.6653 88.1066 92.6654 88.1064 92.6656C88.1061 92.666 88.1057 92.6664 88.1052 92.667C88.1042 92.6682 88.1028 92.6699 88.1009 92.6721C88.0972 92.6765 88.0917 92.6828 88.0847 92.6911C88.0707 92.7076 88.0501 92.7317 88.0236 92.7631C87.9705 92.8258 87.8934 92.9174 87.7959 93.0344C87.6008 93.2684 87.3239 93.6042 86.9945 94.0141C86.3366 94.8327 85.4649 95.952 84.6164 97.1476C83.7724 98.3369 82.9308 99.6304 82.3485 100.792C82.0581 101.372 81.8155 101.951 81.6755 102.49C81.5422 103.002 81.4638 103.618 81.6662 104.185L83.5501 103.513C83.5529 103.521 83.5399 103.489 83.5435 103.393C83.5472 103.298 83.5661 103.166 83.6111 102.993C83.7021 102.643 83.8784 102.203 84.1365 101.688C84.6514 100.661 85.4251 99.4638 86.2474 98.3051C87.0652 97.1527 87.9107 96.0668 88.5534 95.267C88.8743 94.8677 89.1435 94.5412 89.3321 94.3151C89.4263 94.202 89.5003 94.1142 89.5504 94.0549C89.5755 94.0253 89.5946 94.0028 89.6073 93.9879C89.6136 93.9805 89.6183 93.975 89.6214 93.9714C89.6229 93.9696 89.624 93.9683 89.6247 93.9675C89.625 93.9671 89.6253 93.9668 89.6254 93.9667C89.6255 93.9666 89.6255 93.9666 89.6255 93.9665C89.6255 93.9665 89.6255 93.9666 88.8662 93.3158ZM78.1853 84.1414L88.1624 94.0262L89.5701 92.6054L79.593 82.7206L78.1853 84.1414ZM69.7374 100.82C69.8457 99.2994 70.4751 97.4986 71.4255 95.6016C72.3687 93.7192 73.5909 91.8144 74.8117 90.1021C76.0306 88.3925 77.2363 86.8911 78.1379 85.8166C78.5884 85.2798 78.9619 84.8508 79.222 84.5569C79.352 84.4099 79.4535 84.2969 79.5221 84.2211C79.5564 84.1832 79.5824 84.1547 79.5996 84.1359C79.6082 84.1265 79.6145 84.1195 79.6186 84.115C79.6207 84.1128 79.6222 84.1112 79.6231 84.1102C79.6235 84.1097 79.6238 84.1094 79.624 84.1092C79.6241 84.1091 79.6241 84.1091 79.6241 84.1091C79.6241 84.1091 79.624 84.1092 78.8891 83.431C78.1543 82.7528 78.1541 82.7529 78.154 82.7531C78.1539 82.7532 78.1536 82.7535 78.1534 82.7537C78.153 82.7542 78.1524 82.7548 78.1517 82.7556C78.1503 82.7571 78.1482 82.7593 78.1457 82.7621C78.1405 82.7678 78.133 82.776 78.1233 82.7866C78.1039 82.8078 78.0756 82.8389 78.039 82.8793C77.9658 82.9603 77.8593 83.0788 77.7241 83.2315C77.4539 83.5369 77.0688 83.9793 76.6059 84.531C75.6808 85.6334 74.4406 87.1773 73.1832 88.9411C71.9276 90.7022 70.6429 92.6989 69.6374 94.7057C68.6392 96.698 67.878 98.7742 67.7424 100.678L69.7374 100.82ZM91.0021 129.647C89.376 127.938 83.8985 122.182 78.8888 116.053C76.382 112.986 74.0115 109.849 72.3016 107.093C71.4463 105.714 70.7703 104.453 70.3247 103.36C69.8707 102.246 69.6957 101.401 69.7373 100.821L67.7425 100.678C67.6681 101.714 67.9775 102.9 68.4727 104.115C68.9762 105.35 69.7142 106.716 70.6021 108.147C72.3786 111.011 74.8114 114.225 77.3403 117.319C82.4019 123.512 87.9253 129.315 89.5533 131.026L91.0021 129.647ZM91.021 129.668L91.021 129.668L89.5344 131.006L89.5345 131.006L91.021 129.668ZM90.9849 129.63L90.9849 129.63L89.5707 131.044L89.5707 131.044L90.9849 129.63ZM90.9422 129.589L90.9422 129.589L89.6134 131.084L89.6135 131.084L90.9422 129.589ZM91.0024 129.647L91.0015 129.647L89.5542 131.027L89.5551 131.028L91.0024 129.647ZM91.4149 130.082C91.3342 129.996 91.1925 129.847 91.0031 129.648L89.5543 131.027C89.7474 131.23 89.881 131.37 89.9541 131.449L91.4149 130.082ZM92.7412 132.973C92.4833 131.961 92.0835 130.797 91.4149 130.082L89.9541 131.448C90.2427 131.757 90.5481 132.466 90.8032 133.467L92.7412 132.973ZM90.3523 139.504C91.8372 136.973 92.4968 134.922 92.758 133.388L90.7864 133.052C90.5699 134.324 90.003 136.147 88.6273 138.492L90.3523 139.504ZM90.3654 146.973C90.7192 146.969 90.9176 147.167 90.9379 147.187C90.9789 147.227 90.9791 147.241 90.9473 147.186C90.8875 147.082 90.7992 146.884 90.6968 146.581C90.4961 145.988 90.2906 145.143 90.1447 144.21C89.999 143.277 89.9185 142.295 89.9512 141.425C89.9851 140.525 90.1364 139.872 90.3525 139.504L88.6271 138.492C88.1583 139.292 87.9904 140.346 87.9526 141.35C87.9138 142.382 88.0092 143.499 88.1687 144.519C88.3281 145.538 88.5573 146.499 88.8023 147.222C88.9228 147.578 89.0601 147.916 89.2139 148.184C89.2889 148.314 89.3929 148.472 89.5329 148.61C89.6522 148.728 89.9446 148.977 90.3859 148.972L90.3654 146.973ZM90.7701 143.901C89.7729 143.976 89.7729 143.976 89.7729 143.976C89.7729 143.976 89.7729 143.976 89.7729 143.976C89.7729 143.976 89.7729 143.976 89.7729 143.976C89.773 143.976 89.773 143.977 89.773 143.977C89.7732 143.979 89.7733 143.981 89.7736 143.985C89.7741 143.991 89.7748 144.002 89.7758 144.016C89.7777 144.043 89.7805 144.085 89.7838 144.138C89.7905 144.245 89.7994 144.398 89.8079 144.582C89.8251 144.953 89.8405 145.441 89.8352 145.923C89.8297 146.418 89.8026 146.858 89.7486 147.154C89.7198 147.311 89.6962 147.353 89.7076 147.331C89.7149 147.317 89.7563 147.24 89.855 147.157C89.968 147.063 90.1448 146.975 90.3654 146.973L90.3859 148.972C91.0395 148.966 91.3671 148.473 91.4791 148.26C91.6078 148.014 91.675 147.738 91.716 147.513C91.8015 147.045 91.8293 146.467 91.8351 145.945C91.841 145.411 91.8239 144.882 91.8058 144.49C91.7966 144.293 91.7872 144.129 91.7799 144.013C91.7763 143.955 91.7732 143.909 91.771 143.878C91.7699 143.862 91.769 143.849 91.7684 143.841C91.7681 143.836 91.7678 143.833 91.7676 143.83C91.7676 143.829 91.7675 143.828 91.7674 143.828C91.7674 143.827 91.7674 143.827 91.7674 143.827C91.7674 143.827 91.7673 143.826 91.7673 143.826C91.7673 143.826 91.7673 143.826 90.7701 143.901ZM92.1435 147.944C92.5497 147.931 92.7178 148.212 92.6713 148.148C92.6525 148.122 92.5974 148.026 92.5228 147.823C92.3785 147.43 92.2424 146.864 92.1245 146.246C92.0087 145.639 91.9185 145.026 91.8571 144.562C91.8265 144.33 91.8032 144.138 91.7877 144.004C91.78 143.937 91.7742 143.885 91.7703 143.85C91.7684 143.832 91.767 143.819 91.7661 143.81C91.7656 143.806 91.7653 143.803 91.7651 143.801C91.765 143.8 91.7649 143.799 91.7649 143.799C91.7648 143.798 91.7648 143.798 91.7648 143.798C91.7648 143.798 91.7648 143.798 91.7648 143.798C91.7648 143.798 91.7648 143.798 90.7701 143.901C89.7754 144.004 89.7754 144.004 89.7754 144.004C89.7754 144.004 89.7755 144.004 89.7755 144.004C89.7755 144.005 89.7755 144.005 89.7756 144.005C89.7757 144.006 89.7758 144.007 89.7759 144.009C89.7762 144.012 89.7767 144.016 89.7772 144.021C89.7784 144.032 89.78 144.047 89.7821 144.066C89.7864 144.106 89.7927 144.162 89.801 144.234C89.8175 144.377 89.8421 144.58 89.8744 144.824C89.9387 145.31 90.0345 145.963 90.1599 146.62C90.2832 147.267 90.4434 147.963 90.6454 148.513C90.744 148.781 90.8745 149.077 91.0532 149.323C91.2042 149.531 91.5816 149.964 92.2084 149.943L92.1435 147.944ZM92.5884 143.686C91.5924 143.775 91.5924 143.775 91.5924 143.775C91.5924 143.775 91.5924 143.775 91.5924 143.775C91.5924 143.775 91.5924 143.776 91.5924 143.776C91.5925 143.776 91.5925 143.777 91.5926 143.778C91.5928 143.78 91.5931 143.783 91.5935 143.788C91.5943 143.797 91.5955 143.81 91.597 143.829C91.6 143.865 91.6045 143.919 91.6099 143.988C91.6206 144.127 91.6352 144.325 91.6499 144.565C91.6795 145.044 91.7096 145.678 91.713 146.308C91.7165 146.95 91.6918 147.539 91.6254 147.949C91.6095 148.047 91.5927 148.125 91.5767 148.184C91.5601 148.245 91.5487 148.269 91.5491 148.268C91.5499 148.267 91.557 148.252 91.5727 148.23C91.5882 148.208 91.6165 148.172 91.6614 148.132C91.76 148.044 91.925 147.952 92.1394 147.944L92.2125 149.943C92.8953 149.918 93.2272 149.389 93.3448 149.149C93.4814 148.87 93.5544 148.549 93.5997 148.268C93.6934 147.689 93.7167 146.966 93.713 146.297C93.7093 145.617 93.677 144.942 93.6461 144.441C93.6306 144.19 93.6153 143.98 93.6038 143.833C93.5981 143.759 93.5933 143.701 93.5899 143.661C93.5882 143.641 93.5869 143.625 93.5859 143.614C93.5855 143.609 93.5851 143.604 93.5848 143.602C93.5847 143.6 93.5846 143.599 93.5845 143.598C93.5845 143.598 93.5844 143.597 93.5844 143.597C93.5844 143.597 93.5844 143.597 93.5844 143.597C93.5844 143.597 93.5844 143.596 92.5884 143.686ZM93.951 147.934C94.1436 147.865 94.3432 147.881 94.4999 147.945C94.6314 147.999 94.6947 148.07 94.6996 148.076C94.7035 148.08 94.6502 148.013 94.5624 147.808C94.3966 147.42 94.228 146.831 94.0746 146.174C93.9243 145.531 93.7999 144.872 93.7126 144.371C93.6692 144.121 93.6353 143.912 93.6123 143.767C93.6009 143.694 93.5922 143.637 93.5864 143.599C93.5835 143.579 93.5814 143.565 93.58 143.555C93.5793 143.551 93.5787 143.547 93.5784 143.545C93.5783 143.544 93.5781 143.543 93.5781 143.543C93.578 143.542 93.578 143.542 93.578 143.542C93.578 143.542 93.578 143.542 93.578 143.542C93.578 143.542 93.578 143.542 92.5884 143.686C91.5987 143.83 91.5988 143.83 91.5988 143.83C91.5988 143.83 91.5988 143.83 91.5988 143.83C91.5989 143.83 91.5989 143.831 91.599 143.831C91.5991 143.832 91.5993 143.833 91.5995 143.835C91.6 143.838 91.6006 143.842 91.6015 143.848C91.6031 143.859 91.6056 143.876 91.6088 143.897C91.6151 143.939 91.6245 144 91.6367 144.078C91.661 144.232 91.6966 144.452 91.7422 144.714C91.8331 145.236 91.9648 145.935 92.127 146.629C92.286 147.31 92.4861 148.039 92.7234 148.594C92.8372 148.86 92.994 149.171 93.214 149.415C93.4251 149.649 93.9398 150.063 94.6256 149.817L93.951 147.934ZM94.8908 143.385C93.8924 143.442 93.8924 143.442 93.8924 143.442C93.8924 143.442 93.8924 143.442 93.8924 143.442C93.8924 143.442 93.8924 143.442 93.8925 143.443C93.8925 143.443 93.8925 143.444 93.8926 143.445C93.8927 143.447 93.8929 143.45 93.8931 143.454C93.8936 143.463 93.8943 143.477 93.8952 143.495C93.8971 143.53 93.8997 143.584 93.9028 143.652C93.909 143.79 93.9169 143.987 93.9236 144.225C93.9372 144.703 93.9458 145.339 93.9275 145.979C93.9089 146.629 93.8634 147.244 93.7791 147.697C93.7361 147.928 93.6918 148.067 93.6615 148.134C93.6126 148.242 93.6662 148.037 93.9476 147.935L94.6289 149.816C95.1354 149.632 95.3767 149.195 95.4837 148.958C95.6094 148.68 95.6896 148.363 95.7453 148.063C95.8583 147.456 95.9072 146.719 95.9267 146.037C95.9465 145.345 95.937 144.669 95.9228 144.169C95.9157 143.918 95.9074 143.709 95.9008 143.562C95.8975 143.489 95.8946 143.431 95.8926 143.391C95.8915 143.371 95.8907 143.356 95.8901 143.345C95.8898 143.34 95.8896 143.335 95.8894 143.332C95.8893 143.331 95.8893 143.33 95.8892 143.329C95.8892 143.329 95.8892 143.328 95.8892 143.328C95.8892 143.328 95.8891 143.328 95.8891 143.328C95.8891 143.327 95.8891 143.327 94.8908 143.385ZM95.718 147.984C95.7824 147.886 96.0409 147.569 96.5179 147.599C96.8943 147.622 97.0874 147.856 97.0947 147.865C97.1402 147.916 97.1066 147.893 97.0177 147.671C96.8644 147.287 96.6848 146.674 96.5084 145.989C96.3351 145.315 96.1758 144.615 96.0593 144.081C96.0011 143.814 95.954 143.59 95.9214 143.433C95.9052 143.355 95.8926 143.293 95.8841 143.252C95.8798 143.231 95.8766 143.215 95.8745 143.204C95.8734 143.199 95.8726 143.195 95.8721 143.193C95.8719 143.191 95.8717 143.19 95.8716 143.19C95.8715 143.189 95.8715 143.189 95.8715 143.189C95.8714 143.189 95.8714 143.189 95.8714 143.189C95.8714 143.189 95.8714 143.189 94.8908 143.385C93.9101 143.581 93.9102 143.581 93.9102 143.581C93.9102 143.581 93.9102 143.581 93.9102 143.581C93.9103 143.581 93.9104 143.582 93.9104 143.582C93.9106 143.583 93.9108 143.584 93.9112 143.586C93.9118 143.589 93.9127 143.593 93.9139 143.599C93.9162 143.611 93.9197 143.628 93.9242 143.65C93.9331 143.694 93.9463 143.758 93.9631 143.84C93.9968 144.002 94.0454 144.233 94.1052 144.507C94.2244 145.054 94.3897 145.78 94.5715 146.487C94.75 147.181 94.956 147.901 95.1605 148.413C95.2504 148.638 95.3887 148.953 95.5919 149.184C95.6781 149.282 95.9464 149.567 96.3936 149.595C96.9415 149.629 97.2663 149.271 97.3917 149.079L95.718 147.984ZM95.9885 144.221C95.9606 145.078 95.9303 146.005 95.8698 146.775C95.8394 147.161 95.8031 147.486 95.7602 147.731C95.7082 148.028 95.67 148.058 95.718 147.984L97.3917 149.079C97.5944 148.769 97.6808 148.358 97.7303 148.075C97.789 147.74 97.8313 147.344 97.8636 146.932C97.9285 146.107 97.96 145.131 97.9875 144.286L95.9885 144.221ZM96.1347 141.897C96.0835 142.147 96.0579 142.517 96.0393 142.879C96.0195 143.266 96.0044 143.733 95.9885 144.221L97.9875 144.286C98.0035 143.792 98.0181 143.345 98.0367 142.981C98.0566 142.592 98.0783 142.375 98.0939 142.299L96.1347 141.897ZM97.5902 138.209C97.2523 139 96.9224 139.772 96.6657 140.402C96.4265 140.989 96.2029 141.565 96.1347 141.897L98.0939 142.299C98.0939 142.299 98.0943 142.297 98.0957 142.291C98.097 142.286 98.099 142.278 98.1017 142.268C98.1073 142.248 98.1151 142.222 98.1257 142.188C98.147 142.121 98.1764 142.036 98.2144 141.932C98.2905 141.724 98.3934 141.462 98.5179 141.156C98.7668 140.545 99.0893 139.79 99.4294 138.994L97.5902 138.209ZM97.5868 138.217L97.5867 138.217L99.4329 138.986L99.4329 138.986L97.5868 138.217ZM98.2665 136.617C98.048 137.137 97.817 137.678 97.5903 138.209L99.4295 138.994C99.6558 138.465 99.8892 137.918 100.11 137.392L98.2665 136.617ZM100.953 138.793C100.802 138.335 100.649 137.868 100.504 137.476C100.373 137.123 100.203 136.7 99.9973 136.417L98.3795 137.592C98.3761 137.588 98.4032 137.627 98.4572 137.746C98.5066 137.855 98.5636 137.997 98.6282 138.171C98.7578 138.521 98.8989 138.95 99.0532 139.418L100.953 138.793ZM101.399 141.037C101.658 141.041 101.817 141.16 101.86 141.195C101.906 141.233 101.911 141.251 101.883 141.209C101.826 141.126 101.74 140.963 101.63 140.702C101.413 140.19 101.186 139.502 100.953 138.793L99.0532 139.418C99.2779 140.102 99.5321 140.877 99.7873 141.481C99.913 141.778 100.06 142.087 100.23 142.336C100.315 142.46 100.432 142.61 100.588 142.738C100.741 142.864 101.008 143.032 101.371 143.037L101.399 141.037ZM100.692 138.394C100.753 139.279 100.813 140.154 100.794 140.806C100.784 141.143 100.754 141.335 100.73 141.414C100.717 141.456 100.729 141.387 100.813 141.292C100.922 141.167 101.129 141.033 101.399 141.037L101.371 143.037C101.782 143.043 102.108 142.849 102.317 142.61C102.5 142.402 102.592 142.165 102.644 141.995C102.748 141.65 102.782 141.239 102.793 140.864C102.815 140.092 102.746 139.106 102.687 138.255L100.692 138.394ZM100.6 136.753C100.61 137.227 100.651 137.814 100.692 138.394L102.687 138.255C102.645 137.659 102.609 137.127 102.6 136.712L100.6 136.753ZM98.8209 130.375C97.9618 130.887 97.9618 130.887 97.9617 130.886C97.9617 130.886 97.9617 130.886 97.9617 130.886C97.9618 130.887 97.9618 130.887 97.962 130.887C97.9622 130.887 97.9626 130.888 97.9631 130.889C97.9642 130.891 97.966 130.894 97.9683 130.898C97.9731 130.906 97.9803 130.918 97.9899 130.934C98.009 130.967 98.0375 131.015 98.074 131.078C98.147 131.204 98.2519 131.386 98.3781 131.611C98.6311 132.062 98.9676 132.679 99.3041 133.346C99.642 134.017 99.9724 134.725 100.218 135.361C100.477 136.03 100.595 136.504 100.6 136.753L102.6 136.712C102.587 136.085 102.349 135.327 102.084 134.639C101.805 133.919 101.443 133.146 101.09 132.447C100.736 131.744 100.385 131.1 100.122 130.632C99.9906 130.398 99.8809 130.207 99.8037 130.074C99.7651 130.008 99.7346 129.956 99.7136 129.92C99.703 129.902 99.6949 129.888 99.6892 129.878C99.6864 129.874 99.6842 129.87 99.6827 129.867C99.6819 129.866 99.6813 129.865 99.6808 129.864C99.6806 129.864 99.6804 129.864 99.6803 129.863C99.6802 129.863 99.6802 129.863 99.6801 129.863C99.6801 129.863 99.68 129.863 98.8209 130.375ZM99.818 130.451L99.818 130.451L97.8238 130.299L97.8237 130.3L99.818 130.451ZM96.0324 127.71C96.6524 128.663 97.3515 129.786 97.946 130.86L99.6957 129.891C99.0694 128.76 98.3425 127.594 97.7091 126.62L96.0324 127.71ZM89.124 116.536C91.8747 120.888 94.6357 125.257 96.0014 127.659L97.7401 126.671C96.345 124.217 93.5508 119.797 90.8146 115.468L89.124 116.536ZM89.1178 116.527L89.1179 116.527L90.8207 115.478L90.8206 115.478L89.1178 116.527ZM81.6662 104.185C81.8055 104.576 82.1476 105.214 82.5733 105.957C83.0168 106.731 83.6019 107.705 84.2791 108.808C85.6341 111.015 87.3746 113.769 89.1239 116.536L90.8145 115.468C89.0628 112.697 87.3302 109.955 85.9836 107.762C85.31 106.664 84.7372 105.711 84.3087 104.963C83.8623 104.184 83.6182 103.705 83.5501 103.513L81.6662 104.185Z" fill="#1C2A47" mask="url(#path-54-inside-1_4_3598)"/>
<path d="M182.419 55.9019C175.172 55.9019 169.276 47.6443 169.276 37.4907C169.276 27.3371 175.172 19.0795 182.419 19.0795C189.667 19.0795 195.563 27.3371 195.563 37.4907C195.563 47.6407 189.667 55.9019 182.419 55.9019ZM182.419 20.8894C176.172 20.8894 171.087 28.3371 171.087 37.4871C171.087 46.6408 176.169 54.0848 182.419 54.0848C188.667 54.0848 193.752 46.6372 193.752 37.4871C193.752 28.3371 188.667 20.8894 182.419 20.8894Z" fill="#1C2A47"/>
<path d="M182.997 70.2704V54.9952H181.183V69.5607C181.183 72.2774 180.885 75.0264 179.913 77.5639C179.755 77.9689 179.712 78.4312 179.813 78.9115C179.999 79.786 180.709 80.4921 181.584 80.6749C183.09 80.9903 184.421 79.8505 184.421 78.399C184.421 78.1589 184.385 77.9259 184.317 77.7073C183.56 75.2845 182.997 72.8079 182.997 70.2704Z" fill="#1C2A47"/>
<path d="M133.739 122.927C133.739 122.927 140.493 131.102 143.537 140.668C146.582 150.234 144.617 170 144.617 170H121.991C121.991 170 121.772 151.736 120.904 151.517C120.033 151.298 115.03 170 115.03 170H91.0983C91.0983 170 85.1164 140.213 102.029 122.927L117.856 123.906L133.739 122.927Z" fill="#3A6B5F"/>
<path d="M133.74 118.687V122.927C133.74 122.927 125.689 130.755 102.03 122.927L101.976 118.687L122.755 117.383L133.74 118.687Z" fill="#1C2A47"/>
<path d="M125.695 67.5501C125.695 67.5501 134.08 67.2383 138.333 70.1736C141.378 72.2739 148.095 84.1156 148.095 84.1156L140.381 90.6672C140.381 90.6672 142.221 97.8138 135.037 101.398L133.735 118.684C133.735 118.684 120.247 126.511 101.971 118.684C101.971 118.684 98.4892 86.2875 95.2256 89.1117C91.9621 91.9395 90.004 94.4376 90.004 94.4376L77.8213 82.3701C77.8213 82.3701 91.105 69.0733 95.4982 66.9874C105.812 62.0952 114.151 66.801 114.151 66.801L125.695 67.5501Z" fill="#6C8AC5"/>
<mask id="path-61-inside-2_4_3598" fill="white">
<path fill-rule="evenodd" clip-rule="evenodd" d="M105.838 35.6557C106.251 28.7385 111.863 23.1187 118.785 22.7137C126.833 22.2406 133.482 28.6489 133.428 36.5768C133.424 36.7491 133.418 36.918 133.411 37.09L133.41 37.1108L133.424 37.1072C133.422 37.5342 133.428 38.0529 133.435 38.6439C133.507 44.6123 133.666 57.9649 125.753 58.8552L125.696 67.5501C125.696 67.5501 122.16 70.8761 114.152 66.8082L114.672 63.3353C115.188 59.8946 114.302 56.4252 112.337 53.5544C111.579 52.4489 110.881 51.1833 110.201 49.7644C107.265 50.4627 104.791 46.7551 106.301 45.2645C106.794 44.7802 107.377 44.5771 107.959 44.5335C107.639 43.7279 107.312 42.8914 106.975 42.0245C106.125 40.0927 105.702 37.9316 105.838 35.6557Z"/>
</mask>
<path fill-rule="evenodd" clip-rule="evenodd" d="M105.838 35.6557C106.251 28.7385 111.863 23.1187 118.785 22.7137C126.833 22.2406 133.482 28.6489 133.428 36.5768C133.424 36.7491 133.418 36.918 133.411 37.09L133.41 37.1108L133.424 37.1072C133.422 37.5342 133.428 38.0529 133.435 38.6439C133.507 44.6123 133.666 57.9649 125.753 58.8552L125.696 67.5501C125.696 67.5501 122.16 70.8761 114.152 66.8082L114.672 63.3353C115.188 59.8946 114.302 56.4252 112.337 53.5544C111.579 52.4489 110.881 51.1833 110.201 49.7644C107.265 50.4627 104.791 46.7551 106.301 45.2645C106.794 44.7802 107.377 44.5771 107.959 44.5335C107.639 43.7279 107.312 42.8914 106.975 42.0245C106.125 40.0927 105.702 37.9316 105.838 35.6557Z" fill="#B5C4E2"/>
<path d="M118.785 22.7137L118.843 23.712L118.844 23.712L118.785 22.7137ZM105.838 35.6557L106.837 35.7155L106.837 35.7152L105.838 35.6557ZM133.428 36.5768L134.428 36.5968L134.428 36.5836L133.428 36.5768ZM133.411 37.09L132.412 37.05V37.05L133.411 37.09ZM133.41 37.1108L132.411 37.0708L132.357 38.4043L133.652 38.081L133.41 37.1108ZM133.424 37.1072L134.424 37.1133L134.432 35.8249L133.182 36.137L133.424 37.1072ZM133.435 38.6439L132.435 38.6559L133.435 38.6439ZM125.753 58.8552L125.641 57.8615L124.759 57.9607L124.753 58.8486L125.753 58.8552ZM125.696 67.5501L126.381 68.2785L126.693 67.985L126.696 67.5567L125.696 67.5501ZM114.152 66.8082L113.163 66.6601L113.056 67.3732L113.699 67.6998L114.152 66.8082ZM114.672 63.3353L113.683 63.1868L113.683 63.1872L114.672 63.3353ZM112.337 53.5544L113.162 52.9895L113.162 52.9891L112.337 53.5544ZM110.201 49.7644L111.102 49.3317L110.753 48.6049L109.969 48.7915L110.201 49.7644ZM106.301 45.2645L105.6 44.5517L105.599 44.5527L106.301 45.2645ZM107.959 44.5335L108.034 45.5307L109.391 45.4289L108.888 44.1642L107.959 44.5335ZM106.975 42.0245L107.907 41.6623L107.9 41.6419L107.891 41.6218L106.975 42.0245ZM118.727 21.7154C111.298 22.1501 105.283 28.1742 104.84 35.5962L106.837 35.7152C107.219 29.3027 112.429 24.0873 118.843 23.712L118.727 21.7154ZM134.428 36.5836C134.486 28.0804 127.354 21.2083 118.726 21.7154L118.844 23.712C126.312 23.273 132.478 29.2174 132.428 36.57L134.428 36.5836ZM134.41 37.1301C134.417 36.9596 134.424 36.7807 134.428 36.5968L132.428 36.5568C132.425 36.7174 132.419 36.8764 132.412 37.05L134.41 37.1301ZM134.409 37.1508L134.41 37.13L132.412 37.05L132.411 37.0708L134.409 37.1508ZM133.182 36.137L133.168 36.1406L133.652 38.081L133.667 38.0775L133.182 36.137ZM134.435 38.632C134.428 38.0378 134.422 37.5293 134.424 37.1133L132.424 37.1012C132.422 37.5391 132.428 38.0679 132.435 38.6559L134.435 38.632ZM125.865 59.8489C130.522 59.325 132.611 55.1246 133.564 50.8726C134.534 46.5447 134.47 41.5977 134.435 38.632L132.435 38.6559C132.471 41.6586 132.523 46.3721 131.613 50.4352C130.685 54.5741 128.898 57.4951 125.641 57.8615L125.865 59.8489ZM126.696 67.5567L126.753 58.8618L124.753 58.8486L124.696 67.5435L126.696 67.5567ZM113.699 67.6998C117.86 69.8136 120.963 70.0556 123.096 69.6902C124.155 69.5087 124.951 69.1809 125.496 68.8848C125.768 68.737 125.976 68.5977 126.123 68.4893C126.196 68.4351 126.254 68.3886 126.297 68.3526C126.318 68.3346 126.336 68.3191 126.35 68.3067C126.357 68.3005 126.363 68.295 126.368 68.2903C126.371 68.2879 126.373 68.2857 126.375 68.2838C126.376 68.2828 126.377 68.2819 126.378 68.281C126.379 68.2806 126.379 68.2799 126.38 68.2797C126.38 68.2791 126.381 68.2785 125.696 67.5501C125.011 66.8217 125.011 66.8211 125.012 66.8206C125.012 66.8204 125.013 66.8198 125.013 66.8195C125.014 66.8188 125.014 66.8182 125.015 66.8176C125.016 66.8165 125.017 66.8155 125.018 66.8147C125.02 66.8132 125.021 66.8124 125.021 66.8123C125.021 66.8122 125.018 66.815 125.012 66.8203C124.999 66.831 124.973 66.852 124.934 66.8808C124.856 66.9384 124.725 67.0271 124.541 67.1277C124.172 67.3281 123.583 67.5775 122.758 67.719C121.12 67.9996 118.451 67.8707 114.604 65.9166L113.699 67.6998ZM113.683 63.1872L113.163 66.6601L115.141 66.9563L115.661 63.4833L113.683 63.1872ZM111.512 54.1193C113.345 56.7969 114.159 60.0139 113.683 63.1868L115.66 63.4837C116.217 59.7753 115.26 56.0535 113.162 52.9895L111.512 54.1193ZM109.299 50.197C109.994 51.6448 110.716 52.9587 111.512 54.1197L113.162 52.9891C112.442 51.939 111.769 50.7217 111.102 49.3317L109.299 50.197ZM105.599 44.5527C104.95 45.193 104.775 46.0396 104.868 46.8135C104.959 47.5748 105.308 48.3228 105.794 48.9486C106.754 50.1847 108.474 51.2031 110.432 50.7372L109.969 48.7915C108.992 49.024 108.007 48.5378 107.374 47.722C107.063 47.3219 106.893 46.9071 106.854 46.5758C106.815 46.2571 106.897 46.0813 107.004 45.9763L105.599 44.5527ZM107.884 43.5363C107.112 43.5942 106.291 43.8718 105.6 44.5517L107.003 45.9773C107.296 45.6887 107.642 45.5601 108.034 45.5307L107.884 43.5363ZM106.043 42.3868C106.38 43.2541 106.708 44.0936 107.03 44.9028L108.888 44.1642C108.569 43.3623 108.244 42.5286 107.907 41.6623L106.043 42.3868ZM104.84 35.5959C104.694 38.0352 105.148 40.3546 106.06 42.4273L107.891 41.6218C107.103 39.8309 106.71 37.828 106.837 35.7155L104.84 35.5959Z" fill="#1C2A47" mask="url(#path-61-inside-2_4_3598)"/>
<path d="M130.598 43.4617C130.667 42.7987 130.186 42.2073 129.523 42.1392C128.859 42.0711 128.267 42.5514 128.199 43.2144C128.131 43.8775 128.612 44.4688 129.275 44.5369C129.935 44.605 130.527 44.1248 130.598 43.4617Z" fill="#1C2A47"/>
<path d="M119.216 44.6624C119.284 43.9993 118.804 43.408 118.14 43.3399C117.477 43.2718 116.885 43.752 116.817 44.4151C116.749 45.0781 117.229 45.6695 117.893 45.7376C118.556 45.8057 119.148 45.3254 119.216 44.6624Z" fill="#1C2A47"/>
<path d="M128.762 51.1244C128.762 51.1244 127.105 50.1854 126.499 50.3861C125.893 50.5868 125.592 51.343 125.592 51.343C125.592 51.343 125.19 50.6191 124.441 50.6442C123.691 50.6692 121.263 52.1996 121.263 52.1996C121.263 52.1996 123.77 55.2676 126.015 54.7479C128.303 54.2175 128.762 51.1244 128.762 51.1244Z" fill="#6C8AC5"/>
<path d="M115.151 42.451C115.008 42.4618 114.861 42.4116 114.753 42.3005C114.56 42.1034 114.567 41.7844 114.764 41.5909C114.825 41.5335 116.26 40.1823 118.501 40.1107C118.777 40.1035 119.01 40.3185 119.017 40.5945C119.025 40.8705 118.788 41.107 118.533 41.1106C116.665 41.1679 115.474 42.2969 115.46 42.3077C115.374 42.3937 115.263 42.4403 115.151 42.451Z" fill="#1C2A47"/>
<path d="M127.539 39.5264C127.413 39.4583 127.317 39.3365 127.284 39.186C127.23 38.9136 127.403 38.6519 127.675 38.5946C127.758 38.5767 129.676 38.2003 131.62 39.358C131.857 39.5013 131.936 39.806 131.796 40.0425C131.656 40.2791 131.337 40.3543 131.111 40.2182C129.504 39.2612 127.894 39.573 127.876 39.573C127.754 39.6017 127.639 39.5802 127.539 39.5264Z" fill="#1C2A47"/>
<path d="M124.609 49.2858C126.032 49.0779 126.513 48.0135 126.563 47.397C126.57 47.2895 126.538 47.182 126.47 47.0995C125.2 45.5333 125.347 43.2538 125.351 43.2288C125.369 42.9958 125.193 42.7951 124.96 42.7772C124.731 42.7592 124.526 42.9349 124.508 43.1678C124.501 43.2718 124.34 45.6623 125.695 47.4759C125.609 47.8092 125.261 48.5475 123.909 48.4722C123.673 48.4615 123.475 48.6371 123.465 48.87C123.45 49.103 123.63 49.3001 123.863 49.3145C124.135 49.3288 124.383 49.3181 124.609 49.2858Z" fill="#1C2A47"/>
<path d="M121.263 52.2032C121.263 52.2032 125.85 51.791 128.762 51.1244C128.762 51.1244 127.518 53.5185 125.764 53.6153C124.01 53.7085 121.263 52.2032 121.263 52.2032Z" fill="white"/>
<path d="M117.605 36.6628C115.159 39.5157 112.559 42.3112 110.726 45.5763C110.522 45.9347 109.084 48.6371 109.493 48.9525C107.262 47.2357 105.845 44.6875 104.655 42.1428C102.589 37.7273 103.234 32.4444 105.824 28.3872C108.384 24.3767 112.649 22.3123 117.329 21.961C122.35 21.5847 127.811 23.3051 130.849 27.5091C133.7 31.4552 133.801 36.4227 134.098 41.0819C133.761 35.8492 126.754 31.9032 122.55 30.0287C122.672 30.0825 119.384 34.5267 119.211 34.7417C118.688 35.3905 118.15 36.0284 117.605 36.6628Z" fill="#1C2A47"/>
<path d="M112.96 99.018C106.842 99.018 104.288 92.9036 104.263 92.8427C104.217 92.728 104.27 92.5954 104.389 92.5488C104.504 92.4986 104.636 92.556 104.683 92.6742C104.708 92.7352 107.147 98.5664 112.96 98.5664C118.781 98.5664 121.036 94.3301 121.058 94.287C121.115 94.1759 121.252 94.1329 121.363 94.1903C121.474 94.2476 121.517 94.3838 121.46 94.4949C121.442 94.5379 119.068 99.018 112.96 99.018Z" fill="#95E7D4"/>
<path d="M140.385 90.8966C140.274 90.8966 140.173 90.8105 140.159 90.6958C140.156 90.6564 139.628 86.5706 136.465 83.5995C136.376 83.5134 136.368 83.3701 136.454 83.2805C136.541 83.1909 136.684 83.1837 136.774 83.2697C140.059 86.3592 140.586 90.4701 140.604 90.6457C140.618 90.7711 140.532 90.8822 140.407 90.8966C140.403 90.8966 140.392 90.8966 140.385 90.8966Z" fill="#95E7D4"/>
<path d="M120.222 47.9776C120.222 48.7195 119.308 49.3217 118.182 49.3217C117.056 49.3217 116.141 48.7195 116.141 47.9776C116.141 47.2357 117.056 46.6336 118.182 46.6336C119.308 46.6336 120.222 47.2357 120.222 47.9776Z" fill="#91A7D3"/>
<path d="M131.867 46.9347C131.867 47.6766 130.952 48.2787 129.826 48.2787C128.7 48.2787 127.785 47.6766 127.785 46.9347C127.785 46.1928 128.7 45.5907 129.826 45.5907C130.952 45.5907 131.867 46.1892 131.867 46.9347Z" fill="#91A7D3"/>
<path d="M184.769 67.5286L184.404 67.1865L184.404 67.1866L184.403 67.1871L184.402 67.1885L184.401 67.1893L184.393 67.1982L184.36 67.2334C184.331 67.2643 184.287 67.3098 184.232 67.3676C184.122 67.4833 183.964 67.6483 183.772 67.845C183.389 68.2389 182.874 68.7581 182.345 69.2626C181.922 69.6663 181.498 70.0534 181.128 70.3583C181.406 69.8711 181.782 69.287 182.176 68.7032C182.267 68.5688 182.358 68.4348 182.45 68.3026C182.461 68.2878 182.473 68.273 182.485 68.2582C182.914 67.7152 183.309 67.1637 183.596 66.7495C183.74 66.542 183.857 66.368 183.938 66.2456C183.979 66.1844 184.011 66.136 184.032 66.1028L184.057 66.0644L184.064 66.0543L184.066 66.0516L184.066 66.0508L184.066 66.0506C184.066 66.0505 184.066 66.0504 183.646 65.7796M184.769 67.5286L185.135 67.8688L185.135 67.8689L185.134 67.8694L185.132 67.8717L185.124 67.8809L185.09 67.9175C185.06 67.9498 185.017 67.9974 184.961 68.0583C184.85 68.1801 184.692 68.355 184.503 68.5666C184.126 68.9904 183.63 69.5594 183.153 70.1434C182.674 70.7288 182.225 71.3157 181.93 71.782C181.936 71.7782 181.942 71.7744 181.949 71.7706C182.432 71.4767 183.041 71.0277 183.649 70.5498C184.253 70.0747 184.842 69.5816 185.281 69.2065C185.5 69.0191 185.681 68.8617 185.807 68.7512C185.87 68.696 185.919 68.6525 185.953 68.623L185.991 68.5894L186 68.5809L186.002 68.5788L186.003 68.5784L186.003 68.5783L186.336 68.9515L186.003 68.5783L186.674 69.3181L186.675 69.3191L186.675 69.3191L186.675 69.3192L186.674 69.3196L186.672 69.3215L186.663 69.3295L186.629 69.3614C186.599 69.3896 186.554 69.4312 186.498 69.4845C186.385 69.5913 186.223 69.7448 186.032 69.9311C185.648 70.3044 185.145 70.8068 184.663 71.3275C184.178 71.8524 183.731 72.379 183.447 72.8035C183.392 72.8863 183.346 72.9608 183.308 73.0269C183.361 73.0067 183.42 72.9821 183.484 72.9527C183.876 72.7732 184.363 72.4679 184.853 72.1264C185.337 71.7882 185.804 71.4285 186.151 71.1521C186.324 71.0143 186.467 70.8978 186.566 70.816C186.615 70.7752 186.654 70.743 186.68 70.7212C187.02 70.2788 187.147 69.9628 187.185 69.7417C187.221 69.5278 187.181 69.3622 187.102 69.1979C187.06 69.1099 187.008 69.0229 186.944 68.9242C186.931 68.9033 186.916 68.8807 186.901 68.8571C186.85 68.7794 186.791 68.6896 186.742 68.6043C186.608 68.3729 186.458 68.0379 186.561 67.629C186.574 67.5782 186.571 67.4826 186.485 67.3217C186.4 67.1632 186.261 66.9923 186.095 66.8263C185.932 66.6633 185.76 66.5218 185.626 66.4199C185.56 66.3695 185.505 66.3298 185.467 66.3033C185.448 66.29 185.434 66.2801 185.424 66.2738L185.414 66.2671L185.413 66.2661L185.413 66.266L185.413 66.2659L185.413 66.2659L185.412 66.2658L185.207 66.1313L185.188 65.8857C185.178 65.7501 185.076 65.6006 184.879 65.4537C184.788 65.3867 184.697 65.3347 184.627 65.2995C184.593 65.2821 184.565 65.2695 184.548 65.2617L184.529 65.2539L184.528 65.2536L184.527 65.253L184.527 65.253L184.526 65.2528L184.28 65.1582L184.22 64.8996L184.22 64.8993L184.22 64.899L184.22 64.8987L184.22 64.8985L184.22 64.8984L184.218 64.8897C184.216 64.8812 184.212 64.8674 184.207 64.8492C184.197 64.8128 184.182 64.7598 184.16 64.6971C184.117 64.5683 184.054 64.4151 183.975 64.2844C183.89 64.1449 183.819 64.0852 183.782 64.0677C183.771 64.0622 183.766 64.0621 183.761 64.0625C183.753 64.063 183.721 64.0669 183.66 64.1026L183.658 64.1038L183.658 64.1038C183.608 64.1331 183.489 64.2301 183.303 64.4257C183.127 64.6102 182.918 64.8523 182.69 65.1357C182.236 65.7022 181.722 66.415 181.269 67.1213C180.812 67.8327 180.432 68.5148 180.229 69.0243C180.194 69.1116 180.166 69.1887 180.145 69.2561C180.24 69.1922 180.35 69.1059 180.473 68.9959C180.837 68.6718 181.248 68.2054 181.646 67.7065C182.007 67.1834 182.359 66.6901 182.641 66.302C182.821 66.0544 182.972 65.8491 183.078 65.7055C183.131 65.6337 183.173 65.5774 183.202 65.5389L183.235 65.4948L183.243 65.4833L183.245 65.4804L183.246 65.4796L183.246 65.4794C183.246 65.4793 183.246 65.4793 183.646 65.7796M184.769 67.5286L184.404 67.1865L185.135 67.8688L184.769 67.5286ZM183.646 65.7796L183.246 65.4793L184.066 66.0504L183.646 65.7796ZM180.083 69.5695C180.083 69.5695 180.083 69.569 180.083 69.5679L180.083 69.5695ZM182.998 73.104C182.998 73.1039 183 73.1039 183.003 73.1045C183 73.1044 182.998 73.1041 182.998 73.104ZM183.177 73.3271C183.177 73.3334 183.176 73.3371 183.176 73.3373C183.176 73.3375 183.176 73.3343 183.177 73.3271Z" fill="#91A7D3" stroke="#1C2A47"/>
<path d="M122.575 128.163C120.373 128.163 118.584 126.375 118.584 124.174C118.584 121.974 120.373 120.185 122.575 120.185C124.777 120.185 126.567 121.974 126.567 124.174C126.563 126.371 124.774 128.163 122.575 128.163ZM122.575 121.995C121.374 121.995 120.398 122.974 120.398 124.171C120.398 125.371 121.377 126.346 122.575 126.346C123.777 126.346 124.752 125.371 124.752 124.171C124.752 122.974 123.773 121.995 122.575 121.995Z" fill="#7BE1C9"/>
<path d="M91.3549 28.3454L93.6427 24.8204L91.3549 19.2017L89.0671 24.8204L91.3549 28.3454Z" fill="white"/>
<path d="M140.754 11.8868L138.483 15.4259L140.802 21.0305L143.059 15.3976L140.754 11.8868Z" fill="white"/>
<path d="M157.226 49.3759L154.956 52.9136L157.275 58.5195L159.531 52.8888L157.226 49.3759Z" fill="white"/>
<path d="M62.9676 33.8316L60.6989 37.3694L63.0161 42.9753L65.2744 37.3446L62.9676 33.8316Z" fill="white"/>
</svg>
