<svg width="340" height="259" viewBox="0 0 340 259" fill="none" xmlns="http://www.w3.org/2000/svg">
<path d="M105.775 46.7339C40.6886 56.3788 8.48232 111.215 4.34419 149.907C-0.711456 197.139 21.215 222.103 62.1283 218.863C106.487 215.343 157.511 210.548 212.562 218.863C267.631 227.179 308.825 234.801 329.047 184.179C349.27 133.557 322.681 37.1264 248.176 20.1775C193.294 7.68587 173.558 36.6956 105.775 46.7339Z" fill="#F1F1F1"/>
<path d="M257.014 233.94C257.014 233.94 257.501 199.48 246.098 189.254C234.694 179.029 204.042 133.314 228.833 122.058C253.625 110.803 261.077 152.098 276.974 166.088C292.872 180.078 279.409 232.666 279.409 232.666L257.014 233.94Z" fill="#E4E4E4"/>
<path d="M272.593 240.813L271.469 240.701C271.507 240.289 275.607 199.611 268.211 181.351C264.784 172.905 257.969 164.796 250.722 156.2C241.997 145.843 232.99 135.149 228.29 122.227L229.339 121.852C233.964 134.587 242.914 145.206 251.565 155.488C258.867 164.14 265.739 172.324 269.241 180.939C276.768 199.443 272.649 240.42 272.593 240.813Z" fill="#CACACA"/>
<path d="M247.614 153.109C246.603 150.338 246.659 144.401 246.715 138.108C246.771 132.059 246.828 125.205 245.648 123.5L246.566 122.864C247.932 124.867 247.876 131.31 247.82 138.127C247.764 144.045 247.726 150.15 248.663 152.735L247.614 153.109Z" fill="#CACACA"/>
<path d="M253.026 158.934C252.145 157.885 246.659 155.6 240.873 153.184C229.096 148.296 220.014 144.288 219.097 141.236L220.164 140.917C221.006 143.726 232.747 148.596 241.304 152.154C248.457 155.132 252.894 157.005 253.887 158.222L253.026 158.934Z" fill="#CACACA"/>
<path d="M264.953 174.703C264.26 173.354 263.792 168.335 263.118 160.207C262.538 153.184 261.882 145.244 261.002 143.67L261.976 143.109C262.987 144.888 263.586 152.285 264.242 160.114C264.766 166.425 265.29 172.942 265.946 174.178L264.953 174.703Z" fill="#CACACA"/>
<path d="M270.121 187.382C268.23 184.367 258.924 182.007 250.704 179.928C242.278 177.793 234.32 175.789 232.391 172.942L233.309 172.306C235.012 174.796 243.139 176.857 250.985 178.842C260.216 181.183 268.941 183.393 271.076 186.782L270.121 187.382Z" fill="#CACACA"/>
<path d="M272.125 216.129C271.319 209.537 263.081 205.773 257.07 203.02C254.954 202.064 253.138 201.222 252.089 200.435L252.763 199.536C253.718 200.248 255.497 201.053 257.538 201.99C263.436 204.686 272.349 208.769 273.229 215.979L272.125 216.129Z" fill="#CACACA"/>
<path d="M273.51 205.098L272.387 205.023C272.555 202.589 274.802 197.364 277.18 191.82C279.708 185.902 282.592 179.198 282.386 176.838L283.509 176.744C283.753 179.366 281.056 185.64 278.229 192.251C275.982 197.476 273.679 202.851 273.51 205.098Z" fill="#CACACA"/>
<path d="M267.462 232.348C280.794 213.526 265.459 151.124 295.83 125.823C326.183 100.521 347.585 115.11 328.149 150.993C308.712 186.876 302.103 229.052 291.561 232.947C281.019 236.842 267.462 232.348 267.462 232.348Z" fill="#E4E4E4"/>
<path d="M278.247 241L277.143 240.794C277.199 240.494 282.854 210.567 294.95 171.144C302.889 145.262 312.663 133.07 319.123 124.999C322.718 120.504 325.321 117.245 326.313 113.5L327.399 113.78C326.351 117.751 323.692 121.084 320.003 125.691C313.599 133.688 303.919 145.787 296.036 171.463C283.958 210.848 278.304 240.719 278.247 241Z" fill="#CACACA"/>
<path d="M301.616 155.956L300.736 155.244C304.293 150.806 311.69 147.36 318.861 144.007C326.164 140.599 333.073 137.378 334.29 133.763L335.358 134.119C333.972 138.183 326.875 141.498 319.348 145.019C312.289 148.334 305.005 151.742 301.616 155.956Z" fill="#CACACA"/>
<path d="M296.036 171.481L294.969 171.163C295.774 168.522 295.661 160.638 295.549 152.304C295.343 136.741 295.399 125.542 298.021 123.35L298.751 124.212C296.335 126.234 296.523 140.693 296.672 152.285C296.785 161.069 296.897 168.653 296.036 171.481Z" fill="#CACACA"/>
<path d="M288.565 197.457L287.479 197.158C288.771 192.494 295.942 187.532 303.544 182.306C310.229 177.699 317.157 172.924 319.048 168.747L320.078 169.216C318.075 173.673 311.015 178.542 304.2 183.243C297.084 188.112 289.744 193.187 288.565 197.457Z" fill="#CACACA"/>
<path d="M286.243 206.278L285.157 205.997C286.337 201.297 282.61 186.764 279.895 176.164C277.892 168.373 276.768 163.878 277.012 162.53L278.117 162.717C277.911 163.897 279.409 169.721 280.981 175.883C283.884 187.213 287.479 201.297 286.243 206.278Z" fill="#CACACA"/>
<path d="M281.187 227.347L280.082 227.104C280.663 224.445 285.644 221.785 291.411 218.714C296.785 215.848 302.87 212.608 303.881 209.706L304.949 210.08C303.788 213.376 297.758 216.597 291.935 219.706C286.898 222.403 281.655 225.194 281.187 227.347Z" fill="#CACACA"/>
<path d="M97.4617 170.695C97.4617 170.695 97.4242 152.004 97.0123 136.497C96.6003 120.991 111.28 103.929 114.726 95.0897C118.171 86.2314 114.557 72.691 126.99 66.698C126.99 66.698 119.688 79.7327 126.298 86.4935C132.907 93.2544 124.444 116.515 123.133 126.497C121.822 136.441 114.295 162.867 97.4617 170.695Z" fill="#E4E4E4"/>
<path d="M79.9915 201.465C79.9915 201.465 71.0037 159.701 56.8854 141.966C42.767 124.23 43.722 126.927 23.1062 122.582C2.50916 118.237 3.63263 133.351 3.63263 133.351C3.63263 133.351 15.167 126.796 21.8142 135.449C28.4802 144.101 30.3901 155.506 43.4411 173.429C56.4922 191.352 79.9915 201.465 79.9915 201.465Z" fill="#E4E4E4"/>
<path d="M36.0636 74.751C40.2017 89.8832 71.5841 97.8614 78.7931 113.949C86.0021 130.036 82.8938 168.953 82.8938 168.953C82.8938 168.953 63.2892 152.042 61.9597 137.097C60.6303 122.152 50.4253 116.215 42.5236 101.008C34.6405 85.7818 36.0636 74.751 36.0636 74.751Z" fill="#E4E4E4"/>
<path d="M91.4135 239.558L90.29 239.633C90.2713 239.202 87.369 196.502 82.3508 169.065L81.9576 166.912C77.0705 140.149 74.1307 123.987 59.3008 109.66C44.059 94.9023 35.6329 75.1817 35.558 74.9757L36.5879 74.5449C36.6628 74.7322 45.014 94.2656 60.0873 108.855C75.1606 123.425 78.1378 139.719 83.0624 166.706L83.4556 168.859C88.4925 196.352 91.3948 239.127 91.4135 239.558Z" fill="#E4E4E4"/>
<path d="M89.1854 225.343C87.8747 211.653 75.7973 195.641 63.0271 178.692C55.4249 168.597 47.5606 158.184 40.9695 147.154L41.9245 146.573C48.4781 157.548 56.3237 167.942 63.9072 177.999C76.7897 195.079 88.942 211.222 90.2901 225.231L89.1854 225.343Z" fill="#CACACA"/>
<path d="M86.826 200.997C85.3655 189.329 90.6458 180.733 95.7389 172.437C98.9783 167.155 102.33 161.705 103.903 155.506C107.91 139.719 110.943 109.866 110.962 109.566L112.085 109.679C112.048 109.978 109.015 139.906 104.989 155.769C103.379 162.136 99.9707 167.661 96.6939 173.017C91.4697 181.538 86.5264 189.573 87.9308 200.847L86.826 200.997Z" fill="#CACACA"/>
<path d="M144.442 180.602C144.442 180.602 140.304 219.556 136.746 224.051C133.207 228.546 121.223 230.793 121.223 236.786C121.223 242.779 220.838 242.03 221.587 236.786C222.336 231.542 212.112 227.797 208.236 224.051C204.36 220.306 199.867 180.602 199.867 180.602H144.442Z" fill="#414141"/>
<path d="M136.783 232.104L136.727 230.981C137.158 230.962 179.438 228.752 208.255 230.981L208.161 232.104C179.419 229.894 137.214 232.085 136.783 232.104Z" fill="#CACACA"/>
<path d="M62.5965 41.4152C55.4063 44.2994 54.2828 183.299 62.5216 190.79C70.7604 198.281 275.233 196.783 278.229 190.79C281.225 184.797 287.629 47.7266 275.907 40.2354C264.186 32.7442 80.0853 34.3735 62.5965 41.4152Z" fill="#414141"/>
<path d="M69.3374 49.4121C63.6825 53.4574 65.5924 162.324 69.3374 166.818C73.0823 171.313 264.073 171.313 269.316 166.818C274.559 162.324 273.061 54.1129 269.316 49.4121C265.571 44.7114 75.3292 45.1234 69.3374 49.4121Z" fill="#E4E4E4"/>
<path d="M193.669 170.189C193.669 170.189 193.669 155.581 196.29 150.338C198.912 145.094 209.023 127.864 213.142 109.885C217.262 91.906 212.393 46.9587 206.776 46.9587C201.159 46.9587 201.533 80.2946 201.533 80.2946C201.533 80.2946 201.908 38.3438 195.167 38.3438C188.426 38.3438 188.051 77.6727 188.051 77.6727C188.051 77.6727 188.426 30.8525 180.562 30.8525C172.697 30.8525 173.072 77.2981 173.072 77.2981C173.072 77.2981 172.753 39.0929 165.413 39.0929C158.073 39.0929 159.59 97.5244 157.718 114.754C155.845 131.984 165.413 170.189 165.413 170.189H193.669Z" fill="white"/>
<path d="M210.483 119.249C211.513 116.196 212.412 113.05 213.142 109.885C214.06 105.877 214.528 100.54 214.64 94.6589C197.095 97.5243 169.196 108.443 157.867 113.05C157.811 113.649 157.755 114.211 157.699 114.735C157.624 115.428 157.568 116.177 157.53 116.927C167.567 120.485 191.609 127.264 210.483 119.249Z" fill="#F1F1F1"/>
<path d="M92.4997 6.88063C89.4851 11.7125 88.811 105.765 92.4997 112.076C96.1885 118.387 238.701 114.23 245.012 106.046C251.322 97.8615 247.633 18.9602 245.012 8.95944C242.39 -1.00388 97.7613 -1.52827 92.4997 6.88063Z" fill="#CACACA"/>
<path d="M169.252 86.8682C154.909 86.8682 94.6344 10.4765 92.0691 7.21784L92.9491 6.5249C93.5671 7.31148 155.433 85.7446 169.252 85.7446C183.071 85.7446 243.982 9.40902 244.581 8.64117L245.461 9.33411C242.933 12.4991 183.595 86.8682 169.252 86.8682Z" fill="#696969"/>
<path d="M92.9117 112.469L92.0878 111.702C92.3686 111.402 120.68 80.6505 142.888 65.4246L143.524 66.361C121.429 81.512 93.1925 112.17 92.9117 112.469Z" fill="#696969"/>
<path d="M244.6 106.458C220.202 80.257 198.575 63.2707 198.369 63.1021L199.061 62.2219C199.286 62.3905 220.969 79.433 245.424 105.708L244.6 106.458Z" fill="#696969"/>
<path d="M157.118 74.1143C149.628 74.1143 155.096 90.7822 152.849 98.648C150.602 106.514 143.861 113.63 145.734 126.74C147.606 139.85 158.092 148.465 160.339 154.458C162.586 160.451 160.339 170.189 160.339 170.189H185.43C185.43 170.189 183.932 160.825 183.183 141.348C182.434 121.871 167.51 118.125 165.413 115.129C163.335 112.132 169.327 104.266 168.952 94.1533C168.578 84.0401 161.032 74.1143 157.118 74.1143Z" fill="white"/>
<path d="M171.087 189.123C170.9 189.123 170.712 189.123 170.525 189.105C166.556 188.786 165.264 185.771 165.357 183.299C165.47 180.359 167.454 177.325 170.581 177.325C173.54 177.325 175.749 178.355 176.835 180.209C177.79 181.876 177.715 184.067 176.648 185.94C175.468 187.925 173.39 189.123 171.087 189.123ZM170.581 178.43C168.147 178.43 166.574 180.92 166.481 183.336C166.406 185.415 167.436 187.737 170.619 187.981C170.769 188 170.937 188 171.087 188C172.997 188 174.701 187.007 175.656 185.34C176.536 183.823 176.611 182.063 175.843 180.733C174.982 179.254 173.109 178.43 170.581 178.43Z" fill="#CACACA"/>
<path d="M79.7107 3.99696C99.2031 7.23691 101.506 20.3466 101.132 37.052C100.776 53.7574 110.943 64.6571 117.834 64.6571C117.834 64.6571 108.753 67.9345 101.862 64.6571C94.9526 61.3797 88.0619 70.4628 70.2735 66.1179C52.4852 61.7543 36.4944 48.8319 44.134 26.4144C51.7549 3.99696 66.641 1.80578 79.7107 3.99696Z" fill="#7D7D7D"/>
<path d="M70.723 30.3094C70.723 30.3094 77.4638 16.6754 84.2047 23.5486C90.9455 30.4218 74.3181 42.5014 71.1724 50.1799C71.1724 50.1799 53.6461 33.3059 60.8364 23.5486C68.0266 13.7913 70.723 30.3094 70.723 30.3094Z" fill="white"/>
<path d="M211.307 79.3206C211.307 79.3206 218.048 65.6866 224.789 72.5598C231.53 79.433 214.902 91.5126 211.757 99.1911C211.757 99.1911 194.23 82.3171 201.421 72.5598C208.611 62.8025 211.307 79.3206 211.307 79.3206Z" fill="#696969"/>
<path d="M220.239 53.5136C239.394 56.7161 241.66 69.5823 241.304 86.0068C240.948 102.431 250.947 113.144 257.725 113.144C257.725 113.144 248.794 116.365 242.016 113.144C235.237 109.922 228.44 118.856 210.951 114.567C193.463 110.278 177.753 97.562 185.243 75.5378C192.751 53.5136 207.394 51.3786 220.239 53.5136Z" fill="white"/>
<path d="M211.307 79.3209C211.307 79.3209 218.048 65.6869 224.789 72.5601C231.53 79.4332 214.902 91.5128 211.757 99.1913C211.757 99.1913 194.23 82.3174 201.421 72.5601C208.611 62.8028 211.307 79.3209 211.307 79.3209Z" fill="#7D7D7D"/>
<path d="M154.388 220.921C154.268 222.095 154.083 223.245 153.826 224.362C150.53 238.601 135.744 248.474 109.364 250.268C56.098 253.886 26.7515 250.67 16.299 225.342C13.9352 219.618 13.0183 212.221 13.1476 204.14C13.5821 176.433 26.2368 140.607 34.7922 136.096C45.8473 130.267 53.6863 133.282 53.6863 133.282C71.5756 137.101 100.118 189.564 122.43 191.573C144.74 193.584 155.949 205.307 154.388 220.921Z" fill="#979797"/>
<path d="M37.2027 168.056C37.2027 168.056 50.469 178.709 55.092 190.569C59.715 202.428 59.715 212.88 69.3631 214.89C79.0112 216.9 97.1022 218.106 115.394 212.679C133.685 207.251 134.087 200.819 114.791 197.403C95.4949 193.986 74.3895 175.695 68.3596 162.629C62.3297 149.563 62.5301 144.338 58.7115 140.921C54.8928 137.505 49.2638 136.298 43.6361 142.931C38.0083 149.563 34.791 160.619 37.2027 168.056Z" fill="#696969"/>
<path d="M77.524 132.498C77.7555 132.182 78.0412 131.898 78.2611 131.578C79.2465 130.147 78.1667 128.524 76.9369 127.686C76.1015 127.117 75.9774 126.664 76.1817 125.621C76.3434 124.796 76.8115 124.249 76.6524 123.389C76.5205 122.671 76.2063 121.646 75.6451 121.179C75.0709 120.7 74.2252 120.739 73.5631 120.457C71.9208 119.758 73.4467 118.449 72.7458 117.222C71.6958 115.384 68.6944 115.825 66.9086 115.554C66.9215 115.556 66.9306 115.552 66.9332 115.539C65.3995 114.929 65.1318 113.318 63.165 113.645C62.2365 113.799 61.5925 114.382 60.8179 114.839C59.4743 115.631 58.3428 114.542 57.0419 115.031C55.5716 115.585 54.3988 116.91 53.985 118.424C53.4095 120.532 52.1888 119.915 50.5271 120.672C49.6452 121.074 48.5473 121.355 48.7309 122.59C48.8292 123.249 49.4111 123.815 49.4577 124.469C49.5159 125.303 48.727 125.776 48.2628 126.397C47.7636 127.065 47.4378 128.04 47.7753 128.842C48.1387 129.708 49.1564 130.134 49.2042 131.189C49.2702 132.659 47.2024 133.865 48.0456 135.471C48.6029 136.532 49.8107 136.532 50.6137 137.211C51.153 137.668 51.0767 138.349 51.0146 138.959C50.8452 140.633 51.6224 142.117 53.5841 141.731C55.013 141.449 56.0566 141.287 57.0717 142.517C57.9575 143.59 58.8278 144.122 60.3252 143.995C61.277 143.914 62.1589 143.519 63.0693 143.264C63.9227 143.025 64.1853 143.167 64.9508 143.404C66.5659 143.903 67.5009 142.363 69.0022 142.382C69.5789 142.39 69.9578 142.825 70.5462 142.923C71.229 143.037 71.9751 142.812 72.5596 142.468C73.3278 142.015 73.6911 141.479 73.9523 140.639C74.1774 139.915 74.339 139.658 75.0386 139.363C76.8115 138.614 77.7762 137.794 77.6598 135.723C77.6132 134.903 77.03 134.246 77.1192 133.44C77.1606 133.073 77.3223 132.773 77.524 132.498Z" fill="#2D2D2D"/>
<path d="M142.194 253.417C142.194 256.265 115.736 258.576 83.0989 258.576C50.4613 258.576 24.0037 256.267 24.0037 253.417C24.0037 250.567 50.4613 248.257 83.0989 248.257C115.736 248.258 142.194 250.568 142.194 253.417Z" fill="#E4E4E4"/>
<path d="M77.806 158.543C77.806 158.543 88.9955 170.335 93.5513 171.474L86.2476 176.097L76.5322 170.67C76.5335 170.67 72.9153 161.022 77.806 158.543Z" fill="#CACACA"/>
<path d="M77.8063 158.543L77.7119 158.632C77.7132 158.633 80.5116 161.583 83.8828 164.676C85.5677 166.223 87.3962 167.807 89.0915 169.077C89.9398 169.712 90.7532 170.268 91.5019 170.704C92.2507 171.138 92.9322 171.452 93.5205 171.6L93.5516 171.474L93.483 171.366L86.2453 175.947L76.5972 170.557L76.5339 170.67L76.6554 170.625C76.6554 170.625 76.6502 170.612 76.6412 170.587C76.5015 170.206 75.3739 166.999 75.3752 163.938C75.3752 162.835 75.5213 161.752 75.9067 160.829C76.292 159.906 76.9102 159.144 77.8658 158.658L77.8063 158.543L77.7119 158.632L77.8063 158.543L77.7481 158.428C76.7317 158.942 76.0683 159.762 75.6675 160.73C75.2653 161.697 75.1166 162.812 75.1166 163.938C75.1179 167.268 76.411 170.709 76.4136 170.716L76.4304 170.76L86.2544 176.249L93.8774 171.423L93.5839 171.349C93.033 171.212 92.3683 170.908 91.6326 170.48C89.0553 168.982 85.6156 165.972 82.8289 163.34C81.4349 162.024 80.2025 160.802 79.3193 159.91C78.877 159.464 78.5227 159.099 78.2783 158.847C78.1567 158.72 78.0624 158.622 77.9977 158.556C77.9343 158.489 77.9007 158.454 77.9007 158.454L77.8348 158.384L77.7494 158.428L77.8063 158.543Z" fill="#696969"/>
<path d="M83.735 183.835C83.735 183.835 101.591 181.055 112.58 186.013C123.568 190.971 120.621 199.279 117.136 206.381C113.651 213.483 110.436 216.164 110.436 216.164L103.736 213.35C103.736 213.35 106.148 201.29 110.168 195.259C110.168 195.259 94.4901 203.567 86.0471 203.165C77.6055 202.763 77.7387 186.951 77.7387 186.951L83.735 183.835Z" fill="#2D2D2D"/>
<path d="M58.092 145.714C58.092 145.714 53.4846 148.158 50.0009 149.497C46.5171 150.837 45.4451 155.997 47.4547 159.748C49.4642 163.501 54.4894 173.082 56.6334 178.777C58.7774 184.472 60.0175 189.162 60.0175 189.162C60.0175 189.162 71.7088 191.407 78.2081 189.061C84.7075 186.717 83.7363 183.836 83.7363 183.836C83.7363 183.836 79.5491 169.129 78.9452 165.175C78.9452 165.175 80.7543 161.088 79.2801 157.471C77.806 153.853 73.9873 152.379 72.111 150.167C70.2346 147.957 62.9659 145.079 58.092 145.714Z" fill="white"/>
<path d="M72.3139 130.485C72.1614 132.495 71.9842 134.514 72.2571 137.32C72.4743 139.611 71.3726 141.428 68.1888 144.001C68.1888 144.001 67.0224 144.106 65.7047 143.719C65.6801 143.719 65.6569 143.712 65.6323 143.704L65.9297 145.907L65.9944 146.374L66.0345 146.712C66.0345 146.712 66.0823 148.126 64.4258 148.529C62.7615 148.931 59.345 147.322 58.0907 145.715C58.0907 145.715 58.2911 139.685 57.7855 137.321C57.7855 137.321 56.2337 134.757 55.3738 131.243C54.5216 127.722 57.1583 124.296 59.6114 123.034C62.0723 121.78 69.5014 121.74 71.7605 126.87C71.7592 126.867 72.4678 128.475 72.3139 130.485Z" fill="#CACACA"/>
<path d="M72.3141 130.486L72.1848 130.475C72.0904 131.722 71.9856 132.976 71.9856 134.423C71.9856 135.308 72.0244 136.263 72.1292 137.331C72.146 137.513 72.155 137.69 72.155 137.864C72.1537 138.861 71.8731 139.773 71.2279 140.74C70.5813 141.706 69.5675 142.723 68.1088 143.901L68.1903 144.002L68.1786 143.872H68.1734C68.145 143.875 68.0118 143.884 67.8023 143.884C67.3601 143.884 66.5803 143.84 65.7423 143.594L65.7242 143.589H65.7061V143.602L65.7074 143.589H65.7061V143.602L65.7074 143.589L65.6997 143.588L65.6751 143.58L65.4785 143.514L65.8044 145.922L65.8691 146.389L65.9971 146.371L65.8691 146.386L65.9092 146.724L66.0372 146.708L65.9079 146.711V146.712V146.72C65.9079 146.777 65.8975 147.113 65.7061 147.471C65.6104 147.651 65.4695 147.836 65.2613 148C65.0518 148.164 64.7738 148.308 64.3988 148.398C64.2358 148.438 64.0496 148.458 63.8479 148.456C62.9918 148.458 61.8435 148.105 60.7818 147.571C59.7189 147.038 58.7361 146.324 58.1956 145.63L58.0934 145.71L58.2227 145.714C58.2227 145.712 58.2615 144.53 58.2615 143.007C58.2615 142.048 58.246 140.952 58.1943 139.931C58.1425 138.908 58.0572 137.961 57.9136 137.289L57.9085 137.268L57.8968 137.25C57.8968 137.25 57.8917 137.241 57.88 137.222C57.7106 136.933 56.3011 134.483 55.4993 131.207C55.3894 130.756 55.339 130.306 55.339 129.861C55.339 128.391 55.895 126.981 56.7175 125.802C57.5386 124.624 58.6262 123.68 59.6697 123.143C60.0654 122.941 60.606 122.768 61.2383 122.647C61.8707 122.525 62.5974 122.455 63.3668 122.455C64.8992 122.455 66.6036 122.735 68.1049 123.432C69.6063 124.13 70.9033 125.242 71.6404 126.915L71.6417 126.918C71.6714 126.986 72.2068 128.255 72.2055 129.906C72.2055 130.09 72.199 130.279 72.1848 130.471L72.3141 130.486L72.4434 130.496C72.4589 130.297 72.4654 130.102 72.4654 129.911C72.4654 128.15 71.8822 126.826 71.8783 126.816C71.1128 125.075 69.7588 123.918 68.2148 123.201C66.6695 122.484 64.9302 122.2 63.3668 122.2C62.5819 122.2 61.8409 122.272 61.1905 122.397C60.54 122.522 59.9801 122.7 59.5534 122.918C58.4658 123.478 57.3537 124.447 56.5067 125.66C55.661 126.871 55.083 128.33 55.0817 129.866C55.0817 130.33 55.1347 130.801 55.2485 131.273C56.1136 134.807 57.6718 137.381 57.6757 137.387L57.7869 137.32L57.6602 137.347C57.7986 137.992 57.8852 138.932 57.9356 139.948C57.9861 140.963 58.0016 142.054 58.0016 143.011C58.0016 143.77 57.9912 144.445 57.9822 144.93C57.977 145.172 57.9718 145.367 57.9693 145.502C57.9654 145.636 57.9628 145.708 57.9628 145.708L57.9615 145.755L57.9899 145.793C58.5706 146.536 59.5753 147.26 60.6642 147.806C61.753 148.352 62.922 148.718 63.8466 148.719C64.0651 148.719 64.2707 148.698 64.4582 148.653C64.8656 148.555 65.1798 148.394 65.4191 148.207C65.7785 147.925 65.9661 147.581 66.0617 147.296C66.1574 147.012 66.1652 146.786 66.1652 146.722V146.707V146.7L66.1238 146.355L66.0592 145.888L65.7617 143.686L65.6337 143.703L65.5923 143.826C65.6169 143.833 65.6518 143.848 65.7061 143.849V143.72L65.6699 143.844C66.5415 144.098 67.3445 144.144 67.8036 144.144C68.0519 144.144 68.1993 144.131 68.2032 144.131L68.242 144.127L68.273 144.102C69.742 142.915 70.7753 141.885 71.4451 140.885C72.115 139.885 72.4175 138.913 72.4163 137.866C72.4163 137.682 72.4072 137.497 72.3891 137.31C72.2857 136.249 72.2468 135.303 72.2468 134.426C72.2468 132.992 72.3503 131.745 72.446 130.497L72.3141 130.486Z" fill="#696969"/>
<path d="M58.3676 134.227C58.3676 134.227 58.3818 134.242 58.409 134.272C58.5008 134.374 58.7323 134.639 58.9392 134.942C59.1474 135.243 59.3284 135.584 59.3271 135.826C59.3271 135.864 59.3232 135.899 59.3142 135.931C59.256 136.146 59.1357 136.268 59.0245 136.391C58.9133 136.513 58.8098 136.638 58.8098 136.847C58.8098 136.946 58.8331 137.064 58.8887 137.207C59.1655 137.938 59.3426 138.241 59.3439 138.242C59.353 138.257 59.3724 138.263 59.3879 138.253C59.4034 138.244 59.4086 138.225 59.3995 138.209C59.3995 138.209 59.3892 138.191 59.3685 138.153C59.3064 138.035 59.1564 137.73 58.9495 137.184C58.8965 137.044 58.8758 136.934 58.8758 136.845C58.8758 136.662 58.9624 136.557 59.0736 136.434C59.1836 136.312 59.3155 136.178 59.3775 135.948C59.3879 135.909 59.393 135.869 59.393 135.826C59.3917 135.517 59.1461 135.112 58.9029 134.778C58.6598 134.444 58.4167 134.184 58.4154 134.184C58.4038 134.171 58.3831 134.17 58.3702 134.183C58.3559 134.193 58.3547 134.214 58.3676 134.227Z" fill="#414141"/>
<path d="M71.5569 131.239C71.5569 131.239 70.6023 130.938 69.3205 131.842C69.3205 131.842 69.5468 130.811 70.3009 130.686C71.055 130.562 71.5569 131.239 71.5569 131.239Z" fill="#414141"/>
<path d="M66.4067 132.154C66.4067 132.154 65.7224 131.324 64.7213 131.47C63.7201 131.616 62.9634 132.007 62.9634 132.007C62.9634 132.007 63.4032 131.03 64.3798 130.81C65.3577 130.592 66.1389 131.153 66.4067 132.154Z" fill="#414141"/>
<path d="M69.6605 133.777C69.6256 134.282 69.7588 134.703 69.9593 134.717C70.1598 134.731 70.3513 134.333 70.3875 133.827C70.4224 133.321 70.2892 132.901 70.0887 132.887C69.8882 132.874 69.6955 133.272 69.6605 133.777Z" fill="#414141"/>
<path d="M65.2639 134.381C65.2289 134.886 65.3622 135.307 65.5627 135.321C65.7631 135.335 65.9546 134.937 65.9908 134.431C66.0257 133.925 65.8925 133.505 65.692 133.491C65.4902 133.477 65.2988 133.875 65.2639 134.381Z" fill="#414141"/>
<path d="M68.4465 134.472C68.4465 134.472 68.5189 134.599 68.6288 134.798C68.7931 135.097 69.0389 135.561 69.2445 136.009C69.4502 136.455 69.6119 136.891 69.6119 137.116C69.6119 137.182 69.5976 137.227 69.5757 137.248C69.5019 137.322 69.3571 137.403 69.1837 137.481C68.9237 137.596 68.5978 137.705 68.3365 137.782C68.2059 137.821 68.0921 137.853 68.0106 137.875C67.9291 137.897 67.8812 137.91 67.8812 137.91C67.8644 137.914 67.8541 137.932 67.8579 137.949C67.8618 137.966 67.8799 137.976 67.8967 137.972C67.8967 137.972 68.2447 137.884 68.634 137.756C68.828 137.692 69.0324 137.618 69.2096 137.54C69.3868 137.461 69.5355 137.38 69.6209 137.295C69.6623 137.253 69.6765 137.191 69.6765 137.116C69.6765 136.948 69.6015 136.702 69.4916 136.42C69.1617 135.579 68.5034 134.44 68.5034 134.44C68.4943 134.424 68.4749 134.419 68.4594 134.428C68.4439 134.436 68.4374 134.457 68.4465 134.472Z" fill="#414141"/>
<path d="M68.0691 139.181C68.0691 139.181 68.0329 139.186 67.9656 139.191C67.8983 139.196 67.8026 139.201 67.6849 139.201C67.2335 139.201 66.4652 139.123 65.8133 138.666C65.799 138.656 65.7783 138.66 65.768 138.674C65.7576 138.688 65.7615 138.709 65.7758 138.719C66.4445 139.186 67.2257 139.266 67.6836 139.266C67.9242 139.266 68.0755 139.244 68.0768 139.244C68.0949 139.242 68.1066 139.225 68.104 139.208C68.1027 139.191 68.0859 139.178 68.0691 139.181Z" fill="#414141"/>
<path d="M61.7258 128.459C61.7258 128.459 62.2779 129.514 61.9766 131.876C61.6753 134.237 61.524 133.384 61.3236 134.439C61.1232 135.494 61.6753 136.298 60.9719 137.152C60.2684 138.007 61.3236 134.89 59.1123 133.031C56.9011 131.171 57.4545 136.649 58.0067 137.704C58.5589 138.759 59.4641 139.161 59.4641 139.161L58.0571 140.819C58.0571 140.819 51.2733 137.603 51.625 130.819C51.9768 124.035 55.9467 122.176 55.9467 122.176C55.9467 122.176 59.2636 117.502 67.6548 119.663C76.0473 121.824 75.018 128.7 74.9417 129.714C74.7412 132.377 72.1278 132.427 72.1278 132.427C72.1278 132.427 72.3787 129.613 70.5696 127.954C70.5696 127.954 70.0665 129.11 68.3078 129.562C66.5492 130.015 67.4039 128.406 67.7557 127.703C67.7557 127.703 66.7509 129.059 65.1422 129.059C63.5349 129.062 61.7258 128.459 61.7258 128.459Z" fill="#2D2D2D"/>
<path d="M65.9944 146.373C65.2301 146.173 64.0482 145.721 62.5779 144.741C59.8687 142.932 60.3188 139.516 60.3188 139.516C61.4761 142.282 65.1435 143.487 65.1435 143.487L65.706 143.72C65.6814 143.72 65.6582 143.712 65.6336 143.704L65.931 145.908L65.9944 146.373Z" fill="#414141"/>
<path d="M49.3971 150.837C52.9351 150.472 55.6287 154.321 59.0452 161.289C62.4617 168.258 66.0799 178.911 66.0799 178.911C66.0799 178.911 82.2273 177.102 87.4529 172.948C87.4529 172.948 88.5922 168.728 89.3965 167.723C90.2008 166.718 91.741 165.981 92.747 165.444C93.7518 164.908 94.4217 164.372 94.4217 164.372L90.4685 174.892C90.4685 174.892 87.7878 177.371 86.3149 178.778C84.8408 180.185 69.0282 188.493 62.7306 186.885C56.433 185.276 48.5927 168.728 47.7224 164.707C46.8522 160.687 44.8413 151.306 49.3971 150.837Z" fill="#CACACA"/>
<path d="M49.3969 150.837L49.4098 150.965C49.5598 150.949 49.7073 150.942 49.8534 150.942C50.6577 150.942 51.4168 151.172 52.1616 151.623C53.2789 152.3 54.3613 153.479 55.4669 155.117C56.5725 156.754 57.704 158.849 58.9286 161.345C60.6343 164.822 62.3917 169.225 63.7223 172.757C64.3883 174.523 64.9469 176.071 65.3387 177.178C65.5353 177.732 65.6892 178.175 65.7952 178.479C65.9013 178.784 65.9569 178.95 65.9569 178.95L65.9905 179.048L66.0939 179.037C66.0965 179.037 70.1363 178.584 74.833 177.61C77.1813 177.124 79.6939 176.507 81.9504 175.751C84.207 174.994 86.2062 174.099 87.5342 173.045L87.5678 173.02L87.5795 172.978C87.5795 172.978 87.5976 172.912 87.6299 172.796C87.7437 172.386 88.0411 171.348 88.3967 170.303C88.5739 169.78 88.7666 169.258 88.9567 168.812C89.1468 168.367 89.3381 167.998 89.4985 167.798C89.8851 167.314 90.4606 166.885 91.0645 166.512C91.6697 166.14 92.3033 165.822 92.8076 165.553C93.8227 165.011 94.4978 164.471 94.5029 164.468L94.4228 164.367L94.3012 164.322L90.3481 174.842L90.4696 174.887L90.3817 174.792C90.3817 174.792 87.701 177.271 86.2256 178.68C86.1493 178.752 86.0225 178.853 85.8531 178.972C85.2143 179.423 83.9742 180.151 82.3759 180.987C79.9771 182.24 76.7675 183.733 73.5373 184.913C70.3083 186.093 67.056 186.957 64.5887 186.956C63.915 186.956 63.3008 186.891 62.7628 186.754C61.233 186.366 59.5726 185.047 57.9484 183.215C55.5096 180.468 53.1431 176.578 51.3095 173.001C50.3926 171.213 49.6077 169.504 49.0116 168.054C48.4154 166.604 48.0094 165.413 47.849 164.674C47.4003 162.605 46.6516 159.117 46.6529 156.172C46.6529 154.788 46.8197 153.524 47.2503 152.596C47.465 152.13 47.7443 151.75 48.0973 151.472C48.4516 151.194 48.8809 151.015 49.4124 150.961L49.3969 150.837L49.384 150.709C48.8098 150.767 48.3288 150.965 47.9357 151.274C47.3473 151.737 46.9632 152.442 46.7253 153.288C46.4873 154.133 46.3929 155.125 46.3929 156.179C46.3929 159.165 47.1468 162.663 47.5956 164.734C47.818 165.759 48.4723 167.547 49.4305 169.695C50.8672 172.915 52.9841 176.929 55.3376 180.295C56.5144 181.978 57.7493 183.499 58.992 184.679C60.2347 185.858 61.4839 186.698 62.6981 187.009C63.2633 187.154 63.8982 187.218 64.5874 187.218C66.3836 187.218 68.5535 186.776 70.8255 186.095C74.233 185.073 77.8667 183.512 80.7776 182.087C82.2336 181.375 83.5074 180.694 84.4824 180.132C84.9699 179.851 85.3824 179.599 85.707 179.386C86.0316 179.172 86.2656 179 86.404 178.87C87.1398 178.168 88.1782 177.195 89.033 176.4C89.4597 176.002 89.8412 175.649 90.1153 175.394C90.2524 175.267 90.3623 175.165 90.4386 175.094C90.5149 175.023 90.5563 174.985 90.5563 174.985L90.5783 174.964L94.7073 163.977L94.34 164.27L94.3335 164.275C94.2598 164.334 93.6184 164.831 92.6861 165.329C92.1856 165.596 91.5468 165.916 90.9287 166.297C90.3106 166.678 89.7132 167.119 89.2955 167.64C89.1856 167.777 89.0769 167.959 88.967 168.175C88.5816 168.931 88.1743 170.111 87.8601 171.107C87.5471 172.103 87.3286 172.912 87.3286 172.914L87.454 172.947L87.3739 172.846C86.0885 173.868 84.11 174.759 81.869 175.509C78.5068 176.636 74.5537 177.455 71.4437 177.992C69.888 178.259 68.5432 178.457 67.5875 178.588C67.1091 178.652 66.7289 178.702 66.4677 178.734C66.337 178.749 66.2362 178.762 66.1689 178.77C66.1004 178.778 66.0655 178.782 66.0655 178.782L66.0797 178.91L66.2026 178.868C66.2013 178.866 62.5844 168.213 59.1614 161.231C57.5256 157.895 56.054 155.27 54.5669 153.469C53.8233 152.569 53.0746 151.873 52.2961 151.401C51.5177 150.929 50.7082 150.682 49.8534 150.683C49.6982 150.683 49.5417 150.691 49.384 150.708L49.3969 150.837Z" fill="#696969"/>
<path d="M60.0175 189.163C60.0175 189.163 56.1652 202.63 65.8133 209.464C75.4614 216.298 100.387 201.022 109.231 190.57C109.231 190.57 122.765 209.196 134.289 214.824L139.784 209.732C139.784 209.732 124.239 186.952 116.065 181.725C107.891 176.498 81.8935 186.683 81.8935 186.683C81.8935 186.683 66.8181 190.301 60.0175 189.163Z" fill="#696969"/>
<path d="M158.141 211.808C157.605 211.674 157.204 212.211 156.6 212.344C155.997 212.478 148.493 215.025 145.343 215.694L139.783 209.732L134.288 214.824L139.952 219.362C140.538 220.44 141.781 222.508 143.401 223.937C145.679 225.946 147.488 225.076 148.493 224.339C149.498 223.602 151.307 221.592 153.116 220.184C154.925 218.777 157.472 216.164 158.141 214.422C158.811 212.68 158.677 211.943 158.141 211.808Z" fill="#CACACA"/>
<path d="M158.141 211.808L158.172 211.683C158.104 211.666 158.035 211.657 157.969 211.658C157.835 211.658 157.709 211.691 157.591 211.737C157.414 211.808 157.253 211.911 157.087 212.002C156.922 212.096 156.755 212.178 156.572 212.218C156.528 212.229 156.463 212.247 156.373 212.273C155.702 212.471 153.676 213.138 151.446 213.834C149.217 214.531 146.785 215.256 145.318 215.568L145.345 215.694L145.44 215.606L139.79 209.549L134.091 214.832L139.872 219.463L139.953 219.362L139.839 219.424C140.429 220.509 141.675 222.586 143.315 224.034C144.378 224.973 145.36 225.305 146.209 225.305C147.21 225.305 148.014 224.85 148.569 224.444C149.085 224.065 149.787 223.377 150.592 222.607C151.395 221.838 152.297 220.986 153.195 220.288C154.106 219.579 155.199 218.57 156.151 217.516C157.103 216.462 157.913 215.37 158.261 214.47C158.581 213.638 158.723 213.029 158.723 212.584C158.723 212.336 158.678 212.136 158.583 211.982C158.489 211.827 158.34 211.726 158.172 211.684L158.141 211.808L158.11 211.934C158.224 211.964 158.303 212.018 158.363 212.115C158.424 212.213 158.466 212.364 158.466 212.582C158.467 212.971 158.335 213.559 158.021 214.374C157.697 215.216 156.901 216.301 155.959 217.341C155.018 218.381 153.933 219.382 153.037 220.081C152.125 220.789 151.219 221.647 150.413 222.417C149.61 223.188 148.905 223.875 148.417 224.233C147.884 224.623 147.13 225.045 146.209 225.044C145.428 225.042 144.515 224.745 143.486 223.837C141.888 222.428 140.646 220.37 140.065 219.298L140.053 219.275L134.486 214.815L139.776 209.913L145.299 215.835L145.37 215.82C146.955 215.482 149.618 214.678 151.965 213.941C153.138 213.572 154.232 213.221 155.069 212.953C155.487 212.818 155.842 212.706 156.111 212.622C156.245 212.58 156.358 212.546 156.446 212.52C156.534 212.494 156.597 212.476 156.628 212.469C156.923 212.403 157.163 212.255 157.379 212.132C157.487 212.07 157.589 212.014 157.687 211.975C157.785 211.936 157.877 211.914 157.969 211.914C158.014 211.914 158.061 211.92 158.11 211.933L158.141 211.808Z" fill="#696969"/>
<path d="M104.484 213.049C104.484 213.049 103.342 217.357 102.658 218.495C101.972 219.633 99.3097 222.56 99.7662 224.267C100.223 225.974 102.133 226.655 105.177 227.387C108.221 228.119 108.668 229.871 110.57 230.603C112.473 231.335 114.661 231.647 115.193 231.239C115.726 230.833 116.533 231.172 117.506 230.1C118.523 228.976 116.366 228.09 115.227 227.118C114.49 226.489 112.551 224.591 110.344 222.64C108.137 220.688 110.436 215.493 110.436 215.493L104.484 213.049Z" fill="#CACACA"/>
<path d="M104.484 213.049L104.358 213.015C104.358 213.015 104.34 213.082 104.308 213.201C104.194 213.62 103.9 214.684 103.56 215.768C103.391 216.31 103.208 216.856 103.034 217.326C102.859 217.797 102.687 218.194 102.546 218.428C102.394 218.682 102.133 219.038 101.826 219.454C101.367 220.077 100.811 220.835 100.366 221.603C99.9226 222.372 99.5851 223.152 99.5838 223.845C99.5838 224.002 99.6019 224.154 99.6407 224.3C99.7597 224.746 99.9769 225.13 100.281 225.459C100.737 225.953 101.384 226.327 102.2 226.649C103.016 226.969 104.002 227.237 105.146 227.512C106.646 227.875 107.493 228.478 108.217 229.093C108.579 229.4 108.909 229.712 109.272 229.995C109.635 230.278 110.032 230.533 110.522 230.722C111.865 231.238 113.338 231.546 114.31 231.547C114.521 231.547 114.708 231.533 114.87 231.501C115.03 231.468 115.166 231.42 115.271 231.34C115.385 231.254 115.515 231.204 115.673 231.164C115.91 231.104 116.202 231.069 116.532 230.943C116.861 230.818 117.224 230.6 117.6 230.185C117.8 229.966 117.9 229.734 117.899 229.505C117.899 229.249 117.778 229.015 117.602 228.8C117.337 228.478 116.935 228.182 116.514 227.889C116.092 227.597 115.65 227.308 115.31 227.017C114.946 226.707 114.276 226.074 113.424 225.278C112.572 224.481 111.534 223.518 110.429 222.54C110.091 222.242 109.864 221.861 109.719 221.427C109.575 220.994 109.515 220.506 109.515 220.003C109.515 218.954 109.774 217.835 110.034 216.982C110.164 216.556 110.294 216.195 110.392 215.941C110.441 215.815 110.481 215.715 110.51 215.647C110.524 215.613 110.535 215.587 110.542 215.569C110.55 215.552 110.554 215.543 110.554 215.543L110.608 215.422L104.397 212.869L104.359 213.011L104.484 213.049L104.434 213.168L110.387 215.613L110.436 215.494L110.318 215.442C110.317 215.446 110.053 216.042 109.788 216.91C109.524 217.778 109.258 218.916 109.258 220.007C109.258 220.531 109.319 221.044 109.475 221.514C109.63 221.982 109.882 222.406 110.26 222.739C111.362 223.713 112.398 224.675 113.25 225.472C114.102 226.268 114.77 226.9 115.144 227.219C115.623 227.626 116.26 228.009 116.771 228.394C117.027 228.587 117.251 228.78 117.405 228.967C117.56 229.157 117.642 229.336 117.641 229.508C117.641 229.662 117.579 229.825 117.408 230.013C116.938 230.531 116.528 230.696 116.152 230.794C115.964 230.842 115.784 230.872 115.61 230.916C115.436 230.96 115.267 231.021 115.113 231.137C115.058 231.18 114.957 231.222 114.818 231.25C114.681 231.277 114.508 231.291 114.309 231.291C113.388 231.292 111.928 230.988 110.614 230.483C110.154 230.306 109.782 230.066 109.43 229.794C108.903 229.384 108.428 228.891 107.793 228.429C107.158 227.968 106.361 227.54 105.204 227.262C103.684 226.897 102.453 226.544 101.557 226.078C101.108 225.846 100.745 225.586 100.467 225.284C100.189 224.983 99.9963 224.64 99.8864 224.234C99.8541 224.113 99.8386 223.983 99.8386 223.846C99.8386 223.442 99.9756 222.971 100.198 222.481C100.532 221.744 101.052 220.963 101.549 220.268C102.047 219.574 102.519 218.969 102.764 218.563C102.945 218.261 103.144 217.776 103.348 217.209C103.961 215.508 104.602 213.085 104.604 213.082L104.484 213.049L104.434 213.168L104.484 213.049Z" fill="#696969"/>
<path d="M114.421 152.041L108.094 170.332L106.824 173.966C106.736 174.208 106.534 174.393 106.285 174.456L90.1322 178.678C89.8024 178.766 89.4973 178.63 89.3279 178.396C89.1753 178.204 89.1184 177.939 89.2076 177.672L90.0675 175.228L97.9389 152.144C98.0436 151.839 98.3165 151.63 98.6385 151.622L112.379 151.067L113.658 151.019C114.204 150.996 114.598 151.526 114.421 152.041Z" fill="#979797"/>
<path d="M114.421 152.041L108.094 170.332L106.824 173.966C106.736 174.208 106.534 174.393 106.285 174.456L90.1321 178.678C89.8023 178.766 89.4972 178.63 89.3278 178.396C92.2619 175.976 100.287 169.07 105.681 161.689C109.524 156.431 111.446 153.013 112.378 151.068L113.657 151.021C114.204 150.996 114.598 151.526 114.421 152.041Z" fill="#7D7D7D"/>
<path d="M111.148 162.642C111.141 162.629 111.129 162.619 111.121 162.606C111.311 162.413 111.561 162.082 111.461 161.738C111.307 161.204 110.519 160.867 109.407 160.895C108.294 160.925 107.713 161.3 107.945 161.53C108.178 161.76 108.798 162.048 109.487 161.953L109.643 162.142C109.43 162.16 109.204 162.193 108.963 162.253C107.883 162.517 107.393 163.007 107.669 163.183C107.945 163.358 108.611 163.51 109.264 163.27L109.418 163.391C109.253 163.411 109.081 163.44 108.901 163.484C107.821 163.748 107.331 164.238 107.607 164.414C107.883 164.589 108.549 164.741 109.202 164.502L109.563 164.786C108.948 164.981 108.265 165.271 108.385 165.495C108.561 165.822 109.566 165.897 109.566 165.897L109.139 167.229C109.139 167.229 110.471 166.6 110.922 165.923C111.183 165.532 111.104 165.121 110.895 164.857C111.045 164.64 111.273 164.222 111.085 163.874C111.045 163.801 110.988 163.736 110.922 163.677C111.066 163.48 111.35 163.018 111.148 162.642Z" fill="#CACACA"/>
<path d="M111.148 162.642L111.262 162.58C111.25 162.559 111.24 162.546 111.234 162.54L111.228 162.534L111.227 162.535L111.228 162.534L111.227 162.535L111.228 162.534L111.192 162.559L111.23 162.536L111.228 162.534L111.192 162.559L111.23 162.536L111.12 162.605L111.212 162.695C111.297 162.609 111.394 162.496 111.473 162.362C111.55 162.227 111.611 162.071 111.611 161.897C111.611 161.833 111.602 161.767 111.584 161.701C111.54 161.548 111.453 161.412 111.334 161.296C111.155 161.121 110.905 160.989 110.603 160.9C110.299 160.811 109.94 160.763 109.54 160.763C109.494 160.763 109.449 160.763 109.404 160.764C108.918 160.777 108.527 160.854 108.249 160.961C108.109 161.015 107.998 161.076 107.914 161.147C107.873 161.183 107.837 161.222 107.811 161.266C107.785 161.31 107.767 161.363 107.767 161.418C107.765 161.494 107.803 161.568 107.856 161.619C107.975 161.736 108.16 161.852 108.394 161.944C108.627 162.034 108.909 162.099 109.215 162.099C109.311 162.099 109.408 162.093 109.506 162.08L109.488 161.952L109.388 162.034L109.545 162.223L109.644 162.14L109.634 162.011C109.414 162.029 109.181 162.064 108.933 162.125C108.482 162.235 108.127 162.385 107.879 162.54C107.755 162.618 107.657 162.698 107.586 162.78C107.549 162.822 107.521 162.865 107.499 162.91C107.478 162.955 107.464 163.003 107.464 163.055C107.464 163.101 107.477 163.149 107.502 163.19C107.526 163.232 107.561 163.264 107.6 163.29C107.702 163.355 107.839 163.412 108.001 163.453C108.162 163.494 108.351 163.521 108.553 163.521C108.791 163.521 109.051 163.484 109.308 163.39L109.264 163.268L109.184 163.37L109.338 163.49L109.418 163.388L109.403 163.26C109.233 163.281 109.057 163.309 108.87 163.356C108.418 163.466 108.064 163.616 107.816 163.771C107.692 163.849 107.593 163.929 107.522 164.012C107.486 164.053 107.458 164.096 107.436 164.141C107.415 164.186 107.401 164.234 107.401 164.286C107.401 164.332 107.414 164.38 107.438 164.422C107.463 164.463 107.498 164.495 107.537 164.521C107.639 164.586 107.776 164.643 107.937 164.684C108.099 164.725 108.288 164.753 108.49 164.753C108.728 164.753 108.987 164.715 109.245 164.621L109.201 164.499L109.121 164.601L109.481 164.886L109.562 164.784L109.523 164.661C109.234 164.753 108.933 164.864 108.695 164.983C108.576 165.044 108.473 165.104 108.393 165.173C108.352 165.208 108.318 165.243 108.289 165.285C108.262 165.328 108.24 165.38 108.24 165.438C108.24 165.477 108.25 165.518 108.27 165.553C108.303 165.615 108.352 165.666 108.407 165.706C108.503 165.777 108.62 165.827 108.743 165.869C109.113 165.99 109.549 166.021 109.554 166.022L109.563 165.893L109.44 165.853L108.921 167.468L109.19 167.341C109.193 167.34 109.529 167.181 109.926 166.935C110.322 166.688 110.778 166.36 111.027 165.99C111.156 165.796 111.214 165.592 111.213 165.399C111.213 165.159 111.126 164.94 110.993 164.773L110.892 164.853L110.998 164.927C111.056 164.843 111.126 164.729 111.182 164.599C111.238 164.468 111.281 164.318 111.281 164.16C111.281 164.045 111.257 163.924 111.196 163.81C111.146 163.718 111.078 163.643 111.006 163.578L110.919 163.674L111.024 163.75C111.082 163.671 111.16 163.554 111.226 163.413C111.291 163.272 111.345 163.106 111.345 162.929C111.345 162.813 111.32 162.693 111.259 162.579L111.148 162.642L111.034 162.703C111.073 162.775 111.089 162.85 111.089 162.93C111.089 163.052 111.049 163.185 110.993 163.306C110.937 163.424 110.868 163.531 110.817 163.599L110.747 163.693L110.834 163.772C110.894 163.825 110.94 163.878 110.97 163.935C111.009 164.008 111.024 164.083 111.024 164.163C111.024 164.273 110.992 164.39 110.945 164.499C110.899 164.608 110.838 164.709 110.786 164.782L110.732 164.861L110.791 164.936C110.891 165.06 110.956 165.225 110.956 165.4C110.956 165.543 110.916 165.694 110.812 165.848C110.609 166.156 110.172 166.481 109.79 166.717C109.599 166.836 109.421 166.934 109.291 167.003C109.227 167.036 109.174 167.063 109.137 167.082C109.119 167.091 109.105 167.097 109.096 167.102L109.082 167.109L109.137 167.225L109.26 167.265L109.737 165.777L109.575 165.765L109.564 165.764C109.512 165.76 109.265 165.735 109.018 165.677C108.896 165.649 108.771 165.61 108.676 165.565C108.579 165.521 108.515 165.465 108.497 165.43L108.482 165.438H108.499L108.497 165.43L108.482 165.438H108.499H108.486L108.499 165.441V165.438H108.486L108.499 165.441L108.501 165.435C108.508 165.419 108.546 165.375 108.612 165.329C108.711 165.259 108.865 165.183 109.039 165.109C109.214 165.037 109.41 164.967 109.602 164.906L109.834 164.833L109.224 164.353L109.157 164.378C108.931 164.46 108.702 164.493 108.49 164.493C108.31 164.493 108.143 164.469 108.002 164.433C107.861 164.397 107.746 164.348 107.675 164.303C107.663 164.295 107.661 164.29 107.659 164.29V164.286C107.659 164.282 107.661 164.27 107.67 164.252C107.685 164.22 107.723 164.169 107.785 164.115C107.972 163.948 108.367 163.745 108.931 163.608C109.105 163.565 109.271 163.538 109.434 163.518L109.741 163.479L109.287 163.122L109.22 163.146C108.994 163.229 108.765 163.262 108.553 163.262C108.373 163.262 108.206 163.238 108.065 163.202C107.924 163.166 107.809 163.117 107.738 163.071C107.727 163.064 107.724 163.059 107.723 163.059V163.055C107.723 163.051 107.724 163.039 107.733 163.021C107.749 162.989 107.786 162.938 107.848 162.884C108.036 162.717 108.43 162.514 108.994 162.377C109.228 162.32 109.448 162.287 109.655 162.27L109.902 162.249L109.541 161.813L109.47 161.824C109.383 161.835 109.298 161.84 109.214 161.84C108.945 161.84 108.693 161.783 108.487 161.703C108.281 161.623 108.12 161.518 108.037 161.436C108.021 161.419 108.025 161.419 108.024 161.419C108.024 161.419 108.024 161.412 108.032 161.399C108.045 161.376 108.086 161.333 108.155 161.292C108.258 161.229 108.421 161.164 108.633 161.115C108.845 161.066 109.106 161.031 109.41 161.023C109.454 161.022 109.497 161.022 109.54 161.022C110.047 161.022 110.473 161.103 110.782 161.24C110.937 161.309 111.062 161.39 111.153 161.481C111.245 161.571 111.306 161.668 111.336 161.773C111.347 161.816 111.354 161.857 111.354 161.899C111.354 162.01 111.314 162.125 111.25 162.232C111.187 162.34 111.103 162.439 111.028 162.515L110.956 162.588L111.01 162.674C111.022 162.693 111.031 162.702 111.034 162.707L111.037 162.709L111.078 162.678L111.033 162.703L111.037 162.709L111.078 162.678L111.033 162.703L111.148 162.642Z" fill="#696969"/>
<path d="M106.439 164.301C105.987 165.795 104.765 166.748 103.709 166.428C102.652 166.109 102.164 164.64 102.615 163.145C103.066 161.652 104.288 160.699 105.345 161.018C106.401 161.337 106.89 162.808 106.439 164.301Z" fill="#7D7D7D"/>
<path d="M153.826 224.362C150.53 238.601 135.744 248.474 109.364 250.268C56.098 253.886 26.7515 250.67 16.299 225.342C13.9352 219.618 13.0183 212.221 13.1476 204.14C17.168 205.749 24.6527 210.145 32.7814 221.925C44.8412 239.412 69.1626 248.257 98.5105 244.437C127.068 240.724 144.403 236.624 153.826 224.362Z" fill="#696969"/>
</svg>
