<svg width="602" height="590" viewBox="0 0 602 590" fill="none" xmlns="http://www.w3.org/2000/svg">
<rect width="602" height="590" fill="white"/>
<path d="M34.0001 34H19.4141L24.7071 28.707L23.2931 27.293L15.5861 35L23.2931 42.707L24.7071 41.293L19.4141 36H34.0001V34Z" fill="black"/>
<path d="M83 32H91V34H83V32Z" fill="black"/>
<path d="M95 45V33V32.276V27C95 25.897 94.103 25 93 25H81C79.897 25 79 25.897 79 27V32.276V33V45L87 40.428L95 45ZM81 33V32.276V27H93V32.276V33V41.553L87 38.125L81 41.553V33Z" fill="black"/>
<path d="M149 37V34H152V32H149V29H147V32H144V34H147V37H149Z" fill="black"/>
<path d="M156 45V33V32.276V27C156 25.897 155.103 25 154 25H142C140.897 25 140 25.897 140 27V32.276V33V45L148 40.428L156 45ZM142 33V32.276V27H154V32.276V33V41.553L148 38.125L142 41.553V33Z" fill="black"/>
<path d="M215 25H203C201.897 25 201 25.897 201 27V32.276V33V45L209 40.428L217 45V33V32.276V27C217 25.897 216.103 25 215 25ZM215 41.553L209 38.125L203 41.553V33V32.276V27H215V32.276V33V41.553Z" fill="black"/>
<path d="M262 29V31V43C262 44.103 262.897 45 264 45H278C279.103 45 280 44.103 280 43V31V29C280 27.897 279.103 27 278 27H276V25H274V27H268V25H266V27H264C262.897 27 262 27.897 262 29ZM278.002 43H264V31H278L278.002 43Z" fill="black"/>
<path d="M341 27H339V25H337V27H331V25H329V27H327C325.897 27 325 27.897 325 29V31V43C325 44.103 325.897 45 327 45H341C342.103 45 343 44.103 343 43V31V29C343 27.897 342.103 27 341 27ZM341.002 43H327V31H341L341.002 43Z" fill="black"/>
<path d="M333 40.414L338.707 34.707L337.293 33.293L333 37.586L330.707 35.293L329.293 36.707L333 40.414Z" fill="black"/>
<path d="M404 27H401V25H399V27H395V25H393V27H390C388.897 27 388 27.897 388 29V43C388 44.103 388.897 45 390 45H404C405.103 45 406 44.103 406 43V29C406 27.897 405.103 27 404 27ZM390 43V30H393H395H399H401H404V29L404.002 43H390Z" fill="black"/>
<path d="M400.628 35.1832L398.828 33.3841L400.199 32.0127L401.999 33.8118L400.628 35.1832Z" fill="black"/>
<path d="M393.005 39.201V41H394.804L399.78 36.03L397.981 34.231L393.005 39.201Z" fill="black"/>
<path d="M459 35H465V41H459V35Z" fill="black"/>
<path d="M467 27H465V25H463V27H457V25H455V27H453C451.897 27 451 27.897 451 29V31V43C451 44.103 451.897 45 453 45H467C468.103 45 469 44.103 469 43V31V29C469 27.897 468.103 27 467 27ZM467.001 43H453V31H467L467.001 43Z" fill="black"/>
<path d="M148 86H156V88H148V86Z" fill="black"/>
<path d="M159 77H157V75H155V77H149V75H147V77H145C143.897 77 143 77.897 143 79V81V93C143 94.103 143.897 95 145 95H159C160.103 95 161 94.103 161 93V81V79C161 77.897 160.103 77 159 77ZM159.002 93H145V81H159L159.002 93Z" fill="black"/>
<path d="M210 88H213V91H215V88H218V86H215V83H213V86H210V88Z" fill="black"/>
<path d="M221 77H219V75H217V77H211V75H209V77H207C205.897 77 205 77.897 205 79V81V93C205 94.103 205.897 95 207 95H221C222.103 95 223 94.103 223 93V81V79C223 77.897 222.103 77 221 77ZM221.002 93H207V81H221L221.002 93Z" fill="black"/>
<path d="M273.981 87.811L273.514 90.537L275.963 89.25L278.412 90.537L277.944 87.811L279.926 85.879L277.188 85.481L275.963 83L274.738 85.481L272 85.879L273.981 87.811Z" fill="black"/>
<path d="M283 77H281V75H279V77H273V75H271V77H269C267.897 77 267 77.897 267 79V81V93C267 94.103 267.897 95 269 95H283C284.103 95 285 94.103 285 93V81V79C285 77.897 284.103 77 283 77ZM283.002 93H269V81H283L283.002 93Z" fill="black"/>
<path d="M345 77H342V75H340V77H336V75H334V77H331C329.897 77 329 77.897 329 79V93C329 94.103 329.897 95 331 95H345C346.103 95 347 94.103 347 93V79C347 77.897 346.103 77 345 77ZM331 93V80H334H336H340H342H345V79L345.002 93H331Z" fill="black"/>
<path d="M333 83V84V85H343V84V83V82H333V83Z" fill="black"/>
<path d="M396.293 89.293L397.707 90.707L400 88.414L402.293 90.707L403.707 89.293L401.414 87L403.707 84.707L402.293 83.293L400 85.586L397.707 83.293L396.293 84.707L398.586 87L396.293 89.293Z" fill="black"/>
<path d="M407 77H405V75H403V77H397V75H395V77H393C391.897 77 391 77.897 391 79V81V93C391 94.103 391.897 95 393 95H407C408.103 95 409 94.103 409 93V81V79C409 77.897 408.103 77 407 77ZM407.002 93H393V81H407L407.002 93Z" fill="black"/>
<path d="M457 84H459V86H457V84ZM457 88H459V90H457V88ZM461 84H463V86H461V84ZM461 88H463V90H461V88ZM465 84H467V86H465V84ZM465 88H467V90H465V88Z" fill="black"/>
<path d="M455 95H469C470.103 95 471 94.103 471 93V81V79C471 77.897 470.103 77 469 77H467V75H465V77H459V75H457V77H455C453.897 77 453 77.897 453 79V81V93C453 94.103 453.897 95 455 95ZM469 81L469.001 93H455V81H469Z" fill="black"/>
<path d="M25 89L30 83H20L25 89Z" fill="black"/>
<path d="M25 75C19.486 75 15 79.486 15 85C15 90.514 19.486 95 25 95C30.514 95 35 90.514 35 85C35 79.486 30.514 75 25 75ZM25 93C20.589 93 17 89.411 17 85C17 80.589 20.589 77 25 77C29.411 77 33 80.589 33 85C33 89.411 29.411 93 25 93Z" fill="black"/>
<path d="M522.998 89L529.998 81H515.998L522.998 89Z" fill="black"/>
<path d="M91 90V80L85 85L91 90Z" fill="black"/>
<path d="M89 75C83.486 75 79 79.486 79 85C79 90.514 83.486 95 89 95C94.514 95 99 90.514 99 85C99 79.486 94.514 75 89 75ZM89 93C84.589 93 81 89.411 81 85C81 80.589 84.589 77 89 77C93.411 77 97 80.589 97 85C97 89.411 93.411 93 89 93Z" fill="black"/>
<path d="M585 90V80L579 85L585 90Z" fill="black"/>
<path d="M590 76H576C574.897 76 574 76.897 574 78V92C574 93.103 574.897 94 576 94H590C591.103 94 592 93.103 592 92V78C592 76.897 591.103 76 590 76ZM576 92V78H590L590.002 92H576Z" fill="black"/>
<path d="M23 142V128L15 135L23 142Z" fill="black"/>
<path d="M77 140L83 135L77 130V140Z" fill="black"/>
<path d="M79 125C73.486 125 69 129.486 69 135C69 140.514 73.486 145 79 145C84.514 145 89 140.514 89 135C89 129.486 84.514 125 79 125ZM79 143C74.589 143 71 139.411 71 135C71 130.589 74.589 127 79 127C83.411 127 87 130.589 87 135C87 139.411 83.411 143 79 143Z" fill="black"/>
<path d="M142 140L148 135L142 130V140Z" fill="black"/>
<path d="M151 126H137C135.897 126 135 126.897 135 128V142C135 143.103 135.897 144 137 144H151C152.103 144 153 143.103 153 142V128C153 126.897 152.103 126 151 126ZM137 142V128H151L151.002 142H137Z" fill="black"/>
<path d="M199 142L207 135L199 128V142Z" fill="black"/>
<path d="M258 137H268L263 131L258 137Z" fill="black"/>
<path d="M263 125C257.486 125 253 129.486 253 135C253 140.514 257.486 145 263 145C268.514 145 273 140.514 273 135C273 129.486 268.514 125 263 125ZM263 143C258.589 143 255 139.411 255 135C255 130.589 258.589 127 263 127C267.411 127 271 130.589 271 135C271 139.411 267.411 143 263 143Z" fill="black"/>
<path d="M323 137H333L328 131L323 137Z" fill="black"/>
<path d="M335 126H321C319.897 126 319 126.897 319 128V142C319 143.103 319.897 144 321 144H335C336.103 144 337 143.103 337 142V128C337 126.897 336.103 126 335 126ZM321 142V128H335L335.002 142H321Z" fill="black"/>
<path d="M383 139H397L390 131L383 139Z" fill="black"/>
<path d="M446 141V144.766L447.515 143.857L452.277 141H457C458.103 141 459 140.103 459 139V131C459 129.897 458.103 129 457 129H445C443.897 129 443 129.897 443 131V139C443 140.103 443.897 141 445 141H446ZM445 131H457V139H451.723L448 141.234V139H445V131Z" fill="black"/>
<path d="M461 125H460H457.998H449C447.897 125 447 125.897 447 127H457.586H459C460.103 127 461 127.897 461 129V130.414V135V137C462.103 137 463 136.103 463 135V130V128V127C463 125.897 462.103 125 461 125Z" fill="black"/>
<path d="M519 125C513.486 125 509 129.486 509 135C509 140.514 513.486 145 519 145C524.514 145 529 140.514 529 135C529 129.486 524.514 125 519 125ZM519 143C514.589 143 511 139.411 511 135C511 130.589 514.589 127 519 127C523.411 127 527 130.589 527 135C527 139.411 523.411 143 519 143Z" fill="black"/>
<path d="M516.999 136.587L514.7 134.292L513.288 135.708L517.001 139.413L523.707 132.707L522.293 131.293L516.999 136.587Z" fill="black"/>
<path d="M575.394 135.742L580.137 139.362L587.753 130.658L586.247 129.342L579.863 136.638L576.606 134.152L575.394 135.742ZM594.753 130.658L593.247 129.342L586.878 136.621L586.125 136.019L584.875 137.581L587.122 139.379L594.753 130.658Z" fill="black"/>
<path d="M152.933 185.519L150.707 183.293L149.293 184.707L153.067 188.481L158.769 181.641L157.231 180.359L152.933 185.519Z" fill="black"/>
<path d="M161 175H147C145.897 175 145 175.897 145 177V191C145 192.103 145.897 193 147 193H161C162.103 193 163 192.103 163 191V177C163 175.897 162.103 175 161 175ZM147 191V177H161L161.002 191H147Z" fill="black"/>
<path d="M213 186.586L209.707 183.293L208.293 184.707L213 189.414L222.707 179.707L221.293 178.293L213 186.586Z" fill="black"/>
<path d="M458.293 180.293L454 184.586L449.707 180.293L448.293 181.707L454 187.414L459.707 181.707L458.293 180.293Z" fill="black"/>
<path d="M515 174C509.486 174 505 178.486 505 184C505 189.514 509.486 194 515 194C520.514 194 525 189.514 525 184C525 178.486 520.514 174 515 174ZM515 192C510.589 192 507 188.411 507 184C507 179.589 510.589 176 515 176C519.411 176 523 179.589 523 184C523 188.411 519.411 192 515 192Z" fill="black"/>
<path d="M516.293 178.293L510.586 184L516.293 189.707L517.707 188.293L513.414 184L517.707 179.707L516.293 178.293Z" fill="black"/>
<path d="M17 243H31C32.103 243 33 242.103 33 241V227C33 225.897 32.103 225 31 225H17C15.897 225 15 225.897 15 227V241C15 242.103 15.897 243 17 243ZM17 227H31L31.001 241H17V227Z" fill="black"/>
<path d="M25.2931 228.293L19.5861 234L25.2931 239.707L26.7071 238.293L22.4141 234L26.7071 229.707L25.2931 228.293Z" fill="black"/>
<path d="M87.2931 228.293L81.5861 234L87.2931 239.707L88.7071 238.293L84.4141 234L88.7071 229.707L87.2931 228.293Z" fill="black"/>
<path d="M147 224C141.486 224 137 228.486 137 234C137 239.514 141.486 244 147 244C152.514 244 157 239.514 157 234C157 228.486 152.514 224 147 224ZM147 242C142.589 242 139 238.411 139 234C139 229.589 142.589 226 147 226C151.411 226 155 229.589 155 234C155 238.411 151.411 242 147 242Z" fill="black"/>
<path d="M144.293 229.707L148.586 234L144.293 238.293L145.707 239.707L151.414 234L145.707 228.293L144.293 229.707Z" fill="black"/>
<path d="M207 243H221C222.103 243 223 242.103 223 241V227C223 225.897 222.103 225 221 225H207C205.897 225 205 225.897 205 227V241C205 242.103 205.897 243 207 243ZM207 227H221L221.001 241H207V227Z" fill="black"/>
<path d="M211.293 229.707L215.586 234L211.293 238.293L212.707 239.707L218.414 234L212.707 228.293L211.293 229.707Z" fill="black"/>
<path d="M272.707 239.707L278.414 234L272.707 228.293L271.293 229.707L275.586 234L271.293 238.293L272.707 239.707Z" fill="black"/>
<path d="M337 224C331.486 224 327 228.486 327 234C327 239.514 331.486 244 337 244C342.514 244 347 239.514 347 234C347 228.486 342.514 224 337 224ZM337 242C332.589 242 329 238.411 329 234C329 229.589 332.589 226 337 226C341.411 226 345 229.589 345 234C345 238.411 341.411 242 337 242Z" fill="black"/>
<path d="M331.293 235.293L332.707 236.707L337 232.414L341.293 236.707L342.707 235.293L337 229.586L331.293 235.293Z" fill="black"/>
<path d="M397 243H411C412.103 243 413 242.103 413 241V227C413 225.897 412.103 225 411 225H397C395.897 225 395 225.897 395 227V241C395 242.103 395.897 243 397 243ZM397 227H411L411.001 241H397V227Z" fill="black"/>
<path d="M398.293 235.293L399.707 236.707L404 232.414L408.293 236.707L409.707 235.293L404 229.586L398.293 235.293Z" fill="black"/>
<path d="M461.293 236.293L462.707 237.707L467 233.414L471.293 237.707L472.707 236.293L467 230.586L461.293 236.293Z" fill="black"/>
<path d="M527 236.586L522.707 232.293L521.293 233.707L527 239.414L532.707 233.707L531.293 232.293L527 236.586Z" fill="black"/>
<path d="M532.707 228.707L531.293 227.293L527 231.586L522.707 227.293L521.293 228.707L527 234.414L532.707 228.707Z" fill="black"/>
<path d="M588.707 229.707L587.293 228.293L581.586 234L587.293 239.707L588.707 238.293L584.414 234L588.707 229.707Z" fill="black"/>
<path d="M592.293 228.293L586.586 234L592.293 239.707L593.707 238.293L589.414 234L593.707 229.707L592.293 228.293Z" fill="black"/>
<path d="M273.296 179.71L277.621 184L273.296 188.29L274.704 189.71L280.461 184L274.704 178.29L273.296 179.71Z" fill="black"/>
<path d="M269.704 178.29L268.296 179.71L272.621 184L268.296 188.29L269.704 189.71L275.461 184L269.704 178.29Z" fill="black"/>
<path d="M326.293 183.293L327.707 184.707L332 180.414L336.293 184.707L337.707 183.293L332 177.586L326.293 183.293Z" fill="black"/>
<path d="M326.293 188.293L327.707 189.707L332 185.414L336.293 189.707L337.707 188.293L332 182.586L326.293 188.293Z" fill="black"/>
<path d="M24 286H26V283H29V281H26V278H24V281H21V283H24V286Z" fill="black"/>
<path d="M33 274H17C15.897 274 15 274.897 15 276V294L20.333 290H33C34.103 290 35 289.103 35 288V276C35 274.897 34.103 274 33 274ZM33 288H19.667L17 290V276H33V288Z" fill="black"/>
<path d="M100.207 280.207L98.793 278.793L94 283.586L91.707 281.293L90.293 282.707L94 286.414L100.207 280.207Z" fill="black"/>
<path d="M103 274H87C85.897 274 85 274.897 85 276V294L90.333 290H103C104.103 290 105 289.103 105 288V276C105 274.897 104.103 274 103 274ZM103 288H89.667L87 290V276H103V288Z" fill="black"/>
<path d="M160 279H170V281H160V279ZM160 283H167V285H160V283Z" fill="black"/>
<path d="M173 274H157C155.897 274 155 274.897 155 276V294L160.333 290H173C174.103 290 175 289.103 175 288V276C175 274.897 174.103 274 173 274ZM173 288H159.667L157 290V276H173V288Z" fill="black"/>
<path d="M243 274H227C225.897 274 225 274.897 225 276V294L230.333 290H243C244.103 290 245 289.103 245 288V276C245 274.897 244.103 274 243 274ZM243 288H229.667L227 290V276H243V288Z" fill="black"/>
<path d="M238 284C239.105 284 240 283.105 240 282C240 280.895 239.105 280 238 280C236.895 280 236 280.895 236 282C236 283.105 236.895 284 238 284Z" fill="black"/>
<path d="M232 284C233.105 284 234 283.105 234 282C234 280.895 233.105 280 232 280C230.895 280 230 280.895 230 282C230 283.105 230.895 284 232 284Z" fill="black"/>
<path d="M306.771 281.123L305.372 279.725L301.503 283.589V284.987H302.901L306.771 281.123Z" fill="black"/>
<path d="M307.098 278L308.497 279.398L307.429 280.465L306.031 279.067L307.098 278Z" fill="black"/>
<path d="M313 274H297C295.897 274 295 274.897 295 276V294L300.333 290H313C314.103 290 315 289.103 315 288V276C315 274.897 314.103 274 313 274ZM313 288H299.667L297 290V276H313V288Z" fill="black"/>
<path d="M374 278H376V283H374V278ZM374 284H376V286H374V284Z" fill="black"/>
<path d="M383 274H367C365.897 274 365 274.897 365 276V294L370.333 290H383C384.103 290 385 289.103 385 288V276C385 274.897 384.103 274 383 274ZM383 288H369.667L367 290V276H383V288Z" fill="black"/>
<path d="M441 281H449V283H441V281Z" fill="black"/>
<path d="M453 274H437C435.897 274 435 274.897 435 276V294L440.333 290H453C454.103 290 455 289.103 455 288V276C455 274.897 454.103 274 453 274ZM453 288H439.667L437 290V276H453V288Z" fill="black"/>
<path d="M512.707 285.707L515 283.414L517.293 285.707L518.707 284.293L516.414 282L518.707 279.707L517.293 278.293L515 280.586L512.707 278.293L511.293 279.707L513.586 282L511.293 284.293L512.707 285.707Z" fill="black"/>
<path d="M523 274H507C505.897 274 505 274.897 505 276V294L510.333 290H523C524.103 290 525 289.103 525 288V276C525 274.897 524.103 274 523 274ZM523 288H509.667L507 290V276H523V288Z" fill="black"/>
<path d="M593 274H577C575.897 274 575 274.897 575 276V294L580.333 290H593C594.103 290 595 289.103 595 288V276C595 274.897 594.103 274 593 274ZM593 288H579.667L577 290V276H593V288Z" fill="black"/>
<path d="M397 186H397.5C398.327 186 399 185.327 399 184.5V175.5C399 174.673 398.327 174 397.5 174H384.5C383.673 174 383 174.673 383 175.5V185V186V190L388.333 186H394H397ZM387.667 184L385 186V185V176H397V184H394H387.667Z" fill="black"/>
<path d="M401.5 180H401V182V184.586V186.001C401 187.101 400.107 187.994 399.01 188H398.333H397H392H391H389V188.5C389 189.327 389.673 190 390.5 190H391H392H397H397.667L403 194V190V189V187.001V184.999V181.5C403 180.673 402.327 180 401.5 180Z" fill="black"/>
<path d="M21 334H25V338H21V334ZM27 334H31V338H27V334ZM15 334H19V338H15V334Z" fill="black"/>
<path d="M78 334C76.9 334 76 334.9 76 336C76 337.1 76.9 338 78 338C79.1 338 80 337.1 80 336C80 334.9 79.1 334 78 334ZM78 328C76.9 328 76 328.9 76 330C76 331.1 76.9 332 78 332C79.1 332 80 331.1 80 330C80 328.9 79.1 328 78 328ZM78 340C76.9 340 76 340.9 76 342C76 343.1 76.9 344 78 344C79.1 344 80 343.1 80 342C80 340.9 79.1 340 78 340Z" fill="black"/>
<path d="M125 334H129V338H125V334ZM125 328H129V332H125V328ZM125 340H129V344H125V340Z" fill="black"/>
<path d="M34.555 180.168L25.555 174.168C25.219 173.944 24.782 173.944 24.446 174.168L15.446 180.168C15.167 180.354 15 180.666 15 181V192C15 193.103 15.897 194 17 194H33C34.103 194 35 193.103 35 192V181C35 180.666 34.833 180.354 34.555 180.168ZM25 176.202L32.197 181L25 185.798L17.803 181L25 176.202ZM17 192V182.869L24.445 187.832C24.613 187.944 24.807 188 25 188C25.193 188 25.387 187.944 25.555 187.832L33 182.869L32.997 192H17Z" fill="black"/>
<path d="M98 176H82C80.897 176 80 176.897 80 178V190C80 191.103 80.897 192 82 192H98C99.103 192 100 191.103 100 190V178C100 176.897 99.103 176 98 176ZM98 178V178.511L90 184.734L82 178.512V178H98ZM82 190V181.044L89.386 186.789C89.566 186.93 89.783 187 90 187C90.217 187 90.434 186.93 90.614 186.789L98 181.044L98.002 190H82Z" fill="black"/>
<path d="M313.953 326C308.465 326 304 330.486 304 336C304 341.514 308.486 346 314 346C319.514 346 324 341.514 324 336C324 330.486 319.493 326 313.953 326ZM314 344C309.589 344 306 340.411 306 336C306 331.589 309.567 328 313.953 328C318.391 328 322 331.589 322 336C322 340.411 318.411 344 314 344Z" fill="black"/>
<path d="M313 331H315V338H313V331ZM313 339H315V341H313V339Z" fill="black"/>
<path d="M248.001 334H250.001V339H248.001V334ZM248 340H250V342H248V340Z" fill="black"/>
<path d="M250.768 328.2C250.42 327.545 249.742 327.138 249 327.138C248.258 327.138 247.58 327.545 247.232 328.201L239.894 342.064C239.563 342.69 239.583 343.425 239.948 344.032C240.313 344.638 240.953 345 241.661 345H256.339C257.047 345 257.688 344.638 258.053 344.032C258.417 343.426 258.438 342.69 258.107 342.064L250.768 328.2ZM241.661 343L249 329.137L256.344 343H241.661Z" fill="black"/>
<path d="M26 378C20.486 378 16 382.486 16 388C16 393.514 20.486 398 26 398C31.514 398 36 393.514 36 388C36 382.486 31.514 378 26 378ZM26 396C21.589 396 18 392.411 18 388C18 383.589 21.589 380 26 380C30.411 380 34 383.589 34 388C34 392.411 30.411 396 26 396Z" fill="black"/>
<path d="M25 387H27V393H25V387ZM25 383H27V385H25V383Z" fill="black"/>
<path d="M114 379H98C97.447 379 97 379.448 97 380V396C97 396.552 97.447 397 98 397H114C114.553 397 115 396.552 115 396V380C115 379.448 114.553 379 114 379ZM113 395H99V381H113V395Z" fill="black"/>
<path d="M105 383H107V385H105V383ZM105 387H107V393H105V387Z" fill="black"/>
<path d="M194 384H188.388L189.511 380.633C189.713 380.025 189.611 379.351 189.236 378.831C188.861 378.311 188.253 378 187.612 378H186C185.703 378 185.422 378.132 185.231 378.36L180.531 384H178C176.897 384 176 384.897 176 386V395C176 396.103 176.897 397 178 397H181H191.307C192.136 397 192.888 396.479 193.18 395.702L195.937 388.351C195.979 388.239 196 388.12 196 388V386C196 384.897 195.103 384 194 384ZM178 386H180V395H178V386ZM194 387.819L191.307 395H182V385.362L186.468 380H187.614L186.052 384.683C185.949 384.988 186.001 385.323 186.189 385.584C186.377 385.846 186.679 386 187 386H194V387.819Z" fill="black"/>
<path d="M176.222 343.778C177.197 344.753 178.477 345.24 179.757 345.24C181.038 345.239 182.319 344.753 183.293 343.778L186.121 340.949L184.707 339.535L181.879 342.364C180.71 343.531 178.807 343.533 177.636 342.364C176.467 341.194 176.467 339.291 177.636 338.121L180.465 335.293L179.051 333.879L176.222 336.707C174.273 338.656 174.273 341.829 176.222 343.778ZM191.778 335.293C193.726 333.344 193.726 330.171 191.778 328.222C189.828 326.272 186.655 326.274 184.707 328.222L181.879 331.051L183.293 332.465L186.121 329.636C187.291 328.469 189.194 328.467 190.364 329.636C191.533 330.806 191.533 332.709 190.364 333.879L187.535 336.707L188.949 338.121L191.778 335.293Z" fill="black"/>
<path d="M180.464 340.95L179.049 339.536L187.536 331.05L188.95 332.465L180.464 340.95Z" fill="black"/>
<path d="M588 176H574C572.897 176 572 176.897 572 178V183H574V180L580.4 184.8C580.578 184.933 580.789 185 581 185C581.211 185 581.422 184.933 581.6 184.8L588 180V189H580V191H588C589.103 191 590 190.103 590 189V178C590 176.897 589.103 176 588 176ZM581 182.75L574.666 178H587.334L581 182.75Z" fill="black"/>
<path d="M570 184H577V186H570V184ZM572 187H578V189H572V187ZM575 190H579V192H575V190Z" fill="black"/>
<path d="M275 378H259C257.897 378 257 378.897 257 380V392C257 393.103 257.897 394 259 394H262V397.767L268.277 394H275C276.103 394 277 393.103 277 392V380C277 378.897 276.103 378 275 378ZM275 392H267.723L264 394.233V392H259V380H275V392Z" fill="black"/>
<path d="M266 390H268V387H271V385H268V382H266V385H263V387H266V390Z" fill="black"/>
<path d="M338 392C338 393.103 338.897 394 340 394H343.586L347 397.414L350.414 394H354C355.103 394 356 393.103 356 392V380C356 378.897 355.103 378 354 378H340C338.897 378 338 378.897 338 380V392ZM340 380H354V392H349.586L347 394.586L344.414 392H340V380Z" fill="black"/>
<path d="M346 390H348V387H351V385H348V382H346V385H343V387H346V390Z" fill="black"/>
<path d="M417 380V392C417 393.103 417.897 394 419 394H422.586L426 397.414L429.414 394H433C434.103 394 435 393.103 435 392V380C435 378.897 434.103 378 433 378H419C417.897 378 417 378.897 417 380ZM419 380H433V392H428.586L426 394.586L423.414 392H419V380Z" fill="black"/>
<path d="M431.207 383.207L429.793 381.793L425 386.586L422.707 384.293L421.293 385.707L425 389.414L431.207 383.207Z" fill="black"/>
<path d="M498 378C496.897 378 496 378.897 496 380V392C496 393.103 496.897 394 498 394H501.586L505 397.414L508.414 394H512C513.103 394 514 393.103 514 392V380C514 378.897 513.103 378 512 378H498ZM512 392H507.586L505 394.586L502.414 392H498V380H512V392Z" fill="black"/>
<path d="M500 383H510V385H500V383ZM500 387H507V389H500V387Z" fill="black"/>
<path d="M591 378H577C575.897 378 575 378.897 575 380V392C575 393.103 575.897 394 577 394H580.586L584 397.414L587.414 394H591C592.103 394 593 393.103 593 392V380C593 378.897 592.103 378 591 378ZM591 392H586.586L584 394.586L581.414 392H577V380H591V392Z" fill="black"/>
<path d="M587 388C588.105 388 589 387.105 589 386C589 384.895 588.105 384 587 384C585.895 384 585 384.895 585 386C585 387.105 585.895 388 587 388Z" fill="black"/>
<path d="M581 388C582.105 388 583 387.105 583 386C583 384.895 582.105 384 581 384C579.895 384 579 384.895 579 386C579 387.105 579.895 388 581 388Z" fill="black"/>
<path d="M20.586 444L24 447.414L27.414 444H31C32.103 444 33 443.103 33 442V430C33 428.897 32.103 428 31 428H17C15.897 428 15 428.897 15 430V442C15 443.103 15.897 444 17 444H20.586ZM17 430H31V442H26.586L24 444.586L21.414 442H17V430Z" fill="black"/>
<path d="M24.479 433.219L19.502 438.188V439.987H21.302L26.277 435.018L24.479 433.219Z" fill="black"/>
<path d="M26.6984 430.999L28.4985 432.798L27.1278 434.17L25.3277 432.37L26.6984 430.999Z" fill="black"/>
<path d="M78 428C76.897 428 76 428.897 76 430V442C76 443.103 76.897 444 78 444H81.586L85 447.414L88.414 444H92C93.103 444 94 443.103 94 442V430C94 428.897 93.103 428 92 428H78ZM92 442H87.586L85 444.586L82.414 442H78V430H92V442Z" fill="black"/>
<path d="M84 432H86V438H84V432ZM84 439H86V441H84V439Z" fill="black"/>
<path d="M142.586 444L146 447.414L149.414 444H153C154.103 444 155 443.103 155 442V430C155 428.897 154.103 428 153 428H139C137.897 428 137 428.897 137 430V442C137 443.103 137.897 444 139 444H142.586ZM139 430H153V442H148.586L146 444.586L143.414 442H139V430Z" fill="black"/>
<path d="M142 435H150V437H142V435Z" fill="black"/>
<path d="M203.586 444L207 447.414L210.414 444H214C215.103 444 216 443.103 216 442V430C216 428.897 215.103 428 214 428H200C198.897 428 198 428.897 198 430V442C198 443.103 198.897 444 200 444H203.586ZM200 430H214V442H209.586L207 444.586L204.414 442H200V430Z" fill="black"/>
<path d="M204.707 439.707L207 437.414L209.293 439.707L210.707 438.293L208.414 436L210.707 433.707L209.293 432.293L207 434.586L204.707 432.293L203.293 433.707L205.586 436L203.293 438.293L204.707 439.707Z" fill="black"/>
<path d="M275 428H261C259.897 428 259 428.897 259 430V442C259 443.103 259.897 444 261 444H264.586L268 447.414L271.414 444H275C276.103 444 277 443.103 277 442V430C277 428.897 276.103 428 275 428ZM275 442H270.586L268 444.586L265.414 442H261V430H275V442Z" fill="black"/>
<path d="M338 428H322C320.897 428 320 428.897 320 430V442C320 443.103 320.897 444 322 444H325V447.767L331.277 444H338C339.103 444 340 443.103 340 442V430C340 428.897 339.103 428 338 428ZM338 442H330.723L327 444.233V442H322V430H338V442Z" fill="black"/>
<path d="M335.207 433.207L333.793 431.793L329 436.586L326.707 434.293L325.293 435.707L329 439.414L335.207 433.207Z" fill="black"/>
<path d="M401 428H385C383.897 428 383 428.897 383 430V442C383 443.103 383.897 444 385 444H388V447.767L394.277 444H401C402.103 444 403 443.103 403 442V430C403 428.897 402.103 428 401 428ZM401 442H393.723L390 444.233V442H385V430H401V442Z" fill="black"/>
<path d="M388 433H398V435H388V433ZM388 437H395V439H388V437Z" fill="black"/>
<path d="M464 428H448C446.897 428 446 428.897 446 430V442C446 443.103 446.897 444 448 444H451V447.766L457.277 444H464C465.103 444 466 443.103 466 442V430C466 428.897 465.103 428 464 428ZM464 442H456.723L453 444.234V442H448V430H464V442Z" fill="black"/>
<path d="M459 438C460.105 438 461 437.105 461 436C461 434.895 460.105 434 459 434C457.895 434 457 434.895 457 436C457 437.105 457.895 438 459 438Z" fill="black"/>
<path d="M453 438C454.105 438 455 437.105 455 436C455 434.895 454.105 434 453 434C451.895 434 451 434.895 451 436C451 437.105 451.895 438 453 438Z" fill="black"/>
<path d="M527 428H511C509.897 428 509 428.897 509 430V442C509 443.103 509.897 444 511 444H514V447.767L520.277 444H527C528.103 444 529 443.103 529 442V430C529 428.897 528.103 428 527 428ZM527 442H519.723L516 444.233V442H511V430H527V442Z" fill="black"/>
<path d="M520.803 435.189L519.404 433.791L515.535 437.655V439.054H516.934L520.803 435.189Z" fill="black"/>
<path d="M521.13 432.066L522.528 433.465L521.462 434.531L520.063 433.133L521.13 432.066Z" fill="black"/>
<path d="M590 428H574C572.897 428 572 428.897 572 430V442C572 443.103 572.897 444 574 444H577V447.767L583.277 444H590C591.103 444 592 443.103 592 442V430C592 428.897 591.103 428 590 428ZM590 442H582.723L579 444.233V442H574V430H590V442Z" fill="black"/>
<path d="M581 432H583V437H581V432ZM581 438H583V440H581V438Z" fill="black"/>
<path d="M33 478H17C15.897 478 15 478.897 15 480V492C15 493.103 15.897 494 17 494H20V497.767L26.277 494H33C34.103 494 35 493.103 35 492V480C35 478.897 34.103 478 33 478ZM33 492H25.723L22 494.233V492H17V480H33V492Z" fill="black"/>
<path d="M21 485H29V487H21V485Z" fill="black"/>
<path d="M87 478C81.486 478 77 481.589 77 486C77 488.908 78.898 491.515 82 492.934V498L87.34 493.995C92.697 493.852 97 490.32 97 486C97 481.589 92.514 478 87 478ZM87 492H86.667L84 494V491.583L83.359 491.336C80.67 490.301 79 488.256 79 486C79 482.691 82.589 480 87 480C91.411 480 95 482.691 95 486C95 489.309 91.411 492 87 492Z" fill="black"/>
<path d="M88 482H86V485H83V487H86V490H88V487H91V485H88V482Z" fill="black"/>
<path d="M149 478C143.486 478 139 481.589 139 486C139 488.908 140.898 491.515 144 492.934V498L149.339 493.995C154.697 493.852 159 490.32 159 486C159 481.589 154.514 478 149 478ZM149 492H148.667L146 494V491.583L145.359 491.336C142.67 490.301 141 488.256 141 486C141 482.691 144.589 480 149 480C153.411 480 157 482.691 157 486C157 489.309 153.411 492 149 492Z" fill="black"/>
<path d="M148 487.586L145.707 485.293L144.293 486.707L148 490.414L154.207 484.207L152.793 482.793L148 487.586Z" fill="black"/>
<path d="M211 478C205.486 478 201 481.589 201 486C201 488.908 202.898 491.515 206 492.934V498L211.34 493.995C216.697 493.852 221 490.32 221 486C221 481.589 216.514 478 211 478ZM211 492H210.667L208 494V491.583L207.359 491.336C204.67 490.301 203 488.256 203 486C203 482.691 206.589 480 211 480C215.411 480 219 482.691 219 486C219 489.309 215.411 492 211 492Z" fill="black"/>
<path d="M206 483H216V485H206V483ZM206 487H213V489H206V487Z" fill="black"/>
<path d="M270.5 487C271.328 487 272 486.328 272 485.5C272 484.672 271.328 484 270.5 484C269.672 484 269 484.672 269 485.5C269 486.328 269.672 487 270.5 487Z" fill="black"/>
<path d="M275.5 487C276.328 487 277 486.328 277 485.5C277 484.672 276.328 484 275.5 484C274.672 484 274 484.672 274 485.5C274 486.328 274.672 487 275.5 487Z" fill="black"/>
<path d="M273 478C267.486 478 263 481.589 263 486C263 488.908 264.897 491.515 268 492.934V498L273.34 493.996C278.697 493.852 283 490.32 283 486C283 481.589 278.514 478 273 478ZM273 492H272.667L270 494V491.583L269.359 491.336C266.671 490.301 265 488.256 265 486C265 482.691 268.589 480 273 480C277.411 480 281 482.691 281 486C281 489.309 277.411 492 273 492Z" fill="black"/>
<path d="M335 478C329.486 478 325 481.589 325 486C325 488.908 326.898 491.515 330 492.934V498L335.34 493.995C340.697 493.852 345 490.32 345 486C345 481.589 340.514 478 335 478ZM335 492H334.667L332 494V491.583L331.359 491.336C328.67 490.301 327 488.256 327 486C327 482.691 330.589 480 335 480C339.411 480 343 482.691 343 486C343 489.309 339.411 492 335 492Z" fill="black"/>
<path d="M331.503 487.589V488.987H332.901L336.771 485.123L335.372 483.725L331.503 487.589Z" fill="black"/>
<path d="M337.43 484.464L336.032 483.066L337.099 481.999L338.497 483.397L337.43 484.464Z" fill="black"/>
<path d="M397 478C391.486 478 387 481.589 387 486C387 488.908 388.898 491.515 392 492.934V498L397.34 493.995C402.697 493.852 407 490.32 407 486C407 481.589 402.514 478 397 478ZM397 492H396.667L394 494V491.583L393.359 491.336C390.67 490.301 389 488.256 389 486C389 482.691 392.589 480 397 480C401.411 480 405 482.691 405 486C405 489.309 401.411 492 397 492Z" fill="black"/>
<path d="M396 482H398V487H396V482ZM396 488H398V490H396V488Z" fill="black"/>
<path d="M459 478C453.486 478 449 481.589 449 486C449 488.908 450.898 491.515 454 492.934V498L459.34 493.995C464.697 493.852 469 490.32 469 486C469 481.589 464.514 478 459 478ZM459 492H458.667L456 494V491.583L455.359 491.336C452.67 490.301 451 488.256 451 486C451 482.691 454.589 480 459 480C463.411 480 467 482.691 467 486C467 489.309 463.411 492 459 492Z" fill="black"/>
<path d="M455 485H463V487H455V485Z" fill="black"/>
<path d="M521 478C515.486 478 511 481.589 511 486C511 488.908 512.898 491.515 516 492.934V498L521.34 493.995C526.697 493.852 531 490.32 531 486C531 481.589 526.514 478 521 478ZM521 492H520.667L518 494V491.583L517.359 491.336C514.67 490.301 513 488.256 513 486C513 482.691 516.589 480 521 480C525.411 480 529 482.691 529 486C529 489.309 525.411 492 521 492Z" fill="black"/>
<path d="M523.293 482.293L521 484.586L518.707 482.293L517.293 483.707L519.586 486L517.293 488.293L518.707 489.707L521 487.414L523.293 489.707L524.707 488.293L522.414 486L524.707 483.707L523.293 482.293Z" fill="black"/>
<path d="M583 478C577.486 478 573 481.589 573 486C573 488.908 574.898 491.516 578 492.934V498L583.34 493.995C588.697 493.852 593 490.32 593 486C593 481.589 588.514 478 583 478ZM583 492H582.667L580 494V491.583L579.359 491.336C576.67 490.301 575 488.256 575 486C575 482.691 578.589 480 583 480C587.411 480 591 482.691 591 486C591 489.309 587.411 492 583 492Z" fill="black"/>
<path d="M29 528H21C17.691 528 15 530.691 15 534V547C15 547.553 15.447 548 16 548H29C32.309 548 35 545.309 35 542V534C35 530.691 32.309 528 29 528ZM33 542C33 544.206 31.206 546 29 546H17V534C17 531.794 18.794 530 21 530H29C31.206 530 33 531.794 33 534V542Z" fill="black"/>
<path d="M26 533H24V537H20V539H24V543H26V539H30V537H26V533Z" fill="black"/>
<path d="M91 528H83C79.691 528 77 530.691 77 534V547C77 547.553 77.448 548 78 548H91C94.309 548 97 545.309 97 542V534C97 530.691 94.309 528 91 528ZM95 542C95 544.206 93.206 546 91 546H79V534C79 531.794 80.794 530 83 530H91C93.206 530 95 531.794 95 534V542Z" fill="black"/>
<path d="M86 539.586L83.707 537.293L82.293 538.707L86 542.414L92.207 536.207L90.793 534.793L86 539.586Z" fill="black"/>
<path d="M153 528H145C141.691 528 139 530.691 139 534V547C139 547.553 139.447 548 140 548H153C156.309 548 159 545.309 159 542V534C159 530.691 156.309 528 153 528ZM157 542C157 544.206 155.206 546 153 546H141V534C141 531.794 142.794 530 145 530H153C155.206 530 157 531.794 157 534V542Z" fill="black"/>
<path d="M144 535H154V537H144V535ZM144 539H151V541H144V539Z" fill="black"/>
<path d="M215 529H207C203.691 529 201 531.691 201 535V547C201 547.552 201.447 548 202 548H215C218.309 548 221 545.309 221 542V535C221 531.691 218.309 529 215 529ZM219 542C219 544.206 217.206 546 215 546H203V535C203 532.794 204.794 531 207 531H215C217.206 531 219 532.794 219 535V542Z" fill="black"/>
<path d="M208.5 540C209.328 540 210 539.328 210 538.5C210 537.672 209.328 537 208.5 537C207.672 537 207 537.672 207 538.5C207 539.328 207.672 540 208.5 540Z" fill="black"/>
<path d="M213.5 540C214.328 540 215 539.328 215 538.5C215 537.672 214.328 537 213.5 537C212.672 537 212 537.672 212 538.5C212 539.328 212.672 540 213.5 540Z" fill="black"/>
<path d="M277 528H269C265.691 528 263 530.691 263 534V547C263 547.553 263.447 548 264 548H277C280.309 548 283 545.309 283 542V534C283 530.691 280.309 528 277 528ZM281 542C281 544.206 279.206 546 277 546H265V534C265 531.794 266.794 530 269 530H277C279.206 530 281 531.794 281 534V542Z" fill="black"/>
<path d="M268 540.987V542.986H269.999L275.528 537.464L273.53 535.466L268 540.987Z" fill="black"/>
<path d="M276.471 536.522L274.472 534.523L275.995 532.999L277.994 534.998L276.471 536.522Z" fill="black"/>
<path d="M339 528H331C327.691 528 325 530.691 325 534V547C325 547.553 325.447 548 326 548H339C342.309 548 345 545.309 345 542V534C345 530.691 342.309 528 339 528ZM343 542C343 544.206 341.206 546 339 546H327V534C327 531.794 328.794 530 331 530H339C341.206 530 343 531.794 343 534V542Z" fill="black"/>
<path d="M334 532H336V540H334V532ZM334 542H336V544H334V542Z" fill="black"/>
<path d="M401 528H393C389.691 528 387 530.691 387 534V547C387 547.553 387.447 548 388 548H401C404.309 548 407 545.309 407 542V534C407 530.691 404.309 528 401 528ZM405 542C405 544.206 403.206 546 401 546H389V534C389 531.794 390.794 530 393 530H401C403.206 530 405 531.794 405 534V542Z" fill="black"/>
<path d="M393 537H401V539H393V537Z" fill="black"/>
<path d="M463 528H455C451.691 528 449 530.691 449 534V547C449 547.553 449.447 548 450 548H463C466.309 548 469 545.309 469 542V534C469 530.691 466.309 528 463 528ZM467 542C467 544.206 465.206 546 463 546H451V534C451 531.794 452.794 530 455 530H463C465.206 530 467 531.794 467 534V542Z" fill="black"/>
<path d="M462.292 533.295L459 536.587L455.708 533.295L454.294 534.709L457.586 538.001L454.294 541.293L455.708 542.707L459 539.415L462.292 542.707L463.706 541.293L460.414 538.001L463.706 534.709L462.292 533.295Z" fill="black"/>
<path d="M525 529H517C513.691 529 511 531.691 511 535V547C511 547.552 511.448 548 512 548H525C528.309 548 531 545.309 531 542V535C531 531.691 528.309 529 525 529ZM529 542C529 544.206 527.206 546 525 546H513V535C513 532.794 514.794 531 517 531H525C527.206 531 529 532.794 529 535V542Z" fill="black"/>
<path d="M591 528H575C573.897 528 573 528.897 573 530V542C573 543.103 573.897 544 575 544H578V547.767L584.277 544H591C592.103 544 593 543.103 593 542V530C593 528.897 592.103 528 591 528ZM591 542H583.723L580 544.233V542H575V530H591V542Z" fill="black"/>
<path d="M580.707 539.707L583 537.414L585.293 539.707L586.707 538.293L584.414 536L586.707 533.707L585.293 532.293L583 534.586L580.707 532.293L579.293 533.707L581.586 536L579.293 538.293L580.707 539.707Z" fill="black"/>
<path d="M387 326H371C369.897 326 369 326.897 369 328V340C369 341.103 369.897 342 371 342H374V345.767L380.277 342H387C388.103 342 389 341.103 389 340V328C389 326.897 388.103 326 387 326ZM387 340H379.723L376 342.233V340H371V328H387V340Z" fill="black"/>
<path d="M451.438 340.977C450.967 340.489 450.517 339.98 450.185 339.593C449.844 339.215 449.638 338.94 449.638 338.94L447.072 337.603C448.062 336.37 448.667 334.763 448.667 333C448.667 329.141 445.788 326 442.25 326C438.712 326 435.833 329.141 435.833 333C435.833 336.859 438.712 340 442.25 340C443.866 340 445.339 339.34 446.469 338.261L447.695 341.061C447.695 341.061 447.947 341.285 448.294 341.657C448.648 342.02 449.115 342.511 449.562 343.024C450.015 343.53 450.468 344.036 450.807 344.416C451.139 344.804 451.361 345.062 451.361 345.062L453.305 342.941C453.305 342.941 453.068 342.699 452.713 342.337C452.365 341.965 451.902 341.471 451.438 340.977ZM442.25 338C439.723 338 437.667 335.757 437.667 333C437.667 330.243 439.723 328 442.25 328C444.777 328 446.833 330.243 446.833 333C446.833 335.757 444.777 338 442.25 338Z" fill="black"/>
<path d="M510.583 342C512.352 342 513.979 341.365 515.276 340.312L519.489 344.708L520.844 343.294L516.631 338.898C517.641 337.543 518.25 335.846 518.25 334C518.25 329.589 514.811 326 510.583 326C506.356 326 502.917 329.589 502.917 334C502.917 338.411 506.356 342 510.583 342ZM510.583 328C513.754 328 516.333 330.691 516.333 334C516.333 337.309 513.754 340 510.583 340C507.412 340 504.833 337.309 504.833 334C504.833 330.691 507.412 328 510.583 328Z" fill="black"/>
<path d="M511.936 332.586C512.3 332.966 512.5 333.468 512.5 334H514.417C514.417 332.935 514.018 331.931 513.292 331.172C511.841 329.66 509.325 329.66 507.875 331.172L509.228 332.588C509.957 331.83 511.212 331.832 511.936 332.586Z" fill="black"/>
<path d="M578.167 342C579.859 342 581.414 341.365 582.656 340.312L586.685 344.708L587.981 343.294L583.952 338.898C584.918 337.543 585.5 335.846 585.5 334C585.5 329.589 582.21 326 578.167 326C574.123 326 570.833 329.589 570.833 334C570.833 338.411 574.123 342 578.167 342ZM578.167 328C581.2 328 583.667 330.691 583.667 334C583.667 337.309 581.2 340 578.167 340C575.133 340 572.667 337.309 572.667 334C572.667 330.691 575.133 328 578.167 328Z" fill="black"/>
<path d="M530 27H528V25H526V27H520V25H518V27H516C514.897 27 514 27.897 514 29V31V43C514 44.103 514.897 45 516 45H530C531.103 45 532 44.103 532 43V31V29C532 27.897 531.103 27 530 27ZM530.002 43H516V31H530L530.002 43Z" fill="black"/>
<path d="M522 33H524V38H522V33ZM522 39H524V41H522V39Z" fill="black"/>
<path d="M582.648 37.711L585.997 41L589.347 37.711C590.218 36.857 590.218 35.501 589.347 34.642C588.472 33.787 587.092 33.787 586.221 34.642L585.997 34.861L585.773 34.642C584.903 33.787 583.523 33.787 582.648 34.642C581.777 35.501 581.777 36.856 582.648 37.711Z" fill="black"/>
<path d="M593 27H591V25H589V27H583V25H581V27H579C577.897 27 577 27.897 577 29V31V43C577 44.103 577.897 45 579 45H593C594.103 45 595 44.103 595 43V31V29C595 27.897 594.103 27 593 27ZM593.002 43H579V31H593L593.002 43Z" fill="black"/>
</svg>
