<svg width="191" height="32" viewBox="0 0 191 32" fill="none" xmlns="http://www.w3.org/2000/svg">
<path d="M81.2952 16.023C81.2952 10.881 85.1405 6.93262 90.2976 6.93262C93.6452 6.93262 96.5404 8.67724 97.8976 11.386L94.7309 13.2683C93.9619 11.6615 92.3333 10.6055 90.2524 10.6055C87.2666 10.6055 84.9595 12.9011 84.9595 16.023C84.9595 19.145 87.2214 21.4405 90.2524 21.4405C92.2881 21.4405 93.9619 20.3846 94.7762 18.7777L97.9428 20.6141C96.4952 23.3229 93.6 25.1134 90.2976 25.1134C85.1405 25.1134 81.2952 21.1191 81.2952 16.023Z" fill="white"/>
<path d="M98.1691 16.023C98.1691 10.881 102.195 6.93262 107.171 6.93262C112.193 6.93262 116.174 10.881 116.174 16.023C116.174 21.1191 112.193 25.1134 107.171 25.1134C102.195 25.1134 98.1691 21.1191 98.1691 16.023ZM112.464 16.023C112.464 12.8551 110.157 10.5596 107.171 10.5596C104.186 10.5596 101.879 12.8551 101.879 16.023C101.879 19.1909 104.186 21.4864 107.171 21.4864C110.157 21.4864 112.464 19.145 112.464 16.023Z" fill="white"/>
<path d="M133.591 14.0487V24.6542H129.881V14.416C129.881 11.7991 128.388 10.4217 126.081 10.4217C123.683 10.4217 121.738 11.8909 121.738 15.3801V24.6542H118.074V7.34571C121.014 7.34571 121.738 8.21802 121.738 9.54944C122.869 7.75891 124.724 6.8866 127.031 6.8866C130.831 6.93251 133.591 9.54944 133.591 14.0487Z" fill="white"/>
<path d="M141.1 10.9728V19.2827C141.1 21.4864 142.548 21.4405 145.307 21.3028V24.6543C139.652 25.3429 137.39 23.736 137.39 19.2827V10.9728H134.631V7.34581H137.39V6.38167C137.39 4.04021 138.25 3.44337 139.969 2.84652L141.055 2.52515V7.34581H145.262V10.9269H141.1V10.9728Z" fill="white"/>
<path d="M146.438 2.38737C146.438 1.05595 147.479 0 148.79 0C150.102 0 151.143 1.05595 151.143 2.38737C151.143 3.67288 150.102 4.77475 148.79 4.77475C147.524 4.77475 146.438 3.67288 146.438 2.38737ZM146.981 7.34577H150.645V24.6083H146.981V7.34577Z" fill="white"/>
<path d="M169.51 7.34572C168.424 7.34572 167.791 7.62119 167.429 8.03439C167.067 8.4935 166.976 9.13625 166.976 9.87083C165.664 7.98847 163.674 6.8407 161.05 6.8407C156.255 6.8407 152.455 10.835 152.455 15.7474C152.455 20.7058 156.255 24.6542 161.05 24.6542C163.674 24.6542 165.664 23.5064 166.976 21.6241V23.8737C166.976 26.9038 165.076 28.6484 161.91 28.6484C158.924 28.6484 157.702 27.4548 156.933 25.9856L154.264 28.6944C155.802 30.8981 158.471 32.0459 161.819 32.0459C166.298 32.0459 170.595 29.4748 170.595 23.8737V7.34572H169.51ZM161.593 21.2568C158.471 21.2568 156.164 18.9612 156.164 15.8393C156.164 12.7173 158.471 10.4218 161.593 10.4218C164.714 10.4218 167.021 12.7173 167.021 15.8393C167.021 18.9612 164.669 21.2568 161.593 21.2568Z" fill="white"/>
<path d="M172.495 16.023C172.495 10.881 176.521 6.93262 181.498 6.93262C186.519 6.93262 190.5 10.881 190.5 16.023C190.5 21.1191 186.519 25.1134 181.498 25.1134C176.521 25.1134 172.495 21.1191 172.495 16.023ZM186.836 16.023C186.836 12.8551 184.529 10.5596 181.543 10.5596C178.557 10.5596 176.25 12.8551 176.25 16.023C176.25 19.1909 178.557 21.4864 181.543 21.4864C184.483 21.4864 186.836 19.145 186.836 16.023Z" fill="white"/>
<path d="M78.8071 14.3702V25.0675H75.1428V14.5998C75.1428 12.1665 73.8309 10.8351 71.8405 10.8351C69.669 10.8351 68.1309 12.2583 68.1309 15.3803V25.0675H64.4667V14.5998C64.4667 12.1665 63.2905 10.8351 61.2548 10.8351C59.1738 10.8351 57.4548 12.2583 57.4548 15.3803V25.0675H53.7905V7.80494C56.3238 7.80494 57.4548 8.35587 57.4548 9.87093C58.5405 8.17222 60.2143 7.34583 62.3405 7.34583C64.5571 7.34583 66.1857 8.35587 67.1809 10.0546C68.3119 8.26405 70.1214 7.34583 72.3833 7.34583C76.2286 7.34583 78.8071 10.0546 78.8071 14.3702Z" fill="white"/>
<path d="M47.9095 22.4505C47.9095 23.4147 47.6833 24.1492 47.2761 24.6543C46.7333 25.3429 45.8738 25.5266 45.4214 25.5266C45.4214 25.5266 45.3761 25.5266 45.3309 25.5266H45.2857H45.2404C44.0642 25.5266 43.2952 24.5165 43.2499 24.4247L43.2047 24.3788C40.038 20.5223 32.1666 12.6715 28.4571 8.99859C28.5023 8.95268 28.5476 8.95268 28.5928 8.90677C28.7738 8.76904 28.9095 8.6313 29.0904 8.49357C29.2261 8.40175 29.3166 8.30993 29.4523 8.17219C29.588 8.08037 29.6785 7.98855 29.769 7.89673C29.8595 7.85082 29.9047 7.75899 29.9952 7.71308C31.3523 6.56531 32.6642 5.46344 33.569 4.72886C33.6595 4.63704 33.7952 4.54522 33.8857 4.4534C33.9761 4.36158 34.1119 4.26975 34.2023 4.17793C34.519 3.90247 34.6999 3.76473 34.6999 3.76473C34.6999 3.76473 36.5547 2.11193 38.9071 3.44336C39.2238 3.627 39.5404 3.94838 39.9023 4.40749C39.9476 4.4534 39.9928 4.49931 40.038 4.59113L40.0833 4.63704C40.1738 4.72886 40.2642 4.8666 40.3547 5.00433C40.4452 5.14206 40.5357 5.2798 40.6261 5.41753C40.6714 5.50935 40.7166 5.55526 40.7619 5.64709C40.8071 5.693 40.8523 5.73891 40.8523 5.83073C40.8976 5.92255 40.988 6.06029 41.0333 6.15211C41.0785 6.24393 41.1238 6.33575 41.169 6.42757C41.2142 6.47348 41.2142 6.5194 41.2595 6.56531C41.3499 6.70304 41.3952 6.84077 41.4857 6.97851C41.4857 7.02442 41.5309 7.02442 41.5309 7.07033C41.7571 7.48353 42.0285 7.94264 42.2999 8.44766C42.3452 8.53948 42.4357 8.67722 42.4809 8.76904C42.5261 8.86086 42.5714 8.99859 42.6619 9.09041C42.7523 9.27406 42.8428 9.4577 42.9333 9.64135C42.9333 9.68726 42.9785 9.73317 42.9785 9.77908C43.069 9.91681 43.1142 10.1005 43.2047 10.2841C43.4761 10.7891 43.7023 11.3401 43.9285 11.891C44.019 12.1205 44.1547 12.3501 44.2452 12.6256C44.6071 13.4061 44.9238 14.2325 45.2404 15.0129C45.4214 15.4261 45.6023 15.8853 45.738 16.2984C45.8285 16.528 45.919 16.7116 45.9642 16.9412C46.1452 17.4003 46.3261 17.8594 46.4619 18.3185C46.5523 18.5481 46.5976 18.7317 46.688 18.9613C46.7785 19.1908 46.8238 19.3745 46.9142 19.604C47.0047 19.7877 47.0499 20.0172 47.0952 20.2009C47.1404 20.3845 47.2309 20.6141 47.2761 20.7977C47.3214 20.9355 47.3666 21.0732 47.4119 21.2109C47.5476 21.5782 47.638 21.9914 47.7285 22.3128C47.819 22.1751 47.8642 22.2669 47.9095 22.4505Z" fill="white"/>
<path d="M47.05 26.3998C46.6428 26.9967 46.3262 27.2721 46.3262 27.2721C46.3262 27.2721 44.9238 28.879 42.4809 28.879C42.4809 28.879 40.8524 28.9249 39.5857 28.0526C39.1333 27.7312 37.7762 26.8589 35.8762 25.8489C34.8357 25.298 33.569 24.6552 32.2571 24.1043C32.2119 24.1043 32.2119 24.0584 32.1667 24.0584C30.8095 23.4615 29.4071 22.9106 27.9595 22.4974C27.9595 22.4974 27.9143 22.4974 27.869 22.4515C26.0143 21.9005 24.1143 21.5332 22.3952 21.5332C15.4286 21.5332 3.21427 28.6035 3.21427 28.6035C3.21427 28.6035 2.85237 28.8331 2.30951 28.8331C1.76666 28.8331 0.771417 28.5576 0.499989 27.318C0.364274 26.7671 1.08808 24.8848 2.98808 21.7628C2.98808 21.7628 2.98808 21.7169 3.03332 21.7169C4.02856 20.0641 5.34047 18.0899 7.01428 15.7485C9.32142 12.4888 12.3071 8.63224 16.1524 4.08705C16.1524 4.08705 17.1024 2.93927 18.7762 2.93927C18.7762 2.93927 20.1333 2.84745 21.4 3.9034C21.8524 4.27069 23.7524 6.10713 26.4667 8.72406C31.4881 13.6365 39.269 21.4873 42.2548 25.2061C42.2548 25.2061 43.3857 26.813 45.2405 26.813H45.3309C45.3762 26.813 45.4667 26.813 45.5119 26.813C45.7833 26.7671 46.4167 26.7212 47.05 26.3998Z" fill="white"/>
<path opacity="0.2" d="M47.9095 22.4505C47.9095 23.4147 47.6833 24.1492 47.2761 24.6543C46.7333 25.3429 45.8738 25.5266 45.4214 25.5266C45.4214 25.5266 45.3761 25.5266 45.3309 25.5266H45.2857H45.2404C44.0642 25.5266 43.2952 24.5165 43.2499 24.4247L43.2047 24.3788C40.038 20.5223 32.1666 12.6715 28.4571 8.99859C28.5023 8.95268 28.5476 8.95268 28.5928 8.90677C28.7738 8.76904 28.9095 8.6313 29.0904 8.49357C29.2261 8.40175 29.3166 8.30993 29.4523 8.17219C29.588 8.08037 29.6785 7.98855 29.769 7.89673C32.2119 8.95268 37.2785 11.386 46.1 16.8035C46.2809 17.2626 46.4619 17.7217 46.5976 18.1808C46.688 18.4104 46.7333 18.594 46.8238 18.8236C46.9142 19.0531 46.9595 19.2368 47.0499 19.4663C47.1404 19.65 47.1857 19.8795 47.2309 20.0632C47.2761 20.2468 47.3666 20.4764 47.4119 20.66C47.4571 20.7977 47.5023 20.9355 47.5476 21.0732C47.6833 21.4405 47.7738 21.8537 47.8642 22.1751C47.819 22.1751 47.8642 22.2669 47.9095 22.4505Z" fill="white"/>
<path opacity="0.2" d="M27.869 22.4047C26.0143 21.8537 24.1143 21.4865 22.3952 21.4865C15.4286 21.5324 3.21427 28.6027 3.21427 28.6027C3.21427 28.6027 2.85237 28.8322 2.30951 28.8322C1.76666 28.8322 0.771417 28.5568 0.499989 27.3172C0.364274 26.7662 1.08808 24.8839 2.98808 21.7619C2.98808 21.7619 2.98808 21.716 3.03332 21.716C13.619 18.0431 26.7381 22.0374 27.869 22.4047Z" fill="white"/>
</svg>
