<svg width="232" height="178" viewBox="0 0 232 178" fill="none" xmlns="http://www.w3.org/2000/svg">
<path d="M72.2797 32.2514C27.8038 38.8422 5.79619 76.3132 2.96846 102.753C-0.486228 135.028 14.4969 152.087 42.4543 149.873C72.766 147.467 107.633 144.191 145.25 149.873C182.881 155.555 211.03 160.764 224.849 126.172C238.668 91.5807 220.499 25.6863 169.587 14.1046C132.084 5.56865 118.598 25.392 72.2797 32.2514Z" fill="#ECF0F7"/>
<path d="M175.626 160.175C175.626 160.175 175.959 136.628 168.167 129.64C160.374 122.653 139.429 91.4143 156.37 83.723C173.31 76.0317 178.403 104.25 189.266 113.81C200.129 123.37 190.929 159.305 190.929 159.305L175.626 160.175Z" fill="#DAE1F0"/>
<path d="M186.272 164.872L185.504 164.795C185.529 164.514 188.332 136.717 183.278 124.24C180.936 118.468 176.279 112.927 171.327 107.053C165.364 99.9758 159.21 92.6684 155.998 83.8382L156.715 83.5822C159.875 92.2845 165.991 99.5407 171.903 106.567C176.893 112.479 181.589 118.071 183.981 123.958C189.125 136.602 186.31 164.603 186.272 164.872Z" fill="#B5C4E2"/>
<path d="M169.203 104.941C168.512 103.047 168.55 98.9904 168.589 94.6905C168.627 90.5569 168.665 85.873 167.859 84.7084L168.486 84.2733C169.42 85.6426 169.382 90.045 169.344 94.7033C169.305 98.7473 169.28 102.919 169.919 104.685L169.203 104.941Z" fill="#B5C4E2"/>
<path d="M172.901 108.921C172.299 108.205 168.55 106.643 164.597 104.992C156.549 101.652 150.343 98.9136 149.716 96.8276L150.445 96.6101C151.021 98.5297 159.044 101.857 164.891 104.289C169.779 106.323 172.811 107.603 173.489 108.435L172.901 108.921Z" fill="#B5C4E2"/>
<path d="M181.051 119.697C180.578 118.775 180.258 115.346 179.797 109.791C179.401 104.992 178.953 99.5663 178.352 98.4913L179.017 98.1074C179.708 99.3232 180.117 104.378 180.565 109.728C180.923 114.04 181.282 118.494 181.729 119.338L181.051 119.697Z" fill="#B5C4E2"/>
<path d="M184.583 128.361C183.29 126.3 176.931 124.688 171.314 123.267C165.556 121.808 160.118 120.439 158.801 118.494L159.428 118.059C160.592 119.761 166.145 121.169 171.506 122.525C177.814 124.125 183.777 125.635 185.235 127.951L184.583 128.361Z" fill="#B5C4E2"/>
<path d="M185.952 148.005C185.401 143.5 179.772 140.928 175.664 139.047C174.219 138.394 172.977 137.818 172.261 137.281L172.721 136.666C173.374 137.153 174.59 137.703 175.984 138.343C180.015 140.186 186.105 142.975 186.707 147.902L185.952 148.005Z" fill="#B5C4E2"/>
<path d="M186.899 140.467L186.131 140.416C186.246 138.752 187.781 135.182 189.406 131.394C191.134 127.35 193.104 122.768 192.963 121.156L193.731 121.092C193.898 122.883 192.055 127.171 190.123 131.688C188.588 135.259 187.014 138.931 186.899 140.467Z" fill="#B5C4E2"/>
<path d="M182.766 159.088C191.876 146.226 181.397 103.585 202.15 86.2953C222.891 69.0059 237.516 78.9751 224.235 103.495C210.954 128.015 206.437 156.835 199.233 159.497C192.03 162.159 182.766 159.088 182.766 159.088Z" fill="#DAE1F0"/>
<path d="M190.136 165L189.381 164.859C189.419 164.654 193.283 144.204 201.549 117.265C206.974 99.5791 213.653 91.2479 218.068 85.7322C220.524 82.6608 222.303 80.434 222.981 77.8745L223.723 78.0665C223.007 80.7795 221.19 83.0575 218.669 86.2057C214.293 91.6702 207.678 99.9374 202.291 117.483C194.038 144.396 190.174 164.808 190.136 165Z" fill="#B5C4E2"/>
<path d="M206.104 106.886L205.503 106.4C207.934 103.367 212.988 101.012 217.889 98.7217C222.879 96.3925 227.6 94.1914 228.432 91.7214L229.161 91.9646C228.214 94.7416 223.365 97.0068 218.221 99.4127C213.397 101.678 208.42 104.007 206.104 106.886Z" fill="#B5C4E2"/>
<path d="M202.291 117.496L201.562 117.278C202.112 115.474 202.035 110.086 201.959 104.391C201.818 93.7562 201.856 86.1033 203.647 84.606L204.147 85.1947C202.496 86.5768 202.624 96.4565 202.726 104.378C202.803 110.38 202.88 115.563 202.291 117.496Z" fill="#B5C4E2"/>
<path d="M197.186 135.246L196.444 135.041C197.327 131.854 202.227 128.463 207.422 124.893C211.99 121.744 216.724 118.481 218.016 115.627L218.72 115.947C217.351 118.993 212.527 122.32 207.87 125.532C203.008 128.86 197.992 132.328 197.186 135.246Z" fill="#B5C4E2"/>
<path d="M195.599 141.273L194.857 141.081C195.663 137.869 193.117 127.938 191.262 120.695C189.893 115.371 189.125 112.3 189.291 111.378L190.046 111.506C189.906 112.313 190.929 116.293 192.004 120.503C193.987 128.246 196.444 137.869 195.599 141.273Z" fill="#B5C4E2"/>
<path d="M192.145 155.671L191.39 155.504C191.786 153.687 195.19 151.87 199.131 149.771C202.803 147.813 206.961 145.599 207.652 143.615L208.382 143.871C207.588 146.124 203.468 148.325 199.489 150.449C196.047 152.292 192.464 154.199 192.145 155.671Z" fill="#B5C4E2"/>
<path d="M66.5988 116.958C66.5988 116.958 66.5732 104.186 66.2917 93.5899C66.0102 82.9935 76.0416 71.335 78.3959 65.2946C80.7502 59.2414 78.2808 49.9888 86.7767 45.8936C86.7767 45.8936 81.7866 54.8006 86.3033 59.4205C90.82 64.0404 85.0366 79.9349 84.1409 86.756C83.2453 93.5515 78.1016 111.609 66.5988 116.958Z" fill="#DAE1F0"/>
<path d="M54.6609 137.984C54.6609 137.984 48.5192 109.446 38.8717 97.3267C29.2241 85.2075 29.8767 87.0503 15.7892 84.0813C1.71457 81.1123 2.48228 91.4399 2.48228 91.4399C2.48228 91.4399 10.3641 86.9607 14.9064 92.8732C19.4614 98.7856 20.7665 106.579 29.6848 118.827C38.603 131.074 54.6609 137.984 54.6609 137.984Z" fill="#DAE1F0"/>
<path d="M24.6434 51.3965C27.4711 61.7369 48.9158 67.1886 53.8419 78.1817C58.768 89.1747 56.644 115.768 56.644 115.768C56.644 115.768 43.2475 104.212 42.3391 93.9994C41.4306 83.787 34.4573 79.7302 29.0577 69.3386C23.6709 58.9342 24.6434 51.3965 24.6434 51.3965Z" fill="#DAE1F0"/>
<path d="M62.4659 164.015L61.6982 164.066C61.6854 163.771 59.7021 134.593 56.273 115.845L56.0043 114.373C52.6648 96.0854 50.656 85.0411 40.5222 75.251C30.107 65.1666 24.3492 51.6908 24.298 51.55L25.0017 51.2557C25.0529 51.3837 30.7595 64.7315 41.0596 74.7007C51.3597 84.6572 53.3941 95.791 56.7593 114.232L57.028 115.704C60.4698 134.491 62.4531 163.72 62.4659 164.015Z" fill="#DAE1F0"/>
<path d="M60.9433 154.301C60.0477 144.946 51.7948 134.004 43.0685 122.423C37.8737 115.525 32.4997 108.409 27.9958 100.872L28.6484 100.475C33.1267 107.974 38.4879 115.077 43.6699 121.949C52.473 133.62 60.777 144.652 61.6983 154.224L60.9433 154.301Z" fill="#B5C4E2"/>
<path d="M59.3311 137.664C58.3331 129.692 61.9413 123.818 65.4216 118.148C67.6352 114.539 69.9255 110.815 71.0003 106.579C73.7385 95.791 75.8113 75.3918 75.8241 75.187L76.5918 75.2638C76.5662 75.4686 74.4934 95.919 71.7424 106.758C70.642 111.11 68.3133 114.885 66.0742 118.545C62.5043 124.368 59.1264 129.858 60.086 137.562L59.3311 137.664Z" fill="#B5C4E2"/>
<path d="M98.7019 123.728C98.7019 123.728 95.8742 150.347 93.4431 153.418C91.0248 156.49 82.8359 158.025 82.8359 162.121C82.8359 166.216 150.906 165.704 151.418 162.121C151.93 158.537 144.944 155.978 142.295 153.418C139.646 150.859 136.576 123.728 136.576 123.728H98.7019Z" fill="#273B63"/>
<path d="M93.4686 158.921L93.4302 158.153C93.7245 158.14 122.616 156.63 142.308 158.153L142.244 158.921C122.603 157.411 93.7628 158.908 93.4686 158.921Z" fill="#C8F2E9"/>
<path d="M42.7743 28.617C37.861 30.5878 37.0933 125.571 42.7231 130.69C48.353 135.809 188.076 134.785 190.123 130.69C192.17 126.595 196.546 32.9298 188.537 27.8107C180.527 22.6917 54.725 23.8051 42.7743 28.617Z" fill="#273B63"/>
<path d="M47.3806 34.0815C43.5164 36.8458 44.8215 111.238 47.3806 114.309C49.9396 117.38 180.45 117.38 184.033 114.309C187.615 111.238 186.592 37.2937 184.033 34.0815C181.474 30.8693 51.475 31.1509 47.3806 34.0815Z" fill="#DAE1F0"/>
<path d="M132.34 116.613C132.34 116.613 132.34 106.631 134.132 103.047C135.923 99.464 142.832 87.6902 145.647 75.4046C148.462 63.119 145.135 32.405 141.297 32.405C137.458 32.405 137.714 55.1846 137.714 55.1846C137.714 55.1846 137.97 26.5182 133.364 26.5182C128.758 26.5182 128.502 53.3929 128.502 53.3929C128.502 53.3929 128.758 21.3992 123.384 21.3992C118.01 21.3992 118.266 53.137 118.266 53.137C118.266 53.137 118.048 27.0301 113.032 27.0301C108.017 27.0301 109.053 66.9583 107.774 78.732C106.494 90.5057 113.032 116.613 113.032 116.613H132.34Z" fill="white"/>
<path d="M143.83 81.8034C144.534 79.7174 145.148 77.5674 145.647 75.4046C146.274 72.6659 146.594 69.0187 146.671 65.0002C134.682 66.9583 115.617 74.4192 107.876 77.5674C107.838 77.9769 107.799 78.3608 107.761 78.7192C107.71 79.1927 107.671 79.7046 107.646 80.2165C114.504 82.648 130.933 87.2807 143.83 81.8034Z" fill="#ECF0F7"/>
<path d="M63.2082 5.01837C61.1481 8.32012 60.6875 72.5892 63.2082 76.9019C65.7288 81.2147 163.113 78.3737 167.425 72.7812C171.737 67.1886 169.216 13.2728 167.425 6.43889C165.633 -0.369383 66.8036 -0.727713 63.2082 5.01837Z" fill="#B5C4E2"/>
<path d="M115.656 59.6765C105.854 59.6765 64.6669 7.47548 62.9139 5.24872L63.5153 4.77521C63.9375 5.3127 106.213 58.9086 115.656 58.9086C125.098 58.9086 166.721 6.74602 167.13 6.22132L167.732 6.69483C166.004 8.85761 125.457 59.6765 115.656 59.6765Z" fill="#3D5C9B"/>
<path d="M63.4896 77.1707L62.9266 76.646C63.1186 76.4412 82.4648 55.4277 97.6398 45.0233L98.0749 45.6632C82.9766 56.0164 63.6816 76.9659 63.4896 77.1707Z" fill="#3D5C9B"/>
<path d="M167.143 73.0627C150.471 55.159 135.693 43.5516 135.552 43.4364L136.025 42.835C136.179 42.9501 150.996 54.5959 167.706 72.5508L167.143 73.0627Z" fill="#3D5C9B"/>
<path d="M107.364 50.9614C102.246 50.9614 105.982 62.3512 104.447 67.7261C102.911 73.1011 98.3051 77.9641 99.5846 86.9224C100.864 95.8806 108.029 101.767 109.565 105.863C111.1 109.958 109.565 116.613 109.565 116.613H126.71C126.71 116.613 125.687 110.214 125.175 96.9044C124.663 83.595 114.465 81.0355 113.032 78.9879C111.612 76.9403 115.707 71.5654 115.451 64.6547C115.195 57.744 110.038 50.9614 107.364 50.9614Z" fill="white"/>
<path d="M116.909 129.551C116.781 129.551 116.653 129.551 116.526 129.538C113.813 129.321 112.93 127.26 112.994 125.571C113.071 123.562 114.427 121.488 116.564 121.488C118.586 121.488 120.095 122.192 120.837 123.459C121.49 124.598 121.439 126.096 120.71 127.375C119.903 128.732 118.483 129.551 116.909 129.551ZM116.564 122.244C114.901 122.244 113.826 123.946 113.762 125.596C113.711 127.017 114.414 128.604 116.589 128.77C116.692 128.783 116.807 128.783 116.909 128.783C118.214 128.783 119.379 128.105 120.031 126.966C120.633 125.929 120.684 124.726 120.159 123.818C119.571 122.807 118.291 122.244 116.564 122.244Z" fill="#C8F2E9"/>
<path d="M54.469 3.04793C67.7887 5.2619 69.3625 14.2201 69.1066 25.6355C68.8635 37.0509 75.8113 44.499 80.5199 44.499C80.5199 44.499 74.3142 46.7386 69.6056 44.499C64.8842 42.2595 60.1756 48.4663 48.0202 45.4972C35.8648 42.5154 24.9378 33.6851 30.1582 18.3665C35.3658 3.04793 45.538 1.55062 54.469 3.04793Z" fill="#7BE1C9"/>
<path d="M48.3273 21.028C48.3273 21.028 52.9336 11.7114 57.5398 16.4081C62.1461 21.1048 50.784 29.3592 48.6344 34.6062C48.6344 34.6062 36.6581 23.0756 41.5715 16.4081C46.4848 9.74061 48.3273 21.028 48.3273 21.028Z" fill="white"/>
<path d="M144.393 54.5191C144.393 54.5191 148.999 45.2025 153.606 49.8992C158.212 54.5959 146.85 62.8503 144.7 68.0972C144.7 68.0972 132.724 56.5667 137.637 49.8992C142.551 43.2317 144.393 54.5191 144.393 54.5191Z" fill="#65BAA6"/>
<path d="M150.496 36.8842C163.586 39.0726 165.134 47.8644 164.891 59.0878C164.648 70.3112 171.48 77.6314 176.112 77.6314C176.112 77.6314 170.009 79.8326 165.377 77.6314C160.745 75.4302 156.101 81.5347 144.15 78.604C132.199 75.6734 121.464 66.9839 126.582 51.934C131.713 36.8842 141.719 35.4253 150.496 36.8842Z" fill="white"/>
<path d="M144.393 54.5192C144.393 54.5192 148.999 45.2026 153.606 49.8993C158.212 54.5959 146.85 62.8503 144.7 68.0973C144.7 68.0973 132.724 56.5668 137.637 49.8993C142.551 43.2318 144.393 54.5192 144.393 54.5192Z" fill="#7BE1C9"/>
<path d="M105.499 151.28C105.417 152.082 105.29 152.867 105.114 153.631C102.862 163.361 92.7583 170.107 74.7319 171.333C38.3336 173.805 18.2802 171.608 11.1376 154.301C9.52234 150.389 8.89584 145.334 8.9842 139.812C9.28111 120.879 17.9285 96.398 23.7747 93.3159C31.329 89.3324 36.6856 91.3931 36.6856 91.3931C48.91 94.0025 68.4139 129.852 83.6603 131.225C98.9059 132.599 106.565 140.61 105.499 151.28Z" fill="#95E7D4"/>
<path d="M25.4219 115.155C25.4219 115.155 34.4872 122.435 37.6462 130.539C40.8053 138.643 40.8053 145.785 47.3981 147.158C53.991 148.531 66.3532 149.356 78.8524 145.647C91.3516 141.939 91.6264 137.543 78.4406 135.209C65.2549 132.874 50.8329 120.375 46.7124 111.447C42.592 102.518 42.7289 98.9474 40.1195 96.6128C37.5101 94.2782 33.6636 93.4537 29.818 97.9859C25.9724 102.518 23.7739 110.073 25.4219 115.155Z" fill="#65BAA6"/>
<path d="M52.9748 90.8567C53.1329 90.6411 53.3282 90.4467 53.4784 90.2285C54.1518 89.2503 53.4139 88.1413 52.5736 87.5687C52.0028 87.1799 51.9179 86.8706 52.0575 86.1575C52.168 85.5937 52.4879 85.2199 52.3792 84.6323C52.2891 84.1419 52.0743 83.4412 51.6908 83.1222C51.2985 82.7952 50.7206 82.8217 50.2682 82.6291C49.1459 82.151 50.1886 81.2568 49.7097 80.4182C48.9922 79.1625 46.9412 79.4639 45.7209 79.2783C45.7298 79.2801 45.7359 79.2774 45.7377 79.2686C44.6897 78.8515 44.5068 77.7505 43.1628 77.974C42.5283 78.0792 42.0882 78.4777 41.5589 78.7896C40.6408 79.3313 39.8676 78.5873 38.9787 78.9213C37.974 79.2995 37.1725 80.2052 36.8898 81.24C36.4965 82.6803 35.6624 82.2588 34.5269 82.7758C33.9242 83.0506 33.174 83.2423 33.2995 84.0862C33.3667 84.5369 33.7643 84.9239 33.7961 85.3702C33.8359 85.9401 33.2968 86.2635 32.9796 86.6877C32.6385 87.1445 32.4159 87.8108 32.6465 88.3587C32.8948 88.9507 33.5902 89.2414 33.6229 89.9625C33.668 90.9672 32.255 91.7907 32.8312 92.8882C33.212 93.6137 34.0373 93.6137 34.5861 94.0776C34.9546 94.3895 34.9024 94.8552 34.86 95.2723C34.7443 96.4157 35.2753 97.4302 36.6158 97.166C37.5923 96.9733 38.3054 96.8629 38.999 97.7032C39.6043 98.4366 40.199 98.7998 41.2223 98.7132C41.8726 98.6576 42.4753 98.3881 43.0974 98.214C43.6806 98.0505 43.86 98.1477 44.3831 98.3094C45.4868 98.6505 46.1256 97.5981 47.1515 97.6113C47.5456 97.6166 47.8046 97.9135 48.2066 97.9807C48.6732 98.0585 49.183 97.9047 49.5825 97.6696C50.1073 97.3604 50.3556 96.9937 50.5341 96.4202C50.6879 95.9253 50.7984 95.7495 51.2764 95.548C52.4879 95.0364 53.1471 94.4761 53.0676 93.0605C53.0357 92.5003 52.6372 92.0514 52.6982 91.5009C52.7265 91.2499 52.8369 91.0449 52.9748 90.8567Z" fill="#1C2A47"/>
<path d="M97.166 173.485C97.166 175.431 79.0866 177.01 56.7842 177.01C34.4819 177.01 16.4025 175.432 16.4025 173.485C16.4025 171.537 34.4819 169.959 56.7842 169.959C79.0866 169.96 97.166 171.538 97.166 173.485Z" fill="#DAE1F0"/>
<path d="M53.1674 108.654C53.1674 108.654 60.8136 116.712 63.9267 117.491L58.9358 120.65L52.297 116.941C52.2979 116.941 49.8255 110.348 53.1674 108.654Z" fill="#B5C4E2"/>
<path d="M53.1676 108.654L53.1031 108.715C53.1039 108.716 55.0162 110.732 57.3198 112.845C58.4712 113.902 59.7207 114.985 60.8791 115.852C61.4588 116.286 62.0146 116.666 62.5263 116.964C63.0379 117.261 63.5036 117.476 63.9056 117.576L63.9268 117.491L63.88 117.416L58.9342 120.547L52.3414 116.864L52.2981 116.941L52.3811 116.91C52.3811 116.91 52.3776 116.901 52.3714 116.885C52.276 116.624 51.5054 114.432 51.5063 112.341C51.5063 111.587 51.6062 110.847 51.8695 110.217C52.1328 109.586 52.5552 109.065 53.2082 108.733L53.1676 108.654L53.1031 108.715L53.1676 108.654L53.1278 108.576C52.4333 108.927 51.98 109.488 51.706 110.148C51.4312 110.809 51.3296 111.571 51.3296 112.341C51.3305 114.616 52.2141 116.968 52.2159 116.973L52.2274 117.003L58.9404 120.753L64.1495 117.455L63.9489 117.405C63.5725 117.311 63.1183 117.104 62.6155 116.811C60.8544 115.788 58.5039 113.731 56.5997 111.933C55.6471 111.033 54.805 110.198 54.2014 109.588C53.8992 109.283 53.6571 109.034 53.4901 108.862C53.407 108.775 53.3425 108.708 53.2984 108.663C53.2551 108.617 53.2321 108.593 53.2321 108.593L53.187 108.546L53.1287 108.576L53.1676 108.654Z" fill="#3D5C9B"/>
<path d="M57.2189 125.937C57.2189 125.937 69.4203 124.038 76.9295 127.426C84.4379 130.813 82.424 136.491 80.0426 141.344C77.6612 146.197 75.4644 148.029 75.4644 148.029L70.8862 146.106C70.8862 146.106 72.5342 137.865 75.2815 133.744C75.2815 133.744 64.5682 139.421 58.7989 139.146C53.0304 138.871 53.1214 128.066 53.1214 128.066L57.2189 125.937Z" fill="#1C2A47"/>
<path d="M39.6963 99.8876C39.6963 99.8876 36.5478 101.558 34.1673 102.473C31.7868 103.389 31.0542 106.914 32.4274 109.478C33.8006 112.042 37.2344 118.589 38.6995 122.481C40.1646 126.372 41.012 129.577 41.012 129.577C41.012 129.577 49.0011 131.111 53.4423 129.508C57.8835 127.906 57.2199 125.938 57.2199 125.938C57.2199 125.938 54.3586 115.888 53.946 113.186C53.946 113.186 55.1822 110.393 54.1748 107.922C53.1675 105.449 50.5581 104.442 49.2759 102.931C47.9937 101.421 43.0267 99.4537 39.6963 99.8876Z" fill="white"/>
<path d="M49.4146 89.4817C49.3103 90.8549 49.1892 92.2343 49.3757 94.1518C49.5241 95.7176 48.7713 96.9592 46.5957 98.7176C46.5957 98.7176 45.7987 98.7892 44.8983 98.525C44.8815 98.525 44.8656 98.5197 44.8488 98.5144L45.052 100.02L45.0962 100.339L45.1236 100.57C45.1236 100.57 45.1563 101.536 44.0243 101.811C42.8871 102.086 40.5525 100.987 39.6953 99.8885C39.6953 99.8885 39.8323 95.768 39.4868 94.1527C39.4868 94.1527 38.4264 92.4004 37.8388 89.9996C37.2565 87.5934 39.0582 85.2526 40.7345 84.3902C42.4161 83.533 47.4926 83.5056 49.0364 87.0111C49.0355 87.0093 49.5197 88.1077 49.4146 89.4817Z" fill="#B5C4E2"/>
<path d="M49.4146 89.4817L49.3263 89.4747C49.2618 90.3265 49.1902 91.1836 49.1902 92.1724C49.1902 92.7769 49.2167 93.4299 49.2883 94.1598C49.2998 94.2835 49.306 94.4045 49.306 94.5238C49.3051 95.2051 49.1133 95.8281 48.6724 96.4891C48.2306 97.1491 47.5378 97.8437 46.541 98.6487L46.5967 98.7176L46.5887 98.6293H46.5852C46.5658 98.631 46.4748 98.6372 46.3316 98.6372C46.0294 98.6372 45.4966 98.6072 44.924 98.4393L44.9116 98.4357H44.8992V98.4446L44.9001 98.4357H44.8992V98.4446L44.9001 98.4357L44.8948 98.4348L44.878 98.4295L44.7437 98.3845L44.9664 100.03L45.0106 100.349L45.098 100.336L45.0106 100.347L45.0379 100.578L45.1254 100.567L45.0371 100.569V100.57V100.575C45.0371 100.614 45.03 100.844 44.8992 101.088C44.8338 101.211 44.7375 101.338 44.5952 101.45C44.4521 101.562 44.2621 101.66 44.0058 101.722C43.8945 101.749 43.7673 101.763 43.6294 101.762C43.0444 101.763 42.2598 101.521 41.5343 101.156C40.8079 100.792 40.1364 100.305 39.767 99.8301L39.6972 99.8849L39.7855 99.8876C39.7855 99.8867 39.812 99.079 39.812 98.0381C39.812 97.3824 39.8014 96.634 39.7661 95.9359C39.7308 95.2369 39.6724 94.5901 39.5743 94.1306L39.5708 94.1165L39.5629 94.1041C39.5629 94.1041 39.5593 94.0979 39.5514 94.0847C39.4356 93.8876 38.4724 92.2131 37.9246 89.9748C37.8495 89.6664 37.815 89.3589 37.815 89.0549C37.815 88.0502 38.195 87.0871 38.757 86.2812C39.3181 85.4762 40.0612 84.8311 40.7743 84.4644C41.0447 84.3266 41.4141 84.2081 41.8462 84.1251C42.2783 84.042 42.7749 83.9943 43.3007 83.9943C44.3478 83.9943 45.5125 84.1852 46.5384 84.6615C47.5643 85.1386 48.4506 85.8986 48.9543 87.042L48.9552 87.0438C48.9755 87.0906 49.3413 87.9575 49.3404 89.0859C49.3404 89.2113 49.336 89.3404 49.3263 89.472L49.4146 89.4817L49.503 89.4888C49.5136 89.3527 49.518 89.2193 49.518 89.0894C49.518 87.8859 49.1195 86.981 49.1169 86.974C48.5937 85.7846 47.6686 84.9937 46.6135 84.5042C45.5575 84.0137 44.369 83.8202 43.3007 83.8202C42.7643 83.8202 42.258 83.8688 41.8135 83.9545C41.369 84.0402 40.9864 84.1613 40.6948 84.3106C39.9517 84.6933 39.1917 85.3551 38.6129 86.184C38.035 87.012 37.64 88.0087 37.6392 89.0585C37.6392 89.3757 37.6754 89.6974 37.7531 90.0199C38.3443 92.4349 39.4091 94.1933 39.4118 94.1978L39.4878 94.1518L39.4012 94.1704C39.4957 94.6113 39.5549 95.2537 39.5894 95.9474C39.6238 96.641 39.6344 97.3868 39.6344 98.0407C39.6344 98.5594 39.6274 99.0207 39.6212 99.3521C39.6176 99.5173 39.6141 99.6507 39.6123 99.7426C39.6097 99.8345 39.6079 99.884 39.6079 99.884L39.607 99.9158L39.6265 99.9415C40.0232 100.45 40.7098 100.944 41.4539 101.317C42.1979 101.69 42.9967 101.94 43.6285 101.941C43.7779 101.941 43.9184 101.927 44.0465 101.896C44.3248 101.829 44.5396 101.719 44.703 101.591C44.9487 101.399 45.0768 101.164 45.1422 100.969C45.2076 100.775 45.2129 100.62 45.2129 100.577V100.566V100.562L45.1846 100.326L45.1404 100.007L44.9372 98.502L44.8497 98.5135L44.8214 98.5974C44.8382 98.6027 44.8621 98.6125 44.8992 98.6133V98.525L44.8745 98.6098C45.47 98.7839 46.0188 98.8148 46.3325 98.8148C46.5021 98.8148 46.6029 98.806 46.6055 98.806L46.632 98.8033L46.6532 98.7865C47.6571 97.9753 48.3631 97.2711 48.8208 96.588C49.2786 95.905 49.4853 95.2405 49.4845 94.5247C49.4845 94.3992 49.4783 94.2729 49.4659 94.1447C49.3952 93.4202 49.3687 92.7733 49.3687 92.1742C49.3687 91.1942 49.4394 90.3424 49.5048 89.4897L49.4146 89.4817Z" fill="#3D5C9B"/>
<path d="M39.8845 92.0382C39.8845 92.0382 39.8942 92.0488 39.9128 92.0691C39.9755 92.1389 40.1337 92.3201 40.2751 92.5269C40.4174 92.7327 40.5411 92.966 40.5402 93.1313C40.5402 93.1569 40.5375 93.1807 40.5314 93.2028C40.4916 93.3495 40.4094 93.4335 40.3334 93.5174C40.2574 93.6005 40.1867 93.6862 40.1867 93.8285C40.1867 93.8965 40.2026 93.9769 40.2406 94.075C40.4297 94.5743 40.5508 94.781 40.5517 94.7819C40.5579 94.7925 40.5711 94.7961 40.5817 94.7899C40.5923 94.7837 40.5959 94.7704 40.5897 94.7598C40.5897 94.7598 40.5826 94.7474 40.5685 94.7209C40.5261 94.6405 40.4236 94.432 40.2822 94.0591C40.2459 93.9637 40.2318 93.8885 40.2318 93.8276C40.2318 93.7021 40.291 93.6305 40.367 93.5466C40.4421 93.4635 40.5322 93.3716 40.5747 93.2143C40.5817 93.1878 40.5853 93.1604 40.5853 93.1313C40.5844 92.9201 40.4165 92.6435 40.2504 92.4146C40.0842 92.1867 39.9181 92.009 39.9172 92.009C39.9093 92.0002 39.8951 91.9993 39.8863 92.0082C39.8766 92.0152 39.8757 92.0294 39.8845 92.0382Z" fill="#273B63"/>
<path d="M48.8972 89.997C48.8972 89.997 48.2449 89.7911 47.369 90.4089C47.369 90.4089 47.5237 89.7045 48.039 89.6187C48.5543 89.5339 48.8972 89.997 48.8972 89.997Z" fill="#273B63"/>
<path d="M45.3779 90.6219C45.3779 90.6219 44.9103 90.0544 44.2262 90.1543C43.5421 90.2542 43.025 90.5211 43.025 90.5211C43.025 90.5211 43.3255 89.8538 43.9929 89.7035C44.6611 89.5541 45.1949 89.9377 45.3779 90.6219Z" fill="#273B63"/>
<path d="M47.6013 91.7308C47.5775 92.0764 47.6685 92.3637 47.8055 92.3734C47.9425 92.3831 48.0733 92.1109 48.0981 91.7653C48.1219 91.4197 48.0309 91.1324 47.8939 91.1227C47.7569 91.1139 47.6252 91.3861 47.6013 91.7308Z" fill="#273B63"/>
<path d="M44.5969 92.1435C44.5731 92.489 44.6641 92.7763 44.8011 92.786C44.9381 92.7957 45.0689 92.5235 45.0937 92.1779C45.1175 91.8323 45.0265 91.5451 44.8895 91.5353C44.7516 91.5256 44.6208 91.7979 44.5969 92.1435Z" fill="#273B63"/>
<path d="M46.7717 92.2061C46.7717 92.2061 46.8212 92.2927 46.8964 92.4288C47.0086 92.633 47.1765 92.9503 47.3171 93.2561C47.4576 93.561 47.5681 93.8589 47.5681 94.0127C47.5681 94.0578 47.5584 94.0887 47.5434 94.1029C47.493 94.1532 47.394 94.2089 47.2755 94.262C47.0979 94.3406 46.8751 94.4149 46.6966 94.4679C46.6073 94.4944 46.5296 94.5165 46.4739 94.5315C46.4182 94.5466 46.3855 94.5554 46.3855 94.5554C46.374 94.5581 46.3669 94.5704 46.3696 94.5819C46.3722 94.5934 46.3846 94.6005 46.3961 94.5978C46.3961 94.5978 46.6339 94.5377 46.8999 94.4502C47.0325 94.406 47.1721 94.3556 47.2932 94.3026C47.4143 94.2487 47.516 94.193 47.5743 94.1347C47.6026 94.1064 47.6123 94.064 47.6123 94.0127C47.6123 93.8978 47.561 93.7299 47.4859 93.5372C47.2605 92.9627 46.8106 92.184 46.8106 92.184C46.8044 92.1734 46.7912 92.1698 46.7806 92.176C46.77 92.1813 46.7656 92.1955 46.7717 92.2061Z" fill="#273B63"/>
<path d="M46.5139 95.4235C46.5139 95.4235 46.4891 95.4271 46.4432 95.4306C46.3972 95.4341 46.3318 95.4377 46.2514 95.4377C45.9429 95.4377 45.4179 95.3838 44.9724 95.0717C44.9627 95.0647 44.9486 95.0673 44.9415 95.077C44.9344 95.0868 44.9371 95.1009 44.9468 95.108C45.4038 95.4271 45.9376 95.4819 46.2505 95.4819C46.4149 95.4819 46.5183 95.4668 46.5192 95.4668C46.5316 95.4651 46.5395 95.4536 46.5378 95.4421C46.5369 95.4306 46.5254 95.4218 46.5139 95.4235Z" fill="#273B63"/>
<path d="M42.1793 88.0971C42.1793 88.0971 42.5566 88.8181 42.3507 90.4317C42.1448 92.0452 42.0414 91.462 41.9044 92.1831C41.7675 92.9041 42.1448 93.4537 41.6641 94.037C41.1834 94.621 41.9045 92.4915 40.3934 91.2208C38.8824 89.9501 39.2606 93.6932 39.6379 94.4143C40.0152 95.1353 40.6338 95.4101 40.6338 95.4101L39.6724 96.543C39.6724 96.543 35.0367 94.3453 35.2771 89.7097C35.5175 85.0741 38.2303 83.8034 38.2303 83.8034C38.2303 83.8034 40.4968 80.6099 46.2308 82.0865C51.9657 83.5631 51.2623 88.2614 51.2101 88.9542C51.0732 90.7745 49.2873 90.8081 49.2873 90.8081C49.2873 90.8081 49.4587 88.8853 48.2225 87.7516C48.2225 87.7516 47.8788 88.5416 46.677 88.8508C45.4753 89.1601 46.0594 88.0609 46.2997 87.5801C46.2997 87.5801 45.6131 88.5071 44.5139 88.5071C43.4155 88.5089 42.1793 88.0971 42.1793 88.0971Z" fill="#1C2A47"/>
<path d="M45.0961 100.338C44.5738 100.201 43.7662 99.8929 42.7615 99.2231C40.9102 97.9869 41.2177 95.6523 41.2177 95.6523C42.0086 97.5424 44.5146 98.366 44.5146 98.366L44.899 98.525C44.8822 98.525 44.8663 98.5197 44.8495 98.5144L45.0528 100.02L45.0961 100.338Z" fill="#273B63"/>
<path d="M33.7547 103.389C36.1723 103.139 38.013 105.769 40.3476 110.531C42.6821 115.293 45.1546 122.573 45.1546 122.573C45.1546 122.573 56.1887 121.336 59.7595 118.498C59.7595 118.498 60.538 115.614 61.0876 114.927C61.6372 114.241 62.6897 113.737 63.3771 113.37C64.0637 113.004 64.5215 112.638 64.5215 112.638L61.8202 119.826C61.8202 119.826 59.9884 121.52 58.9819 122.482C57.9745 123.443 47.1693 129.12 42.8659 128.021C38.5626 126.922 33.205 115.614 32.6103 112.867C32.0156 110.119 30.6416 103.709 33.7547 103.389Z" fill="#B5C4E2"/>
<path d="M33.7545 103.389L33.7633 103.476C33.8658 103.465 33.9666 103.46 34.0664 103.46C34.616 103.46 35.1347 103.617 35.6437 103.926C36.4072 104.388 37.1468 105.194 37.9023 106.313C38.6578 107.432 39.431 108.864 40.2678 110.569C41.4334 112.945 42.6343 115.954 43.5435 118.367C43.9986 119.574 44.3803 120.632 44.6481 121.388C44.7824 121.767 44.8876 122.07 44.96 122.277C45.0325 122.486 45.0705 122.599 45.0705 122.599L45.0934 122.666L45.1641 122.658C45.1659 122.658 47.9264 122.349 51.1358 121.684C52.7405 121.351 54.4574 120.93 55.9994 120.413C57.5414 119.896 58.9075 119.284 59.815 118.564L59.838 118.547L59.8459 118.518C59.8459 118.518 59.8583 118.473 59.8804 118.394C59.9581 118.114 60.1614 117.404 60.4044 116.69C60.5254 116.333 60.6571 115.976 60.787 115.671C60.9169 115.367 61.0477 115.115 61.1572 114.978C61.4214 114.648 61.8147 114.355 62.2273 114.1C62.6409 113.846 63.0739 113.628 63.4185 113.444C64.1121 113.074 64.5734 112.705 64.577 112.703L64.5222 112.634L64.4391 112.603L61.7378 119.792L61.8209 119.823L61.7608 119.758C61.7608 119.758 59.929 121.452 58.9207 122.414C58.8686 122.464 58.782 122.533 58.6662 122.614C58.2297 122.922 57.3823 123.42 56.2901 123.991C54.651 124.847 52.4577 125.868 50.2504 126.674C48.0439 127.48 45.8216 128.071 44.1356 128.07C43.6752 128.07 43.2555 128.026 42.8879 127.932C41.8425 127.667 40.7079 126.765 39.598 125.513C37.9315 123.636 36.3144 120.978 35.0614 118.534C34.4349 117.312 33.8985 116.144 33.4912 115.153C33.0838 114.163 32.8063 113.349 32.6968 112.844C32.3901 111.43 31.8785 109.047 31.8794 107.034C31.8794 106.088 31.9934 105.225 32.2876 104.59C32.4343 104.272 32.6252 104.012 32.8664 103.822C33.1085 103.632 33.4019 103.51 33.7651 103.473L33.7545 103.389L33.7457 103.301C33.3533 103.341 33.0246 103.476 32.756 103.687C32.3539 104.004 32.0915 104.485 31.9289 105.063C31.7663 105.641 31.7018 106.319 31.7018 107.039C31.7018 109.079 32.2169 111.469 32.5236 112.885C32.6756 113.585 33.1227 114.807 33.7775 116.275C34.7592 118.475 36.2057 121.218 37.814 123.518C38.6181 124.669 39.462 125.708 40.3111 126.514C41.1603 127.319 42.0139 127.894 42.8437 128.106C43.2298 128.205 43.6637 128.249 44.1347 128.249C45.3621 128.249 46.8448 127.947 48.3974 127.481C50.7258 126.783 53.2088 125.717 55.1979 124.743C56.1929 124.256 57.0633 123.791 57.7296 123.407C58.0627 123.215 58.3446 123.043 58.5664 122.897C58.7882 122.751 58.9481 122.633 59.0427 122.544C59.5455 122.064 60.255 121.4 60.8391 120.856C61.1307 120.584 61.3914 120.343 61.5787 120.169C61.6724 120.082 61.7475 120.013 61.7997 119.964C61.8518 119.915 61.8801 119.89 61.8801 119.89L61.8951 119.876L64.7166 112.367L64.4656 112.568L64.4612 112.571C64.4108 112.611 63.9725 112.951 63.3354 113.292C62.9935 113.474 62.5569 113.693 62.1346 113.953C61.7122 114.213 61.3039 114.515 61.0185 114.871C60.9434 114.964 60.8692 115.089 60.7941 115.236C60.5307 115.753 60.2524 116.559 60.0377 117.24C59.8238 117.92 59.6745 118.473 59.6745 118.474L59.7602 118.497L59.7054 118.428C58.8271 119.126 57.4751 119.735 55.9437 120.248C53.6462 121.018 50.9449 121.578 48.8198 121.944C47.7567 122.127 46.8378 122.262 46.1847 122.352C45.8578 122.396 45.598 122.429 45.4195 122.451C45.3303 122.462 45.2613 122.471 45.2154 122.476C45.1685 122.482 45.1447 122.484 45.1447 122.484L45.1544 122.572L45.2384 122.543C45.2375 122.542 42.7659 115.262 40.4269 110.491C39.3091 108.211 38.3035 106.418 37.2873 105.187C36.7792 104.572 36.2676 104.096 35.7356 103.774C35.2037 103.451 34.6505 103.283 34.0664 103.283C33.9604 103.283 33.8535 103.289 33.7457 103.3L33.7545 103.389Z" fill="#3D5C9B"/>
<path d="M41.0119 129.578C41.0119 129.578 38.3795 138.78 44.9724 143.451C51.5652 148.121 68.5975 137.682 74.6408 130.54C74.6408 130.54 83.889 143.268 91.7641 147.113L95.5187 143.633C95.5187 143.633 84.8964 128.067 79.3109 124.495C73.7253 120.924 55.9605 127.883 55.9605 127.883C55.9605 127.883 45.6589 130.356 41.0119 129.578Z" fill="#3D5C9B"/>
<path d="M108.063 145.053C107.697 144.961 107.423 145.327 107.01 145.418C106.598 145.51 101.47 147.25 99.3178 147.708L95.5182 143.633L91.7635 147.113L95.6339 150.214C96.0342 150.951 96.8834 152.364 97.9906 153.34C99.5476 154.713 100.784 154.119 101.47 153.615C102.157 153.111 103.393 151.738 104.629 150.776C105.866 149.814 107.606 148.029 108.063 146.838C108.521 145.648 108.429 145.144 108.063 145.053Z" fill="#B5C4E2"/>
<path d="M108.063 145.052L108.084 144.967C108.037 144.955 107.99 144.949 107.945 144.95C107.854 144.95 107.768 144.972 107.687 145.004C107.566 145.052 107.456 145.122 107.343 145.185C107.23 145.249 107.116 145.305 106.991 145.333C106.961 145.34 106.916 145.352 106.855 145.37C106.396 145.505 105.012 145.961 103.488 146.436C101.965 146.913 100.303 147.408 99.3007 147.621L99.3193 147.708L99.3838 147.648L95.5231 143.509L91.6289 147.118L95.5788 150.283L95.6345 150.214L95.5567 150.256C95.9597 150.998 96.8115 152.417 97.932 153.407C98.6583 154.048 99.329 154.275 99.9096 154.275C100.593 154.275 101.143 153.964 101.522 153.687C101.875 153.428 102.355 152.958 102.904 152.432C103.453 151.906 104.07 151.324 104.683 150.847C105.306 150.362 106.053 149.673 106.703 148.953C107.353 148.233 107.907 147.486 108.145 146.871C108.363 146.303 108.461 145.887 108.461 145.583C108.461 145.413 108.43 145.276 108.365 145.171C108.301 145.065 108.199 144.996 108.084 144.968L108.063 145.052L108.042 145.138C108.119 145.159 108.173 145.196 108.215 145.262C108.256 145.329 108.285 145.432 108.285 145.581C108.286 145.847 108.195 146.249 107.981 146.806C107.76 147.381 107.216 148.122 106.572 148.833C105.929 149.544 105.188 150.228 104.575 150.705C103.952 151.189 103.333 151.775 102.782 152.302C102.234 152.829 101.752 153.298 101.418 153.543C101.054 153.809 100.539 154.098 99.9096 154.097C99.3758 154.096 98.752 153.893 98.0486 153.272C96.9564 152.309 96.1081 150.903 95.7114 150.171L95.7025 150.155L91.8984 147.107L95.5134 143.757L99.2875 147.804L99.3361 147.794C100.419 147.563 102.239 147.013 103.843 146.51C104.644 146.258 105.392 146.017 105.963 145.835C106.25 145.743 106.492 145.666 106.676 145.608C106.768 145.58 106.844 145.556 106.904 145.538C106.965 145.521 107.008 145.508 107.029 145.504C107.231 145.459 107.395 145.357 107.542 145.273C107.616 145.231 107.686 145.193 107.753 145.166C107.82 145.14 107.883 145.125 107.945 145.125C107.976 145.125 108.008 145.128 108.042 145.137L108.063 145.052Z" fill="#3D5C9B"/>
<path d="M71.3971 145.9C71.3971 145.9 70.6168 148.844 70.1494 149.622C69.6811 150.399 67.8616 152.399 68.1736 153.566C68.4855 154.732 69.7906 155.198 71.8707 155.698C73.9508 156.198 74.2566 157.395 75.5564 157.895C76.8563 158.396 78.3514 158.609 78.7155 158.33C79.0795 158.053 79.6309 158.284 80.2954 157.552C80.9909 156.784 79.517 156.178 78.7385 155.514C78.2348 155.085 76.9102 153.787 75.4018 152.454C73.8934 151.121 75.4645 147.57 75.4645 147.57L71.3971 145.9Z" fill="#B5C4E2"/>
<path d="M71.3971 145.9L71.3114 145.877C71.3114 145.877 71.299 145.923 71.2769 146.004C71.1992 146.29 70.9986 147.018 70.7662 147.758C70.6504 148.128 70.5258 148.501 70.4065 148.823C70.2872 149.145 70.1697 149.416 70.0734 149.576C69.9691 149.749 69.7906 149.993 69.5812 150.277C69.2675 150.703 68.8875 151.22 68.5836 151.745C68.2805 152.271 68.0498 152.804 68.049 153.277C68.049 153.384 68.0613 153.489 68.0878 153.589C68.1691 153.893 68.3176 154.156 68.5252 154.38C68.8372 154.718 69.279 154.973 69.8366 155.193C70.3941 155.412 71.0684 155.595 71.8495 155.784C72.8745 156.031 73.4533 156.444 73.9482 156.863C74.1956 157.074 74.4209 157.287 74.6692 157.48C74.9175 157.674 75.1888 157.848 75.5237 157.977C76.4409 158.329 77.4474 158.54 78.1119 158.54C78.2559 158.54 78.3841 158.531 78.4945 158.509C78.6041 158.487 78.6969 158.454 78.7685 158.399C78.8462 158.34 78.9355 158.306 79.0433 158.279C79.205 158.237 79.4047 158.214 79.63 158.128C79.8553 158.042 80.1028 157.894 80.3599 157.61C80.4969 157.46 80.5649 157.302 80.564 157.145C80.564 156.97 80.4819 156.81 80.3617 156.664C80.1805 156.444 79.9057 156.241 79.6176 156.041C79.3296 155.841 79.0274 155.644 78.795 155.445C78.5467 155.233 78.0889 154.801 77.5066 154.257C76.9243 153.712 76.2147 153.054 75.4601 152.386C75.2286 152.182 75.0739 151.922 74.975 151.625C74.876 151.329 74.8354 150.996 74.8354 150.652C74.8354 149.936 75.0121 149.17 75.1897 148.588C75.2789 148.296 75.3673 148.05 75.4345 147.877C75.468 147.79 75.4954 147.722 75.5149 147.675C75.5246 147.652 75.5325 147.634 75.537 147.622C75.5423 147.611 75.5449 147.604 75.5449 147.604L75.582 147.521L71.3379 145.777L71.3123 145.874L71.3971 145.9L71.3635 145.981L75.4309 147.652L75.4645 147.571L75.3841 147.536C75.3832 147.538 75.2029 147.946 75.0218 148.538C74.8415 149.131 74.6595 149.909 74.6595 150.655C74.6595 151.013 74.701 151.363 74.808 151.684C74.914 152.004 75.0863 152.294 75.3443 152.522C76.0972 153.187 76.805 153.845 77.3873 154.389C77.9696 154.933 78.4265 155.365 78.6819 155.583C79.0088 155.861 79.4444 156.123 79.7935 156.386C79.9685 156.518 80.1213 156.649 80.2265 156.778C80.3325 156.908 80.3891 157.029 80.3882 157.147C80.3882 157.252 80.3458 157.363 80.2291 157.492C79.9075 157.846 79.6274 157.959 79.3702 158.026C79.2421 158.059 79.1193 158.079 79 158.109C78.8816 158.139 78.7658 158.181 78.6607 158.26C78.6227 158.29 78.5537 158.319 78.4592 158.337C78.3655 158.356 78.2471 158.366 78.111 158.366C77.4819 158.366 76.4842 158.159 75.5865 157.813C75.2719 157.692 75.0174 157.529 74.777 157.342C74.4174 157.062 74.0922 156.725 73.6583 156.41C73.2245 156.095 72.6801 155.802 71.8893 155.612C70.851 155.363 70.0098 155.122 69.3974 154.804C69.0908 154.644 68.8425 154.467 68.6525 154.261C68.4625 154.055 68.3308 153.821 68.2557 153.543C68.2336 153.46 68.223 153.372 68.223 153.278C68.223 153.002 68.3167 152.68 68.4687 152.345C68.6967 151.842 69.0519 151.308 69.3921 150.833C69.7323 150.359 70.0548 149.945 70.2218 149.668C70.3456 149.462 70.4816 149.131 70.6212 148.743C71.0401 147.581 71.4784 145.925 71.4793 145.923L71.3971 145.9L71.3635 145.981L71.3971 145.9Z" fill="#3D5C9B"/>
<path d="M78.1879 104.211L73.8642 116.71L72.9965 119.193C72.9364 119.359 72.7985 119.485 72.628 119.528L61.5904 122.413C61.365 122.474 61.1565 122.381 61.0407 122.221C60.9365 122.089 60.8976 121.908 60.9586 121.726L61.5462 120.056L66.9249 104.282C66.9965 104.073 67.183 103.93 67.403 103.925L76.7926 103.546L77.6666 103.513C78.0395 103.497 78.309 103.86 78.1879 104.211Z" fill="#6C8AC5"/>
<path d="M78.1878 104.211L73.8641 116.71L72.9964 119.194C72.9363 119.359 72.7984 119.485 72.6279 119.528L61.5903 122.414C61.3649 122.474 61.1564 122.381 61.0406 122.221C63.0456 120.567 68.5295 115.848 72.2152 110.804C74.8414 107.211 76.1545 104.876 76.7916 103.547L77.6656 103.514C78.0393 103.497 78.3088 103.86 78.1878 104.211Z" fill="#486DB7"/>
<path d="M75.9514 111.455C75.9461 111.447 75.9382 111.44 75.9329 111.431C76.0628 111.299 76.2333 111.073 76.1653 110.838C76.0601 110.473 75.5211 110.242 74.7612 110.262C74.0012 110.282 73.6036 110.538 73.7626 110.695C73.9217 110.853 74.345 111.05 74.816 110.984L74.9229 111.113C74.7771 111.126 74.6224 111.149 74.4581 111.189C73.7202 111.37 73.3853 111.705 73.5735 111.825C73.7626 111.945 74.2177 112.048 74.664 111.885L74.7691 111.967C74.656 111.981 74.5385 112.001 74.4157 112.031C73.6778 112.211 73.3429 112.546 73.5311 112.666C73.7202 112.786 74.1753 112.89 74.6215 112.726L74.8681 112.921C74.4475 113.054 73.9809 113.252 74.0631 113.405C74.1833 113.628 74.8699 113.68 74.8699 113.68L74.5782 114.59C74.5782 114.59 75.4884 114.16 75.7968 113.697C75.9753 113.43 75.9214 113.149 75.7782 112.969C75.8808 112.821 76.0363 112.535 75.9081 112.298C75.8808 112.247 75.8419 112.203 75.7968 112.162C75.8949 112.028 76.0893 111.713 75.9514 111.455Z" fill="#B5C4E2"/>
<path d="M75.9513 111.455L76.0291 111.413C76.0211 111.399 76.0141 111.39 76.0096 111.386L76.0061 111.381L76.0052 111.382L76.0061 111.381L76.0052 111.382L76.0061 111.381L75.9814 111.399L76.007 111.383L76.0061 111.381L75.9814 111.399L76.007 111.383L75.9319 111.43L75.9946 111.492C76.0529 111.432 76.1192 111.356 76.1731 111.264C76.2261 111.172 76.2677 111.065 76.2677 110.946C76.2677 110.902 76.2615 110.857 76.2491 110.812C76.2191 110.708 76.1598 110.615 76.0786 110.536C75.9557 110.416 75.7852 110.326 75.5784 110.265C75.3708 110.204 75.126 110.171 74.852 110.171C74.8211 110.171 74.7902 110.171 74.7593 110.172C74.427 110.181 74.1602 110.233 73.9702 110.307C73.8747 110.344 73.7987 110.385 73.7413 110.434C73.713 110.459 73.6883 110.485 73.6706 110.515C73.6529 110.545 73.6406 110.581 73.6406 110.619C73.6397 110.671 73.6653 110.721 73.7015 110.756C73.7828 110.836 73.9092 110.916 74.0691 110.978C74.2282 111.04 74.4208 111.084 74.6303 111.084C74.6956 111.084 74.7619 111.08 74.8291 111.071L74.8167 110.984L74.7487 111.04L74.8556 111.169L74.9236 111.113L74.9166 111.024C74.7663 111.037 74.6073 111.06 74.4376 111.102C74.1292 111.177 73.8871 111.28 73.7174 111.386C73.6326 111.439 73.5655 111.493 73.5169 111.55C73.4921 111.578 73.4727 111.607 73.4577 111.638C73.4435 111.669 73.4338 111.702 73.4338 111.737C73.4338 111.769 73.4426 111.802 73.4594 111.83C73.4762 111.858 73.5001 111.88 73.5266 111.898C73.5964 111.942 73.6901 111.981 73.8005 112.009C73.911 112.038 74.04 112.056 74.1778 112.056C74.3404 112.056 74.518 112.031 74.6939 111.966L74.6638 111.883L74.609 111.953L74.7142 112.035L74.769 111.965L74.7584 111.878C74.6426 111.892 74.5225 111.911 74.3943 111.943C74.0859 112.018 73.8438 112.121 73.6742 112.227C73.5893 112.28 73.5222 112.335 73.4736 112.391C73.4488 112.419 73.4294 112.449 73.4144 112.48C73.4002 112.511 73.3905 112.543 73.3905 112.579C73.3905 112.61 73.3993 112.643 73.4161 112.671C73.4329 112.7 73.4568 112.722 73.4833 112.739C73.5531 112.784 73.6468 112.822 73.7572 112.851C73.8677 112.879 73.9967 112.898 74.1345 112.898C74.2971 112.898 74.4747 112.872 74.6506 112.807L74.6205 112.724L74.5657 112.794L74.8123 112.989L74.8671 112.919L74.8406 112.835C74.6435 112.898 74.4376 112.974 74.275 113.055C74.1937 113.096 74.123 113.138 74.0683 113.185C74.0409 113.209 74.017 113.232 73.9976 113.262C73.979 113.291 73.964 113.326 73.964 113.366C73.964 113.392 73.9711 113.421 73.9843 113.445C74.0073 113.487 74.0409 113.521 74.078 113.549C74.1434 113.597 74.2238 113.632 74.3077 113.66C74.5605 113.743 74.8582 113.764 74.8618 113.765L74.868 113.677L74.784 113.65L74.4297 114.753L74.6135 114.667C74.6152 114.666 74.845 114.557 75.1163 114.389C75.3867 114.22 75.6986 113.996 75.8682 113.743C75.9566 113.611 75.9964 113.471 75.9955 113.339C75.9955 113.175 75.9363 113.026 75.8453 112.912L75.7764 112.966L75.8488 113.017C75.8886 112.959 75.9363 112.882 75.9743 112.792C76.0123 112.703 76.0423 112.601 76.0423 112.493C76.0423 112.414 76.0255 112.331 75.984 112.253C75.9495 112.191 75.9036 112.139 75.8541 112.095L75.7949 112.161L75.8665 112.213C75.9062 112.159 75.9593 112.078 76.0043 111.982C76.0485 111.886 76.0856 111.773 76.0856 111.652C76.0856 111.572 76.0688 111.49 76.0273 111.412L75.9513 111.455L75.8736 111.497C75.9001 111.546 75.9107 111.598 75.9107 111.652C75.9107 111.736 75.8833 111.827 75.8453 111.909C75.8073 111.99 75.7596 112.062 75.7251 112.109L75.6774 112.174L75.7366 112.228C75.7772 112.264 75.809 112.3 75.8294 112.339C75.8559 112.389 75.8665 112.44 75.8665 112.495C75.8665 112.57 75.8444 112.65 75.8126 112.724C75.7808 112.799 75.7392 112.867 75.7039 112.918L75.6668 112.972L75.7074 113.023C75.7755 113.108 75.8196 113.22 75.8196 113.34C75.8196 113.437 75.7923 113.541 75.7216 113.646C75.5828 113.856 75.2842 114.079 75.0235 114.24C74.8927 114.321 74.7708 114.388 74.6824 114.435C74.6382 114.458 74.602 114.477 74.5772 114.489C74.5649 114.495 74.5551 114.5 74.549 114.503L74.5392 114.508L74.5772 114.587L74.6612 114.614L74.9872 113.597L74.8759 113.589L74.8688 113.589C74.8335 113.586 74.6647 113.569 74.4959 113.529C74.412 113.51 74.3272 113.483 74.2618 113.452C74.1955 113.422 74.1522 113.384 74.1398 113.361L74.1292 113.366H74.1407L74.1398 113.361L74.1292 113.366H74.1407H74.1319L74.1407 113.368V113.366H74.1319L74.1407 113.368L74.1425 113.364C74.1469 113.353 74.1734 113.323 74.2185 113.292C74.2856 113.244 74.3908 113.192 74.5101 113.141C74.6294 113.092 74.7637 113.044 74.8945 113.003L75.0535 112.952L74.6364 112.624L74.5905 112.641C74.4359 112.698 74.2794 112.72 74.1345 112.72C74.0117 112.72 73.8977 112.704 73.8014 112.679C73.7051 112.655 73.6264 112.621 73.5778 112.59C73.5699 112.585 73.5681 112.581 73.5672 112.581V112.579C73.5672 112.576 73.5681 112.568 73.5743 112.556C73.5849 112.533 73.6105 112.499 73.6529 112.462C73.7811 112.348 74.0506 112.209 74.4359 112.116C74.5551 112.086 74.6683 112.068 74.7796 112.054L74.9899 112.027L74.6797 111.783L74.6338 111.8C74.4792 111.857 74.3227 111.879 74.1778 111.879C74.055 111.879 73.941 111.863 73.8447 111.838C73.7484 111.813 73.6697 111.78 73.6211 111.749C73.6132 111.743 73.6114 111.74 73.6105 111.74V111.737C73.6105 111.735 73.6114 111.727 73.6176 111.714C73.6282 111.692 73.6538 111.658 73.6962 111.621C73.8244 111.507 74.0939 111.368 74.4792 111.274C74.6391 111.235 74.7893 111.212 74.9307 111.201L75.0995 111.187L74.8529 110.889L74.8043 110.896C74.7451 110.904 74.6868 110.908 74.6294 110.908C74.4456 110.908 74.2733 110.869 74.1328 110.814C73.9923 110.759 73.8818 110.688 73.8253 110.631C73.8146 110.619 73.8173 110.619 73.8164 110.619C73.8164 110.619 73.8164 110.615 73.8217 110.606C73.8306 110.59 73.8588 110.561 73.9057 110.533C73.9764 110.49 74.0877 110.445 74.2326 110.412C74.3775 110.378 74.556 110.354 74.7637 110.349C74.7937 110.348 74.8229 110.348 74.852 110.348C75.1984 110.348 75.49 110.404 75.7012 110.498C75.8073 110.544 75.8921 110.6 75.9549 110.662C76.0176 110.724 76.0591 110.79 76.0794 110.862C76.0874 110.891 76.0918 110.919 76.0918 110.947C76.0918 111.023 76.0644 111.102 76.0211 111.175C75.9778 111.249 75.9204 111.317 75.8691 111.369L75.8196 111.418L75.8568 111.478C75.8647 111.49 75.8709 111.496 75.8736 111.5L75.8753 111.501L75.9036 111.48L75.8727 111.497L75.8753 111.501L75.9036 111.48L75.8727 111.497L75.9513 111.455Z" fill="#3D5C9B"/>
<path d="M72.7331 112.589C72.4248 113.61 71.5897 114.261 70.8678 114.043C70.1458 113.824 69.8118 112.821 70.1202 111.799C70.4286 110.779 71.2636 110.127 71.9856 110.346C72.7075 110.564 73.0415 111.569 72.7331 112.589Z" fill="#486DB7"/>
<path d="M105.114 153.631C102.862 163.361 92.7583 170.107 74.7319 171.333C38.3336 173.806 18.2802 171.608 11.1376 154.301C9.52234 150.389 8.89584 145.334 8.9842 139.812C11.7315 140.912 16.846 143.916 22.4006 151.965C30.6415 163.915 47.2611 169.959 67.3155 167.349C86.8299 164.812 98.6752 162.01 105.114 153.631Z" fill="#65BAA6"/>
</svg>
