<svg width="275" height="162" viewBox="0 0 275 162" fill="none" xmlns="http://www.w3.org/2000/svg">
<path d="M41.6294 124.493C42.7789 123.891 43.9963 123.353 45.3074 123.005C47.9725 122.298 50.9644 122.372 53.7422 123.214C55.7067 123.809 57.5414 124.78 59.315 125.718C60.1963 126.184 61.1067 126.663 62.0284 127.099C64.4829 128.255 68.0569 129.447 71.1554 128.57C71.1992 128.626 71.2413 128.682 71.2886 128.742C72.8181 130.746 74.0217 132.953 75.1849 135.089C76.8236 138.097 78.519 141.209 81.1644 143.825C81.4782 144.136 81.8049 144.437 82.1402 144.73C79.6031 145.892 76.5519 145.784 74.3768 145.47C71.9644 145.127 69.5717 144.397 67.2582 143.695C66.781 143.551 66.303 143.405 65.825 143.265C63.9284 142.703 61.7197 142.097 59.5231 142.036C59.1233 142.025 58.7339 142.036 58.3521 142.054C57.4443 139.886 56.4934 137.734 54.8874 135.762C51.1321 131.144 45.6624 128.302 41.6294 124.493Z" fill="#DAE1F0"/>
<path d="M30.7571 89.0819C32.0347 90.1079 33.4318 91.0644 34.7833 91.9882C37.2267 93.6597 39.7517 95.3887 41.552 97.5371C43.4434 99.7929 44.5129 102.481 45.4973 105.125C43.3609 104.995 41.1436 103.877 38.7312 101.711C38.3297 101.351 37.9274 100.973 37.5388 100.608C35.9912 99.1544 34.3921 97.6523 32.315 96.7147C30.5362 95.9112 28.5889 95.6053 26.6828 95.5288C26.1739 94.7004 25.6615 93.8616 25.1456 93.0126C23.5388 90.3563 22.0446 87.5694 21.7927 84.8959C21.6207 83.0724 22.1666 81.3133 23.4047 80.2185C25.0889 83.5072 27.6114 86.5545 30.7571 89.0819Z" fill="#DAE1F0"/>
<path d="M51.7123 102.893C51.5266 103.187 51.3418 103.482 51.1613 103.778C49.3825 106.7 48.7041 109.305 49.1271 111.55C48.0421 109.724 47.2916 107.698 46.5187 105.61C45.4466 102.714 44.3384 99.7199 42.22 97.1882C40.3457 94.9539 37.7683 93.1862 35.2767 91.4812C33.9398 90.566 32.5574 89.6207 31.3065 88.6161C28.1805 86.1042 25.6846 83.0638 24.0529 79.7862C25.768 79.0454 28.1899 79.1511 30.4459 79.8945C33.5495 80.9163 36.4004 82.9186 39.0604 84.9647C44.1957 88.9177 48.8004 92.7066 53.8806 95.9722C54.0018 96.8281 53.9744 97.6985 53.7998 98.5451C53.4688 100.097 52.5755 101.518 51.7123 102.893Z" fill="#DAE1F0"/>
<path d="M32.0854 97.1074C34.0628 98.0012 35.6275 99.4689 37.1389 100.889C37.5301 101.256 37.9342 101.636 38.3426 102.001C40.9261 104.321 43.3291 105.493 45.6693 105.586L45.7312 105.751C47.1317 109.532 48.5795 113.447 52.2987 116.158C53.995 117.394 56.0102 118.246 57.9592 119.07C58.7613 119.409 59.5927 119.758 60.3811 120.13C64.5637 122.093 68.1626 124.863 70.8372 128.165C67.9519 128.934 64.5929 127.804 62.2691 126.71C61.3612 126.28 60.4576 125.804 59.5833 125.342C57.7778 124.389 55.9182 123.403 53.8918 122.789C50.9945 121.911 47.8736 121.834 45.0967 122.571C43.7211 122.937 42.4487 123.497 41.2545 124.129C39.0905 122.001 37.39 119.556 36.6764 116.337C35.0575 109.048 31.1741 102.828 26.9717 95.9963C28.7152 96.0874 30.4829 96.3856 32.0854 97.1074Z" fill="#DAE1F0"/>
<path d="M56.6378 50.3437C52.0348 45.8098 45.1423 45.6551 42.2088 50.0198C42.1925 50.043 42.177 50.0662 42.1616 50.0902C40.124 53.1642 39.4671 57.5452 41.5769 61.4234C42.6602 63.4154 44.4278 65.2381 44.8362 67.3384C45.524 70.8987 42.116 72.9595 40.5324 75.7687C38.9986 78.4877 39.2582 82.3436 41.1901 85.5482C42.9955 88.5431 46.1989 91.1701 46.5763 94.3764C46.8239 96.4852 45.7355 98.2272 44.6952 99.829C43.0419 102.377 41.4007 105.002 40.7464 108.103C40.0922 111.203 40.5564 114.9 42.7522 117.874C44.5645 120.326 47.4352 122.171 48.5864 124.887C49.7161 127.551 48.828 130.207 49.0885 132.918C49.582 138.034 54.5237 143.036 59.7398 144.473C61.9175 145.081 64.2114 145.143 66.4191 144.655C66.9021 144.552 67.4026 144.563 67.8806 144.687C70.1753 145.255 72.469 145.341 74.5479 144.806C79.2661 143.592 82.3663 138.772 80.9357 133.634C80.1774 130.913 78.2826 128.197 78.4167 125.556C78.5534 122.869 80.7535 121.138 81.657 118.747C82.7524 115.848 81.829 112.141 79.9995 108.985C78.17 105.828 75.5288 103.106 72.8998 100.462C71.2473 98.7995 69.4926 96.9931 68.945 94.8765C68.1179 91.6599 70.3584 89.1549 71.0505 86.2168C71.7916 83.0724 70.6 79.1958 68.0302 76.384C65.3736 73.4794 61.1566 71.2476 60.5135 67.6882C60.1335 65.5879 61.2288 63.8296 61.571 61.8703C62.2373 58.0548 59.9246 53.6067 56.7118 50.4142L56.6378 50.3437Z" fill="#6C8AC5"/>
<path d="M61.7859 82.5129C63.3695 82.5662 64.9824 82.7355 66.5841 83.1592C69.8348 84.0185 72.9728 85.9091 75.4213 88.4872C77.1511 90.3082 78.5164 92.4497 79.8421 94.5208C80.4989 95.552 81.1781 96.6116 81.8977 97.6308C83.8141 100.345 86.8971 103.774 90.7144 104.719C90.7273 104.805 90.7427 104.891 90.7548 104.977C91.1846 108.032 91.1365 111.105 91.0987 114.078C91.0385 118.267 90.9766 122.599 92.2163 126.98C92.3642 127.5 92.5293 128.018 92.7115 128.532C89.319 128.231 86.1388 126.266 84.0196 124.619C81.6648 122.788 79.5575 120.57 77.52 118.424C77.0987 117.982 76.6771 117.54 76.2553 117.098C74.5762 115.352 72.5928 113.372 70.2947 111.977C69.8777 111.719 69.4591 111.496 69.0404 111.289C69.3748 108.436 69.6525 105.574 69.1263 102.508C67.8986 95.332 63.7925 89.0028 61.7859 82.5129Z" fill="#DAE1F0"/>
<path d="M71.4373 38.3102C72.1793 40.1732 73.0915 42.0346 73.9736 43.835C75.5684 47.0894 77.2174 50.452 77.8424 53.8293C78.4984 57.369 78.0272 60.876 77.4908 64.2791C75.2984 62.8491 73.6125 60.3192 72.3461 56.556C72.1354 55.9304 71.9343 55.2859 71.7443 54.6654C70.9705 52.1853 70.1709 49.621 68.5254 47.3678C67.1163 45.4377 65.23 43.9304 63.2518 42.6989C63.2065 41.5095 63.1641 40.3082 63.1245 39.0947C63.0076 35.299 63.0893 31.4336 64.4253 28.443C65.3375 26.4029 66.9684 24.8629 68.9389 24.4496C68.7532 28.9552 69.6078 33.7212 71.4373 38.3102Z" fill="#DAE1F0"/>
<path d="M95.8539 79.6934C95.1756 80.2588 94.4216 80.7693 93.6917 81.2626C92.7907 81.8727 91.8587 82.5043 91.0454 83.252C88.608 85.4949 87.2737 88.8052 87.321 92.4248C86.626 91.1867 85.8673 89.9854 85.0479 88.8258C84.4168 87.9346 83.7385 87.0529 83.0808 86.1936C81.5453 84.193 79.9573 82.1245 78.954 79.9057C78.3433 78.5599 77.9232 77.1358 77.7057 75.6742C77.8776 72.2969 80.2264 69.3218 84.71 66.8228C85.0762 66.6183 85.4468 66.4189 85.819 66.2212C87.5935 65.2648 89.4299 64.2765 90.76 62.7709C91.384 62.0592 91.8973 61.2576 92.2826 60.3931C94.1473 63.8614 96.2563 67.2568 98.8054 70.6108C99.4067 71.4002 99.9649 72.2215 100.478 73.0712C99.4072 75.6149 97.9534 77.9437 95.8539 79.6934Z" fill="#DAE1F0"/>
<path d="M92.0271 114.295C92.0701 111.287 92.1131 108.18 91.6832 105.056C91.127 101.066 89.7918 97.0645 87.78 93.2652L87.9752 93.2944C87.7241 89.5305 89.0172 86.0492 91.5233 83.7427C92.3126 83.0165 93.2308 82.3952 94.1189 81.7945C94.8574 81.2944 95.6208 80.7779 96.3164 80.1978C98.3711 78.486 99.8207 76.2448 100.895 73.7956C106.282 83.4625 102.543 92.0501 105.426 102.276C107.178 108.49 111.838 113.822 113.947 119.984C115.792 125.377 115.475 130.861 114.225 135.504C113.658 137.611 112.895 139.622 111.68 141.15C109.891 143.399 107.272 144.44 104.492 145.006C99.9178 139.764 95.0044 133.577 93.1164 126.927C91.9059 122.678 91.9687 118.413 92.0271 114.295Z" fill="#DAE1F0"/>
<path d="M75.8487 117.465C76.2699 117.904 76.6901 118.344 77.109 118.787C79.1724 120.955 81.2985 123.198 83.7032 125.067C85.9385 126.806 89.3173 128.882 92.9385 129.153C95.1738 135.05 99.4725 140.482 103.55 145.176C103.068 145.256 102.582 145.326 102.098 145.387C100.431 145.606 98.7482 145.684 97.0678 145.619C95.3596 145.703 93.6473 145.647 91.9481 145.453C88.1343 145.043 84.0755 144.199 80.4783 141.347C78.5757 139.84 76.9053 137.845 75.3861 135.751C72.04 131.139 69.2424 125.674 68.6423 120.274C68.3182 117.356 68.6466 114.616 68.9708 111.881C69.3336 112.065 69.6964 112.26 70.0583 112.482C72.2696 113.823 74.2066 115.756 75.8487 117.465Z" fill="#DAE1F0"/>
<path d="M85.4313 65.6678C85.0582 65.8689 84.685 66.0691 84.3136 66.2745C80.6727 68.3052 78.3935 70.6572 77.4994 73.3015C77.4392 70.7045 77.8544 68.0981 78.2834 65.4109C78.8784 61.6856 79.4939 57.8331 78.758 53.8611C78.1098 50.3489 76.4307 46.9149 74.7972 43.5952C73.9246 41.8138 73.0218 39.9722 72.2954 38.1478C70.477 33.5871 69.6465 28.8461 69.8752 24.3757C72.1406 24.6266 74.6502 26.2053 76.6026 28.3605C79.2885 31.3253 81.118 35.1787 82.7188 38.9641C85.8079 46.2687 88.4318 53.0851 91.8725 59.6308C91.4896 60.6125 90.9396 61.5206 90.2467 62.3146C88.9717 63.7643 87.1723 64.7303 85.4313 65.6678Z" fill="#DAE1F0"/>
<path d="M68.0422 47.6428C69.6104 49.7912 70.3919 52.2954 71.1467 54.7179C71.3428 55.3452 71.5448 55.994 71.758 56.6274C73.1138 60.6569 74.9614 63.3544 77.397 64.8712C77.385 64.9417 77.3738 65.013 77.3626 65.0843C76.5889 69.9517 75.7816 74.9858 78.1098 80.1162C79.1715 82.4571 80.8025 84.5849 82.3801 86.637C83.0292 87.4826 83.7006 88.3557 84.3179 89.2297C87.5849 93.847 89.7523 98.9679 90.6172 104.097C87.0923 103.168 84.1984 99.9339 82.3844 97.3644C81.6759 96.3606 81.0019 95.3019 80.3502 94.2853C79.0065 92.1816 77.6163 90.0066 75.8315 88.1271C73.2789 85.4416 70.0067 83.4686 66.6176 82.5722C64.9334 82.1262 63.2492 81.9535 61.6028 81.902C60.578 78.3313 60.2358 74.704 61.4033 70.8523C64.0505 62.1264 63.6507 53.1693 63.2767 43.3641C65.0744 44.5147 66.7724 45.9035 68.0422 47.6428Z" fill="#DAE1F0"/>
<path d="M225.58 148.691L96.7609 148.355C90.5252 148.34 86.1242 143.078 86.9298 136.602L99.3366 37.0985C100.05 31.7868 102.015 29.3969 108.25 29.4124L244.949 29.7484C249.441 29.7484 252.115 32.4511 251.562 37.0985L239.936 136.995C239.13 143.471 231.816 148.708 225.58 148.691Z" fill="#324B7F"/>
<path d="M243.59 32.6135L110.291 32.3118C104.351 32.2972 102.842 34.327 102.047 40.2274L90.661 135.255C89.8658 141.156 93.6701 140.658 99.6101 140.669L223.607 140.974C229.547 140.99 235.052 141.516 235.848 135.617L247.532 41.287C248.176 37.4577 247.984 32.6135 243.59 32.6135Z" fill="white"/>
<path d="M250.044 141.035H91.5939C89.6646 141.035 88.1016 142.066 88.1016 143.331V148.128C88.1016 149.397 89.6646 150.425 91.5939 150.425H249.994C251.923 150.425 252.63 149.393 252.63 148.128V143.331C252.63 142.064 251.973 141.035 250.044 141.035Z" fill="#324B7F"/>
<path d="M179.278 141.035H14.2088C12.1885 141.035 11.4302 142.066 11.4302 143.331V148.128C11.4302 149.397 12.1885 150.425 14.2088 150.425H179.278C181.3 150.425 182.938 149.393 182.938 148.128V143.331C182.938 142.064 181.3 141.035 179.278 141.035Z" fill="#1C2A47"/>
<path d="M255.715 131.473C252.336 136.967 255.113 143.974 254.794 150.396H225.443C225.403 150.25 225.357 150.103 225.322 149.957C223.404 142.653 222.701 134.459 226.63 127.975C228.601 124.72 231.671 122.018 232.686 118.368C234.697 111.138 227.905 103.125 231.202 96.3615C232.245 94.2217 234.162 92.6199 235.481 90.6313C238.71 85.7622 237.937 79.4674 237.773 73.6667C237.724 71.942 237.837 69.9921 239.16 68.8543C242.006 66.3991 246.446 69.4963 248.125 71.8423C251.04 75.9174 253.001 82.0051 252.295 86.9584C251.817 90.3142 250.122 93.5901 250.689 96.9321C251.438 101.345 255.735 104.151 258.832 107.439C263.099 111.978 265.295 119.151 261.937 124.369C260.234 127.013 257.362 128.794 255.715 131.473Z" fill="#91A7D3"/>
<path d="M235.54 142.715C237.442 144.864 239.393 146.956 241.343 148.953C241.012 146.289 240.825 143.609 240.782 140.924L240.745 140.881C238.939 138.781 237.158 136.626 235.298 134.288L235.627 133.921C237.381 136.127 239.066 138.169 240.767 140.155C240.741 137.455 240.837 134.758 241.009 132.07C239.461 130.087 237.828 127.931 236.003 125.477L236.342 125.125C238.054 127.427 239.6 129.466 241.059 131.345C241.247 128.628 241.506 125.92 241.795 123.228C240.592 121.594 239.395 119.959 238.204 118.324L237 116.673L237.344 116.323L238.548 117.975C239.654 119.489 240.762 121.003 241.874 122.517C242.038 121.015 242.207 119.517 242.38 118.025C242.518 116.822 242.655 115.613 242.791 114.399C240.868 111.778 239.367 109.758 237.936 107.873L238.272 107.515C239.639 109.32 241.07 111.241 242.869 113.69C243.164 111 243.436 108.293 243.643 105.576C241.837 103.241 240.149 101.114 238.472 99.0771L238.796 98.7032C240.388 100.638 241.995 102.656 243.696 104.851C243.884 102.161 243.999 99.4629 243.997 96.762C242.069 94.4872 240.189 92.3663 238.256 90.285L238.559 89.8897C240.39 91.8602 242.17 93.8676 243.994 96.0057C243.949 91.1125 243.506 86.2142 242.393 81.3537L242.828 81.2136C243.957 86.1429 244.404 91.0962 244.446 96.0495C246.188 93.9708 247.751 92.0243 249.209 90.1148L249.544 90.4732C247.997 92.5047 246.326 94.5766 244.449 96.8049C244.449 99.4775 244.337 102.147 244.153 104.807C246.078 102.708 247.808 100.768 249.426 98.9061L249.742 99.2885C248.022 101.274 246.171 103.337 244.098 105.594C243.899 108.266 243.633 110.922 243.344 113.573C245.544 111.269 247.275 109.437 248.893 107.702L249.197 108.099C247.482 109.936 245.645 111.88 243.255 114.38C243.117 115.622 242.977 116.861 242.835 118.097C242.672 119.511 242.512 120.93 242.354 122.353C243.844 120.792 245.339 119.231 246.838 117.67L247.955 116.504L248.254 116.905L247.136 118.071C245.51 119.766 243.888 121.462 242.267 123.158C241.983 125.804 241.726 128.465 241.537 131.134C242.317 130.281 243.135 129.395 243.991 128.477C244.054 128.643 244.126 128.807 244.207 128.966C243.248 129.997 242.345 130.977 241.482 131.923C241.31 134.587 241.211 137.256 241.23 139.928C242.047 138.951 242.895 137.956 243.783 136.931C243.855 137.091 243.936 137.247 244.024 137.4C243.051 138.522 242.127 139.61 241.24 140.677C241.275 143.371 241.456 146.061 241.781 148.736C242.363 147.925 242.971 147.1 243.604 146.261C243.702 146.394 243.807 146.519 243.917 146.648C243.205 147.592 242.525 148.52 241.875 149.431C241.919 149.753 241.957 150.075 242.005 150.396H241.544C241.513 150.188 241.49 149.98 241.458 149.772L241.383 149.696C239.319 147.592 237.25 145.374 235.235 143.101L235.54 142.715Z" fill="#1C2A47"/>
<path d="M231.914 138.883C231.988 141.272 232.326 143.966 230.975 145.769C229.397 147.877 226.401 147.568 224.361 149.083C223.88 149.44 223.472 149.886 223.158 150.396H220.149C220.427 148.15 221.347 145.884 222.398 144.925C223.397 144.014 224.706 143.572 225.603 142.533C227.209 140.673 226.969 137.656 227.627 135.149C228.671 131.17 232.004 128.575 235.37 126.979C232.843 130.135 231.78 134.575 231.914 138.883Z" fill="#486DB7"/>
<path d="M223.188 146.554C222.469 147.413 221.807 148.788 221.217 150.396H217.364C217.263 149.204 217.179 148.175 217.126 147.455C216.782 142.832 216.553 137.77 219.254 134.025C220.765 131.929 223.067 130.469 224.363 128.231C225.366 126.497 225.675 124.442 225.739 122.435C225.806 120.646 225.647 118.856 225.264 117.107C224.986 115.883 224.485 114.178 224.118 112.699C226.617 115.639 228.631 119.429 229.878 123.084C231.406 127.545 231.723 132.569 229.964 136.94C228.486 140.606 225.707 143.534 223.188 146.554Z" fill="#DAE1F0"/>
<path d="M222.062 150.396H217.645C217.052 146.3 215.152 142.393 213.175 138.709C211.455 135.499 209.607 132.085 209.886 128.446C210.254 123.662 214.13 120.025 217.735 116.906C215.835 120.197 216.445 124.401 217.841 127.94C219.237 131.48 221.344 134.729 222.418 138.378C223.449 141.901 223.414 145.718 222.424 149.247C222.318 149.631 222.193 150.014 222.062 150.396Z" fill="#6C8AC5"/>
<path d="M216.619 150.396C216.449 150.271 216.272 150.156 216.088 150.052C213.595 148.642 210.148 149.183 208.146 147.131C206.432 145.372 206.604 142.576 206.496 140.104C206.301 135.658 204.706 131.159 201.517 128.094C205.551 129.489 209.629 131.917 211.164 135.939C212.133 138.474 212.099 141.601 214.113 143.398C215.239 144.403 216.793 144.761 218.026 145.626C219.192 146.444 220.321 148.358 220.906 150.402L216.619 150.396Z" fill="#DAE1F0"/>
<path fill-rule="evenodd" clip-rule="evenodd" d="M149.501 30.0474C144.722 29.8335 141.296 37.511 141.296 37.511C140.978 38.0948 140.635 38.7015 140.288 39.3172C139.972 39.8768 139.652 40.4438 139.342 41.0077C138.255 42.9881 137.129 44.9877 135.983 47.0217C129.631 58.2982 122.682 70.6352 118.491 86.6636C116.067 95.9278 124.152 94.1152 141.877 90.1416C142.779 89.9394 143.707 89.7315 144.659 89.5193L142.239 75.3742C141.361 75.5616 136.947 76.818 134.438 77.5381C134.264 77.5904 134.08 77.595 133.903 77.5512C133.727 77.5075 133.566 77.4172 133.437 77.2896C133.308 77.1621 133.215 77.0022 133.169 76.8266C133.124 76.6511 133.126 76.4664 133.176 76.292L133.728 74.3155C136.5 64.3822 140.715 53.6239 144.791 43.2257C144.986 42.7289 145.165 42.238 145.342 41.7485L149.501 40.9914V30.0474Z" fill="#B5C4E2"/>
<path fill-rule="evenodd" clip-rule="evenodd" d="M141.541 37.6317L141.536 37.6413C141.216 38.2272 140.873 38.8357 140.525 39.4509C140.209 40.0108 139.89 40.5764 139.581 41.1386C138.493 43.1205 137.366 45.1212 136.221 47.1549L136.22 47.1553C129.868 58.4327 122.936 70.742 118.755 86.7324C118.153 89.0321 118.23 90.5566 118.858 91.5261C119.48 92.4846 120.702 92.9922 122.643 93.0948C124.576 93.1971 127.146 92.8928 130.356 92.3094C133.562 91.7266 137.384 90.8697 141.818 89.8759C142.64 89.6916 143.483 89.5027 144.346 89.3099L142.019 75.7055C140.731 76.0243 136.828 77.1354 134.515 77.7994C134.295 77.8653 134.061 77.8709 133.838 77.8155L133.903 77.5512C134.08 77.595 134.264 77.5904 134.438 77.5381C136.752 76.8738 140.687 75.7533 141.973 75.4364C142.082 75.4098 142.171 75.3888 142.239 75.3742L144.659 89.5193C143.707 89.7315 142.779 89.9394 141.877 90.1416C124.152 94.1152 116.067 95.9277 118.491 86.6636C122.682 70.6352 129.631 58.2982 135.983 47.0217C137.129 44.9877 138.255 42.9881 139.342 41.0077C139.652 40.4438 139.972 39.8768 140.288 39.3172C140.635 38.7015 140.978 38.0948 141.296 37.511C141.296 37.511 144.722 29.8335 149.501 30.0474V40.9914L145.342 41.7485C145.165 42.238 144.986 42.7289 144.791 43.2257L144.537 43.1264C144.731 42.6332 144.909 42.1451 145.086 41.656L145.139 41.5087L149.228 40.7642V30.3161C148.208 30.335 147.244 30.7317 146.358 31.347C145.397 32.0149 144.54 32.9311 143.823 33.8648C143.107 34.7971 142.536 35.7378 142.145 36.4463C141.949 36.8002 141.799 37.0954 141.697 37.3016C141.647 37.4046 141.608 37.4854 141.583 37.54C141.57 37.5674 141.56 37.5882 141.554 37.6019C141.551 37.6088 141.549 37.614 141.547 37.6173L141.546 37.621L141.545 37.6218L141.545 37.6219L141.541 37.6317ZM133.465 74.2423C136.242 64.2932 140.462 53.5215 144.537 43.1264L144.791 43.2257C140.715 53.6239 136.5 64.3822 133.728 74.3155L133.176 76.292C133.126 76.4664 133.124 76.6511 133.169 76.8266C133.215 77.0022 133.308 77.1621 133.437 77.2896C133.566 77.4172 133.727 77.5075 133.903 77.5512L133.838 77.8155C133.614 77.76 133.409 77.6452 133.245 77.4833C133.081 77.3214 132.964 77.1184 132.906 76.8955C132.848 76.673 132.85 76.439 132.914 76.218C132.914 76.2176 132.914 76.2172 132.914 76.2168L133.465 74.2423C133.465 74.2423 133.465 74.2424 133.465 74.2423Z" fill="#1C2A47"/>
<path d="M150.086 45.0372C152.654 45.0372 154.736 42.07 154.736 38.4099C154.736 34.7497 152.654 31.7825 150.086 31.7825C147.518 31.7825 145.437 34.7497 145.437 38.4099C145.437 42.07 147.518 45.0372 150.086 45.0372Z" fill="#ECF0F7"/>
<path d="M207.273 23.176C207.646 24.96 207.665 26.8713 208.522 28.4662C209.258 29.8266 210.535 30.8011 211.376 32.0961C212.217 33.3912 212.485 35.3574 211.29 36.405C210.723 36.9025 209.942 37.0847 209.376 37.5797C207.784 38.977 208.85 41.4752 209.08 43.5462C209.338 45.8665 208.229 48.3311 206.305 49.7121C204.922 50.7055 203.025 51.3509 202.54 52.9777C202.16 54.2607 202.848 55.7568 202.131 56.8946C201.077 58.5635 198.396 57.6354 196.736 58.6933C195.568 59.4392 195.215 60.9499 194.56 62.1737C193.34 64.457 190.722 65.9256 188.198 65.7434C186.848 65.6455 185.5 65.1221 184.175 65.4659C182.464 65.911 181.226 67.7071 179.476 67.8807C175.842 68.2356 175.686 63.9182 173.66 61.3238C171.112 58.0582 165.266 57.5426 164.547 53.4117C164.375 52.4432 164.528 51.332 163.918 50.5758C163.307 49.8195 162.122 49.7224 161.424 49.0289C160.112 47.727 161.142 45.2761 160.751 43.529C160.67 43.3752 160.271 42.4806 160.167 42.3827C155.461 32.4493 156.196 21.5725 162.919 15.5991C168.484 10.65 176.823 10.259 184.734 13.7085C184.82 13.6518 184.872 13.5821 184.959 13.528C187.022 12.2304 189.313 12.1685 191.622 12.6686C195.857 13.5778 196.573 17.7036 199.989 18.9729C201.296 19.4567 202.81 18.7907 204.171 19.1035C205.931 19.5074 206.901 21.3928 207.273 23.176Z" fill="#273B63"/>
<path d="M166.345 40.7164C168.701 39.8115 173.005 39.4978 174.848 38.6883C176.091 38.1417 177.365 37.5462 178.413 36.7066C178.945 36.2769 179.681 35.5439 180.295 34.156C180.286 34.1724 179.898 32.4244 180.241 33.7264C179.426 30.655 179.782 27.9807 180.873 25.7928C180.927 24.3851 180.776 22.7481 179.69 20.5919C177.276 15.795 175.204 15.6936 173.171 14.1321C171.174 12.6016 171.21 12.874 168.442 11.6005C166.021 10.4833 163.135 10.5383 160.705 11.6159C160.705 11.6159 159.278 12.3584 158.747 12.7812C158.175 13.2367 157.647 13.7428 157.103 14.2327C156.363 14.4131 153.587 15.2716 152.786 16.9525C151.213 20.2542 151.812 22.0228 151.812 22.0228C153.637 22.2591 155.921 20.3754 157.331 21.123C157.946 21.5192 158.209 21.71 158.528 22.0683C160.247 23.9933 161.669 25.5685 161.623 28.3468C161.586 30.6258 160.075 32.9796 161.152 35.0498C162.111 36.8974 164.72 37.5574 165.828 39.3337C166.084 39.759 166.259 40.2277 166.345 40.7164V40.7164Z" fill="#273B63"/>
<path d="M159.494 91.006L141.724 95.2169C139.23 95.8081 137.207 94.1693 137.311 91.6394L137.918 76.9658C138.015 74.6455 138.978 74.044 141.271 73.5112C149.656 71.5518 167.433 65.7005 167.433 65.7005L169.001 77.8939C169.723 83.5296 165.299 89.631 159.494 91.006Z" fill="#95E7D4"/>
<path d="M155.543 131.911C155.468 135.341 155.338 138.264 155.171 140.789H205.219C201.237 135.204 197.371 129.942 197.043 120.348C196.699 110.366 199.279 106.054 200.224 97.0928C200.224 97.098 203.56 78.7077 191.105 70.6719L188.455 68.9652C180.787 64.2533 169.813 60.1138 159.283 69.8976C156.342 72.632 154.277 76.1975 153.311 80.1686C152.881 81.9217 152.537 83.68 152.223 85.1804C152.214 85.2053 152.208 85.2313 152.205 85.2577C152.087 85.8205 152.001 86.3894 151.947 86.9618C151.911 87.3606 151.887 87.7602 151.874 88.1649L151.922 88.2027C151.744 98.7342 155.984 111.653 155.543 131.911Z" fill="#95E7D4"/>
<path d="M170.366 47.4881C172.799 45.6517 177.684 43.8496 179.553 42.2959C180.814 41.2492 182.092 40.132 183.029 38.8069C183.505 38.1331 184.115 37.0357 184.368 35.2216C184.368 35.2431 183.336 33.3474 184.163 34.737C182.203 31.4499 181.731 28.2308 182.272 25.3304C181.868 23.6796 181.154 21.8328 179.177 19.6965C174.792 14.9425 172.358 15.514 169.485 14.3874C166.664 13.2805 166.796 13.5839 163.167 13.0322C160.78 12.6695 157.93 13.1757 155.617 14.3212C154.434 14.909 153.458 15.8509 152.756 16.974C152.604 17.2172 152.451 17.4518 152.319 17.6375C152.24 17.7486 152.162 17.8609 152.086 17.9743C151.301 19.1154 150.352 20.1342 149.269 20.9976C148.201 21.8646 147.111 23.1296 146.788 24.4642C145.513 29.7226 147.336 33.1661 147.336 33.1661C149.529 32.83 151.554 27.3869 153.44 27.7822C154.282 28.04 154.65 28.1698 155.139 28.4774C157.767 30.1351 159.937 31.4852 160.804 34.7206C161.515 37.3743 160.546 40.6064 162.472 42.6439C164.192 44.4649 167.436 44.3626 169.309 46.047C169.748 46.4576 170.106 46.9463 170.366 47.4881Z" fill="#273B63"/>
<path d="M175.751 46.5102C175.074 48.5597 174.162 50.2647 173.04 51.5546C173.029 51.5666 173.033 51.6165 173.021 51.6053C169.846 48.3457 170.03 44.5259 170.03 44.5259C170.9 43.8608 171.492 42.3242 171.457 40.5436C171.412 38.1804 170.284 36.289 168.938 36.3199C168.835 36.3199 168.748 36.3964 168.651 36.429L177.593 28.0933C178.721 32.25 178.513 38.1357 175.751 46.5102Z" fill="#273B63"/>
<path fill-rule="evenodd" clip-rule="evenodd" d="M167.917 66.3518L161.559 47.5019C161.141 46.2584 161.58 44.9736 162.537 44.6471L169.493 42.2752C170.45 41.9487 171.575 42.6998 171.995 43.9433L179.864 67.274C179.968 67.5789 180.019 67.8864 180.024 68.1815C180.762 69.3215 180.506 70.898 179.263 72.015C176.882 74.1566 174.537 76.3276 172.228 78.5281C170.887 79.806 168.66 79.6496 167.952 78.2213C166.32 74.9253 165.907 74.1431 165.551 73.3362C165.3 72.7687 165.077 72.189 164.476 70.714C163.72 68.8551 165.621 67.3197 167.917 66.3518Z" fill="#B5C4E2"/>
<path fill-rule="evenodd" clip-rule="evenodd" d="M168.256 66.5044L168.023 66.6027C166.891 67.0798 165.884 67.6867 165.254 68.3815C164.633 69.0668 164.402 69.8072 164.729 70.6114C164.928 71.1001 165.085 71.4898 165.215 71.8127C165.48 72.4685 165.633 72.8493 165.8 73.2262C166.036 73.76 166.296 74.2809 166.929 75.5509C167.244 76.1835 167.653 77.002 168.197 78.1005C168.498 78.7085 169.132 79.0651 169.872 79.1179C170.612 79.1706 171.428 78.9146 172.04 78.3311C174.351 76.1288 176.698 73.9559 179.081 71.8127C180.244 70.7674 180.447 69.3362 179.795 68.3295L179.753 68.264L179.752 68.1859C179.747 67.9193 179.701 67.6399 179.606 67.3616L179.606 67.3609L171.737 44.0302C171.737 44.0302 171.737 44.0303 171.737 44.0302C171.544 43.461 171.194 43.0133 170.794 42.747C170.395 42.4807 169.962 42.4029 169.581 42.5329L162.625 44.9048C162.625 44.9048 162.625 44.9047 162.625 44.9048C162.244 45.0349 161.946 45.3621 161.79 45.8187C161.634 46.2753 161.626 46.8457 161.818 47.4149C161.818 47.4149 161.818 47.415 161.818 47.415L168.256 66.5044ZM161.559 47.5019C161.141 46.2584 161.58 44.9736 162.537 44.6471L169.493 42.2752C170.45 41.9487 171.575 42.6998 171.995 43.9433L179.864 67.2739C179.968 67.5789 180.019 67.8864 180.024 68.1815C180.762 69.3215 180.506 70.898 179.263 72.015C176.882 74.1566 174.537 76.3276 172.228 78.5281C170.887 79.806 168.66 79.6496 167.952 78.2213C167.412 77.13 167.005 76.3142 166.69 75.6819C166.053 74.4046 165.789 73.8759 165.551 73.3362C165.382 72.9551 165.226 72.5685 164.96 71.9088C164.83 71.5863 164.674 71.1984 164.476 70.714C163.72 68.8551 165.621 67.3197 167.917 66.3518L161.559 47.5019Z" fill="#1C2A47"/>
<path fill-rule="evenodd" clip-rule="evenodd" d="M146.36 32.3374C146.278 28.3156 148.134 24.7175 151.025 22.3293L171.678 32.1518L171.771 36.706C173.645 36.8091 175.164 38.662 175.21 40.9636C175.258 43.3578 173.697 45.3326 171.719 45.373C171.646 45.3745 171.574 45.3733 171.502 45.3696C170.143 50.7709 165.295 54.8488 159.484 54.9686C152.522 55.1121 146.711 49.5228 146.568 42.5474L146.36 32.3374Z" fill="#B5C4E2"/>
<path fill-rule="evenodd" clip-rule="evenodd" d="M171.771 36.706L171.678 32.1518L151.025 22.3293C148.134 24.7175 146.278 28.3156 146.36 32.3374L146.568 42.5474C146.711 49.5228 152.522 55.1121 159.484 54.9686C165.295 54.8488 170.143 50.7709 171.502 45.3696C171.574 45.3733 171.646 45.3745 171.719 45.373C173.697 45.3326 175.258 43.3578 175.21 40.9636C175.164 38.662 173.645 36.8091 171.771 36.706ZM146.841 42.5419C146.841 42.5419 146.841 42.5419 146.841 42.5419C146.981 49.3677 152.668 54.8367 159.479 54.6963C165.163 54.5792 169.908 50.5896 171.238 45.3032L171.292 45.086L171.516 45.0976C171.581 45.101 171.647 45.1021 171.714 45.1007C173.494 45.0644 174.983 43.2646 174.937 40.9691C174.893 38.765 173.447 37.0709 171.756 36.9779L171.503 36.964L171.409 32.3254L151.066 22.6504C148.31 24.9896 146.553 28.4616 146.633 32.3318L146.841 42.5419Z" fill="#1C2A47"/>
<path d="M175.361 27.1557C173.885 24.221 173.409 20.4974 170.751 18.6128C169.106 17.4467 166.968 17.2868 164.969 17.4286C162.562 17.6005 160.198 18.1479 157.845 18.6945L152.713 19.8864C152.516 19.9319 152.311 19.9818 152.156 20.1141C151.984 20.2611 151.904 20.4862 151.829 20.7002C151.537 21.5329 150.386 23.5576 150.625 24.4152C150.893 25.3768 152.109 25.3906 152.916 25.431C161.209 25.8443 166.12 30.5957 167.983 33.3465C169.52 35.6144 170.367 38.3127 171.957 40.5419C172.988 41.9873 174.312 43.2002 175.841 44.1022C175.905 44.1401 175.975 44.1693 176.04 44.2054L180.296 33.6473C178.557 31.5513 176.583 29.5885 175.361 27.1557Z" fill="#273B63"/>
<path d="M175.097 44.8774C177.665 44.8774 179.746 41.9102 179.746 38.25C179.746 34.5898 177.665 31.6227 175.097 31.6227C172.529 31.6227 170.447 34.5898 170.447 38.25C170.447 41.9102 172.529 44.8774 175.097 44.8774Z" fill="#ECF0F7"/>
<path d="M176.98 44.8774C179.547 44.8774 181.629 41.9102 181.629 38.25C181.629 34.5898 179.547 31.6227 176.98 31.6227C174.412 31.6227 172.33 34.5898 172.33 38.25C172.33 41.9102 174.412 44.8774 176.98 44.8774Z" fill="#1C2A47"/>
<path d="M176.702 33.3972C176.596 33.3971 176.493 33.3561 176.417 33.2826C176.34 33.2092 176.294 33.1089 176.289 33.0028C175.997 26.7363 174.001 21.8913 170.357 18.5999C164.795 13.577 157.203 13.9311 157.13 13.9353C157.076 13.9384 157.021 13.9307 156.97 13.9128C156.919 13.8949 156.872 13.867 156.831 13.8308C156.791 13.7946 156.758 13.7508 156.734 13.7019C156.71 13.6529 156.697 13.5999 156.694 13.5456C156.691 13.4914 156.698 13.4371 156.716 13.3858C156.734 13.3346 156.762 13.2874 156.798 13.2469C156.834 13.2064 156.878 13.1734 156.927 13.1498C156.976 13.1263 157.029 13.1126 157.084 13.1095C157.409 13.0932 165.079 12.7271 170.905 17.9803C174.722 21.4247 176.811 26.4656 177.115 32.965C177.119 33.074 177.08 33.1805 177.006 33.261C176.933 33.3415 176.83 33.3895 176.721 33.3946L176.702 33.3972Z" fill="#1C2A47"/>
<path d="M163.522 51.6104C163.467 51.6114 163.415 51.5905 163.375 51.5525C163.336 51.5144 163.313 51.4623 163.312 51.4076C163.311 51.3529 163.332 51.3001 163.37 51.2608C163.408 51.2215 163.461 51.1989 163.515 51.198C174.766 50.8078 176.208 42.9602 176.222 42.8811C176.227 42.8544 176.236 42.8288 176.251 42.8057C176.265 42.7827 176.284 42.7628 176.306 42.747C176.328 42.7313 176.353 42.72 176.379 42.7139C176.406 42.7078 176.433 42.7069 176.46 42.7114C176.487 42.7158 176.512 42.7255 176.535 42.7399C176.558 42.7542 176.578 42.773 176.594 42.795C176.61 42.8171 176.621 42.8421 176.627 42.8685C176.633 42.8949 176.634 42.9222 176.63 42.949C176.616 43.0349 175.114 51.2091 163.53 51.6104H163.522Z" fill="#1C2A47"/>
<path d="M164.15 50.843H162.864C162.654 50.843 162.484 51.0127 162.484 51.222V51.6388C162.484 51.8481 162.654 52.0178 162.864 52.0178H164.15C164.359 52.0178 164.529 51.8481 164.529 51.6388V51.222C164.529 51.0127 164.359 50.843 164.15 50.843Z" fill="#ECF0F7"/>
<path fill-rule="evenodd" clip-rule="evenodd" d="M140.517 105.286H140.458L134.555 103.872C133.338 103.581 132.062 104.231 131.652 105.419C131.417 106.113 131.266 106.82 131.417 107.277C131.999 109.041 133.556 111.288 134.998 112.111C137.268 113.406 142.2 112.974 145.309 111.746C145.394 111.79 145.48 111.834 145.566 111.877C146.071 112.135 146.583 112.396 147.093 112.648C148.348 113.268 149.602 113.895 150.863 114.526C161.687 119.942 172.976 125.59 189.251 128.368C198.597 129.968 197.831 121.84 195.674 102.195L181.413 106.132C181.499 106.991 182.226 111.208 182.66 113.723L182.688 113.885C182.819 114.656 182.053 115.444 181.313 115.303L179.416 114.943C169.897 113.137 159.725 109.942 149.888 106.848C149.327 106.672 148.57 106.441 147.827 106.214C147.272 106.044 146.725 105.877 146.272 105.737C146.143 105.618 146.028 105.51 145.922 105.412C144.938 104.498 144.858 104.423 143.421 103.505C142.324 102.802 141.108 102.307 139.832 102.044C139.251 101.928 139.008 102.576 139.415 102.959C139.902 103.418 140.37 104.018 140.847 105.079C140.906 105.209 140.666 105.267 140.517 105.286Z" fill="#B5C4E2"/>
<path fill-rule="evenodd" clip-rule="evenodd" d="M140.426 105.558L134.492 104.137C134.491 104.137 134.492 104.137 134.492 104.137C133.402 103.877 132.271 104.46 131.91 105.507C131.795 105.845 131.704 106.179 131.659 106.477C131.613 106.781 131.62 107.022 131.676 107.192L131.676 107.192C131.956 108.042 132.477 109.02 133.106 109.887C133.737 110.757 134.46 111.49 135.133 111.875C136.198 112.482 137.934 112.702 139.824 112.603C141.704 112.505 143.685 112.095 145.209 111.493L145.323 111.448L145.433 111.504C145.515 111.546 145.597 111.588 145.679 111.63L145.69 111.635C146.195 111.893 146.705 112.153 147.213 112.404C148.469 113.024 149.724 113.652 150.984 114.282L150.985 114.283C161.807 119.698 173.065 125.329 189.297 128.1L189.297 128.1C191.604 128.495 193.222 128.277 194.344 127.493C195.465 126.71 196.158 125.318 196.507 123.204C196.855 121.092 196.851 118.31 196.622 114.815C196.399 111.398 195.962 107.318 195.438 102.542L181.712 106.332C181.87 107.535 182.524 111.33 182.929 113.677L182.957 113.839C183.04 114.328 182.838 114.801 182.523 115.126C182.208 115.449 181.744 115.662 181.262 115.571L181.262 115.571L179.365 115.211C169.828 113.401 159.639 110.201 149.806 107.108C149.246 106.932 148.491 106.701 147.748 106.474L147.747 106.474C147.192 106.305 146.644 106.137 146.191 105.997L146.132 105.978L146.087 105.937C145.958 105.817 145.842 105.71 145.737 105.612C145.242 105.152 144.986 104.914 144.675 104.676C144.363 104.437 143.994 104.195 143.274 103.735L143.273 103.734C142.205 103.05 141.02 102.567 139.778 102.311C139.686 102.293 139.626 102.308 139.589 102.326C139.552 102.346 139.522 102.377 139.504 102.42C139.468 102.506 139.477 102.643 139.602 102.76L139.602 102.761C140.117 103.246 140.606 103.877 141.096 104.967L141.096 104.968C141.149 105.086 141.137 105.215 141.066 105.318C141.009 105.401 140.928 105.447 140.875 105.471C140.765 105.522 140.634 105.546 140.552 105.556L140.535 105.558H140.426ZM139.832 102.044C141.108 102.307 142.324 102.802 143.421 103.505C144.858 104.423 144.938 104.498 145.922 105.412C146.028 105.51 146.143 105.618 146.272 105.737C146.725 105.877 147.272 106.044 147.827 106.214L147.827 106.214C148.57 106.441 149.327 106.672 149.888 106.848C159.725 109.942 169.897 113.137 179.416 114.943L181.313 115.303C182.053 115.444 182.819 114.656 182.688 113.885L182.66 113.723C182.226 111.208 181.499 106.991 181.413 106.132L195.674 102.195C195.684 102.286 195.694 102.378 195.704 102.469C197.838 121.915 198.553 129.961 189.251 128.368C172.976 125.59 161.687 119.942 150.863 114.526L150.863 114.526C149.602 113.895 148.348 113.268 147.093 112.648C146.583 112.397 146.071 112.135 145.566 111.877L145.566 111.877L145.557 111.873C145.474 111.831 145.392 111.789 145.309 111.746C142.2 112.974 137.268 113.406 134.998 112.111C133.556 111.288 131.999 109.041 131.417 107.277C131.266 106.82 131.417 106.113 131.652 105.419C132.062 104.231 133.338 103.581 134.555 103.872L140.458 105.286H140.517C140.666 105.267 140.906 105.209 140.847 105.079C140.37 104.018 139.902 103.418 139.415 102.959C139.008 102.576 139.251 101.928 139.832 102.044Z" fill="#1C2A47"/>
<path d="M199.752 86.6095L201.946 104.345C202.021 104.933 201.974 105.53 201.809 106.099C201.644 106.669 201.364 107.198 200.987 107.655C200.609 108.112 200.142 108.488 199.615 108.758C199.087 109.028 198.509 109.187 197.918 109.226L183.468 110.123C181.182 110.265 180.697 109.341 180.422 107.054C179.414 98.6835 175.595 81.1122 175.595 81.1122L187.83 78.2479C193.487 76.9237 199.036 80.8166 199.752 86.6095Z" fill="#95E7D4"/>
<path d="M182.19 110.622C181.733 110.481 181.322 110.219 181.001 109.863C180.681 109.507 180.464 109.07 180.373 108.6L175.747 84.3666C175.733 84.3067 175.731 84.2445 175.741 84.1838C175.752 84.1232 175.774 84.0652 175.808 84.0135C175.841 83.9618 175.885 83.9174 175.936 83.883C175.987 83.8486 176.044 83.8249 176.105 83.8133C176.165 83.8017 176.228 83.8024 176.288 83.8155C176.348 83.8286 176.405 83.8537 176.455 83.8893C176.505 83.9249 176.548 83.9704 176.58 84.0229C176.612 84.0753 176.634 84.1338 176.643 84.1947L181.269 108.429C181.349 108.849 181.584 109.225 181.927 109.481C182.271 109.736 182.698 109.854 183.124 109.81L187.604 109.335C187.724 109.325 187.843 109.363 187.936 109.439C188.029 109.516 188.088 109.626 188.1 109.746C188.113 109.865 188.078 109.985 188.003 110.079C187.928 110.174 187.819 110.235 187.7 110.25L183.219 110.725C182.873 110.761 182.523 110.726 182.19 110.622Z" fill="#91A7D3"/>
<path d="M231.971 56.6068C227.042 56.6068 223.03 52.5617 223.03 47.5904C223.03 42.619 227.039 38.574 231.971 38.574C236.902 38.574 240.912 42.6181 240.912 47.5904C240.912 52.5626 236.9 56.6068 231.971 56.6068ZM231.971 38.7321C227.131 38.7321 223.193 42.7032 223.193 47.5835C223.193 52.4638 227.131 56.4349 231.971 56.4349C236.811 56.4349 240.749 52.4629 240.749 47.5835C240.749 42.7041 236.811 38.7364 231.971 38.7364V38.7321Z" fill="#6C8AC5"/>
<path d="M228.823 46.2472C227.078 47.2346 226.237 49.2309 226.6 51.1146C226.631 51.2701 226.699 51.416 226.797 51.5403C226.896 51.6646 227.022 51.7639 227.166 51.8299C227.311 51.8959 227.468 51.9268 227.627 51.92C227.785 51.9132 227.94 51.869 228.078 51.7909L230.109 50.6411C230.264 50.5532 230.378 50.4078 230.426 50.2364C230.474 50.0651 230.453 49.8817 230.367 49.7259L229.679 48.4901C229.599 48.3473 229.58 48.179 229.624 48.0217C229.667 47.8643 229.772 47.7306 229.914 47.6497L233.464 45.6405C233.534 45.6007 233.611 45.5753 233.691 45.5656C233.771 45.556 233.852 45.5624 233.93 45.5844C234.007 45.6063 234.079 45.6435 234.142 45.6937C234.205 45.7439 234.258 45.8062 234.297 45.8768L234.984 47.1117C235.027 47.1886 235.084 47.2564 235.152 47.3111C235.221 47.3658 235.3 47.4063 235.384 47.4303C235.468 47.4543 235.557 47.4613 235.644 47.4508C235.731 47.4404 235.815 47.4127 235.891 47.3695L237.922 46.2205C238.061 46.1419 238.179 46.032 238.267 45.8996C238.355 45.7672 238.411 45.6159 238.431 45.458C238.45 45.3 238.432 45.1397 238.378 44.99C238.324 44.8402 238.236 44.7051 238.121 44.5955C237.42 43.9471 236.532 43.5376 235.583 43.4258C234.635 43.314 233.676 43.5057 232.844 43.9733L228.823 46.2472Z" fill="#6C8AC5"/>
<path d="M235.319 62.3894C235.29 62.3916 235.26 62.387 235.233 62.3759C235.206 62.3648 235.181 62.3475 235.162 62.3254C235.143 62.3033 235.129 62.277 235.121 62.2486C235.114 62.2201 235.113 62.1904 235.119 62.1616C235.135 62.0973 235.172 62.0403 235.224 61.9996C235.277 61.9589 235.341 61.937 235.407 61.9373C235.437 61.9351 235.466 61.9397 235.493 61.9508C235.521 61.9619 235.545 61.9792 235.564 62.0013C235.583 62.0234 235.597 62.0497 235.605 62.0782C235.612 62.1066 235.613 62.1363 235.607 62.1651C235.591 62.2293 235.554 62.2863 235.502 62.3269C235.449 62.3676 235.385 62.3896 235.319 62.3894Z" fill="#6C8AC5"/>
<path d="M235.089 63.5624C235.06 63.5645 235.031 63.5597 235.003 63.5485C234.976 63.5373 234.952 63.5199 234.933 63.4978C234.913 63.4756 234.899 63.4493 234.892 63.4208C234.884 63.3924 234.884 63.3626 234.89 63.3338C234.906 63.2697 234.943 63.2127 234.995 63.1721C235.047 63.1315 235.112 63.1094 235.178 63.1095C235.207 63.1074 235.237 63.1122 235.264 63.1234C235.291 63.1346 235.315 63.1519 235.335 63.1741C235.354 63.1963 235.368 63.2226 235.375 63.2511C235.383 63.2795 235.383 63.3093 235.377 63.3381C235.361 63.4022 235.324 63.4591 235.272 63.4998C235.22 63.5404 235.155 63.5625 235.089 63.5624V63.5624Z" fill="#6C8AC5"/>
<path d="M234.86 64.7363C234.83 64.7383 234.801 64.7336 234.774 64.7224C234.747 64.7113 234.723 64.694 234.703 64.6719C234.684 64.6499 234.67 64.6236 234.663 64.5953C234.655 64.567 234.654 64.5373 234.66 64.5085C234.676 64.4443 234.713 64.3873 234.765 64.3467C234.818 64.306 234.882 64.284 234.948 64.2843C234.978 64.2821 235.007 64.2867 235.034 64.2978C235.061 64.3089 235.086 64.3262 235.105 64.3482C235.125 64.3703 235.139 64.3966 235.146 64.425C235.154 64.4534 235.155 64.4832 235.149 64.512C235.132 64.5763 235.095 64.6333 235.043 64.6739C234.99 64.7146 234.926 64.7365 234.86 64.7363V64.7363Z" fill="#6C8AC5"/>
<path d="M234.631 65.9127C234.602 65.9148 234.572 65.91 234.545 65.8988C234.518 65.8876 234.494 65.8702 234.474 65.8481C234.455 65.826 234.441 65.7997 234.433 65.7712C234.426 65.7428 234.425 65.713 234.431 65.6841C234.447 65.6201 234.484 65.5634 234.536 65.5228C234.588 65.4822 234.653 65.4601 234.719 65.4598C234.748 65.4578 234.778 65.4625 234.805 65.4738C234.832 65.485 234.856 65.5023 234.876 65.5244C234.895 65.5466 234.909 65.5729 234.917 65.6014C234.924 65.6298 234.925 65.6596 234.919 65.6884C234.903 65.7524 234.865 65.8092 234.813 65.8498C234.761 65.8904 234.697 65.9125 234.631 65.9127V65.9127Z" fill="#6C8AC5"/>
<path d="M233.335 62.037L229.453 62.0052L229.342 62.5716L233.224 62.6034L233.335 62.037Z" fill="#6C8AC5"/>
<path d="M233.118 63.1439L229.236 63.1121L229.126 63.6784L233.008 63.7102L233.118 63.1439Z" fill="#6C8AC5"/>
<path d="M232.685 65.3576L226.813 65.3095L226.702 65.8758L232.575 65.9239L232.685 65.3576Z" fill="#6C8AC5"/>
<path d="M227.461 61.9889L227.35 62.5552L228.731 62.5664L228.842 62.0001L227.461 61.9889Z" fill="#6C8AC5"/>
<path d="M227.244 63.0957L227.134 63.6621L228.515 63.6732L228.626 63.1069L227.244 63.0957Z" fill="#6C8AC5"/>
<path d="M95.8754 142.204C95.7845 142.204 95.6967 142.171 95.6279 142.112C95.5591 142.053 95.5139 141.971 95.5005 141.881L91.8715 117.61C91.8591 117.512 91.8857 117.412 91.9456 117.333C92.0055 117.254 92.094 117.201 92.1922 117.187C92.2904 117.172 92.3904 117.196 92.4709 117.254C92.5514 117.312 92.606 117.4 92.6229 117.497L96.2511 141.768C96.2656 141.867 96.2402 141.968 96.1804 142.049C96.1206 142.129 96.0313 142.183 95.9321 142.198C95.9134 142.202 95.8944 142.204 95.8754 142.204V142.204Z" fill="#324B7F"/>
<path fill-rule="evenodd" clip-rule="evenodd" d="M80.9095 76.2348C80.8019 76.2282 80.697 76.2482 80.6073 76.3058C80.6038 76.3084 80.6003 76.3109 80.5968 76.3135C80.7208 76.3061 80.8465 76.2986 80.9701 76.2912C80.9497 76.2726 80.9295 76.2538 80.9095 76.2348ZM82.0778 77.0044C82.0272 77.4002 82.0044 77.7994 82.0095 78.199C82.0095 78.6888 81.4206 82.3325 81.1498 82.9813C81.0881 83.1296 80.993 83.1375 80.8693 83.1478C80.8017 83.1534 80.7255 83.1597 80.6417 83.1901C80.3206 83.3024 80.1479 83.4214 80.0223 83.508C79.7845 83.6718 79.7152 83.7195 79.1285 83.386C79.1021 83.3714 78.8278 83.3112 78.4915 83.2374C77.9193 83.1118 77.1674 82.9467 77.1511 82.8996C77.1253 82.8249 78.0083 79.3703 78.0358 79.3015C78.1834 78.9315 78.237 78.59 78.2963 78.2125C78.3092 78.1306 78.3223 78.0469 78.3367 77.9609C78.3638 77.7978 78.3629 77.5795 78.3621 77.3612C78.3611 77.0873 78.36 76.8133 78.4141 76.6478C78.5012 76.3858 78.8433 76.3891 79.133 76.3919C79.2034 76.3926 79.2707 76.3932 79.3306 76.39C79.3764 76.3874 79.5256 76.3783 79.7335 76.3657L79.7335 76.3657L79.8127 76.3609L79.095 75.9182C79.0666 75.6699 79.0323 75.4843 79.0176 75.4078C78.6958 74.7168 78.5561 73.9551 78.6118 73.1949L78.8551 70.1012C78.9506 68.8844 79.5687 67.9168 80.4285 67.3779L85.4415 70.0405C85.4415 70.0396 85.4416 70.0386 85.4416 70.0377L85.7571 70.2095L85.568 74.6215C85.5226 75.145 85.3553 75.6507 85.0796 76.0982C84.8039 76.5457 84.4274 76.9225 83.98 77.1987C83.8191 77.2365 83.6551 77.2598 83.49 77.2683C83.0039 77.2834 82.5222 77.1926 82.0778 77.0044ZM85.4404 70.2302C85.4403 70.3001 85.4413 70.3708 85.4423 70.4423V70.4423L85.4423 70.4423C85.4427 70.4761 85.4432 70.51 85.4436 70.544C85.444 70.4718 85.4429 70.4003 85.4418 70.3295C85.4413 70.2962 85.4407 70.2631 85.4404 70.2302Z" fill="white"/>
<path fill-rule="evenodd" clip-rule="evenodd" d="M80.9675 76.102L81.0035 76.1362C81.0228 76.1546 81.0423 76.1727 81.0619 76.1906L81.3004 76.4079L80.9782 76.4271C80.8546 76.4345 80.7289 76.442 80.605 76.4495L80.2502 76.4708L79.7436 76.5015L79.7418 76.5016L79.728 76.5025C79.5274 76.5146 79.3835 76.5233 79.3384 76.5259L79.3378 76.526C79.2737 76.5294 79.2028 76.5287 79.1344 76.5281L79.1317 76.528C78.9825 76.5266 78.8424 76.526 78.7292 76.553C78.6206 76.5788 78.5663 76.6222 78.5435 76.6904C78.5224 76.7554 78.5097 76.8503 78.5035 76.9709C78.4974 77.0898 78.4979 77.2228 78.4984 77.3607L78.4984 77.3697C78.4992 77.5812 78.5001 77.8087 78.4711 77.9832L78.4711 77.9834C78.4568 78.0686 78.4438 78.1516 78.4309 78.2336L78.43 78.2393C78.3713 78.6133 78.3157 78.9677 78.1624 79.3519M78.1624 79.3519C78.1634 79.3493 78.1631 79.3504 78.1611 79.3577C78.1594 79.3635 78.1566 79.3733 78.1525 79.3884C78.1447 79.4169 78.1339 79.4571 78.1206 79.5075C78.094 79.6083 78.0574 79.7489 78.0143 79.9162C77.9281 80.2506 77.8161 80.6909 77.7057 81.1314C77.5952 81.572 77.4866 82.0123 77.4072 82.347C77.3675 82.5144 77.3353 82.6546 77.3139 82.7548C77.309 82.7779 77.3047 82.7985 77.301 82.8167C77.3086 82.819 77.3168 82.8215 77.3255 82.824C77.4038 82.8471 77.5144 82.8754 77.6447 82.9067C77.9047 82.9692 78.2343 83.0415 78.5208 83.1044L78.5213 83.1045C78.689 83.1413 78.8422 83.175 78.9567 83.2012C79.0139 83.2143 79.0625 83.2258 79.0989 83.2351C79.1169 83.2397 79.1332 83.2441 79.1464 83.248L79.1472 83.2483C79.1557 83.2508 79.1767 83.2571 79.1946 83.267L79.1959 83.2677C79.4938 83.437 79.6316 83.4912 79.7167 83.4977C79.7819 83.5027 79.8199 83.4819 79.9449 83.3959C80.0747 83.3065 80.2588 83.1799 80.596 83.0618C80.6967 83.0255 80.7877 83.0179 80.8544 83.0124L80.858 83.0121C80.926 83.0065 80.9546 83.0025 80.9753 82.9928C80.9856 82.9881 81.0035 82.9781 81.0239 82.929L81.024 82.9289C81.0859 82.7806 81.1711 82.4443 81.265 82.001C81.3578 81.5628 81.4565 81.0331 81.5469 80.5075C81.6372 79.9819 81.7191 79.4616 81.7783 79.0426C81.8381 78.6195 81.8731 78.3112 81.8732 78.1998C81.8681 77.7941 81.8913 77.3889 81.9427 76.9872L81.9655 76.809L82.131 76.8791C82.5569 77.0594 83.0185 77.1465 83.4844 77.1322C83.6335 77.1245 83.7817 77.1041 83.9273 77.0711C84.3483 76.8072 84.7029 76.4499 84.9636 76.0268C85.2276 75.5983 85.388 75.114 85.432 74.6126L85.6173 70.2885L85.5771 70.2665C85.5774 70.2866 85.5777 70.3069 85.578 70.3273L85.5781 70.3281C85.5792 70.3984 85.5803 70.4712 85.5798 70.5449L85.3073 70.5455C85.3069 70.5119 85.3065 70.4785 85.306 70.445C85.306 70.4447 85.306 70.4445 85.306 70.4442L85.306 70.444V70.4432C85.305 70.3723 85.304 70.3008 85.3041 70.2299L85.5061 70.229L80.4351 67.5357C79.6476 68.0583 79.0807 68.9678 78.991 70.1119L78.7478 73.2049C78.7477 73.205 78.7477 73.2051 78.7477 73.2052C78.6937 73.9421 78.8292 74.6805 79.1412 75.3503L79.1483 75.3656L79.1515 75.3822C79.1651 75.4536 79.1954 75.617 79.2226 75.8369L80.2014 76.4407L80.5148 76.2048C80.5191 76.2016 80.5234 76.1984 80.5278 76.1952L80.5307 76.1932L80.5336 76.1913C80.653 76.1146 80.7883 76.0909 80.9179 76.0989L80.9675 76.102M79.095 75.9182C79.0666 75.6699 79.0323 75.4843 79.0176 75.4078C78.6958 74.7168 78.5561 73.9551 78.6118 73.1949L78.8551 70.1012C78.9506 68.8844 79.5687 67.9168 80.4285 67.3779L85.4415 70.0405L85.4416 70.0377L85.7571 70.2095L85.568 74.6215C85.5226 75.145 85.3553 75.6507 85.0796 76.0982C84.8039 76.5457 84.4274 76.9225 83.98 77.1987C83.8191 77.2365 83.6551 77.2598 83.49 77.2683C83.0512 77.2819 82.616 77.2093 82.2086 77.0566C82.1647 77.0401 82.1211 77.0228 82.0778 77.0044C82.0719 77.0512 82.0663 77.0981 82.0611 77.145C82.0222 77.4946 82.005 77.8466 82.0095 78.199C82.0095 78.6888 81.4206 82.3325 81.1498 82.9813C81.0881 83.1296 80.993 83.1375 80.8693 83.1478C80.8017 83.1534 80.7255 83.1597 80.6417 83.1901C80.3206 83.3024 80.1479 83.4214 80.0223 83.508C79.7845 83.6718 79.7152 83.7195 79.1285 83.386C79.1021 83.3714 78.8278 83.3112 78.4915 83.2374C77.9193 83.1118 77.1674 82.9467 77.1511 82.8996C77.1253 82.8249 78.0083 79.3703 78.0358 79.3015C78.1834 78.9315 78.237 78.59 78.2963 78.2125C78.3092 78.1306 78.3223 78.0469 78.3367 77.9609C78.3638 77.7978 78.3629 77.5795 78.3621 77.3612C78.3611 77.0873 78.36 76.8133 78.4141 76.6478C78.5012 76.3858 78.8433 76.3891 79.133 76.3919C79.2034 76.3926 79.2707 76.3932 79.3306 76.39C79.3639 76.3881 79.4515 76.3828 79.5765 76.3752C79.6207 76.3725 79.6696 76.3696 79.7224 76.3664L79.7335 76.3657L79.8127 76.3609L79.7301 76.31L79.7286 76.309L79.095 75.9182ZM85.4436 70.544C85.4432 70.51 85.4427 70.4761 85.4423 70.4423L85.4423 70.4422C85.4417 70.4044 85.4412 70.3669 85.4408 70.3295C85.4405 70.2962 85.4403 70.2631 85.4404 70.2302C85.4407 70.2631 85.4413 70.2962 85.4418 70.3295C85.4424 70.3669 85.443 70.4045 85.4433 70.4422C85.4437 70.476 85.4438 70.51 85.4436 70.544ZM80.6122 76.3126C80.612 76.3126 80.6119 76.3126 80.6117 76.3126C80.6067 76.3129 80.6017 76.3132 80.5968 76.3135C80.6003 76.3109 80.6038 76.3084 80.6073 76.3058C80.697 76.2482 80.8019 76.2282 80.9095 76.2348C80.9295 76.2538 80.9497 76.2726 80.9701 76.2912C80.9487 76.2925 80.9273 76.2938 80.9058 76.295C80.8869 76.2962 80.8679 76.2973 80.8489 76.2984C80.77 76.3032 80.6908 76.3079 80.6122 76.3126Z" fill="#273B63"/>
<path d="M86.1956 68.1471C85.911 67.4415 84.9868 67.3436 84.3041 67.0712C83.2312 66.6415 83.6413 66.7412 83.1005 66.2118C82.8563 65.9729 81.7052 65.7168 81.3767 65.6799C81.3243 65.7606 81.6802 66.0004 81.6106 66.0734C81.4584 66.2333 81.6794 66.3459 81.4386 66.4567C80.1585 67.0523 79.3615 68.0036 78.7666 69.1104C78.8163 69.1916 78.857 69.2781 78.8878 69.3682C78.9296 69.4968 78.9288 69.6354 78.8854 69.7635C78.8421 69.8916 78.7585 70.0022 78.6471 70.0789C78.5361 70.1438 78.4062 70.1687 78.2791 70.1494C77.8492 71.1737 77.5105 72.2771 77.0866 73.3445C77.1625 73.5347 77.2131 73.734 77.2371 73.9374C77.3179 74.8174 76.4341 75.9363 78.059 76.3677C79.3727 76.7166 79.0271 76.8687 79.5077 77.1763C79.6264 77.2505 79.764 77.2887 79.904 77.2863C81.5324 77.2563 82.8606 76.3067 83.5149 74.8475C84.0264 74.3585 84.4777 73.8104 84.8595 73.2147C84.8793 73.2809 84.9077 73.335 84.9618 73.3324C85.163 73.3204 85.1948 72.5126 85.2301 72.3081C85.3221 71.7675 85.96 71.105 86.1577 70.6014C86.4277 69.9328 86.481 68.856 86.1956 68.1471ZM77.9782 74.673C78.1245 74.8883 78.3008 75.0816 78.5018 75.2471C78.2898 75.0936 78.1116 74.8982 77.9782 74.673V74.673Z" fill="#91A7D3"/>
<path d="M84.1683 75.1938C84.6609 75.2746 85.0762 74.7641 85.0951 74.0594C85.113 73.651 84.9823 73.2498 84.7271 72.9302C84.649 72.8785 84.5613 72.8429 84.4692 72.8254C83.9757 72.7438 83.5613 73.2551 83.5424 73.9597C83.5251 74.3676 83.6557 74.768 83.9104 75.0872C83.9888 75.1388 84.0764 75.1749 84.1683 75.1938Z" fill="white"/>
<path fill-rule="evenodd" clip-rule="evenodd" d="M84.9589 74.0546L84.959 74.0535C84.9751 73.6853 84.8599 73.3235 84.6343 73.0326C84.5763 72.9971 84.5123 72.9723 84.4454 72.9595C84.2575 72.929 84.077 73.0077 83.9335 73.1837C83.7883 73.3618 83.6875 73.6352 83.6786 73.9634L83.6786 73.9645L83.6786 73.9655C83.6629 74.3332 83.7781 74.6942 84.0031 74.9847C84.0617 75.0204 84.1259 75.0458 84.193 75.0598C84.3802 75.0895 84.5604 75.0107 84.7037 74.8351C84.849 74.657 84.9501 74.3839 84.9589 74.0558L84.9589 74.0546ZM84.1683 75.1938C84.0764 75.1749 83.9888 75.1388 83.9104 75.0872C83.6557 74.768 83.5251 74.3676 83.5424 73.9597C83.5613 73.2551 83.9757 72.7438 84.4692 72.8254C84.5613 72.8429 84.649 72.8785 84.7271 72.9302C84.9823 73.2498 85.113 73.651 85.0951 74.0594C85.0762 74.7641 84.6609 75.2746 84.1683 75.1938Z" fill="#273B63"/>
<path d="M94.885 133.732L93.8524 139.193L96.3697 139.924L97.8597 133.63L94.885 133.732Z" fill="white"/>
<path fill-rule="evenodd" clip-rule="evenodd" d="M94.0093 139.097L96.2701 139.753L97.686 133.772L94.9986 133.864L94.0093 139.097ZM94.885 133.732L93.8524 139.193L96.3697 139.924L97.8597 133.63L94.885 133.732Z" fill="#273B63"/>
<path d="M79.4913 133.974L78.4588 139.436L80.989 139.638L82.466 133.873L79.4913 133.974Z" fill="white"/>
<path fill-rule="evenodd" clip-rule="evenodd" d="M78.4588 139.436L80.989 139.638L82.466 133.873L79.4913 133.974L78.4588 139.436ZM79.605 134.106L78.6209 139.312L80.8855 139.493L82.2889 134.016L79.605 134.106Z" fill="#273B63"/>
<path d="M93.8455 139.205C95.6045 139.387 99.408 140.722 99.408 140.722C100.665 141.129 100.222 142.374 98.8131 142.394L93.4509 142.47C93.193 142.47 92.9969 142.324 93.0399 142.158L93.7836 139.298C93.7963 139.263 93.8176 139.231 93.8455 139.205V139.205Z" fill="#91A7D3"/>
<path d="M78.654 139.113C80.413 139.295 84.2165 140.63 84.2165 140.63C85.4734 141.037 85.0307 142.282 83.6224 142.302L78.2594 142.378C78.0014 142.378 77.8054 142.232 77.8484 142.066L78.5921 139.207C78.6048 139.171 78.6261 139.139 78.654 139.113V139.113Z" fill="#91A7D3"/>
<path d="M85.4493 111.794L84.5243 112.232C84.3678 113.885 83.5485 115.939 82.4841 119.391C81.3002 123.231 79.8275 128.01 78.8844 132.652C78.8318 132.911 78.8395 133.179 78.9069 133.435C78.9742 133.691 79.0995 133.928 79.273 134.128C79.4457 134.328 79.6598 134.488 79.9003 134.597C80.1409 134.706 80.4023 134.762 80.6666 134.761H80.6958L84.1167 134.709C84.4945 134.707 84.8619 134.587 85.1675 134.365C85.473 134.143 85.7012 133.83 85.8199 133.472C87.7577 127.51 89.3973 123.279 90.7144 119.88C91.8501 116.952 92.6694 114.836 93.1216 113.018L93.2368 112.558L85.4493 111.794Z" fill="#11192B"/>
<path d="M81.3802 65.6678C81.3802 65.6678 72.3899 66.3235 76.2854 75.1861C76.2854 75.1861 86.8336 67.995 81.3802 65.6678Z" fill="#91A7D3"/>
<path d="M70.5251 116.831C70.525 116.938 70.5459 117.044 70.5867 117.142C70.6274 117.241 70.6872 117.33 70.7626 117.406C70.8379 117.481 70.9274 117.541 71.026 117.582C71.1245 117.622 71.2301 117.643 71.3367 117.643H93.4939C93.7047 117.637 93.9046 117.548 94.0512 117.397C94.1979 117.245 94.2799 117.043 94.2799 116.832C94.2799 116.621 94.1979 116.418 94.0512 116.267C93.9046 116.116 93.7047 116.027 93.4939 116.02H71.3367C71.2301 116.02 71.1245 116.041 71.026 116.082C70.9275 116.122 70.838 116.182 70.7626 116.258C70.6872 116.333 70.6274 116.422 70.5867 116.521C70.5459 116.619 70.525 116.725 70.5251 116.831V116.831Z" fill="#DAE1F0"/>
<path d="M68.1067 142.481C68.0878 142.483 68.0688 142.483 68.05 142.481C67.9507 142.467 67.8613 142.413 67.8014 142.333C67.7415 142.252 67.7158 142.151 67.7301 142.052L71.3582 117.777C71.3752 117.679 71.4298 117.592 71.5103 117.534C71.5908 117.476 71.6908 117.451 71.789 117.466C71.8871 117.481 71.9756 117.533 72.0356 117.612C72.0955 117.691 72.1221 117.791 72.1096 117.889L68.4815 142.16C68.4678 142.25 68.4224 142.331 68.3536 142.39C68.2849 142.449 68.1973 142.482 68.1067 142.481V142.481Z" fill="#324B7F"/>
<path d="M79.2239 142.204C79.2051 142.206 79.1861 142.206 79.1672 142.204C79.0679 142.189 78.9786 142.136 78.9186 142.055C78.8587 141.975 78.8331 141.874 78.8474 141.774L82.4755 117.503C82.4925 117.406 82.547 117.318 82.6275 117.26C82.708 117.202 82.808 117.178 82.9062 117.193C83.0044 117.207 83.0929 117.26 83.1528 117.339C83.2127 117.418 83.2393 117.518 83.2269 117.616L79.5988 141.88C79.5856 141.97 79.5405 142.052 79.4716 142.112C79.4028 142.171 79.3149 142.204 79.2239 142.204V142.204Z" fill="#324B7F"/>
<path d="M117.01 31.8572C120.605 32.5318 124.331 33.6885 126.764 36.4179C128.785 38.6857 129.658 41.8129 129.635 44.8507C129.612 47.8886 128.762 50.8662 127.686 53.7021C126.442 56.9882 124.889 60.1493 123.049 63.143C121.984 64.8772 120.786 66.5908 119.121 67.7612C115.569 70.2585 110.75 69.7618 106.539 68.6962C101.12 67.3245 95.9217 65.1977 91.0961 62.3782C88.4309 60.8202 85.8113 58.976 84.1959 56.3464C82.7455 53.9857 82.2236 51.1902 81.7276 48.4635C81.0913 44.9667 80.7303 40.6639 82.7945 37.5049C84.4865 34.914 88.2108 34.1251 90.999 33.2846C99.3943 30.759 108.395 30.2391 117.01 31.8572Z" fill="#B5C4E2"/>
<path d="M116.616 47.8284C116.465 47.7133 116.309 47.6058 116.148 47.5036C116.093 47.3023 116.022 47.1055 115.937 46.9149C116.329 45.7522 116.422 44.4967 116.084 43.3004C115.596 41.5697 114.29 40.0349 112.584 39.4093C112.209 39.2728 111.818 39.1844 111.421 39.1463C111.026 38.5134 110.545 37.939 109.991 37.4396C107.325 35.0592 103.189 34.9346 100.167 36.7118C99.4095 37.1532 98.7315 37.7188 98.1614 38.3849C97.8996 38.6883 97.6691 39.0174 97.4736 39.3672C97.0571 39.4949 96.7047 39.776 96.4875 40.1535C96.1084 40.798 96.1557 41.5448 96.3809 42.2348L96.3035 42.2589C95.3406 42.5786 94.3855 43.126 93.8602 44.0257C93.3632 44.8774 93.2953 45.9722 93.904 46.7869C93.9444 46.841 93.99 46.8883 94.0355 46.939L94.3038 47.2105C94.6393 47.4987 95.016 47.735 95.4214 47.9118C94.664 48.7642 94.4216 50.0198 94.6193 51.1593C94.2595 51.373 93.9395 51.6474 93.6736 51.9705C93.3882 52.3297 93.1921 52.7731 93.2575 53.2406C93.3228 53.7081 93.6358 54.0734 94.0106 54.3432C94.4405 54.6517 94.9417 54.8674 95.4266 55.0702C95.6433 55.1613 95.8642 55.2421 96.0852 55.3229C96.0531 55.4349 96.0344 55.5502 96.0293 55.6666C96 56.5483 96.54 57.3492 97.1469 57.9396C97.874 58.6445 98.7341 59.1978 99.6771 59.5672C101.413 60.2587 103.344 60.2789 105.093 59.6239C106.019 60.2659 107.131 60.4644 108.242 60.4317C109.2 60.4015 110.148 60.2325 111.057 59.9299C112.856 59.3209 114.474 58.2725 115.765 56.88C116.914 55.6503 117.838 54.1524 118.327 52.536C118.397 52.2943 118.444 52.0466 118.467 51.7961C118.571 50.7473 118.279 49.6975 117.648 48.8528C117.412 48.5391 117.14 48.2534 116.838 48.0011L116.616 47.8284ZM116.436 48.0321C116.384 48.0974 116.33 48.1618 116.276 48.2263C116.267 48.1111 116.251 47.9977 116.231 47.8825C116.301 47.9324 116.369 47.9814 116.436 48.0321V48.0321ZM116.016 48.4918C115.794 48.6624 115.521 48.7514 115.242 48.7436C115.208 48.6869 115.177 48.6276 115.142 48.5718C115.351 48.2445 115.535 47.9021 115.692 47.5474C115.765 47.5878 115.837 47.6333 115.908 47.6737C115.973 47.9418 116.009 48.2161 116.016 48.4918V48.4918ZM96.3603 47.208L96.3207 47.2243C96.2605 47.2535 96.2038 47.2879 96.1488 47.3205C96.1531 47.2836 96.1608 47.2466 96.166 47.2097L96.3603 47.208ZM96.2158 46.9338C96.2886 46.619 96.4043 46.3156 96.5597 46.0323C96.5821 45.992 96.6087 45.9541 96.6328 45.9146C96.4933 46.2379 96.4063 46.5814 96.3749 46.9321L96.2158 46.9338ZM96.3792 47.5053C96.3974 47.6793 96.4288 47.8516 96.4729 48.0209C96.3577 47.9822 96.2442 47.9418 96.129 47.8997C96.1247 47.8207 96.1213 47.7407 96.123 47.6608C96.2046 47.6044 96.2893 47.5524 96.3766 47.5053H96.3792ZM96.5391 48.3311L96.5709 48.3406C96.7338 48.8003 96.9866 49.223 97.3146 49.5841C97.4239 49.7038 97.5414 49.8157 97.6662 49.9192L97.2639 50.0567C96.8031 49.738 96.4588 49.2779 96.2829 48.7462C96.2265 48.5696 96.1856 48.3885 96.1608 48.2048C96.2906 48.2486 96.4144 48.2907 96.5391 48.3311V48.3311ZM98.5165 42.6035C98.522 42.7897 98.543 42.9751 98.5793 43.1578C98.3428 43.5015 98.0737 43.8178 97.8055 44.1349C97.3488 43.6289 96.9837 43.0473 96.7265 42.4162C97.09 42.3156 97.4608 42.2437 97.8356 42.2013C98.0448 42.3643 98.2742 42.4995 98.5182 42.6035H98.5165ZM98.2586 42.1661C98.3446 42.1618 98.4357 42.1575 98.5251 42.1575C98.5199 42.2073 98.5191 42.2572 98.5165 42.307C98.5002 42.2993 98.483 42.2941 98.4666 42.2855C98.4004 42.2503 98.3317 42.2082 98.268 42.1661H98.2586ZM101.842 43.7224C101.9 43.7585 101.952 43.8006 102.006 43.841C102.133 44.0293 102.24 44.231 102.323 44.4425C102.482 44.8589 102.538 45.3078 102.485 45.7505C101.638 45.6645 100.808 45.4394 100.096 44.9496C99.6841 44.6702 99.3478 44.2935 99.1166 43.853C99.9875 43.4637 101 43.2016 101.847 43.7224H101.842ZM99.0048 43.5986C98.9514 43.4703 98.9074 43.3381 98.8733 43.2033C98.9593 43.0753 99.0392 42.9455 99.1132 42.8106C99.8156 43.0023 100.558 43.0521 101.293 43.0624C101.386 43.138 101.476 43.2171 101.561 43.3013C101.045 43.1321 100.491 43.1189 99.9686 43.2635C99.6399 43.3499 99.3185 43.462 99.0074 43.5986H99.0048ZM108.032 49.6803C108.056 49.6563 108.084 49.6365 108.108 49.6116C108.132 49.5867 108.157 49.5583 108.181 49.5308C108.258 49.6047 108.332 49.6812 108.403 49.7611C108.279 49.7447 108.156 49.7177 108.036 49.6803H108.032ZM108.65 50.0653C108.724 50.1676 108.796 50.2724 108.86 50.3816C108.872 50.4013 108.882 50.4219 108.894 50.4417C108.663 50.2866 108.425 50.1431 108.181 50.012C108.336 50.0449 108.495 50.0627 108.654 50.0653H108.65ZM108.146 49.1286C108.008 49.0132 107.861 48.9075 107.708 48.8124C107.127 48.4684 106.477 48.2557 105.805 48.1893C105.6 48.0243 105.387 47.8568 105.162 47.7055C105.353 47.6093 105.532 47.4895 105.693 47.3489C106.032 47.0343 106.301 46.6511 106.481 46.2248C106.728 46.4259 106.974 46.627 107.214 46.8358C107.621 47.1899 108.084 47.5861 108.269 48.1094C108.332 48.2765 108.354 48.4562 108.334 48.6335C108.313 48.8109 108.25 48.9806 108.15 49.1286H108.146ZM107.98 49.3503C107.908 49.431 107.83 49.5065 107.748 49.5763C107.185 49.3254 106.698 48.9275 106.223 48.5322C106.461 48.5791 106.695 48.6452 106.923 48.7299C107.308 48.8774 107.666 49.087 107.983 49.3503H107.98ZM102.494 48.0106L102.534 47.9582C102.691 47.9831 102.85 48.0054 103.009 48.0218C103.187 48.0398 103.367 48.0475 103.549 48.0484C103.555 48.1129 103.561 48.1782 103.567 48.2435C103.328 48.2718 103.089 48.3045 102.849 48.338C102.739 48.2271 102.618 48.1171 102.497 48.0106H102.494ZM102.518 48.3853L102.242 48.4248C102.274 48.3586 102.309 48.2925 102.347 48.228C102.409 48.2796 102.464 48.3328 102.521 48.3818L102.518 48.3853ZM102.769 47.7167C102.864 47.635 102.971 47.5673 103.086 47.5156C103.213 47.4615 103.348 47.4293 103.486 47.4202C103.499 47.5388 103.51 47.6565 103.522 47.7751C103.271 47.7707 103.021 47.7512 102.772 47.7167H102.769ZM103.543 48.5202L103.595 48.5142C103.623 48.7642 103.658 49.0135 103.702 49.2592C103.511 49.0222 103.307 48.795 103.092 48.5786C103.247 48.558 103.397 48.5382 103.548 48.5202H103.543ZM103.543 46.0667C103.678 46.0667 103.812 46.0667 103.947 46.0607C104.695 46.0401 105.443 46.0048 106.19 45.9842L106.259 46.0418C106.09 46.466 105.829 46.8475 105.495 47.159C105.315 47.3173 105.11 47.4458 104.889 47.5397C104.591 47.3566 104.26 47.2321 103.916 47.1727C103.85 47.1635 103.783 47.1578 103.716 47.1555C103.684 46.786 103.627 46.4225 103.549 46.0667H103.543ZM104.17 47.5087C104.296 47.5502 104.419 47.6005 104.538 47.6591C104.292 47.7247 104.039 47.7628 103.784 47.7725C103.772 47.6565 103.76 47.5405 103.747 47.4236C103.893 47.4363 104.037 47.4648 104.177 47.5087H104.17ZM104.858 47.8353C105.016 47.9332 105.17 48.039 105.318 48.1524C105.115 48.1438 104.911 48.1404 104.709 48.1472C104.414 48.1575 104.12 48.1807 103.827 48.2117L103.809 48.0398C104.171 48.0261 104.528 47.9571 104.869 47.8353H104.858ZM106.387 45.7041H106.28C105.951 45.4371 105.64 45.148 105.351 44.8387C104.903 44.3489 104.491 43.7155 104.329 43.0444C105.208 43.0355 106.086 43.0929 106.957 43.2162C106.893 43.6925 106.802 44.1648 106.684 44.6307C106.609 44.9937 106.514 45.352 106.399 45.7041H106.387ZM104.279 42.7745C104.238 42.4779 104.259 42.1758 104.34 41.8877C104.468 41.4451 104.77 41.0017 105.23 40.8564C105.729 40.7026 106.227 40.9673 106.542 41.348C106.915 41.7992 107.008 42.3655 106.979 42.9473C106.088 42.8226 105.19 42.7648 104.291 42.7745H104.279ZM105.856 45.7084C105.07 45.7505 104.272 45.7943 103.474 45.7943C103.293 45.0974 103.003 44.4434 102.476 43.896C102.381 43.7979 102.277 43.7081 102.167 43.6279C102.022 43.4258 101.858 43.2382 101.677 43.0676H102.17C102.792 43.0676 103.423 43.0521 104.056 43.0504C104.056 43.0607 104.056 43.071 104.056 43.0813C104.308 44.1478 105.065 45.0071 105.867 45.7084H105.856ZM102.633 44.5147C102.882 44.9097 103.073 45.3387 103.199 45.7883C103.058 45.7883 102.916 45.778 102.774 45.7685C102.816 45.3453 102.768 44.918 102.633 44.5147V44.5147ZM102.719 46.1243C102.725 46.0959 102.727 46.0684 102.733 46.0384C102.912 46.0504 103.093 46.0573 103.273 46.0607C103.358 46.4206 103.42 46.7854 103.461 47.153C103.252 47.166 103.049 47.2231 102.864 47.3205C102.706 47.4104 102.564 47.5247 102.442 47.6591C102.303 47.6351 102.164 47.6076 102.026 47.5783C102.357 47.1485 102.593 46.6531 102.718 46.1252L102.719 46.1243ZM102.143 48.0493C102.099 48.1206 102.057 48.1919 102.019 48.265C101.981 48.338 101.959 48.399 101.933 48.466C101.707 48.4961 101.482 48.5245 101.256 48.5468C101.195 48.5537 101.134 48.5563 101.074 48.5614C101.109 48.5339 101.144 48.5082 101.178 48.4755C101.414 48.2748 101.634 48.0553 101.834 47.819L101.892 47.831C101.975 47.9057 102.058 47.9788 102.142 48.0501L102.143 48.0493ZM100.577 48.5932C100.561 48.5774 100.549 48.5584 100.54 48.5374C100.348 48.1352 100.063 47.7844 99.7081 47.5139C99.518 47.382 99.3094 47.2789 99.0891 47.208C99.3737 47.2518 99.6548 47.3076 99.9282 47.3678C100.465 47.4855 100.997 47.6256 101.532 47.7545C101.249 48.0719 100.928 48.3538 100.576 48.5941L100.577 48.5932ZM100.46 49.5385C100.353 50.0387 99.8388 50.2913 99.3659 50.3119C98.978 50.3157 98.5971 50.2087 98.268 50.0034C98.317 49.9863 98.366 49.9699 98.415 49.9519C99.1201 49.7113 99.7976 49.3968 100.436 49.0135C100.485 49.186 100.493 49.3676 100.459 49.5437L100.46 49.5385ZM97.9774 49.8066C97.5026 49.4524 97.1313 48.9777 96.9019 48.4317C97.944 48.7286 99.0226 48.8781 100.106 48.876C99.4528 49.267 98.7177 49.5523 97.9766 49.8118L97.9774 49.8066ZM99.7545 50.5285C100.16 50.4254 100.528 50.1538 100.681 49.7551C100.779 49.4642 100.775 49.1491 100.671 48.8605C101.059 48.8382 101.445 48.7986 101.831 48.7496C101.643 49.3959 101.716 50.0739 102.137 50.6351C101.916 50.6166 101.694 50.6132 101.473 50.6248C100.453 50.6755 99.402 50.7872 98.3953 50.5551C98.1068 50.4877 97.8286 50.382 97.5682 50.2406C97.6903 50.2002 97.8124 50.159 97.9336 50.1169C98.4692 50.4855 99.1149 50.6952 99.7537 50.5302L99.7545 50.5285ZM102.049 49.8711C101.952 49.4853 101.977 49.0787 102.123 48.7084L102.775 48.6182C103.184 49.0154 103.55 49.4553 103.865 49.9304C103.907 50.0756 103.951 50.2191 104.01 50.3601C103.752 50.5585 103.515 50.7834 103.304 51.0312C103.081 50.8661 102.825 50.7517 102.553 50.6961C102.315 50.4732 102.141 50.1899 102.051 49.8763L102.049 49.8711ZM103.332 51.4343C103.343 51.4489 103.357 51.4609 103.368 51.4772C103.619 51.8313 103.678 52.2988 103.598 52.719C103.472 53.3738 103.038 53.8362 102.492 54.1309C102.468 53.244 102.712 52.3705 103.193 51.625C103.236 51.5615 103.284 51.5022 103.331 51.4394L103.332 51.4343ZM103.565 51.1464C103.735 50.9542 103.921 50.7774 104.122 50.6179C104.184 50.7519 104.253 50.8824 104.329 51.0089C104.349 51.0415 104.373 51.0699 104.394 51.1008C104.121 51.1576 103.842 51.1747 103.564 51.1515L103.565 51.1464ZM104.326 50.1418C104.26 50.0272 104.192 49.9164 104.119 49.8092C104.029 49.4739 103.96 49.1332 103.913 48.7892C103.898 48.6869 103.884 48.5829 103.871 48.4789C104.48 48.4051 105.095 48.3939 105.706 48.4454C105.852 48.5666 105.996 48.6886 106.135 48.8064C106.495 49.1153 106.879 49.3952 107.283 49.6434C106.581 49.4499 105.835 49.48 105.15 49.7293C104.861 49.8384 104.584 49.9784 104.325 50.1469L104.326 50.1418ZM105.437 49.9235C106.033 49.746 106.668 49.746 107.263 49.9235C106.993 50.0954 106.714 50.2337 106.481 50.3532C105.935 50.6287 105.364 50.8503 104.775 51.0149L104.734 51.0252C104.656 50.8041 104.563 50.5887 104.455 50.3807C104.759 50.185 105.09 50.0329 105.437 49.9287L105.437 49.9235ZM105.188 51.1747C105.747 50.9907 106.291 50.7608 106.812 50.4873C107.079 50.3505 107.337 50.1984 107.586 50.0318C107.798 50.1131 108.005 50.2104 108.202 50.3231C108.53 50.5096 108.84 50.7227 109.148 50.9393C109.248 51.1752 109.33 51.4182 109.393 51.6663C108.897 51.8671 108.38 52.0096 107.852 52.0908C106.793 52.2515 105.64 52.1235 104.881 51.2942C104.873 51.2856 104.867 51.2761 104.86 51.2676C104.974 51.2469 105.081 51.2177 105.187 51.1799L105.188 51.1747ZM109.136 49.059C109.018 48.0544 109.012 47.0258 108.964 46.004C109.923 46.0478 110.879 46.1491 111.826 46.3073C111.895 46.4493 111.956 46.5948 112.01 46.743C111.666 47.6565 111.137 48.4927 110.396 49.108C110.059 49.3935 109.661 49.5991 109.233 49.7095C109.194 49.499 109.161 49.2816 109.135 49.0642L109.136 49.059ZM108.95 45.729C108.921 45.0346 108.841 44.3433 108.711 43.6605C108.906 43.7327 109.099 43.81 109.289 43.8994C110.229 44.3411 111.048 44.9985 111.598 45.8863C111.621 45.9241 111.641 45.9636 111.664 46.0023C110.764 45.8635 109.858 45.774 108.949 45.7341L108.95 45.729ZM108.962 49.7551C108.902 49.7628 108.841 49.7697 108.781 49.7723C108.649 49.6061 108.506 49.4498 108.351 49.3048C108.532 49.0469 108.623 48.7362 108.609 48.4214C108.577 47.9229 108.281 47.4967 107.946 47.1452C107.529 46.7269 107.084 46.3362 106.616 45.9756C106.914 45.9696 107.213 45.967 107.512 45.9705C107.905 45.9739 108.298 45.9839 108.691 46.0005C108.749 47.2518 108.744 48.5314 108.961 49.7568L108.962 49.7551ZM106.994 45.686C106.891 45.686 106.79 45.6912 106.688 45.6929C106.779 45.4196 106.86 45.142 106.92 44.8722C107.062 44.3432 107.169 43.8055 107.241 43.2626C107.636 43.3333 108.026 43.4303 108.408 43.5531C108.512 44.0366 108.586 44.5263 108.628 45.0192C108.649 45.2503 108.664 45.4841 108.677 45.7178C108.115 45.6983 107.553 45.6895 106.993 45.6912L106.994 45.686ZM107.262 42.9919C107.296 42.5569 107.235 42.1198 107.083 41.7106C106.755 40.8891 105.813 40.2368 104.943 40.6837C104.19 41.0704 103.941 41.9727 104.025 42.7702C103.199 42.7702 102.372 42.7943 101.556 42.7814H101.357C100.843 42.3884 100.246 42.1164 99.6118 41.9856C99.5619 41.9753 99.5112 41.9702 99.4614 41.9616C99.5898 41.4793 99.5663 40.9692 99.3943 40.5007C99.5333 40.289 99.6957 40.0935 99.8783 39.918C101.392 38.4769 103.82 38.5293 105.553 39.5184C106.445 40.0256 107.187 40.7608 107.702 41.6488C107.985 42.1524 108.199 42.6917 108.338 43.2523C107.984 43.1466 107.625 43.0614 107.261 42.9971L107.262 42.9919ZM100.212 42.4351C100.449 42.5229 100.677 42.634 100.893 42.7668C100.335 42.7593 99.7792 42.6907 99.2361 42.5623C99.2885 42.4505 99.335 42.3362 99.3771 42.2185C99.6617 42.266 99.9412 42.3402 100.212 42.4402V42.4351ZM99.2456 41.678C99.2309 41.7596 99.206 41.837 99.1845 41.9152C99.071 41.9023 98.9567 41.8937 98.8406 41.8877C98.9057 41.5071 99.0308 41.1393 99.2112 40.798C99.2884 41.0868 99.3001 41.3892 99.2456 41.6831V41.678ZM99.1003 42.185C99.0633 42.2855 99.0255 42.3861 98.979 42.4832C98.9154 42.4626 98.8518 42.442 98.7899 42.4179C98.7899 42.332 98.7968 42.246 98.8054 42.1601C98.9042 42.1713 99.0023 42.1798 99.1003 42.1945V42.185ZM98.7968 44L98.8699 43.9639C99.2404 44.6694 99.874 45.2065 100.603 45.5391C101.188 45.7953 101.812 45.9543 102.448 46.01C102.36 46.4392 102.191 46.8476 101.949 47.2131C101.9 47.2887 101.846 47.3583 101.794 47.4288C101.192 46.9562 100.57 46.5101 99.9677 46.0538C99.2955 45.5598 98.6631 45.0139 98.0763 44.421C98.3072 44.2669 98.5479 44.128 98.7968 44.0051V44ZM98.317 43.9432C98.4374 43.7954 98.5552 43.6468 98.6687 43.4938C98.6953 43.5797 98.7254 43.6442 98.7547 43.7112C98.6022 43.7886 98.4563 43.8676 98.317 43.9484V43.9432ZM97.8536 44.5792C98.8802 45.6723 100.175 46.5093 101.379 47.4322C100.741 47.2776 100.106 47.1083 99.4605 46.9914C98.7228 46.8573 97.9499 46.7929 97.214 46.9312C97.0266 46.9261 96.8391 46.9241 96.6517 46.9252C96.7317 46.102 97.153 45.3784 97.6834 44.7132C97.741 44.6728 97.796 44.6273 97.8536 44.5843V44.5792ZM97.2441 47.2019C97.8614 47.2148 98.4804 47.2733 99.0495 47.4778C99.4415 47.6219 99.7807 47.881 100.023 48.2211C100.114 48.3407 100.195 48.4671 100.266 48.5993C99.3702 48.6156 98.4755 48.5256 97.6009 48.3311C97.3258 48.2693 97.0532 48.1962 96.7841 48.1146C96.7227 47.922 96.6798 47.724 96.656 47.5233C96.65 47.4735 96.656 47.4254 96.6492 47.3755C96.8418 47.3011 97.041 47.2447 97.2441 47.2071V47.2019ZM97.2123 50.3584C97.723 50.664 98.2948 50.8536 98.887 50.9135C99.9239 51.0398 100.95 50.8559 101.982 50.8886C102.122 50.8931 102.262 50.9075 102.401 50.9315C102.597 51.1053 102.827 51.2356 103.077 51.314C103.058 51.3406 103.036 51.3664 103.017 51.393C102.446 52.212 102.194 53.208 102.212 54.1997C102.212 54.2203 102.212 54.2409 102.212 54.2616C101.972 54.3612 101.723 54.4355 101.468 54.4833C100.285 54.705 99.0839 54.4076 97.8992 54.3621C97.7659 54.3569 97.6301 54.3552 97.4943 54.3621C97.1516 54.1811 96.8263 53.9688 96.5228 53.7279C95.8126 53.1624 95.2512 52.4638 94.989 51.5855C94.9615 51.4936 94.9374 51.3999 94.9159 51.3054C94.9899 51.2633 95.0621 51.2194 95.1309 51.1885C95.8036 50.8632 96.4993 50.5874 97.2123 50.3635V50.3584ZM102.275 54.9327L102.255 54.9404C101.314 55.249 100.253 55.2154 99.2946 55.0109C98.8866 54.923 98.4873 54.7991 98.1013 54.6405L98.44 54.6706C99.0513 54.7222 99.6599 54.809 100.274 54.8313C100.928 54.8537 101.616 54.7875 102.232 54.5529C102.243 54.6852 102.257 54.8115 102.275 54.9379V54.9327ZM98.2887 55.0075C99.568 55.4715 101.026 55.597 102.319 55.1905C102.368 55.4519 102.432 55.7101 102.512 55.9639C101.62 55.9925 100.726 55.9638 99.8379 55.878C98.6873 55.7676 97.5525 55.5304 96.454 55.1708L96.4282 55.1604C96.5 55.0359 96.5998 54.9297 96.7196 54.8502C96.9321 54.7188 97.175 54.6447 97.4246 54.6354C97.7041 54.7798 97.9928 54.9058 98.2887 55.0126V55.0075ZM102.501 54.4394C102.729 54.3305 102.941 54.1924 103.132 54.0287C103.776 53.477 104.088 52.5342 103.794 51.7196C103.756 51.6136 103.707 51.5119 103.647 51.4162C103.95 51.4298 104.253 51.4053 104.549 51.3432C104.73 51.9576 104.758 52.6064 104.468 53.1925C104.088 53.9608 103.333 54.5142 102.541 54.833C102.525 54.7076 102.512 54.5761 102.503 54.4446L102.501 54.4394ZM103.802 54.4094C104.597 53.7743 105.063 52.8797 104.933 51.8476C104.926 51.7926 104.914 51.7393 104.904 51.6852C105.394 52.1025 106.002 52.3562 106.644 52.4105C107.589 52.5033 108.577 52.2919 109.457 51.9387C109.509 52.1958 109.544 52.4563 109.562 52.7182C108.965 53.2789 108.567 54.0196 108.431 54.827C108.406 54.9929 108.39 55.1602 108.385 55.328C107.816 55.3753 107.251 55.4509 106.707 55.5291C105.574 55.6932 104.445 55.8625 103.302 55.933C103.135 55.9425 102.967 55.9476 102.8 55.9545C102.709 55.6769 102.636 55.3935 102.583 55.1063C103.024 54.9409 103.436 54.7075 103.804 54.4145L103.802 54.4094ZM108.658 55.3014C108.658 55.2335 108.658 55.1656 108.667 55.0969C108.745 54.3485 109.064 53.6457 109.576 53.0945C109.578 53.8404 109.447 54.5805 109.188 55.2799C109.012 55.2868 108.836 55.2957 108.66 55.3065L108.658 55.3014ZM109.074 55.5592C108.976 55.7879 108.864 56.0106 108.739 56.2261C108.69 56.0138 108.661 55.7975 108.653 55.5798C108.796 55.5718 108.937 55.5655 109.076 55.5609L109.074 55.5592ZM109.524 50.874C109.428 50.5871 109.35 50.295 109.287 49.9991C110.598 49.6863 111.603 48.3389 112.13 47.1383C112.272 47.6627 112.291 48.2128 112.184 48.7453C111.94 49.8857 111.143 50.7339 110.158 51.3019C109.945 51.167 109.734 51.0226 109.525 50.874H109.524ZM112.495 47.5723C112.457 47.2834 112.389 46.9992 112.292 46.7241C112.329 46.6227 112.369 46.5222 112.402 46.4191L112.472 46.4337C112.563 46.6989 112.686 46.952 112.839 47.1873C113.269 47.8851 113.805 48.6164 114.584 48.8983C114.046 49.6196 113.393 50.2478 112.651 50.758C112.115 51.1275 111.534 51.4171 110.962 51.7359C110.776 51.6549 110.595 51.5631 110.42 51.4609C110.958 51.14 111.429 50.7187 111.808 50.22C112.371 49.4601 112.618 48.5118 112.497 47.574L112.495 47.5723ZM114.861 48.9782C114.935 48.994 115.011 49.0058 115.086 49.0135C115.306 49.3872 115.486 49.7833 115.623 50.1951C115.533 50.3654 115.428 50.5271 115.308 50.678C114.723 51.3912 113.897 51.8671 112.987 52.0169C112.419 52.1095 111.837 52.0575 111.295 51.8657C111.836 51.5675 112.386 51.2847 112.89 50.9272C113.648 50.3888 114.314 49.7305 114.861 48.9782ZM114.617 48.625C114.101 48.4231 113.711 47.9822 113.4 47.5388C113.184 47.232 112.926 46.8762 112.783 46.4998C112.914 46.5291 113.041 46.5609 113.178 46.5944C113.79 47.1977 114.341 47.8598 114.823 48.5709L114.754 48.6723C114.705 48.656 114.658 48.6396 114.613 48.625H114.617ZM114.981 48.3217C114.596 47.7576 114.165 47.2264 113.692 46.7336C114.3 46.9068 114.89 47.137 115.454 47.4211C115.316 47.7318 115.157 48.0327 114.978 48.3217H114.981ZM113.318 46.3452C113.118 46.1441 112.916 45.9473 112.716 45.7522C112.82 45.4179 113.146 45.2366 113.52 45.2366C113.967 45.2426 114.386 45.4454 114.723 45.7247C115.117 46.0532 115.433 46.4639 115.65 46.9278C115.623 47.0051 115.592 47.0816 115.564 47.1581C114.846 46.8052 114.091 46.5328 113.313 46.346L113.318 46.3452ZM112.802 46.2223C112.766 46.2145 112.731 46.2059 112.694 46.1991C112.689 46.1681 112.688 46.138 112.684 46.1071L112.802 46.2223ZM109.887 51.4523C109.849 51.4721 109.81 51.4893 109.771 51.5082C109.744 51.448 109.72 51.3861 109.695 51.3251L109.887 51.4523ZM109.942 52.3976C109.899 52.4303 109.856 52.4655 109.818 52.4999C109.805 52.3684 109.788 52.2369 109.766 52.1071C109.821 52.2034 109.88 52.2996 109.942 52.395L109.942 52.3976ZM109.892 51.7574C109.978 51.7144 110.064 51.6714 110.15 51.6233C110.313 51.723 110.478 51.8193 110.651 51.9052C110.495 52.0152 110.327 52.1235 110.163 52.2378L110.15 52.218C110.054 52.0659 109.97 51.9112 109.891 51.7548L109.892 51.7574ZM110.975 52.0504C111.703 52.349 112.506 52.4156 113.273 52.2412C114.146 52.0448 114.929 51.5642 115.5 50.8748C115.58 50.773 115.655 50.6672 115.725 50.5577C115.75 50.6548 115.774 50.7528 115.795 50.8533C116.001 51.8846 115.795 52.9888 114.882 53.611C114.519 53.8487 114.11 54.0071 113.681 54.0759C113.253 54.1448 112.815 54.1225 112.395 54.0106C111.536 53.782 110.829 53.1762 110.317 52.4638C110.53 52.3125 110.75 52.1768 110.974 52.0478L110.975 52.0504ZM115.782 49.8427C115.77 49.8101 115.759 49.7757 115.746 49.7439C115.645 49.4936 115.53 49.2491 115.402 49.0117C115.616 48.9925 115.824 48.9284 116.011 48.8235C115.987 49.1729 115.909 49.5166 115.782 49.8427ZM111.665 39.4531C112.587 39.6095 113.444 40.0301 114.131 40.6639C114.841 41.3025 115.379 42.1097 115.694 43.0109C116.01 43.9121 116.093 44.8782 115.937 45.8201C115.894 46.0713 115.836 46.3197 115.765 46.5643C115.65 46.3604 115.518 46.1671 115.369 45.9868C114.853 45.3681 114.04 44.8172 113.196 44.9934C113 45.0346 112.82 45.133 112.68 45.2761C112.997 43.267 112.619 41.2099 111.609 39.4445L111.665 39.4531ZM111.261 39.4127C112.122 40.8389 112.556 42.4818 112.512 44.1469C112.5 44.5795 112.454 45.0105 112.375 45.4359L112.269 45.3354C111.555 44.6591 110.834 43.9871 110.181 43.2497C109.561 42.5485 108.841 41.4898 109.136 40.4998C109.405 39.5966 110.404 39.368 111.261 39.4127V39.4127ZM99.3367 37.6184C100.033 37.0565 100.817 36.6137 101.658 36.3079C103.339 35.6858 105.172 35.6023 106.902 36.069C108.619 36.5527 110.103 37.6393 111.082 39.1291C110.667 39.1177 110.255 39.1918 109.871 39.3465C109.446 39.517 109.106 39.8493 108.925 40.2704C108.753 40.7 108.774 41.1727 108.898 41.6092C109.172 42.5743 109.86 43.3365 110.543 44.0404C111.113 44.629 111.713 45.185 112.306 45.7496C112.279 45.8691 112.249 45.9877 112.22 46.1054L112.011 46.0684C111.811 45.6865 111.564 45.3309 111.277 45.0097C110.589 44.2457 109.683 43.7207 108.723 43.3769C108.697 43.3675 108.67 43.3606 108.644 43.3511C108.544 42.9228 108.406 42.5041 108.232 42.0999C107.434 40.2618 105.672 38.8644 103.675 38.5809C102.041 38.348 100.244 38.8825 99.2593 40.2136C99.1154 39.9534 98.9136 39.7296 98.6695 39.5597C98.4203 39.3851 98.1208 39.297 97.8167 39.3087C98.2027 38.6591 98.7615 38.0867 99.3367 37.6184V37.6184ZM97.551 39.8424C97.5854 39.7565 97.6258 39.6705 97.6671 39.5897C97.7179 39.5804 97.7693 39.5749 97.821 39.5734C98.2964 39.5622 98.7117 39.8665 98.9653 40.2497C99.0115 40.3212 99.0531 40.3956 99.09 40.4723C99.0071 40.6047 98.9327 40.7422 98.8673 40.8839C98.7232 41.2034 98.6215 41.5402 98.5646 41.8859C98.3491 41.8834 98.1336 41.892 97.919 41.9117C97.7642 41.7744 97.6354 41.6102 97.539 41.427C97.2819 40.926 97.3464 40.3486 97.551 39.8424V39.8424ZM96.6913 40.3417C96.8315 40.0792 97.0435 39.8619 97.3026 39.7152C97.116 40.1612 97.03 40.6373 97.1366 41.1203C97.2071 41.4316 97.358 41.719 97.5742 41.9538C97.2584 42.0007 96.9459 42.0682 96.6388 42.1558C96.6259 42.1163 96.6113 42.0784 96.5993 42.0381C96.442 41.4846 96.4101 40.8616 96.6947 40.3417H96.6913ZM93.7424 45.6697C93.697 45.1426 93.8198 44.6146 94.0931 44.1615C94.5995 43.2927 95.5315 42.7866 96.4703 42.4909C96.5534 42.7009 96.6499 42.9052 96.7592 43.1028C97.0062 43.5456 97.3002 43.9605 97.6361 44.3403C97.5897 44.397 97.5424 44.4537 97.4977 44.5121C97.4212 44.574 97.3455 44.6367 97.2725 44.7029C96.6165 45.2967 96.1178 46.0684 95.9321 46.9373H95.7095C95.2744 46.9373 94.8394 46.9373 94.4052 46.9373C94.0408 46.6083 93.8068 46.1593 93.7458 45.6723L93.7424 45.6697ZM94.7397 47.208C95.1202 47.208 95.5014 47.208 95.8831 47.208C95.8702 47.3068 95.8591 47.4065 95.8539 47.5061C95.7747 47.5649 95.6987 47.6277 95.6261 47.6943C95.3158 47.5639 95.0199 47.4018 94.7431 47.2105L94.7397 47.208ZM94.9881 49.2094C95.1258 48.7656 95.3648 48.3599 95.6862 48.0243L95.8668 48.0965C95.9157 48.6644 96.1181 49.2082 96.4523 49.67C96.5912 49.8552 96.753 50.0221 96.9337 50.1667C96.7429 50.232 96.552 50.2991 96.3646 50.3678C95.8491 50.546 95.3471 50.7611 94.8626 51.0115C94.7678 50.4096 94.8119 49.7941 94.9916 49.212L94.9881 49.2094ZM94.8334 54.5039C94.3829 54.2822 93.8756 54.0192 93.6298 53.5586C93.1775 52.6992 93.9444 51.9258 94.6735 51.4566C94.995 52.7457 95.9167 53.7494 97.0403 54.4231C96.8315 54.467 96.6355 54.5585 96.4678 54.6904C96.3443 54.7938 96.2435 54.9216 96.172 55.0659C95.7167 54.9048 95.271 54.718 94.8368 54.5065L94.8334 54.5039ZM99.1544 59.0379C98.2758 58.5962 97.3619 57.9585 96.7987 57.137C96.497 56.697 96.1858 55.9743 96.3268 55.4079C96.5615 55.487 96.797 55.5635 97.0352 55.6305C98.1309 55.9318 99.2543 56.1215 100.388 56.1968C101.125 56.2468 101.863 56.2586 102.601 56.2321C102.724 56.5729 102.87 56.9046 103.04 57.2246C103.482 58.0556 104.082 58.8402 104.827 59.428C103.903 59.7455 102.926 59.8746 101.951 59.8076C100.977 59.7406 100.026 59.4788 99.1544 59.0379V59.0379ZM103.605 57.6448C103.316 57.1986 103.077 56.722 102.892 56.2235C103.214 56.2089 103.536 56.19 103.857 56.1633C104.97 56.0705 106.068 55.8849 107.174 55.7336C107.576 55.6795 107.98 55.6305 108.385 55.597C108.396 55.9176 108.449 56.2353 108.542 56.5423C107.706 57.7846 106.518 58.7491 105.13 59.312C104.526 58.8529 104.01 58.2891 103.605 57.6474V57.6448ZM109.32 60.0605C108.21 60.2264 106.989 60.2427 105.943 59.7898C105.754 59.706 105.571 59.6078 105.397 59.4959C105.432 59.4804 105.468 59.4675 105.503 59.4512C106.766 58.883 107.853 57.9875 108.654 56.8577C108.751 57.0978 108.875 57.3261 109.024 57.5383C109.573 58.3137 110.391 58.8578 111.318 59.0654C111.637 59.1339 111.965 59.1518 112.29 59.1186C111.355 59.5841 110.353 59.9026 109.32 60.0631V60.0605ZM113.421 58.2559C113.163 58.6151 112.7 58.7912 112.277 58.8462C111.322 58.9708 110.318 58.5111 109.65 57.8511C109.286 57.4922 109.01 57.0543 108.842 56.5715C109.048 56.247 109.226 55.9054 109.373 55.5506C109.715 55.548 110.057 55.5652 110.396 55.6022C111.41 55.7173 112.59 56.0748 113.264 56.8912C113.584 57.2831 113.734 57.8245 113.421 58.2644V58.2559ZM117.585 49.2463C117.885 49.7135 118.082 50.2385 118.165 50.7872C118.196 51.0043 118.209 51.2236 118.205 51.4429C118.205 51.5408 118.2 51.6388 118.19 51.7368C118.182 51.8347 118.173 51.9086 118.164 51.9654C118.094 52.356 117.981 52.7377 117.828 53.104C117.118 54.8963 115.964 56.479 114.475 57.7033C114.237 57.9009 113.987 58.0848 113.733 58.2619C114.157 57.4652 113.503 56.5939 112.823 56.1487C111.817 55.4896 110.656 55.2808 109.476 55.2747C109.756 54.4911 109.879 53.6601 109.838 52.829C109.92 52.7551 110.005 52.6846 110.096 52.6167C110.472 53.1577 110.963 53.6095 111.533 53.9402C112.291 54.3655 113.183 54.4857 114.026 54.2762C114.817 54.0802 115.557 53.5801 115.902 52.8239C116.277 52.0023 116.182 51.063 115.916 50.2131C116.163 49.7131 116.292 49.1636 116.296 48.6061C116.423 48.4756 116.542 48.3382 116.654 48.1945C117.016 48.498 117.33 48.8547 117.585 49.2524V49.2463Z" fill="#DAE1F0"/>
<path d="M159.206 30.8088L162.284 30.7599C162.502 30.7564 162.713 30.8398 162.87 30.9916C163.026 31.1434 163.116 31.3513 163.12 31.5694C163.123 31.7875 163.04 31.998 162.888 32.1547C162.736 32.3113 162.528 32.4012 162.31 32.4047L159.232 32.4528C159.018 32.4501 158.813 32.364 158.662 32.2129C158.51 32.0617 158.423 31.8574 158.42 31.6433C158.416 31.4293 158.497 31.2223 158.644 31.0665C158.79 30.9107 158.992 30.8182 159.206 30.8088V30.8088Z" fill="#11192B"/>
<path d="M147.681 30.9859L150.071 30.9481C150.421 30.942 150.712 31.3081 150.719 31.7601C150.726 32.2122 150.445 32.5868 150.096 32.592L147.706 32.6298C147.357 32.635 147.066 32.2697 147.059 31.8177C147.052 31.3657 147.331 30.991 147.681 30.9859Z" fill="#11192B"/>
<path d="M152.295 40.7851L152.391 40.5093C152.477 41.1331 152.842 41.6874 153.409 41.8627L154.791 42.2924C155.267 42.4394 155.693 42.1807 155.94 41.7656L155.971 41.922C156.158 42.8605 155.427 43.6906 154.631 43.4448L153.248 43.0151C152.421 42.7582 151.972 41.7098 152.295 40.7851Z" fill="#91A7D3"/>
<path d="M159.755 36.0612C159.767 36.8467 160.185 37.4774 160.7 37.4697C161.216 37.462 161.61 36.8183 161.598 36.0329C161.586 35.2474 161.168 34.6166 160.652 34.6244C160.136 34.6321 159.739 35.2758 159.755 36.0612Z" fill="#11192B"/>
<path d="M160.651 34.6244L159.088 34.6493L160.067 35.604L160.651 34.6244Z" fill="#11192B"/>
<path d="M148.7 36.2357C148.712 37.0211 149.134 37.651 149.646 37.6433C150.157 37.6356 150.556 36.9919 150.543 36.2065C150.531 35.421 150.114 34.7902 149.598 34.7988C149.082 34.8074 148.688 35.4494 148.7 36.2357Z" fill="#11192B"/>
<path d="M149.598 34.7988L148.033 34.8229L149.012 35.7776L149.598 34.7988Z" fill="#11192B"/>
<path d="M159.722 45.7178C159.625 46.5884 159.542 47.4554 157.665 47.7408C157.665 47.7408 154.527 48.2426 154.794 46.1862L159.722 45.7178Z" fill="white"/>
<path d="M89.7145 116.099H72.7897L72.9616 115.423L71.5861 106.501L72.3117 106.706C73.4543 107.028 76.6577 106.685 77.814 106.49L77.8028 106.436L78.329 106.365C83.0154 105.741 94.7061 104.647 102.022 107.952L101.869 108.431L102.058 107.966C104.474 109.022 105.755 111.698 105.107 114.326C104.234 117.866 102.535 125.032 100.97 133.25C100.916 133.569 100.754 133.859 100.512 134.072C100.27 134.285 99.9612 134.409 99.6384 134.422L95.4911 134.548H95.4489C95.2572 134.547 95.0677 134.506 94.8926 134.428C94.7175 134.35 94.5606 134.236 94.4319 134.094C94.2964 133.945 94.193 133.77 94.128 133.579C94.0629 133.388 94.0376 133.186 94.0536 132.986C94.4327 128.139 95.3303 123.086 96.0525 119.025C96.1384 118.539 96.2224 118.064 96.3044 117.601C96.3365 117.422 96.3305 117.239 96.2868 117.062C96.2431 116.886 96.1628 116.721 96.0509 116.578C95.9391 116.436 95.7983 116.318 95.6379 116.233C95.4774 116.148 95.3008 116.098 95.1197 116.086C93.3194 115.979 91.5142 115.983 89.7145 116.099Z" fill="#273B63"/>
<path fill-rule="evenodd" clip-rule="evenodd" d="M90.294 94.7485C90.294 94.7485 91.5629 98.6242 92.0616 100.537C92.1734 100.967 92.7236 101.41 93.1517 101.304C94.3976 100.997 95.633 100.616 96.8771 100.233C98.3431 99.7811 99.821 99.3257 101.342 98.9836C101.366 98.9669 101.391 98.9505 101.417 98.9344L101.694 98.7531C101.992 98.6079 102.296 98.46 102.611 98.4317C102.833 98.4204 103.055 98.441 103.272 98.4927L104.433 98.7118C104.625 98.7479 104.818 98.7849 105.005 98.8399C105.048 98.8477 105.086 98.8714 105.112 98.9061C105.123 98.9346 105.127 98.9659 105.121 98.9963C105.116 99.0268 105.102 99.0551 105.081 99.0779C105.041 99.1227 104.989 99.1544 104.93 99.169C104.779 99.2041 104.622 99.207 104.47 99.1776L103.796 99.0917C103.649 99.0736 103.49 99.0582 103.35 99.1372C103.333 99.1447 103.319 99.1574 103.31 99.1733C103.284 99.2275 103.353 99.2635 103.407 99.2653L104.763 99.3237C104.836 99.3293 104.909 99.3275 104.981 99.3185C105.167 99.2898 105.338 99.1716 105.505 99.0558C105.528 99.0399 105.551 99.0239 105.574 99.0083C105.677 98.9387 105.824 98.8803 105.889 98.9774C105.939 99.0521 105.897 99.169 105.843 99.2541C105.759 99.3797 105.661 99.495 105.55 99.5978C105.211 99.9313 104.862 100.25 104.501 100.554C104.392 100.655 104.269 100.74 104.136 100.807C104.011 100.855 103.878 100.877 103.745 100.87C103.612 100.864 103.481 100.83 103.362 100.771C103.229 100.713 103.104 100.638 102.979 100.563C102.879 100.503 102.779 100.443 102.674 100.391C102.438 100.274 102.174 100.2 101.908 100.276C101.781 100.313 101.63 100.349 101.484 100.343C101.071 100.544 100.651 100.749 100.227 100.956C97.556 102.263 94.6911 103.665 92.1054 104.687C90.7823 105.419 89.6474 104.068 89.5262 103.85C88.7937 102.525 87.5376 99.212 86.7003 96.1432L90.294 94.7485Z" fill="white"/>
<path fill-rule="evenodd" clip-rule="evenodd" d="M101.342 98.9836C99.821 99.3257 98.3431 99.7811 96.8771 100.233C95.633 100.616 94.3976 100.997 93.1517 101.304C92.7236 101.41 92.1734 100.967 92.0616 100.537C91.6171 98.8319 90.5605 95.5672 90.3362 94.8782C90.3089 94.7942 90.294 94.7485 90.294 94.7485L86.7003 96.1432C87.5376 99.212 88.7937 102.525 89.5262 103.85C89.6474 104.068 90.7823 105.419 92.1054 104.687C94.6911 103.665 97.556 102.263 100.227 100.956C100.651 100.749 101.071 100.544 101.484 100.343C101.63 100.349 101.781 100.313 101.908 100.276C102.174 100.2 102.438 100.274 102.674 100.391C102.779 100.443 102.879 100.503 102.979 100.563C103.104 100.638 103.229 100.713 103.362 100.771C103.481 100.83 103.612 100.864 103.745 100.87C103.878 100.877 104.011 100.855 104.136 100.807C104.269 100.74 104.392 100.655 104.501 100.554C104.862 100.25 105.211 99.9313 105.55 99.5978C105.661 99.495 105.759 99.3797 105.843 99.2541C105.897 99.169 105.939 99.0521 105.889 98.9774C105.824 98.8803 105.677 98.9387 105.574 99.0083C105.551 99.0239 105.528 99.0399 105.505 99.0558C105.338 99.1716 105.167 99.2898 104.981 99.3185C104.926 99.3254 104.87 99.328 104.815 99.3264C104.798 99.3259 104.781 99.325 104.763 99.3237L103.407 99.2653C103.353 99.2635 103.284 99.2275 103.31 99.1733C103.319 99.1574 103.333 99.1447 103.35 99.1372C103.49 99.0582 103.649 99.0736 103.796 99.0917L104.47 99.1776C104.569 99.1966 104.669 99.2021 104.769 99.1941C104.77 99.194 104.772 99.1938 104.773 99.1937C104.786 99.1927 104.798 99.1915 104.81 99.19C104.85 99.1853 104.89 99.1782 104.93 99.169C104.989 99.1544 105.041 99.1227 105.081 99.0779C105.102 99.0551 105.116 99.0268 105.121 98.9963C105.127 98.9659 105.123 98.9346 105.112 98.9061C105.086 98.8714 105.048 98.8477 105.005 98.8399C104.818 98.7849 104.625 98.7479 104.433 98.7118L103.272 98.4927C103.055 98.441 102.833 98.4204 102.611 98.4317C102.296 98.46 101.992 98.6079 101.694 98.7531L101.417 98.9344C101.391 98.9505 101.366 98.9669 101.342 98.9836ZM101.762 98.8717L101.491 99.0491L101.489 99.0499C101.465 99.065 101.442 99.0804 101.419 99.096L101.397 99.1107L101.372 99.1164C99.857 99.4571 98.3841 99.911 96.9172 100.363L96.9153 100.364C95.6727 100.747 94.4341 101.128 93.1846 101.436C92.9153 101.503 92.6289 101.395 92.4071 101.231C92.1835 101.066 91.9953 100.824 91.9297 100.571C91.6813 99.6186 91.2404 98.1744 90.8608 96.9662C90.6711 96.3626 90.497 95.8187 90.3703 95.4257C90.307 95.2292 90.2555 95.0704 90.2199 94.9608C90.2161 94.9492 90.2124 94.9381 90.209 94.9275L86.8642 96.2257C87.7 99.2563 88.9299 102.489 89.6454 103.784C89.6673 103.823 89.7513 103.938 89.8913 104.08C90.0292 104.22 90.2146 104.378 90.4343 104.508C90.8721 104.765 91.4334 104.903 92.0394 104.568L92.0471 104.564L92.0553 104.56C94.635 103.541 97.4949 102.142 100.167 100.834L100.167 100.834C100.592 100.626 101.011 100.421 101.424 100.22L101.455 100.205L101.489 100.207C101.613 100.212 101.745 100.181 101.87 100.145L101.871 100.145C102.184 100.056 102.486 100.146 102.735 100.269C102.844 100.323 102.949 100.386 103.047 100.445L103.049 100.446C103.176 100.522 103.293 100.592 103.416 100.646L103.42 100.647L103.423 100.649C103.525 100.7 103.637 100.729 103.751 100.734C103.864 100.74 103.976 100.722 104.081 100.682C104.2 100.622 104.31 100.545 104.409 100.454L104.411 100.452L104.413 100.45C104.771 100.148 105.118 99.8318 105.454 99.5008L105.456 99.4994L105.457 99.4981C105.56 99.4028 105.651 99.296 105.729 99.1798C105.75 99.1463 105.766 99.1111 105.772 99.0823C105.774 99.0743 105.775 99.0681 105.775 99.0634C105.774 99.0636 105.773 99.0638 105.772 99.064C105.74 99.0702 105.695 99.0912 105.65 99.1211C105.628 99.1363 105.606 99.1518 105.583 99.1677L105.571 99.176C105.413 99.2857 105.22 99.4196 105.002 99.4531L105 99.4534L104.998 99.4536C104.917 99.4637 104.836 99.4657 104.755 99.4596L103.402 99.4013C103.402 99.4013 103.402 99.4013 103.401 99.4013C103.352 99.3995 103.292 99.383 103.245 99.3467C103.221 99.3276 103.192 99.2971 103.177 99.2527C103.161 99.2047 103.167 99.1556 103.188 99.1132L103.19 99.1097L103.192 99.1064C103.214 99.0673 103.247 99.0359 103.287 99.0161C103.471 98.915 103.672 98.9392 103.813 98.9565L103.813 98.9566L104.492 99.0431L104.496 99.0439C104.629 99.0696 104.766 99.0671 104.898 99.0367C104.93 99.0286 104.958 99.0113 104.98 98.987L104.981 98.9864C104.983 98.9833 104.985 98.9796 104.987 98.9756C104.985 98.9748 104.982 98.9742 104.98 98.9738L104.973 98.9725L104.967 98.9705C104.787 98.9177 104.6 98.8819 104.408 98.8456L103.243 98.6259L103.24 98.6251C103.037 98.5766 102.828 98.5572 102.62 98.5675C102.338 98.5936 102.06 98.726 101.762 98.8717Z" fill="#273B63"/>
<path d="M86.6805 83.3636C87.8111 84.7154 87.6899 83.9342 88.3054 85.5851C89.479 88.732 91.679 92.6069 91.5819 94.2594C91.5131 95.4299 88.9648 96.914 87.5016 97.0601C87.3264 97.0767 87.1504 97.0368 86.9995 96.9464C86.8485 96.8559 86.7304 96.7196 86.6625 96.5574C86.4905 96.1474 86.2326 95.5553 86.0804 95.2064C86.0142 95.0569 85.948 94.9039 85.881 94.7604C84.9017 92.6576 83.9895 90.5135 82.9424 88.4441C82.1136 86.8114 82.9725 84.7197 84.2079 83.3318C84.3635 83.1563 84.5552 83.0163 84.7698 82.9215C84.9843 82.8266 85.2169 82.779 85.4515 82.7821C85.6861 82.7851 85.9173 82.8386 86.1294 82.9389C86.3415 83.0393 86.5295 83.1841 86.6805 83.3636V83.3636Z" fill="#7BE1C9"/>
<path d="M73.3958 84.2695C73.3958 84.2695 77.6601 77.3551 86.6039 83.1454C87.0261 83.4481 87.3983 83.8149 87.707 84.2325C88.1618 84.8599 87.6906 85.6496 87.7869 86.5365C87.9013 87.5943 87.5737 91.1125 87.3777 92.1756C86.7707 95.4695 87.0923 98.0622 87.0957 101.036C87.0819 102.606 87.805 106.089 87.9064 107.739C87.8334 108.276 87.4946 109.629 87.1542 109.961C86.8962 110.211 84.3987 111.884 81.222 112.171C78.1974 112.444 77.8561 110.366 72.2807 110.604C71.938 110.614 71.6042 110.494 71.3475 110.267C71.0908 110.04 70.9307 109.723 70.9 109.382C70.2319 102.669 71.5878 98.6397 72.4243 88.7304C72.3589 88.2466 72.3693 85.7759 73.3958 84.2695Z" fill="#7BE1C9"/>
<path d="M69.766 83.478C70.4005 82.9083 71.2611 82.4605 71.4709 81.633C71.6205 81.0443 71.3849 80.4299 71.354 79.8206C71.3093 78.9612 71.6841 78.1182 72.267 77.4891C72.8499 76.8601 73.6254 76.433 74.4378 76.152C74.768 76.0385 75.111 75.9432 75.3973 75.7455C75.6991 75.5367 75.9132 75.2299 76.1427 74.9429C76.8408 74.0629 78.9747 72.9861 79.396 74.771C79.733 76.2027 78.0376 76.8962 77.6197 78.0176C77.4057 78.5908 77.5578 79.25 77.8648 79.7828C78.1717 80.3156 78.6213 80.753 79.0495 81.1973C80.1078 82.2964 81.1129 83.5837 81.2676 85.0936C81.3923 86.319 80.9383 87.517 80.4784 88.6556C80.0485 89.7135 79.5679 90.4843 78.6153 91.116C77.8923 91.5955 76.9861 92.075 76.1152 92.112C74.2659 92.191 72.341 91.8542 70.8055 90.8118C69.27 89.7694 68.2022 87.9381 68.4094 86.1076C68.5285 85.0959 69.0105 84.1617 69.766 83.478V83.478Z" fill="#91A7D3"/>
<path d="M71.3368 116.291C71.2724 116.291 71.2101 116.268 71.1611 116.226C71.1121 116.184 71.0796 116.127 71.0694 116.063L69.0739 103.674C69.0625 103.603 69.0798 103.53 69.122 103.472C69.1641 103.414 69.2277 103.375 69.2987 103.363C69.3698 103.352 69.4424 103.369 69.5007 103.411C69.559 103.453 69.5981 103.517 69.6095 103.588L71.605 115.977C71.6162 116.048 71.5987 116.121 71.5565 116.179C71.5143 116.237 71.4507 116.276 71.3798 116.287C71.3656 116.29 71.3512 116.291 71.3368 116.291V116.291Z" fill="#324B7F"/>
<path d="M85.1519 116.152C85.0874 116.151 85.0251 116.128 84.9762 116.086C84.9272 116.045 84.8947 115.987 84.8845 115.923L82.889 103.534C82.8776 103.463 82.8949 103.39 82.9371 103.332C82.9793 103.274 83.0428 103.234 83.1139 103.223C83.1849 103.212 83.2575 103.229 83.3158 103.271C83.3741 103.313 83.4133 103.377 83.4247 103.448L85.4201 115.841C85.4313 115.912 85.4138 115.985 85.3716 116.043C85.3294 116.101 85.2658 116.14 85.1949 116.152C85.1806 116.153 85.1662 116.153 85.1519 116.152V116.152Z" fill="#324B7F"/>
<path d="M87.5136 97.2491C87.3263 97.2469 87.1438 97.1895 86.9889 97.0842C86.834 96.9789 86.7136 96.8303 86.6427 96.657C86.4707 96.2471 86.2128 95.6576 86.0615 95.3095L86.0237 95.2236C85.9704 95.1024 85.9179 94.9821 85.8637 94.8678C85.5319 94.1546 85.2078 93.4361 84.8828 92.7194C84.2612 91.3445 83.619 89.9214 82.9277 88.5567C82.9142 88.525 82.9132 88.4894 82.925 88.4571C82.9367 88.4247 82.9603 88.398 82.991 88.3823C83.0217 88.3667 83.0572 88.3634 83.0903 88.3729C83.1234 88.3825 83.1517 88.4042 83.1693 88.4338C83.8631 89.8088 84.5071 91.2293 85.1304 92.6077C85.4545 93.3253 85.7778 94.042 86.1096 94.7561C86.1638 94.8713 86.218 94.9942 86.2721 95.1171L86.3099 95.203C86.4638 95.5519 86.7166 96.1431 86.892 96.5539C86.9468 96.687 87.0419 96.7996 87.1641 96.8757C87.2862 96.9519 87.4292 96.9878 87.5729 96.9784C89.0551 96.8426 91.4899 95.3577 91.5526 94.3024C91.5547 94.2666 91.5709 94.2331 91.5976 94.2092C91.6244 94.1854 91.6596 94.1731 91.6954 94.1752C91.7312 94.1773 91.7647 94.1934 91.7885 94.2202C91.8124 94.2469 91.8246 94.2821 91.8226 94.3179C91.7469 95.6129 89.0938 97.1116 87.597 97.2483C87.5695 97.2483 87.542 97.2491 87.5136 97.2491Z" fill="#509283"/>
<path d="M69.3412 105.905H83.6903C84.0118 105.905 84.3296 105.837 84.623 105.706C84.9164 105.574 85.1786 105.382 85.3924 105.142C85.6063 104.902 85.767 104.62 85.8639 104.313C85.9608 104.007 85.9918 103.684 85.9548 103.364L84.305 89.1755C84.133 87.6647 82.8529 86.4255 81.4678 86.4255H67.8023C66.4173 86.4255 65.4277 87.6621 65.6031 89.1755L67.3406 104.128C67.3985 104.618 67.6342 105.069 68.003 105.397C68.3717 105.725 68.8479 105.905 69.3412 105.905V105.905Z" fill="#324B7F"/>
<path d="M68.712 105.905H82.6784C82.9753 105.906 83.2689 105.844 83.5399 105.723C83.811 105.602 84.0533 105.425 84.251 105.203C84.4486 104.982 84.597 104.721 84.6865 104.438C84.776 104.155 84.8045 103.857 84.7701 103.562L83.0937 89.1755C82.9217 87.6647 81.6407 86.4255 80.2565 86.4255H66.591C65.2059 86.4255 64.2155 87.6621 64.3918 89.1755L66.0622 103.547C66.1372 104.196 66.4486 104.796 66.9373 105.231C67.4259 105.666 68.0576 105.906 68.712 105.905V105.905Z" fill="#DAE1F0"/>
</svg>
