<svg width="980" height="8" viewBox="0 0 980 8" fill="none" xmlns="http://www.w3.org/2000/svg">
<g clip-path="url(#clip0_5_4649)">
<line x1="499.707" y1="-1.29289" x2="488.707" y2="9.70711" stroke="#337E93" stroke-width="2"/>
<line x1="505.707" y1="-1.29289" x2="494.707" y2="9.70711" stroke="#337E93" stroke-width="2"/>
<line x1="511.707" y1="-1.29289" x2="500.707" y2="9.70711" stroke="#337E93" stroke-width="2"/>
<line x1="517.707" y1="-1.29289" x2="506.707" y2="9.70711" stroke="#337E93" stroke-width="2"/>
<line x1="523.707" y1="-1.29289" x2="512.707" y2="9.70711" stroke="#337E93" stroke-width="2"/>
<line x1="529.707" y1="-1.29289" x2="518.707" y2="9.70711" stroke="#337E93" stroke-width="2"/>
<line x1="535.707" y1="-1.29289" x2="524.707" y2="9.70711" stroke="#337E93" stroke-width="2"/>
<line x1="541.707" y1="-1.29289" x2="530.707" y2="9.70711" stroke="#337E93" stroke-width="2"/>
<line x1="547.707" y1="-1.29289" x2="536.707" y2="9.70711" stroke="#337E93" stroke-width="2"/>
<line x1="553.707" y1="-1.29289" x2="542.707" y2="9.70711" stroke="#337E93" stroke-width="2"/>
<line x1="559.707" y1="-1.29289" x2="548.707" y2="9.70711" stroke="#337E93" stroke-width="2"/>
<line x1="565.707" y1="-1.29289" x2="554.707" y2="9.70711" stroke="#337E93" stroke-width="2"/>
<line x1="571.707" y1="-1.29289" x2="560.707" y2="9.70711" stroke="#337E93" stroke-width="2"/>
<line x1="577.707" y1="-1.29289" x2="566.707" y2="9.70711" stroke="#337E93" stroke-width="2"/>
<line x1="583.707" y1="-1.29289" x2="572.707" y2="9.70711" stroke="#337E93" stroke-width="2"/>
<line x1="589.707" y1="-1.29289" x2="578.707" y2="9.70711" stroke="#337E93" stroke-width="2"/>
<line x1="595.707" y1="-1.29289" x2="584.707" y2="9.70711" stroke="#337E93" stroke-width="2"/>
<line x1="601.707" y1="-1.29289" x2="590.707" y2="9.70711" stroke="#337E93" stroke-width="2"/>
<line x1="607.707" y1="-1.29289" x2="596.707" y2="9.70711" stroke="#337E93" stroke-width="2"/>
<line x1="613.707" y1="-1.29289" x2="602.707" y2="9.70711" stroke="#337E93" stroke-width="2"/>
<line x1="619.707" y1="-1.29289" x2="608.707" y2="9.70711" stroke="#337E93" stroke-width="2"/>
<line x1="625.707" y1="-1.29289" x2="614.707" y2="9.70711" stroke="#337E93" stroke-width="2"/>
<line x1="631.707" y1="-1.29289" x2="620.707" y2="9.70711" stroke="#337E93" stroke-width="2"/>
<line x1="637.707" y1="-1.29289" x2="626.707" y2="9.70711" stroke="#337E93" stroke-width="2"/>
<line x1="643.707" y1="-1.29289" x2="632.707" y2="9.70711" stroke="#337E93" stroke-width="2"/>
<line x1="649.707" y1="-1.29289" x2="638.707" y2="9.70711" stroke="#337E93" stroke-width="2"/>
<line x1="655.707" y1="-1.29289" x2="644.707" y2="9.70711" stroke="#337E93" stroke-width="2"/>
<line x1="661.707" y1="-1.29289" x2="650.707" y2="9.70711" stroke="#337E93" stroke-width="2"/>
<line x1="667.707" y1="-1.29289" x2="656.707" y2="9.70711" stroke="#337E93" stroke-width="2"/>
<line x1="673.707" y1="-1.29289" x2="662.707" y2="9.70711" stroke="#337E93" stroke-width="2"/>
<line x1="679.707" y1="-1.29289" x2="668.707" y2="9.70711" stroke="#337E93" stroke-width="2"/>
<line x1="685.707" y1="-1.29289" x2="674.707" y2="9.70711" stroke="#337E93" stroke-width="2"/>
<line x1="691.707" y1="-1.29289" x2="680.707" y2="9.70711" stroke="#337E93" stroke-width="2"/>
<line x1="697.707" y1="-1.29289" x2="686.707" y2="9.70711" stroke="#337E93" stroke-width="2"/>
<line x1="703.707" y1="-1.29289" x2="692.707" y2="9.70711" stroke="#337E93" stroke-width="2"/>
<line x1="709.707" y1="-1.29289" x2="698.707" y2="9.70711" stroke="#337E93" stroke-width="2"/>
<line x1="715.707" y1="-1.29289" x2="704.707" y2="9.70711" stroke="#337E93" stroke-width="2"/>
<line x1="721.707" y1="-1.29289" x2="710.707" y2="9.70711" stroke="#337E93" stroke-width="2"/>
<line x1="727.707" y1="-1.29289" x2="716.707" y2="9.70711" stroke="#337E93" stroke-width="2"/>
<line x1="733.707" y1="-1.29289" x2="722.707" y2="9.70711" stroke="#337E93" stroke-width="2"/>
<line x1="739.707" y1="-1.29289" x2="728.707" y2="9.70711" stroke="#337E93" stroke-width="2"/>
<line x1="745.707" y1="-1.29289" x2="734.707" y2="9.70711" stroke="#337E93" stroke-width="2"/>
<line x1="751.707" y1="-1.29289" x2="740.707" y2="9.70711" stroke="#337E93" stroke-width="2"/>
<line x1="757.707" y1="-1.29289" x2="746.707" y2="9.70711" stroke="#337E93" stroke-width="2"/>
<line x1="763.707" y1="-1.29289" x2="752.707" y2="9.70711" stroke="#337E93" stroke-width="2"/>
<line x1="769.707" y1="-1.29289" x2="758.707" y2="9.70711" stroke="#337E93" stroke-width="2"/>
<line x1="775.707" y1="-1.29289" x2="764.707" y2="9.70711" stroke="#337E93" stroke-width="2"/>
<line x1="781.707" y1="-1.29289" x2="770.707" y2="9.70711" stroke="#337E93" stroke-width="2"/>
<line x1="787.707" y1="-1.29289" x2="776.707" y2="9.70711" stroke="#337E93" stroke-width="2"/>
<line x1="793.707" y1="-1.29289" x2="782.707" y2="9.70711" stroke="#337E93" stroke-width="2"/>
<line x1="799.707" y1="-1.29289" x2="788.707" y2="9.70711" stroke="#337E93" stroke-width="2"/>
<line x1="805.707" y1="-1.29289" x2="794.707" y2="9.70711" stroke="#337E93" stroke-width="2"/>
<line x1="811.707" y1="-1.29289" x2="800.707" y2="9.70711" stroke="#337E93" stroke-width="2"/>
<line x1="817.707" y1="-1.29289" x2="806.707" y2="9.70711" stroke="#337E93" stroke-width="2"/>
<line x1="823.707" y1="-1.29289" x2="812.707" y2="9.70711" stroke="#337E93" stroke-width="2"/>
<line x1="829.707" y1="-1.29289" x2="818.707" y2="9.70711" stroke="#337E93" stroke-width="2"/>
<line x1="835.707" y1="-1.29289" x2="824.707" y2="9.70711" stroke="#337E93" stroke-width="2"/>
<line x1="841.707" y1="-1.29289" x2="830.707" y2="9.70711" stroke="#337E93" stroke-width="2"/>
<line x1="847.707" y1="-1.29289" x2="836.707" y2="9.70711" stroke="#337E93" stroke-width="2"/>
<line x1="853.707" y1="-1.29289" x2="842.707" y2="9.70711" stroke="#337E93" stroke-width="2"/>
<line x1="859.707" y1="-1.29289" x2="848.707" y2="9.70711" stroke="#337E93" stroke-width="2"/>
<line x1="865.707" y1="-1.29289" x2="854.707" y2="9.70711" stroke="#337E93" stroke-width="2"/>
<line x1="871.707" y1="-1.29289" x2="860.707" y2="9.70711" stroke="#337E93" stroke-width="2"/>
<line x1="877.707" y1="-1.29289" x2="866.707" y2="9.70711" stroke="#337E93" stroke-width="2"/>
<line x1="883.707" y1="-1.29289" x2="872.707" y2="9.70711" stroke="#337E93" stroke-width="2"/>
<line x1="889.707" y1="-1.29289" x2="878.707" y2="9.70711" stroke="#337E93" stroke-width="2"/>
<line x1="895.707" y1="-1.29289" x2="884.707" y2="9.70711" stroke="#337E93" stroke-width="2"/>
<line x1="901.707" y1="-1.29289" x2="890.707" y2="9.70711" stroke="#337E93" stroke-width="2"/>
<line x1="907.707" y1="-1.29289" x2="896.707" y2="9.70711" stroke="#337E93" stroke-width="2"/>
<line x1="913.707" y1="-1.29289" x2="902.707" y2="9.70711" stroke="#337E93" stroke-width="2"/>
<line x1="919.707" y1="-1.29289" x2="908.707" y2="9.70711" stroke="#337E93" stroke-width="2"/>
<line x1="925.707" y1="-1.29289" x2="914.707" y2="9.70711" stroke="#337E93" stroke-width="2"/>
<line x1="931.707" y1="-1.29289" x2="920.707" y2="9.70711" stroke="#337E93" stroke-width="2"/>
<line x1="937.707" y1="-1.29289" x2="926.707" y2="9.70711" stroke="#337E93" stroke-width="2"/>
<line x1="943.707" y1="-1.29289" x2="932.707" y2="9.70711" stroke="#337E93" stroke-width="2"/>
<line x1="949.707" y1="-1.29289" x2="938.707" y2="9.70711" stroke="#337E93" stroke-width="2"/>
<line x1="955.707" y1="-1.29289" x2="944.707" y2="9.70711" stroke="#337E93" stroke-width="2"/>
<line x1="961.707" y1="-1.29289" x2="950.707" y2="9.70711" stroke="#337E93" stroke-width="2"/>
<line x1="967.707" y1="-1.29289" x2="956.707" y2="9.70711" stroke="#337E93" stroke-width="2"/>
<line x1="973.707" y1="-1.29289" x2="962.707" y2="9.70711" stroke="#337E93" stroke-width="2"/>
<line x1="979.707" y1="-1.29289" x2="968.707" y2="9.70711" stroke="#337E93" stroke-width="2"/>
<line x1="985.707" y1="-1.29289" x2="974.707" y2="9.70711" stroke="#337E93" stroke-width="2"/>
<line x1="1.70711" y1="-1.29289" x2="-9.29289" y2="9.70711" stroke="#337E93" stroke-width="2"/>
<line x1="7.70711" y1="-1.29289" x2="-3.29289" y2="9.70711" stroke="#337E93" stroke-width="2"/>
<line x1="13.7071" y1="-1.29289" x2="2.70711" y2="9.70711" stroke="#337E93" stroke-width="2"/>
<line x1="19.7071" y1="-1.29289" x2="8.70711" y2="9.70711" stroke="#337E93" stroke-width="2"/>
<line x1="25.7071" y1="-1.29289" x2="14.7071" y2="9.70711" stroke="#337E93" stroke-width="2"/>
<line x1="31.7071" y1="-1.29289" x2="20.7071" y2="9.70711" stroke="#337E93" stroke-width="2"/>
<line x1="37.7071" y1="-1.29289" x2="26.7071" y2="9.70711" stroke="#337E93" stroke-width="2"/>
<line x1="43.7071" y1="-1.29289" x2="32.7071" y2="9.70711" stroke="#337E93" stroke-width="2"/>
<line x1="49.7071" y1="-1.29289" x2="38.7071" y2="9.70711" stroke="#337E93" stroke-width="2"/>
<line x1="55.7071" y1="-1.29289" x2="44.7071" y2="9.70711" stroke="#337E93" stroke-width="2"/>
<line x1="61.7071" y1="-1.29289" x2="50.7071" y2="9.70711" stroke="#337E93" stroke-width="2"/>
<line x1="67.7071" y1="-1.29289" x2="56.7071" y2="9.70711" stroke="#337E93" stroke-width="2"/>
<line x1="73.7071" y1="-1.29289" x2="62.7071" y2="9.70711" stroke="#337E93" stroke-width="2"/>
<line x1="79.7071" y1="-1.29289" x2="68.7071" y2="9.70711" stroke="#337E93" stroke-width="2"/>
<line x1="85.7071" y1="-1.29289" x2="74.7071" y2="9.70711" stroke="#337E93" stroke-width="2"/>
<line x1="91.7071" y1="-1.29289" x2="80.7071" y2="9.70711" stroke="#337E93" stroke-width="2"/>
<line x1="97.7071" y1="-1.29289" x2="86.7071" y2="9.70711" stroke="#337E93" stroke-width="2"/>
<line x1="103.707" y1="-1.29289" x2="92.7071" y2="9.70711" stroke="#337E93" stroke-width="2"/>
<line x1="109.707" y1="-1.29289" x2="98.7071" y2="9.70711" stroke="#337E93" stroke-width="2"/>
<line x1="115.707" y1="-1.29289" x2="104.707" y2="9.70711" stroke="#337E93" stroke-width="2"/>
<line x1="121.707" y1="-1.29289" x2="110.707" y2="9.70711" stroke="#337E93" stroke-width="2"/>
<line x1="127.707" y1="-1.29289" x2="116.707" y2="9.70711" stroke="#337E93" stroke-width="2"/>
<line x1="133.707" y1="-1.29289" x2="122.707" y2="9.70711" stroke="#337E93" stroke-width="2"/>
<line x1="139.707" y1="-1.29289" x2="128.707" y2="9.70711" stroke="#337E93" stroke-width="2"/>
<line x1="145.707" y1="-1.29289" x2="134.707" y2="9.70711" stroke="#337E93" stroke-width="2"/>
<line x1="151.707" y1="-1.29289" x2="140.707" y2="9.70711" stroke="#337E93" stroke-width="2"/>
<line x1="157.707" y1="-1.29289" x2="146.707" y2="9.70711" stroke="#337E93" stroke-width="2"/>
<line x1="163.707" y1="-1.29289" x2="152.707" y2="9.70711" stroke="#337E93" stroke-width="2"/>
<line x1="169.707" y1="-1.29289" x2="158.707" y2="9.70711" stroke="#337E93" stroke-width="2"/>
<line x1="175.707" y1="-1.29289" x2="164.707" y2="9.70711" stroke="#337E93" stroke-width="2"/>
<line x1="181.707" y1="-1.29289" x2="170.707" y2="9.70711" stroke="#337E93" stroke-width="2"/>
<line x1="187.707" y1="-1.29289" x2="176.707" y2="9.70711" stroke="#337E93" stroke-width="2"/>
<line x1="193.707" y1="-1.29289" x2="182.707" y2="9.70711" stroke="#337E93" stroke-width="2"/>
<line x1="199.707" y1="-1.29289" x2="188.707" y2="9.70711" stroke="#337E93" stroke-width="2"/>
<line x1="205.707" y1="-1.29289" x2="194.707" y2="9.70711" stroke="#337E93" stroke-width="2"/>
<line x1="211.707" y1="-1.29289" x2="200.707" y2="9.70711" stroke="#337E93" stroke-width="2"/>
<line x1="217.707" y1="-1.29289" x2="206.707" y2="9.70711" stroke="#337E93" stroke-width="2"/>
<line x1="223.707" y1="-1.29289" x2="212.707" y2="9.70711" stroke="#337E93" stroke-width="2"/>
<line x1="229.707" y1="-1.29289" x2="218.707" y2="9.70711" stroke="#337E93" stroke-width="2"/>
<line x1="235.707" y1="-1.29289" x2="224.707" y2="9.70711" stroke="#337E93" stroke-width="2"/>
<line x1="241.707" y1="-1.29289" x2="230.707" y2="9.70711" stroke="#337E93" stroke-width="2"/>
<line x1="247.707" y1="-1.29289" x2="236.707" y2="9.70711" stroke="#337E93" stroke-width="2"/>
<line x1="253.707" y1="-1.29289" x2="242.707" y2="9.70711" stroke="#337E93" stroke-width="2"/>
<line x1="259.707" y1="-1.29289" x2="248.707" y2="9.70711" stroke="#337E93" stroke-width="2"/>
<line x1="265.707" y1="-1.29289" x2="254.707" y2="9.70711" stroke="#337E93" stroke-width="2"/>
<line x1="271.707" y1="-1.29289" x2="260.707" y2="9.70711" stroke="#337E93" stroke-width="2"/>
<line x1="277.707" y1="-1.29289" x2="266.707" y2="9.70711" stroke="#337E93" stroke-width="2"/>
<line x1="283.707" y1="-1.29289" x2="272.707" y2="9.70711" stroke="#337E93" stroke-width="2"/>
<line x1="289.707" y1="-1.29289" x2="278.707" y2="9.70711" stroke="#337E93" stroke-width="2"/>
<line x1="295.707" y1="-1.29289" x2="284.707" y2="9.70711" stroke="#337E93" stroke-width="2"/>
<line x1="301.707" y1="-1.29289" x2="290.707" y2="9.70711" stroke="#337E93" stroke-width="2"/>
<line x1="307.707" y1="-1.29289" x2="296.707" y2="9.70711" stroke="#337E93" stroke-width="2"/>
<line x1="313.707" y1="-1.29289" x2="302.707" y2="9.70711" stroke="#337E93" stroke-width="2"/>
<line x1="319.707" y1="-1.29289" x2="308.707" y2="9.70711" stroke="#337E93" stroke-width="2"/>
<line x1="325.707" y1="-1.29289" x2="314.707" y2="9.70711" stroke="#337E93" stroke-width="2"/>
<line x1="331.707" y1="-1.29289" x2="320.707" y2="9.70711" stroke="#337E93" stroke-width="2"/>
<line x1="337.707" y1="-1.29289" x2="326.707" y2="9.70711" stroke="#337E93" stroke-width="2"/>
<line x1="343.707" y1="-1.29289" x2="332.707" y2="9.70711" stroke="#337E93" stroke-width="2"/>
<line x1="349.707" y1="-1.29289" x2="338.707" y2="9.70711" stroke="#337E93" stroke-width="2"/>
<line x1="355.707" y1="-1.29289" x2="344.707" y2="9.70711" stroke="#337E93" stroke-width="2"/>
<line x1="361.707" y1="-1.29289" x2="350.707" y2="9.70711" stroke="#337E93" stroke-width="2"/>
<line x1="367.707" y1="-1.29289" x2="356.707" y2="9.70711" stroke="#337E93" stroke-width="2"/>
<line x1="373.707" y1="-1.29289" x2="362.707" y2="9.70711" stroke="#337E93" stroke-width="2"/>
<line x1="379.707" y1="-1.29289" x2="368.707" y2="9.70711" stroke="#337E93" stroke-width="2"/>
<line x1="385.707" y1="-1.29289" x2="374.707" y2="9.70711" stroke="#337E93" stroke-width="2"/>
<line x1="391.707" y1="-1.29289" x2="380.707" y2="9.70711" stroke="#337E93" stroke-width="2"/>
<line x1="397.707" y1="-1.29289" x2="386.707" y2="9.70711" stroke="#337E93" stroke-width="2"/>
<line x1="403.707" y1="-1.29289" x2="392.707" y2="9.70711" stroke="#337E93" stroke-width="2"/>
<line x1="409.707" y1="-1.29289" x2="398.707" y2="9.70711" stroke="#337E93" stroke-width="2"/>
<line x1="415.707" y1="-1.29289" x2="404.707" y2="9.70711" stroke="#337E93" stroke-width="2"/>
<line x1="421.707" y1="-1.29289" x2="410.707" y2="9.70711" stroke="#337E93" stroke-width="2"/>
<line x1="427.707" y1="-1.29289" x2="416.707" y2="9.70711" stroke="#337E93" stroke-width="2"/>
<line x1="433.707" y1="-1.29289" x2="422.707" y2="9.70711" stroke="#337E93" stroke-width="2"/>
<line x1="439.707" y1="-1.29289" x2="428.707" y2="9.70711" stroke="#337E93" stroke-width="2"/>
<line x1="445.707" y1="-1.29289" x2="434.707" y2="9.70711" stroke="#337E93" stroke-width="2"/>
<line x1="451.707" y1="-1.29289" x2="440.707" y2="9.70711" stroke="#337E93" stroke-width="2"/>
<line x1="457.707" y1="-1.29289" x2="446.707" y2="9.70711" stroke="#337E93" stroke-width="2"/>
<line x1="463.707" y1="-1.29289" x2="452.707" y2="9.70711" stroke="#337E93" stroke-width="2"/>
<line x1="469.707" y1="-1.29289" x2="458.707" y2="9.70711" stroke="#337E93" stroke-width="2"/>
<line x1="475.707" y1="-1.29289" x2="464.707" y2="9.70711" stroke="#337E93" stroke-width="2"/>
<line x1="481.707" y1="-1.29289" x2="470.707" y2="9.70711" stroke="#337E93" stroke-width="2"/>
<line x1="487.707" y1="-1.29289" x2="476.707" y2="9.70711" stroke="#337E93" stroke-width="2"/>
<line x1="493.707" y1="-1.29289" x2="482.707" y2="9.70711" stroke="#337E93" stroke-width="2"/>
</g>
<defs>
<clipPath id="clip0_5_4649">
<rect width="980" height="8" fill="white"/>
</clipPath>
</defs>
</svg>
