<svg width="88" height="88" viewBox="0 0 88 88" fill="none" xmlns="http://www.w3.org/2000/svg">
<circle cx="44" cy="44" r="44" fill="#F1F1F1"/>
<path fill-rule="evenodd" clip-rule="evenodd" d="M77.7888 72.1853C84.1638 64.5512 88 54.7236 88 44C88 19.6995 68.3005 0 44 0C19.6995 0 0 19.6995 0 44C0 55.1887 4.17619 65.4019 11.0548 73.1661C17.3734 67.5643 25.6847 64.1579 34.7778 64.1579H55.2222C63.7695 64.1579 71.6276 67.1693 77.7888 72.1853ZM45 53.9474C32.3193 53.9474 22 43.6398 22 30.9737C22 18.3075 32.3193 8 45 8C57.6807 8 68 18.3075 68 30.9737C68 43.6398 57.6807 53.9474 45 53.9474Z" fill="#CACACA"/>
</svg>
