<svg width="27" height="24" viewBox="0 0 27 24" fill="none" xmlns="http://www.w3.org/2000/svg">
<path d="M22.0606 10.1532C21.6948 8.22995 20.8815 6.42032 19.6868 4.87132C21.036 3.25326 22.6558 1.88282 24.4738 0.82132C31.0958 16.0088 18.9572 23.0007 18.9572 23.0007H18.7496C21.6734 19.6426 22.8182 15.2213 22.0606 10.1532Z" fill="#FF93C7"/>
<path d="M3.14265 15.1309C5.98474 15.2306 8.76319 16.0015 11.2519 17.3809C10.8874 16.654 10.6068 15.8878 10.4157 15.0971C9.29334 10.4227 10.8478 4.60087 12.4978 0.168365C14.8604 0.989615 17.397 3.09899 19.1423 5.54587C20.197 6.93911 20.9154 8.55831 21.2412 10.2765C22.1054 16.0309 20.3769 20.199 17.571 23.0621L17.4475 23.1915C17.4475 23.1915 11.6111 24.1871 7.04856 22.0496C1.76772 19.5634 0.448914 15.4177 0.448914 15.4177C1.3292 15.1974 2.23581 15.1008 3.14265 15.1309Z" fill="#419FB9"/>
<path d="M19.1424 5.54592L19.047 5.41092C16.2861 9.21264 14.8308 13.8098 14.8998 18.5115C14.8979 20.1557 15.0653 21.7956 15.3993 23.4053C16.085 23.3758 16.7688 23.3101 17.4476 23.2084C17.4925 23.169 17.5318 23.1184 17.5767 23.0734C20.3827 20.199 22.1055 16.0309 21.2413 10.2765C20.9156 8.55836 20.1972 6.93916 19.1424 5.54592Z" fill="#265E6C"/>
</svg>
