<svg width="256" height="44" viewBox="0 0 256 44" fill="none" xmlns="http://www.w3.org/2000/svg">
<path d="M40.6297 18.6142C39.9558 15.0883 38.458 11.7706 36.2577 8.93077C38.7426 5.96432 41.7259 3.45185 45.074 1.50577C57.2701 29.3495 34.914 42.1679 34.914 42.1679H34.5316C39.9165 36.0114 42.025 27.9058 40.6297 18.6142Z" fill="#FF93C7"/>
<path d="M5.78796 27.7399C11.0223 27.9228 16.1395 29.3361 20.723 31.8649C20.0516 30.5323 19.5349 29.1276 19.183 27.678C17.1159 19.1083 19.9788 8.43491 23.0175 0.308655C27.3688 1.81428 32.0406 5.68147 35.2549 10.1674C37.1975 12.7217 38.5205 15.6902 39.1205 18.8402C40.7122 29.3899 37.5288 37.0315 32.361 42.2805L32.1336 42.5177C32.1336 42.5177 21.3845 44.343 12.9816 40.4243C3.25572 35.8662 0.826843 28.2658 0.826843 28.2658C2.4481 27.8618 4.11781 27.6848 5.78796 27.7399Z" fill="#419FB9"/>
<path d="M35.2551 10.1675L35.0794 9.92001C29.9946 16.8898 27.3143 25.318 27.4413 33.9378C27.4379 36.9521 27.7461 39.9586 28.3612 42.9097C29.6242 42.8557 30.8835 42.7352 32.1337 42.5488C32.2164 42.4766 32.2888 42.3838 32.3714 42.3013C37.5393 37.0316 40.7123 29.39 39.1206 18.8403C38.5207 15.6903 37.1976 12.7218 35.2551 10.1675Z" fill="#265E6C"/>
<path d="M75.6776 32.4368L74.4174 19.3933L70.0801 32.4368H65.939L61.4055 19.2252L60.3138 32.4368H56.1727L58.4116 12.6343C59.0001 12.3278 59.9512 12.047 60.6229 12.047C62.1902 12.047 63.3652 12.5216 63.8407 13.9177L68.5148 27.8273L73.2999 12.6897C73.8884 12.2981 74.671 12.047 75.4259 12.047C77.021 12.047 77.8036 12.6046 78.0572 14.5881L80.2962 32.4348H75.6776V32.4368Z" fill="#419FB9"/>
<path d="M93.558 28.3597L95.264 31.0688C93.5283 32.1584 91.5984 32.7161 89.2485 32.7161C84.7983 32.7161 82.1689 30.1177 82.1689 25.7059C82.1689 20.9026 84.9389 18.0253 89.6685 18.0253C93.2231 18.0253 95.2937 19.813 95.2937 22.7456C95.2937 25.5675 92.6921 27.2424 88.3529 27.2424C87.7367 27.2424 87.1224 27.187 86.5062 27.1297C86.8133 28.6108 87.7367 29.475 89.5556 29.475C91.1506 29.4769 92.4365 29.0854 93.558 28.3597ZM86.421 24.7013C87.065 24.7567 87.7089 24.7844 88.2954 24.7844C90.0866 24.7844 91.0931 24.114 91.0931 22.9414C91.0931 21.9922 90.4215 21.3772 89.2465 21.3772C87.6792 21.3772 86.6449 22.6052 86.421 24.7013Z" fill="#419FB9"/>
<path d="M98.4526 39.1406L96.5207 36.0399C97.3608 35.7334 97.975 34.8119 97.975 33.0519V18.3059H102.312V33.835C102.314 36.8784 100.636 38.3022 98.4526 39.1406ZM100.133 16.1267C101.617 16.1267 102.54 15.2883 102.54 13.8091C102.54 12.3576 101.617 11.5469 100.133 11.5469C98.6487 11.5469 97.7254 12.3576 97.7254 13.8091C97.7254 15.2883 98.6487 16.1267 100.133 16.1267Z" fill="#419FB9"/>
<path d="M104.493 25.3717C104.493 20.7641 107.263 18.0253 112.02 18.0253C116.778 18.0253 119.577 20.7622 119.577 25.3717C119.577 29.9812 116.779 32.718 112.02 32.718C107.261 32.718 104.493 29.9792 104.493 25.3717ZM115.182 25.3717C115.182 22.9137 114.008 21.4345 112.048 21.4345C110.088 21.4345 108.913 22.9156 108.913 25.3717C108.913 27.8297 110.088 29.2811 112.048 29.2811C114.008 29.2811 115.182 27.8297 115.182 25.3717Z" fill="#419FB9"/>
<path d="M131.938 18.4999L130.678 22.3263C130.202 22.0198 129.586 21.8241 128.914 21.8241C127.123 21.8241 126.004 23.0244 126.004 26.5166V32.4372H121.666V18.6126C122.421 18.2765 123.234 18.0253 123.989 18.0253C125.164 18.0253 125.863 19.0299 125.863 20.4833C126.899 18.668 128.326 18.0253 129.78 18.0253C130.537 18.0253 131.294 18.2211 131.938 18.4999Z" fill="#419FB9"/>
<path d="M140.672 32.7188C136.083 32.7188 133.339 29.9819 133.339 25.3447C133.339 20.7372 136.362 18.028 140.307 18.028C142.043 18.028 144.841 18.7261 145.736 21.9949L142.574 23.2525C142.209 22.1629 141.538 21.4372 140.531 21.4372C138.768 21.4372 137.734 22.8907 137.734 25.3467C137.734 27.8324 138.994 29.2839 141.035 29.2839C142.35 29.2839 143.862 28.8093 144.841 28.0835L146.212 31.0992C144.674 32.2165 142.604 32.7188 140.672 32.7188Z" fill="#265E6C"/>
<path d="M146.794 25.3697C146.794 20.7622 149.564 18.0234 154.322 18.0234C159.079 18.0234 161.879 20.7602 161.879 25.3697C161.879 29.9792 159.079 32.7161 154.322 32.7161C149.564 32.7161 146.794 29.9773 146.794 25.3697ZM157.484 25.3697C157.484 22.9117 156.309 21.4326 154.349 21.4326C152.39 21.4326 151.215 22.9137 151.215 25.3697C151.215 27.8277 152.39 29.2792 154.349 29.2792C156.309 29.2792 157.484 27.8277 157.484 25.3697Z" fill="#265E6C"/>
<path d="M177.708 23.331V32.4353H173.371V24.0844C173.371 22.4648 172.671 21.4306 171.356 21.4306C169.481 21.4306 168.306 22.4352 168.306 25.3974V32.4353H163.969V18.6107C164.724 18.2745 165.536 18.0234 166.291 18.0234C167.411 18.0234 168.11 18.9449 168.166 20.3133C169.368 18.6087 171.021 18.0234 172.755 18.0234C175.889 18.0234 177.708 19.9791 177.708 23.331Z" fill="#265E6C"/>
<path d="M194.457 14.0034L192.554 17.0764C191.352 16.238 189.699 15.6249 188.049 15.6249C186.509 15.6249 185.586 16.2953 185.586 17.3572C185.586 18.781 187.209 19.3406 189.168 20.0387C191.827 20.9879 194.962 22.1902 194.962 26.2104C194.962 30.3433 192.107 32.7183 187.266 32.7183C184.607 32.7183 182.144 31.9648 180.353 30.6241L181.78 27.4404C183.151 28.5023 185.138 29.145 187.488 29.145C189.307 29.145 190.371 28.3915 190.371 27.1339C190.371 25.542 188.748 24.9547 186.872 24.314C184.213 23.3925 180.995 22.2475 180.995 18.0019C180.995 14.1478 183.597 12.0536 187.964 12.0536C190.175 12.0497 192.525 12.6923 194.457 14.0034Z" fill="#FF93C7"/>
<path d="M209.511 23.3352V32.133C208.756 32.4672 207.971 32.7203 207.189 32.7203C206.097 32.7203 205.397 31.8265 205.314 30.5411C204.167 32.1607 202.627 32.7203 201.088 32.7203C198.262 32.7203 196.554 31.0731 196.554 28.3916C196.554 25.4313 199.045 23.699 203.44 23.699C203.999 23.699 204.587 23.699 205.175 23.7267C205.092 22.1902 204.532 21.2687 202.713 21.2687C201.482 21.2687 200.222 21.6602 199.103 22.386L197.367 19.7045C199.158 18.6149 201.09 18.0296 203.44 18.0296C207.272 18.0276 209.511 19.9833 209.511 23.3352ZM205.172 26.2104C204.583 26.1827 204.052 26.1827 203.549 26.1827C201.702 26.1827 200.666 26.8531 200.666 27.9981C200.666 28.8919 201.169 29.5346 202.289 29.5346C203.773 29.5346 205.172 28.6131 205.172 26.2104Z" fill="#FF93C7"/>
<path d="M212.558 28.6127V11.2405C213.313 10.9063 214.126 10.6532 214.881 10.6532C216.168 10.6532 216.896 11.4917 216.896 12.6643V28.2488C216.896 28.9192 217.26 29.2831 217.902 29.2831C218.35 29.2831 218.77 29.2 219.105 29.0873L219.666 31.8241C218.715 32.4391 217.734 32.7179 216.531 32.7179C214.042 32.7179 212.558 31.2388 212.558 28.6127Z" fill="#FF93C7"/>
<path d="M236.335 20.0384V32.1326C235.58 32.4668 234.768 32.7199 234.013 32.7199C232.893 32.7199 232.222 31.7984 232.139 30.4854C231.019 32.1326 229.452 32.7199 227.829 32.7199C224.694 32.7199 222.876 30.7642 222.876 27.4124V18.6146C223.63 18.2784 224.443 18.0273 225.198 18.0273C226.486 18.0273 227.213 18.8657 227.213 20.0384V26.6293C227.213 28.2765 227.912 29.2831 229.228 29.2831C230.964 29.2831 231.998 28.2785 231.998 25.3736V18.6146C232.753 18.2784 233.565 18.0273 234.32 18.0273C235.608 18.0273 236.335 18.8657 236.335 20.0384Z" fill="#FF93C7"/>
<path d="M253.181 12.664V32.1303C252.426 32.4645 251.614 32.7176 250.859 32.7176C249.767 32.7176 249.068 31.7961 248.985 30.5107C247.782 32.158 246.074 32.7176 244.368 32.7176C241.093 32.7176 238.939 30.1765 238.939 25.8459C238.939 20.9021 241.85 18.0249 246.775 18.0249C247.306 18.0249 248.036 18.0526 248.846 18.0803V11.2382C249.601 10.904 250.413 10.6509 251.168 10.6509C252.452 10.6529 253.181 11.4913 253.181 12.664ZM248.842 21.266C248.198 21.2383 247.639 21.2383 247.164 21.2383C244.814 21.2383 243.33 22.9429 243.33 25.8459C243.33 28.025 244.281 29.3084 245.989 29.3084C247.669 29.3084 248.844 28.3315 248.844 25.3693V21.266H248.842Z" fill="#FF93C7"/>
</svg>
