<svg width="42" height="32" viewBox="0 0 42 32" fill="none" xmlns="http://www.w3.org/2000/svg">
<path d="M37.6182 27.416C41.3922 23.32 41.0122 18.06 41.0002 18V12V2C41.0002 0.896 40.1062 0 39.0002 0H27.0002C24.7942 0 23.0002 1.794 23.0002 4V18C23.0002 19.104 23.8942 20 25.0002 20H27.0002H31.1562C31.1142 20.804 30.9102 21.824 30.2982 22.792C29.2822 24.394 27.3682 25.488 24.6062 26.04L23.0002 26.36V32H25.0002C30.5662 32 34.8122 30.458 37.6182 27.416ZM15.6042 27.416C19.3802 23.32 18.9982 18.06 18.9862 18V12V2C18.9862 0.896 18.0922 0 16.9862 0H4.98616C2.78016 0 0.98616 1.794 0.98616 4V18C0.98616 19.104 1.88016 20 2.98616 20H4.98616H9.14216C9.10016 20.804 8.89616 21.824 8.28416 22.792C7.26816 24.394 5.35416 25.488 2.59216 26.04L0.98616 26.36V32H2.98616C8.55216 32 12.7982 30.458 15.6042 27.416Z" fill="#CACACA"/>
</svg>
