<svg width="24" height="24" viewBox="0 0 24 24" fill="none" xmlns="http://www.w3.org/2000/svg">
<path d="M10.0833 18C11.8524 18 13.4787 17.365 14.7763 16.312L18.9891 20.708L20.3442 19.294L16.1313 14.898C17.1414 13.543 17.75 11.846 17.75 10C17.75 5.589 14.3105 2 10.0833 2C5.85608 2 2.41663 5.589 2.41663 10C2.41663 14.411 5.85608 18 10.0833 18ZM10.0833 4C13.2544 4 15.8333 6.691 15.8333 10C15.8333 13.309 13.2544 16 10.0833 16C6.91217 16 4.33329 13.309 4.33329 10C4.33329 6.691 6.91217 4 10.0833 4Z" fill="white"/>
<path d="M11.4365 8.58603C11.7997 8.96603 12 9.46802 12 10H13.9167C13.9167 8.93502 13.518 7.93102 12.7916 7.17202C11.3407 5.66002 8.82508 5.66002 7.37512 7.17202L8.72829 8.58803C9.45662 7.83003 10.712 7.83203 11.4365 8.58603Z" fill="white"/>
</svg>
